<svg xmlns="http://www.w3.org/2000/svg" viewBox="0 0 469 469"><defs><style>.cls-1,.cls-2,.cls-3{fill:none;}.cls-1{stroke:#000;}.cls-1,.cls-2{stroke-width:3px;}.cls-2{stroke:#fff;}.cls-3{stroke:#ee275e;stroke-miterlimit:10;}</style></defs><title>SmartTix</title><g id="Layer_2" data-name="Layer 2"><g id="Icons"><g id="SmartTix"><g id="SmartTix-2" data-name="SmartTix"><path class="cls-1" d="M299.76,188.48l-1.6,7.58c-.65,3-2.25,4.38-5.13,4.38H96.72c-5.3,0-8.78,3.73-8.78,9.49,0,2.35,1.69,3.85,5,5.43l11,5.33c6.08,2.89,8.74,7.25,8.74,14.07,0,17.37-8.85,27.62-24.86,27.62H72.27c-6.74,0-10-.54-10-4.17a14.24,14.24,0,0,1,.2-1.92l2.24-9.6h1.93c.2,3.3,1.7,4.27,5.43,4.27H84.53c8.07,0,13.14-5.65,13.14-13.1,0-3-1.49-4.8-4.87-6.29L80,225.92c-5-2.24-7.14-5.86-7.14-12.14,0-15.68,7.89-25.3,21-25.3Z"/><path class="cls-1" d="M180.34,211.05c8.22,0,12.6,3.29,12.6,8.5a18.13,18.13,0,0,1-.64,4.66l-8,32.06a13.87,13.87,0,0,0-.36,2c0,1.55,1.19,2.38,3.11,2.38l-.47,1.71H174.3c-2.21,0-3.39-1.08-3.39-2.91a5.71,5.71,0,0,1,.18-1.64L178.5,228a22.44,22.44,0,0,0,.73-3.85c0-2.19-1.91-3.75-5.12-3.75-5.67,0-8.78,2.57-10.25,8.15l-7.12,27.75a14.23,14.23,0,0,0-.37,2c0,1.46,1.09,2.38,2.92,2.38l-.37,1.71H146.86c-2.2,0-3.49-1-3.49-2.91a5.62,5.62,0,0,1,.29-1.64L151,228a15.83,15.83,0,0,0,.65-3.66c0-2.38-2-3.94-5.41-3.94-5.29,0-8.58,2.84-10,8.44l-6.67,27.46a11.33,11.33,0,0,0-.27,2c0,1.46,1.1,2.38,3,2.38l-.36,1.71H119.24a2.82,2.82,0,0,1-3.11-3.09,8.2,8.2,0,0,1,.18-1.37l9.51-40.28a6.38,6.38,0,0,0,.18-1.19c0-1.65-1.11-2.75-3.11-3l.36-1.73h13.63a2.3,2.3,0,0,1,2.57,2.46,4.15,4.15,0,0,1-.09,1l-.74,3.47c4.66-6.22,8.79-7.58,15.73-7.58,7.32,0,11,2.09,11.71,6.94C169,213.42,173.28,211.05,180.34,211.05Z"/><path class="cls-1" d="M214.19,236.75h8.13l-3.93,15.85a36.35,36.35,0,0,1-5.58.36c-5.77,0-8.13-.83-8.13-5.22C204.68,241.06,208.15,236.75,214.19,236.75Zm-8.6-25.05a20.13,20.13,0,0,0-.91,5.5c0,2.83,1.28,3.74,4.48,3.74h12.53c2.55,0,3.65.84,3.65,3,0,3.5-1.55,4.78-5,4.78H208.69c-10,0-17,8.93-17,22.38,0,7.88,4.1,12.1,12.33,12.1,4.37,0,7.12-.46,8.31-1.1s2.75-3.12,5.48-6.87a19.28,19.28,0,0,0-.72,4c0,2.19,1.37,3.09,4.39,3.09H233l.45-1.71c-1.82-.28-2.84-1.1-2.84-2.56a18.33,18.33,0,0,1,.65-3.39l7-29.74a18.79,18.79,0,0,0,.74-4.68c0-5.67-3.67-8.6-10.8-8.6Z"/><path class="cls-1" d="M260.44,211.7c2,0,3.11.82,3.11,2.46a6.78,6.78,0,0,1-.29,1.64l-.64,3c3.56-5.3,5.95-7.12,10.59-7.12h7l-1,4.57c-1,4.29-1.73,5.39-6.22,5.39h-5c-3.83,0-6.49,2.2-7.48,6.33l-6.77,28.28a11.45,11.45,0,0,0-.36,1.92c0,1.56,1.09,2.48,2.92,2.48l-.28,1.71H243.17a2.81,2.81,0,0,1-3.11-3,8.16,8.16,0,0,1,.27-1.92l9.42-39.64a7.15,7.15,0,0,0,.18-1.37c0-1.65-1.1-2.57-3.38-3l.36-1.73Z"/><path class="cls-1" d="M305.94,202.84l-2.1,8.86h13l-1.18,5.67c-.55,2.56-1.47,3.19-4.58,3.19h-4.38c-3.85,0-5.13.92-5.95,4.21l-5.47,22.43a12.93,12.93,0,0,0-.48,2.84c0,2.09,1.11,3.2,3.3,3.2h4.21c4,0,6.22-1.11,7.68-4.49h1.83l-3.11,10.43c-.72,2.57-2.84,3.2-6.85,3.2h-15c-4.13,0-6.49-2.56-6.49-6.22a17.08,17.08,0,0,1,.45-3.1l7.77-32.5h-4.84l1.64-6.75c7-.91,11.9-4.58,14.92-11Z"/><path class="cls-1" d="M409.91,166.68c-2,9.67-2.46,13.81-7.89,13.81H361.63L332.18,300.86a7.41,7.41,0,0,0-.32,2c0,2.14,1.39,3.41,4.05,3.63l-.42,2H321.61c-3.84,0-5.66-1.26-5.66-3.9a5.42,5.42,0,0,1,.22-1.82l29.53-122.3H305.78c-2.79,0-4.06.74-5.93,7.84h-2c3.78-15.58,4-19.09,10.84-19.09H403.3c2.77,0,4.15-.53,4.69-2.56Z"/><path class="cls-1" d="M371.68,233.79c2,0,3,.73,3,2.29a7.39,7.39,0,0,1-.18,1.28L373,243.58h-8.68c-2.48,0-3.77-1-3.77-2.75a5.83,5.83,0,0,1,.19-1.55l1.46-5.49Zm-4.21,24.85c1.65,0,2.57,1,2.57,2.9a9.56,9.56,0,0,1-.36,2.39L360.25,303a9.61,9.61,0,0,0-.27,1.91c0,1.75,1.18,2.66,3.2,2.66l-.56,1.72H349.91a3,3,0,0,1-3.29-2.91,8.6,8.6,0,0,1,.18-1.28l9.7-40a9.22,9.22,0,0,0,.28-1.92c0-1.57-.83-2.2-2.84-2.84l.45-1.72Z"/><path class="cls-1" d="M386.13,258.64c2.66,0,3.94.55,5,3l5.31,12.19,6.86-9.71a3.2,3.2,0,0,0,.63-1.83c0-1.1-.72-1.74-2.27-1.92l.45-1.72h11.52c2.66,0,3.85.55,3.85,2a3.1,3.1,0,0,1-1,2l-15.65,19.69,10,21.23c1.19,2.57,2.84,3.85,5.41,4l-.37,1.72H403.68c-2.93,0-4.39-.54-5.47-3.09l-6.78-15.1-8.59,12.17a5,5,0,0,0-1.1,2.37c0,1.11.83,1.65,2.47,1.93l-.54,1.72H370.4c-2,0-2.91-.36-2.91-1.63a4.08,4.08,0,0,1,1.27-2.47l18.56-23-8.49-17.78c-1.11-2.28-2.39-3.56-4.76-4.11l.27-1.72Z"/><polygon class="cls-1" points="299.82 290.36 57.5 290.36 60.89 277.72 303.21 277.72 299.82 290.36"/><path class="cls-2" d="M293.76,181.48l-1.6,7.58c-.65,3-2.25,4.38-5.13,4.38H90.72c-5.3,0-8.78,3.73-8.78,9.49,0,2.35,1.69,3.85,5,5.43l11,5.33c6.08,2.89,8.74,7.25,8.74,14.07,0,17.37-8.85,27.62-24.86,27.62H66.27c-6.74,0-10-.54-10-4.17a14.24,14.24,0,0,1,.2-1.92l2.24-9.6h1.93c.2,3.3,1.7,4.27,5.43,4.27H78.53c8.07,0,13.14-5.65,13.14-13.1,0-3-1.49-4.8-4.87-6.29L74,218.92c-5-2.24-7.14-5.86-7.14-12.14,0-15.68,7.89-25.3,21-25.3Z"/><path class="cls-2" d="M174.34,204.05c8.22,0,12.6,3.29,12.6,8.5a18.13,18.13,0,0,1-.64,4.66l-8,32.06a13.87,13.87,0,0,0-.36,2c0,1.55,1.19,2.38,3.11,2.38l-.47,1.71H168.3c-2.21,0-3.39-1.08-3.39-2.91a5.71,5.71,0,0,1,.18-1.64L172.5,221a22.44,22.44,0,0,0,.73-3.85c0-2.19-1.91-3.75-5.12-3.75-5.67,0-8.78,2.57-10.25,8.15l-7.12,27.75a14.23,14.23,0,0,0-.37,2c0,1.46,1.09,2.38,2.92,2.38l-.37,1.71H140.86c-2.2,0-3.49-1-3.49-2.91a5.62,5.62,0,0,1,.29-1.64L145,221a15.83,15.83,0,0,0,.65-3.66c0-2.38-2-3.94-5.41-3.94-5.29,0-8.58,2.84-10,8.44l-6.67,27.46a11.33,11.33,0,0,0-.27,2c0,1.46,1.1,2.38,3,2.38l-.36,1.71H113.24a2.82,2.82,0,0,1-3.11-3.09,8.2,8.2,0,0,1,.18-1.37l9.51-40.28a6.38,6.38,0,0,0,.18-1.19c0-1.65-1.11-2.75-3.11-3l.36-1.73h13.63a2.3,2.3,0,0,1,2.57,2.46,4.15,4.15,0,0,1-.09,1l-.74,3.47c4.66-6.22,8.79-7.58,15.73-7.58,7.32,0,11,2.09,11.71,6.94C163,206.42,167.28,204.05,174.34,204.05Z"/><path class="cls-2" d="M208.19,229.75h8.13l-3.93,15.85a36.35,36.35,0,0,1-5.58.36c-5.77,0-8.13-.83-8.13-5.22C198.68,234.06,202.15,229.75,208.19,229.75Zm-8.6-25.05a20.13,20.13,0,0,0-.91,5.5c0,2.83,1.28,3.74,4.48,3.74h12.53c2.55,0,3.65.84,3.65,3,0,3.5-1.55,4.78-5,4.78H202.69c-10,0-17,8.93-17,22.38,0,7.88,4.1,12.1,12.33,12.1,4.37,0,7.12-.46,8.31-1.1s2.75-3.12,5.48-6.87a19.28,19.28,0,0,0-.72,4c0,2.19,1.37,3.09,4.39,3.09H227l.45-1.71c-1.82-.28-2.84-1.1-2.84-2.56a18.33,18.33,0,0,1,.65-3.39l7-29.74a18.79,18.79,0,0,0,.74-4.68c0-5.67-3.67-8.6-10.8-8.6Z"/><path class="cls-2" d="M254.44,204.7c2,0,3.11.82,3.11,2.46a6.78,6.78,0,0,1-.29,1.64l-.64,3c3.56-5.3,5.95-7.12,10.59-7.12h7l-1,4.57c-1,4.29-1.73,5.39-6.22,5.39h-5c-3.83,0-6.49,2.2-7.48,6.33l-6.77,28.28a11.45,11.45,0,0,0-.36,1.92c0,1.56,1.09,2.48,2.92,2.48l-.28,1.71H237.17a2.81,2.81,0,0,1-3.11-3,8.16,8.16,0,0,1,.27-1.92l9.42-39.64a7.15,7.15,0,0,0,.18-1.37c0-1.65-1.1-2.57-3.38-3l.36-1.73Z"/><path class="cls-2" d="M299.94,195.84l-2.1,8.86h13l-1.18,5.67c-.55,2.56-1.47,3.19-4.58,3.19h-4.38c-3.85,0-5.13.92-5.95,4.21l-5.47,22.43a12.93,12.93,0,0,0-.48,2.84c0,2.09,1.11,3.2,3.3,3.2h4.21c4,0,6.22-1.11,7.68-4.49h1.83l-3.11,10.43c-.72,2.57-2.84,3.2-6.85,3.2h-15c-4.13,0-6.49-2.56-6.49-6.22a17.08,17.08,0,0,1,.45-3.1l7.77-32.5h-4.84l1.64-6.75c7-.91,11.9-4.58,14.92-11Z"/><path class="cls-2" d="M403.91,159.68c-2,9.67-2.46,13.81-7.89,13.81H355.63L326.18,293.86a7.41,7.41,0,0,0-.32,2c0,2.14,1.39,3.41,4.05,3.63l-.42,2H315.61c-3.84,0-5.66-1.26-5.66-3.9a5.42,5.42,0,0,1,.22-1.82l29.53-122.3H299.78c-2.79,0-4.06.74-5.93,7.84h-2c3.78-15.58,4-19.09,10.84-19.09H397.3c2.77,0,4.15-.53,4.69-2.56Z"/><path class="cls-2" d="M365.68,226.79c2,0,3,.73,3,2.29a7.39,7.39,0,0,1-.18,1.28L367,236.58h-8.68c-2.48,0-3.77-1-3.77-2.75a5.83,5.83,0,0,1,.19-1.55l1.46-5.49Zm-4.21,24.85c1.65,0,2.57,1,2.57,2.9a9.56,9.56,0,0,1-.36,2.39L354.25,296a9.61,9.61,0,0,0-.27,1.91c0,1.75,1.18,2.66,3.2,2.66l-.56,1.72H343.91a3,3,0,0,1-3.29-2.91,8.6,8.6,0,0,1,.18-1.28l9.7-40a9.22,9.22,0,0,0,.28-1.92c0-1.57-.83-2.2-2.84-2.84l.45-1.72Z"/><path class="cls-2" d="M380.13,251.64c2.66,0,3.94.55,5,3l5.31,12.19,6.86-9.71a3.2,3.2,0,0,0,.63-1.83c0-1.1-.72-1.74-2.27-1.92l.45-1.72h11.52c2.66,0,3.85.55,3.85,2a3.1,3.1,0,0,1-1,2l-15.65,19.69,10,21.23c1.19,2.57,2.84,3.85,5.41,4l-.37,1.72H397.68c-2.93,0-4.39-.54-5.47-3.09l-6.78-15.1-8.59,12.17a5,5,0,0,0-1.1,2.37c0,1.11.83,1.65,2.47,1.93l-.54,1.72H364.4c-2,0-2.91-.36-2.91-1.63a4.08,4.08,0,0,1,1.27-2.47l18.56-23-8.49-17.78c-1.11-2.28-2.39-3.56-4.76-4.11l.27-1.72Z"/><polygon class="cls-2" points="293.82 283.36 51.5 283.36 54.89 270.72 297.21 270.72 293.82 283.36"/></g><rect class="cls-3" x="0.5" y="0.5" width="468" height="468"/></g></g></g></svg>