<?xml version="1.0" encoding="utf-8"?>
<!-- Generator: Adobe Illustrator 23.0.1, SVG Export Plug-In . SVG Version: 6.00 Build 0)  -->
<svg version="1.1" id="Layer_1" xmlns="http://www.w3.org/2000/svg" xmlns:xlink="http://www.w3.org/1999/xlink" x="0px" y="0px"
	 viewBox="0 0 469 469" style="enable-background:new 0 0 469 469;" xml:space="preserve">
<style type="text/css">
	.st0{fill:none;stroke:#000000;stroke-width:3;stroke-miterlimit:10;}
	.st1{fill:none;stroke:#FFFFFF;stroke-width:3;stroke-miterlimit:10;}
</style>
<title>Red Feather Studios</title>
<g>
	<g id="Icons">
		<g id="Red_Feather_Studios">
			<g id="Red_Feather_Studios-2">
				<path class="st0" d="M239,59c-99.4,0-180,80.6-180,180c0,56.5,26.6,109.8,71.7,143.8c1.8-10.7,7.3-37.1,24.6-98.6
					c7.1-25.4,11.6-45.2,28.3-85.8l45.8-60.6l3.6-1.2l-84.8,235.2c0,0,54.7-129.7,64.7-148.8c13-25,27.7-55.3,49.8-76.2
					c12.7-12,38.5-21.9,38.5-21.9L194.9,305.7l79.2-122.2l52.9-68.2c0,0,12.4,72.4,7.6,83s-50.9,16.1-50.9,16.1l32.1,4.9l2.1,2.7
					l-20.3,4l13,8.2l-53,68.8l-22.1,3.3l13.9,6.7l-75.7,93.8c92.7,36,197-10,232.9-102.7s-10-197-102.7-232.9
					C283.2,63.2,261.2,59,239,59z"/>
				<path class="st1" d="M230,50c-99.4,0-180,80.6-180,180c0,56.5,26.6,109.8,71.7,143.8c1.8-10.7,7.3-37.1,24.6-98.6
					c7.1-25.4,11.6-45.2,28.3-85.8l45.8-60.6l3.6-1.2l-84.8,235.2c0,0,54.7-129.7,64.7-148.8c13-25,27.7-55.3,49.8-76.2
					c12.7-12,38.5-21.9,38.5-21.9L185.9,296.7l79.2-122.2l52.9-68.2c0,0,12.4,72.4,7.6,83s-50.9,16.1-50.9,16.1l32.1,4.9l2.1,2.7
					l-20.3,4l13,8.2l-53,68.8l-22.1,3.3l13.9,6.7l-75.7,93.8c92.7,36,197-10,232.9-102.7s-10-197-102.7-232.9
					C274.2,54.2,252.2,50,230,50z"/>
			</g>
		</g>
	</g>
</g>
</svg>
