<svg xmlns="http://www.w3.org/2000/svg" viewBox="0 0 469 469"><defs><style>.cls-1,.cls-2,.cls-3{fill:none;stroke-miterlimit:10;}.cls-1{stroke:#000;}.cls-1,.cls-2{stroke-width:3px;}.cls-2{stroke:#fff;}.cls-3{stroke:#ee275e;}</style></defs><title>Second Stage</title><g id="Layer_2" data-name="Layer 2"><g id="Icons"><g id="Second_Stage" data-name="Second Stage"><g id="Second_Stage-2" data-name="Second Stage"><path class="cls-1" d="M57.89,220.27l34.49,34.5,40.29-40.29L213.12,134s17.25-17.25,34.49,0l17.25,17.25c17.25,17.25,0,34.5,0,34.5l-80.44,80.44-5.8,5.8a48.79,48.79,0,0,0,0,69h0l138-138a48.77,48.77,0,0,0,0-69h0L264.86,82.29h0a48.79,48.79,0,0,0-69,0Z"/><rect class="cls-1" x="194.64" y="282.12" width="243.92" height="48.78" transform="translate(-124.01 313.65) rotate(-45)"/><path class="cls-2" d="M48.91,211.27l34.49,34.5,40.29-40.29L204.14,125s17.25-17.25,34.49,0l17.25,17.25c17.25,17.25,0,34.5,0,34.5l-80.44,80.44-5.8,5.8a48.79,48.79,0,0,0,0,69h0l138-138a48.79,48.79,0,0,0,0-69h0L255.88,73.29h0a48.79,48.79,0,0,0-69,0Z"/><rect class="cls-2" x="185.67" y="273.12" width="243.92" height="48.78" transform="translate(-120.27 304.66) rotate(-45)"/></g><rect class="cls-3" x="0.5" y="0.5" width="468" height="468"/></g></g></g></svg>