<svg xmlns="http://www.w3.org/2000/svg" viewBox="0 0 254.52 254.52"><defs><style>.cls-1{fill:#fff;}</style></defs><title>woofer</title><g id="Layer_2" data-name="Layer 2"><g id="krkrokit"><g id="woofer"><path class="cls-1" d="M127.26,90.77a34.61,34.61,0,1,1-34.61,34.6,34.65,34.65,0,0,1,34.61-34.6m0-3a37.61,37.61,0,1,0,37.61,37.6,37.6,37.6,0,0,0-37.61-37.6Z"/><path class="cls-1" d="M127.26,95.49a29.88,29.88,0,1,1-29.88,29.88,29.91,29.91,0,0,1,29.88-29.88m0-3a32.88,32.88,0,1,0,32.88,32.88,32.89,32.89,0,0,0-32.88-32.88Z"/><path class="cls-1" d="M127.26,47A81.06,81.06,0,1,1,46.2,128,81.15,81.15,0,0,1,127.26,47m0-3A84.06,84.06,0,1,0,211.32,128,84.06,84.06,0,0,0,127.26,44Z"/><path class="cls-1" d="M127.26,38.49A90.51,90.51,0,1,1,36.75,129a90.61,90.61,0,0,1,90.51-90.51m0-3A93.51,93.51,0,1,0,220.77,129a93.52,93.52,0,0,0-93.51-93.51Z"/><path class="cls-1" d="M127.26,20.06A106.37,106.37,0,1,1,20.89,126.43,106.49,106.49,0,0,1,127.26,20.06m0-3A109.37,109.37,0,1,0,236.63,126.43,109.37,109.37,0,0,0,127.26,17.06Z"/><path class="cls-1" d="M127.26,11.56a116.28,116.28,0,0,1,82.23,198.5A116.28,116.28,0,1,1,45,45.62a115.48,115.48,0,0,1,82.22-34.06m0-3A119.28,119.28,0,1,0,246.54,127.84,119.28,119.28,0,0,0,127.26,8.56Z"/><path class="cls-1" d="M127.26,3a124.27,124.27,0,0,1,87.87,212.13A124.26,124.26,0,1,1,39.4,39.4,123.44,123.44,0,0,1,127.26,3m0-3A127.26,127.26,0,1,0,254.52,127.26,127.26,127.26,0,0,0,127.26,0Z"/></g></g></g></svg>