<?xml version="1.0" encoding="utf-8"?>
<!-- Generator: Adobe Illustrator 23.0.1, SVG Export Plug-In . SVG Version: 6.00 Build 0)  -->
<svg version="1.1" id="Layer_1" xmlns="http://www.w3.org/2000/svg" xmlns:xlink="http://www.w3.org/1999/xlink" x="0px" y="0px"
	 viewBox="0 0 260.6 260.6" style="enable-background:new 0 0 260.6 260.6;" xml:space="preserve">
<style type="text/css">
	.st0{fill:#FFFFFF;}
</style>
<title>woofer</title>
<g>
	<g id="krkrokit">
		<g id="woofer">
			<path class="st0" d="M130.3,93.8c19.1,0,34.6,15.5,34.6,34.6S149.4,163,130.3,163s-34.6-15.5-34.6-34.6c0,0,0,0,0,0
				C95.7,109.3,111.2,93.8,130.3,93.8 M130.3,90.8c-20.8,0-37.6,16.8-37.6,37.6s16.8,37.6,37.6,37.6s37.6-16.8,37.6-37.6
				c0,0,0,0,0,0C167.9,107.6,151.1,90.8,130.3,90.8C130.3,90.8,130.3,90.8,130.3,90.8z"/>
			<path class="st0" d="M130.3,98.5c16.5,0,29.9,13.4,29.9,29.9s-13.4,29.9-29.9,29.9s-29.9-13.4-29.9-29.9l0,0
				C100.4,111.9,113.8,98.5,130.3,98.5 M130.3,95.5c-18.2,0-32.9,14.7-32.9,32.9s14.7,32.9,32.9,32.9s32.9-14.7,32.9-32.9
				c0,0,0,0,0,0C163.2,110.2,148.4,95.5,130.3,95.5z"/>
			<path class="st0" d="M130.3,50c44.8,0,81.1,36.3,81.1,81.1s-36.3,81.1-81.1,81.1s-81.1-36.3-81.1-81.1c0,0,0,0,0-0.1
				C49.3,86.3,85.6,50.1,130.3,50 M130.3,47c-46.4,0-84.1,37.6-84.1,84.1s37.6,84.1,84.1,84.1s84.1-37.6,84.1-84.1c0,0,0,0,0-0.1
				C214.3,84.6,176.7,47,130.3,47z"/>
			<path class="st0" d="M130.3,41.5c50,0,90.5,40.5,90.5,90.5s-40.5,90.5-90.5,90.5S39.8,182,39.8,132l0,0
				C39.8,82.1,80.3,41.6,130.3,41.5 M130.3,38.5c-51.6,0-93.5,41.9-93.5,93.5s41.9,93.5,93.5,93.5s93.5-41.9,93.5-93.5
				C223.8,80.4,181.9,38.5,130.3,38.5z"/>
			<path class="st0" d="M130.3,23.1c58.7,0,106.4,47.6,106.4,106.4S189,235.8,130.3,235.8S23.9,188.2,23.9,129.4
				C24,70.7,71.6,23.1,130.3,23.1 M130.3,20.1c-60.4,0-109.4,49-109.4,109.4s49,109.4,109.4,109.4s109.4-49,109.4-109.4l0,0
				C239.6,69,190.7,20.1,130.3,20.1z"/>
			<path class="st0" d="M130.3,14.6c64.2,0,116.3,52.1,116.3,116.3c0,30.8-12.2,60.4-34.1,82.2c-45.4,45.4-119,45.4-164.5,0
				S2.6,94.1,48,48.6C69.8,26.8,99.4,14.5,130.3,14.6 M130.2,11.6C64.4,11.6,11,65,11,130.9c0,65.9,53.4,119.3,119.3,119.2
				c65.9,0,119.2-53.4,119.2-119.3C249.6,65,196.2,11.6,130.2,11.6L130.2,11.6z"/>
			<path class="st0" d="M130.3,6c68.6,0,124.3,55.7,124.3,124.3c0,32.9-13.1,64.5-36.4,87.8c-48.5,48.6-127.1,48.7-175.7,0.2
				S-6.3,91.3,42.2,42.7c0.1-0.1,0.2-0.2,0.2-0.2C65.7,19,97.3,5.9,130.3,6 M130.3,3C60,3,3,60,3,130.3s57,127.3,127.3,127.3
				s127.3-57,127.3-127.3l0,0C257.5,60,200.6,3,130.3,3z"/>
		</g>
	</g>
</g>
</svg>
