<svg xmlns="http://www.w3.org/2000/svg" viewBox="0 0 469 469"><defs><style>.cls-1,.cls-2,.cls-3{fill:none;stroke-miterlimit:10;}.cls-1{stroke:#000;}.cls-1,.cls-2{stroke-width:3px;}.cls-2{stroke:#fff;}.cls-3{stroke:#ee275e;}</style></defs><title>Red Feather Studios</title><g id="Layer_2" data-name="Layer 2"><g id="Icons"><g id="Red_Feather_Studios" data-name="Red Feather Studios"><g id="Red_Feather_Studios-2" data-name="Red Feather Studios"><path class="cls-1" d="M239,59A180,180,0,0,0,130.72,382.78c1.77-10.71,7.32-37.07,24.62-98.59,7.15-25.41,11.55-45.19,28.31-85.79l45.76-60.61,3.64-1.21L148.2,371.73s54.74-129.66,64.7-148.8c13-25,27.72-55.27,49.78-76.23,12.67-12,38.49-21.89,38.49-21.89L194.9,305.72l79.19-122.2L327,115.37s12.43,72.42,7.58,83-50.91,16.06-50.91,16.06l32.12,4.85,2.12,2.72L297.59,226l13,8.18-53,68.79-22.12,3.33,13.94,6.67-75.73,93.83A180,180,0,1,0,239,59Z"/><path class="cls-2" d="M230,50A180,180,0,0,0,121.72,373.78c1.77-10.71,7.32-37.07,24.62-98.59,7.15-25.41,11.55-45.19,28.31-85.79l45.76-60.61,3.64-1.21L139.2,362.73s54.74-129.66,64.7-148.8c13-25,27.72-55.27,49.78-76.23,12.67-12,38.49-21.89,38.49-21.89L185.9,296.72l79.19-122.2L318,106.37s12.43,72.42,7.58,83-50.91,16.06-50.91,16.06l32.12,4.85,2.12,2.72L288.59,217l13,8.18-53,68.79-22.12,3.33,13.94,6.67-75.73,93.83A180,180,0,1,0,230,50Z"/></g><rect class="cls-3" x="0.5" y="0.5" width="468" height="468"/></g></g></g></svg>