<svg xmlns="http://www.w3.org/2000/svg" viewBox="0 0 125.38 113.85"><defs><style>.cls-1,.cls-2{fill:none;stroke:#000;stroke-miterlimit:10;stroke-width:5px;}.cls-1{stroke-linecap:round;}</style></defs><title>Asset 2</title><g id="Layer_2" data-name="Layer 2"><g id="Layer_1-2" data-name="Layer 1"><line class="cls-1" x1="110.5" y1="20.5" x2="2.5" y2="20.5"/><path d="M16.5,10A1.5,1.5,0,1,1,15,11.5,1.5,1.5,0,0,1,16.5,10m0-3A4.5,4.5,0,1,0,21,11.5,4.49,4.49,0,0,0,16.5,7Z"/><path d="M29.5,10A1.5,1.5,0,1,1,28,11.5,1.5,1.5,0,0,1,29.5,10m0-3A4.5,4.5,0,1,0,34,11.5,4.49,4.49,0,0,0,29.5,7Z"/><path d="M42.5,10A1.5,1.5,0,1,1,41,11.5,1.5,1.5,0,0,1,42.5,10m0-3A4.5,4.5,0,1,0,47,11.5,4.49,4.49,0,0,0,42.5,7Z"/><polygon class="cls-2" points="97 106.35 103.4 100.19 109.18 110.5 116.03 106.88 111.19 97.35 119.5 97.13 96.86 74.5 97 106.35"/><path class="cls-1" d="M96.94,92.5H7.5a5,5,0,0,1-5-5V7.5a5,5,0,0,1,5-5h98a5,5,0,0,1,5,5v80"/></g></g></svg>