<svg xmlns="http://www.w3.org/2000/svg" viewBox="0 0 115.49 115.49"><defs><style>.cls-1{fill:none;stroke:#fff;stroke-linecap:round;stroke-miterlimit:10;stroke-width:5px;}</style></defs><title>pencilruler</title><g id="Layer_2" data-name="Layer 2"><g id="icons"><g id="pencilruler"><polyline class="cls-1" points="75.95 57.54 111.95 93.54 93.95 111.54 57.95 75.54"/><polyline class="cls-1" points="39.95 57.54 3.95 21.54 21.95 3.54 57.95 39.54"/><line class="cls-1" x1="30.95" y1="12.54" x2="21.95" y2="21.54"/><line class="cls-1" x1="102.95" y1="84.54" x2="93.95" y2="93.54"/><line class="cls-1" x1="48.95" y1="30.54" x2="39.95" y2="39.54"/><line class="cls-1" x1="84.95" y1="66.54" x2="75.95" y2="75.54"/><path class="cls-1" d="M13,84.54l-9,27,27-9,77.27-77.28a12.7,12.7,0,0,0,3.73-9h0A12.72,12.72,0,0,0,99.22,3.54h0a12.76,12.76,0,0,0-9,3.72Z"/><line class="cls-1" x1="90.22" y1="7.26" x2="108.22" y2="25.26"/><line class="cls-1" x1="12.95" y1="84.54" x2="30.95" y2="102.54"/></g></g></g></svg>