<?xml version="1.0" encoding="utf-8"?>
<!-- Generator: Adobe Illustrator 23.0.1, SVG Export Plug-In . SVG Version: 6.00 Build 0)  -->
<svg version="1.1" id="Layer_1" xmlns="http://www.w3.org/2000/svg" xmlns:xlink="http://www.w3.org/1999/xlink" x="0px" y="0px"
	 viewBox="0 0 323.5 129.6" style="enable-background:new 0 0 323.5 129.6;" xml:space="preserve">
<style type="text/css">
	.st0{stroke:#000000;stroke-linejoin:round;stroke-miterlimit:10;}
</style>
<title>arr-right</title>
<g>
	<path class="st0" d="M70.9,37.8c0,3.4,3.1,5.7,9.2,6.7c3.7,0.7,6.4,1.8,8.1,3.4c1.7,1.6,2.5,3.8,2.5,6.6c0,1.4-0.3,2.7-0.9,3.9
		c-0.6,1.2-1.4,2.3-2.5,3.2c-1.1,0.9-2.3,1.6-3.8,2.2c-1.5,0.5-3.1,0.8-4.8,0.8c-2,0-3.7-0.3-5.2-0.8c-1.5-0.6-2.8-1.3-3.9-2.3
		c-1.1-1-2-2.1-2.7-3.5c-0.7-1.3-1.2-2.7-1.6-4.3l3.6-1.8c0.2,1.3,0.6,2.5,1.1,3.6c0.5,1.1,1.2,2.1,2,2.9c0.8,0.8,1.8,1.4,2.9,1.9
		c1.1,0.4,2.3,0.7,3.7,0.7c2.4,0,4.4-0.6,5.8-1.8c1.4-1.2,2.1-2.7,2.1-4.6c0-1-0.2-1.9-0.5-2.7c-0.3-0.7-0.8-1.4-1.5-1.9
		c-0.7-0.5-1.6-1-2.7-1.4c-1.1-0.4-2.4-0.7-4-0.9c-3.5-0.6-6.2-1.7-8.2-3.4c-2-1.7-2.9-4-2.9-6.8c0-1.3,0.3-2.5,0.8-3.6
		c0.5-1.1,1.3-2.1,2.3-2.9c1-0.8,2.2-1.4,3.5-1.9c1.4-0.4,2.9-0.7,4.5-0.7c3.2,0,5.8,0.8,7.8,2.3c2,1.5,3.4,3.6,4.3,6.1l-3.3,2
		c-0.7-2.3-1.8-4-3.3-5.2c-1.5-1.1-3.4-1.7-5.6-1.7c-1,0-1.9,0.1-2.8,0.3c-0.9,0.2-1.6,0.6-2.3,1.1c-0.6,0.5-1.2,1.1-1.5,1.8
		C71.1,36.1,70.9,36.9,70.9,37.8z"/>
	<path class="st0" d="M99.7,52.4c0.1,1.3,0.3,2.5,0.7,3.6c0.4,1.1,1,2.1,1.7,2.9c0.7,0.8,1.6,1.4,2.6,1.9c1,0.5,2.2,0.7,3.4,0.7
		c1.2,0,2.2-0.2,3-0.5c0.8-0.3,1.6-0.7,2.2-1.3c0.6-0.5,1.2-1.2,1.7-1.9c0.5-0.7,0.9-1.5,1.3-2.3l2.8,1.6c-0.5,1.1-1.1,2.1-1.8,3
		c-0.7,0.9-1.5,1.7-2.4,2.4c-0.9,0.7-1.9,1.2-3.1,1.6c-1.1,0.4-2.4,0.6-3.9,0.6c-1.8,0-3.4-0.3-4.8-1c-1.5-0.6-2.7-1.5-3.8-2.7
		c-1.1-1.1-1.9-2.5-2.5-4.1c-0.6-1.6-0.9-3.3-0.9-5.2c0-1.9,0.3-3.6,0.9-5.2c0.6-1.6,1.5-3,2.6-4.1s2.4-2,3.8-2.7
		c1.5-0.6,3.1-1,4.8-1c1.9,0,3.5,0.3,5,1c1.4,0.6,2.6,1.5,3.6,2.7c1,1.1,1.7,2.5,2.2,4c0.5,1.6,0.7,3.2,0.7,5v1H99.7z M108.2,42.1
		c-2.2,0-4,0.7-5.6,2c-1.5,1.3-2.4,3.1-2.7,5.2h16c-0.1-1.2-0.3-2.2-0.8-3.1c-0.4-0.9-1-1.6-1.7-2.3c-0.7-0.6-1.5-1.1-2.4-1.4
		C110.1,42.2,109.2,42.1,108.2,42.1z"/>
	<path class="st0" d="M129.6,52.4c0.1,1.3,0.3,2.5,0.7,3.6c0.4,1.1,1,2.1,1.7,2.9c0.7,0.8,1.6,1.4,2.6,1.9c1,0.5,2.2,0.7,3.4,0.7
		c1.2,0,2.2-0.2,3-0.5c0.8-0.3,1.6-0.7,2.2-1.3c0.6-0.5,1.2-1.2,1.7-1.9c0.5-0.7,0.9-1.5,1.3-2.3l2.8,1.6c-0.5,1.1-1.1,2.1-1.8,3
		c-0.7,0.9-1.5,1.7-2.4,2.4c-0.9,0.7-1.9,1.2-3.1,1.6c-1.1,0.4-2.4,0.6-3.9,0.6c-1.8,0-3.4-0.3-4.8-1c-1.5-0.6-2.7-1.5-3.8-2.7
		c-1.1-1.1-1.9-2.5-2.5-4.1c-0.6-1.6-0.9-3.3-0.9-5.2c0-1.9,0.3-3.6,0.9-5.2c0.6-1.6,1.5-3,2.6-4.1s2.4-2,3.8-2.7
		c1.5-0.6,3.1-1,4.8-1c1.9,0,3.5,0.3,5,1c1.4,0.6,2.6,1.5,3.6,2.7c1,1.1,1.7,2.5,2.2,4c0.5,1.6,0.7,3.2,0.7,5v1H129.6z M138.1,42.1
		c-2.2,0-4,0.7-5.6,2c-1.5,1.3-2.4,3.1-2.7,5.2h16c-0.1-1.2-0.3-2.2-0.8-3.1c-0.4-0.9-1-1.6-1.7-2.3c-0.7-0.6-1.5-1.1-2.4-1.4
		C139.9,42.2,139,42.1,138.1,42.1z"/>
	<path class="st0" d="M205.3,64.1c-0.5-0.5-0.8-1.2-1.1-2s-0.4-1.8-0.4-2.9c-0.8,1.8-2,3.1-3.6,4.1c-1.6,1-3.4,1.5-5.3,1.5
		c-2.6,0-4.6-0.7-6.1-2.1c-1.5-1.4-2.3-3.3-2.3-5.5c0-1.1,0.2-2.1,0.6-3.1c0.4-0.9,1-1.7,1.8-2.3c0.7-0.6,1.6-1.2,2.7-1.6
		c1-0.4,2.2-0.7,3.4-0.9l8.8-1.3v-1c0-1.8-0.5-3-1.6-3.8c-1.1-0.8-2.5-1.1-4.4-1.1c-2,0-3.6,0.4-4.7,1.1c-1.1,0.7-1.6,1.6-1.6,2.7
		c0,0.1,0,0.2,0,0.3c0,0.1,0,0.2,0.1,0.4l-3.4,1.2c-0.3-0.6-0.4-1.3-0.4-2c0-0.9,0.2-1.8,0.7-2.7c0.5-0.8,1.1-1.6,2-2.2
		c0.9-0.6,1.9-1.2,3.2-1.5c1.2-0.4,2.6-0.6,4.1-0.6c3.2,0,5.7,0.7,7.4,2.1c1.7,1.4,2.5,3.4,2.5,5.9v11.1c0,0.7,0,1.3,0.1,1.9
		c0,0.5,0.1,1.1,0.3,1.5c0.1,0.5,0.3,0.9,0.5,1.4c0.2,0.4,0.5,0.9,0.8,1.4H205.3z M195.2,61.3c1.3,0,2.5-0.3,3.6-0.8
		c1.1-0.5,2-1.2,2.7-2.1c0.7-0.9,1.3-1.9,1.7-3.1c0.4-1.1,0.6-2.3,0.6-3.6V51l-8.1,1.3c-1.7,0.3-3,0.8-3.9,1.6
		c-0.9,0.8-1.3,1.9-1.3,3.1c0,1.3,0.4,2.3,1.3,3.1C192.5,60.9,193.7,61.3,195.2,61.3z"/>
	<path class="st0" d="M217.3,29.4h12.1v31.5h8.9v3.2h-21.6v-3.2h8.9V32.5h-8.2V29.4z"/>
	<path class="st0" d="M247.1,29.4h12.1v31.5h8.9v3.2h-21.6v-3.2h8.9V32.5h-8.2V29.4z"/>
	<path class="st0" d="M66.4,91.6h3.9V96c1-1.6,2.2-2.8,3.7-3.7c1.5-0.9,3.2-1.4,5.1-1.4c1.7,0,3.2,0.3,4.6,1
		c1.4,0.6,2.6,1.5,3.6,2.7c1,1.1,1.8,2.5,2.3,4.1c0.5,1.6,0.8,3.3,0.8,5.2c0,1.9-0.3,3.6-0.8,5.2c-0.6,1.6-1.3,3-2.4,4.1
		c-1,1.1-2.2,2-3.6,2.7c-1.4,0.6-3,1-4.6,1c-2,0-3.7-0.4-5.3-1.3c-1.5-0.9-2.7-2-3.4-3.3v14.1h-3.9V91.6z M78.2,94.4
		c-1.2,0-2.2,0.2-3.2,0.6c-1,0.4-1.9,1.1-2.6,1.9c-0.7,0.8-1.3,1.8-1.7,3c-0.4,1.2-0.6,2.5-0.6,3.9c0,1.5,0.2,2.8,0.6,3.9
		c0.4,1.2,1,2.2,1.7,3c0.7,0.8,1.6,1.4,2.6,1.9c1,0.4,2.1,0.6,3.2,0.6c1.2,0,2.2-0.2,3.2-0.6c1-0.4,1.9-1,2.6-1.9
		c0.7-0.8,1.3-1.8,1.8-3c0.4-1.2,0.6-2.5,0.6-3.9c0-1.5-0.2-2.8-0.6-3.9c-0.4-1.2-1-2.2-1.8-3c-0.7-0.8-1.6-1.4-2.6-1.9
		C80.4,94.7,79.3,94.4,78.2,94.4z"/>
	<path class="st0" d="M113.8,99c0.1-0.4,0.1-0.8,0.1-1.1c0-1.2-0.5-2.1-1.4-2.7c-1-0.6-2.1-0.9-3.3-0.9c-2,0-3.6,0.8-4.9,2.5
		c-1.3,1.7-1.9,4.1-1.9,7.2v12.3h-3.9V91.6h3.9v4c0.3-0.5,0.6-1.1,1.1-1.6c0.4-0.6,1-1.1,1.6-1.5c0.6-0.4,1.4-0.8,2.2-1.1
		c0.8-0.3,1.8-0.4,2.9-0.4c1.2,0,2.2,0.2,3.2,0.5c0.9,0.3,1.7,0.8,2.4,1.4c0.7,0.6,1.2,1.3,1.5,2.1c0.4,0.8,0.5,1.7,0.5,2.6
		c0,1-0.2,1.9-0.6,2.9L113.8,99z"/>
	<path class="st0" d="M150.3,103.9c0,2.2-0.3,4-1,5.7c-0.7,1.6-1.6,3-2.8,4.1c-1.2,1.1-2.5,1.9-4,2.5c-1.5,0.5-3.1,0.8-4.7,0.8
		c-1.7,0-3.2-0.3-4.7-0.8c-1.5-0.5-2.8-1.4-4-2.5c-1.2-1.1-2.1-2.4-2.8-4.1c-0.7-1.6-1-3.5-1-5.7c0-2.1,0.3-4,1-5.7
		c0.7-1.6,1.6-3,2.8-4.1c1.2-1.1,2.5-1.9,4-2.5c1.5-0.5,3.1-0.8,4.7-0.8c1.6,0,3.2,0.3,4.7,0.8c1.5,0.5,2.8,1.4,4,2.5
		c1.2,1.1,2.1,2.4,2.8,4.1C150,99.8,150.3,101.7,150.3,103.9z M137.9,113.4c1.2,0,2.4-0.2,3.4-0.6c1-0.4,1.9-1.1,2.7-1.9
		c0.7-0.8,1.3-1.8,1.8-3c0.4-1.2,0.6-2.5,0.6-4c0-1.5-0.2-2.8-0.6-4c-0.4-1.2-1-2.2-1.8-3c-0.7-0.8-1.6-1.5-2.7-1.9
		c-1-0.4-2.2-0.6-3.4-0.6s-2.4,0.2-3.4,0.6c-1,0.4-1.9,1.1-2.7,1.9c-0.7,0.8-1.3,1.8-1.8,3c-0.4,1.2-0.6,2.5-0.6,4
		c0,1.5,0.2,2.8,0.6,4c0.4,1.2,1,2.2,1.8,3c0.7,0.8,1.6,1.5,2.7,1.9C135.5,113.2,136.6,113.4,137.9,113.4z"/>
	<path class="st0" d="M161.4,91.6h12.1v27c0,2.6-0.7,4.6-2.2,6c-1.5,1.4-3.5,2.1-6.1,2.1c-1.2,0-2.2-0.2-3.2-0.5
		c-1-0.3-1.8-0.7-2.5-1.3c-0.7-0.5-1.2-1.2-1.6-1.9c-0.4-0.7-0.6-1.5-0.6-2.3c0-0.4,0-0.8,0.1-1.2c0.1-0.4,0.2-0.8,0.5-1.2l3.3,1.3
		c-0.1,0.3-0.1,0.5-0.1,0.7c0,0.8,0.4,1.4,1.2,2c0.8,0.6,1.7,0.8,2.9,0.8c1.5,0,2.6-0.3,3.4-1c0.8-0.7,1.1-1.9,1.1-3.7V94.6h-8.2
		V91.6z M169,82.2h5.2v5.3H169V82.2z"/>
	<path class="st0" d="M189.3,104.5c0.1,1.3,0.3,2.5,0.7,3.6c0.4,1.1,1,2.1,1.7,2.9c0.7,0.8,1.6,1.4,2.6,1.9c1,0.5,2.2,0.7,3.4,0.7
		c1.2,0,2.2-0.2,3-0.5c0.8-0.3,1.6-0.7,2.2-1.3c0.6-0.5,1.2-1.2,1.7-1.9c0.5-0.7,0.9-1.5,1.3-2.3l2.8,1.6c-0.5,1.1-1.1,2.1-1.8,3
		c-0.7,0.9-1.5,1.7-2.4,2.4c-0.9,0.7-1.9,1.2-3.1,1.6c-1.1,0.4-2.4,0.6-3.9,0.6c-1.8,0-3.4-0.3-4.8-1c-1.5-0.6-2.7-1.5-3.8-2.7
		c-1.1-1.1-1.9-2.5-2.5-4.1c-0.6-1.6-0.9-3.3-0.9-5.2c0-1.9,0.3-3.6,0.9-5.2c0.6-1.6,1.5-3,2.6-4.1c1.1-1.1,2.4-2,3.8-2.7
		c1.5-0.6,3.1-1,4.8-1c1.9,0,3.5,0.3,5,1c1.4,0.6,2.6,1.5,3.6,2.7c1,1.1,1.7,2.5,2.2,4c0.5,1.6,0.7,3.2,0.7,5v1H189.3z M197.8,94.1
		c-2.2,0-4,0.7-5.6,2c-1.5,1.3-2.4,3.1-2.7,5.2h16c-0.1-1.2-0.3-2.2-0.8-3.1c-0.4-0.9-1-1.6-1.7-2.3c-0.7-0.6-1.5-1.1-2.4-1.4
		C199.7,94.3,198.7,94.1,197.8,94.1z"/>
	<path class="st0" d="M239.3,109.4c-1,2.2-2.4,4.1-4.2,5.4c-1.8,1.4-4.1,2-6.8,2c-1.8,0-3.5-0.3-5-0.9c-1.5-0.6-2.9-1.5-4-2.7
		c-1.1-1.1-2-2.5-2.6-4.1c-0.6-1.6-0.9-3.4-0.9-5.3c0-1.9,0.3-3.6,1-5.2c0.6-1.6,1.5-3,2.7-4.1c1.1-1.1,2.5-2,4-2.7
		c1.5-0.6,3.1-1,4.9-1c2.8,0,5.1,0.6,6.9,1.9c1.8,1.3,3.2,3,4,5.2l-3.1,1.9c-0.7-1.9-1.8-3.3-3.2-4.2c-1.4-0.9-2.9-1.4-4.6-1.4
		c-1.2,0-2.4,0.2-3.4,0.7c-1.1,0.4-2,1.1-2.8,1.9c-0.8,0.8-1.4,1.8-1.8,3c-0.4,1.2-0.7,2.5-0.7,3.9c0,1.5,0.2,2.8,0.6,3.9
		c0.4,1.2,1,2.2,1.8,3c0.8,0.8,1.7,1.5,2.8,1.9c1.1,0.4,2.2,0.7,3.5,0.7c2,0,3.7-0.5,4.9-1.5c1.2-1,2.3-2.4,3.2-4.2L239.3,109.4z"/>
	<path class="st0" d="M246.2,91.6h6.6v-6.6h3.9v6.6h8.6v3.1h-8.6v13.7c0,1.9,0.4,3.2,1.3,4c0.9,0.8,2,1.1,3.3,1.1
		c0.7,0,1.3-0.1,2-0.3c0.7-0.2,1.4-0.6,2.2-1.2l1.4,2.9c-1.7,1.3-3.8,2-6.4,2c-2.3,0-4.2-0.7-5.6-2.1c-1.4-1.4-2.1-3.6-2.1-6.6V94.6
		h-6.6V91.6z"/>
	<path class="st0" d="M281.2,97.6c0,1.1,0.5,2,1.6,2.8c1.1,0.8,2.9,1.3,5.5,1.6c2.9,0.3,5.1,1,6.7,2.1c1.6,1.1,2.4,2.8,2.4,5
		c0,1.2-0.2,2.3-0.7,3.2c-0.5,1-1.2,1.8-2,2.5c-0.9,0.7-1.9,1.2-3.1,1.5c-1.2,0.4-2.5,0.5-3.9,0.5c-1.5,0-2.8-0.2-4-0.5
		c-1.2-0.4-2.3-0.9-3.3-1.5c-1-0.6-1.8-1.4-2.5-2.2c-0.7-0.8-1.2-1.7-1.6-2.7l3.2-2c0.6,1.7,1.6,3,3,4c1.4,1,3,1.5,4.9,1.5
		c1.8,0,3.2-0.3,4.4-1s1.7-1.8,1.7-3.2c0-1.4-0.6-2.3-1.7-3c-1.2-0.6-2.9-1.1-5.3-1.3c-2.8-0.3-5-1.1-6.5-2.3
		c-1.5-1.2-2.3-2.8-2.3-4.8c0-1.1,0.2-2.1,0.7-3c0.5-0.9,1.2-1.6,2-2.2c0.8-0.6,1.8-1,2.9-1.3c1.1-0.3,2.2-0.4,3.4-0.4
		c2.7,0,4.8,0.6,6.4,1.7c1.6,1.2,2.8,2.7,3.7,4.7l-3.1,1.8c-0.8-1.7-1.7-3-2.9-3.7c-1.2-0.8-2.6-1.2-4.2-1.2c-0.7,0-1.4,0.1-2,0.2
		c-0.7,0.1-1.2,0.3-1.7,0.6c-0.5,0.3-0.9,0.6-1.2,1.1C281.3,96.5,281.2,97,281.2,97.6z"/>
	<path class="st0" d="M314,110h6.1v6.2H314V110z"/>
</g>
<polygon class="st0" points="18.9,19 4,19 4,29.5 18.9,29.5 18.9,44.5 29.4,44.5 29.4,29.5 44.3,29.5 44.3,19 29.4,19 29.4,4.1 
	18.9,4.1 "/>
</svg>
