<svg xmlns="http://www.w3.org/2000/svg" viewBox="0 0 134.84 122"><defs><style>.cls-1,.cls-2{fill:none;stroke:#000;stroke-miterlimit:10;stroke-width:5px;}.cls-2{stroke-linecap:round;}</style></defs><title>volume</title><g id="Layer_2" data-name="Layer 2"><g id="Icons"><g id="volume"><path class="cls-1" d="M69.79,3.67,35.93,35.93H19.21C2.5,35.93,2.5,52.64,2.5,52.64V69.36c0,14.24,16.71,16.71,16.71,16.71H35.93l33.86,32.26c2.92,2.5,7.92.73,7.92-2.79V6.46C77.71,2.94,72.71,1.17,69.79,3.67Z"/><path class="cls-2" d="M86.07,44.67A17.42,17.42,0,0,1,97.54,61h0A17.42,17.42,0,0,1,86.07,77.4"/><path class="cls-2" d="M98.72,31.94A34.11,34.11,0,0,1,114.94,61h0A34.1,34.1,0,0,1,98.77,90.09"/><path class="cls-2" d="M111.37,19.21a52.11,52.11,0,0,1,21,41.82h0a52.1,52.1,0,0,1-20.88,41.76"/></g></g></g></svg>