<svg xmlns="http://www.w3.org/2000/svg" viewBox="0 0 864 360"><defs><style>.cls-1{fill:#fff;opacity:0;}.cls-2,.cls-4{fill:none;stroke-miterlimit:10;stroke-width:3px;}.cls-2{stroke:#ee275e;}.cls-3{fill:#ee275e;}.cls-4{stroke:#000;}</style></defs><title>Asset 2</title><g id="Layer_2" data-name="Layer 2"><g id="Ears"><rect class="cls-1" width="864" height="360"/><path class="cls-2" d="M238.86,121.59S248.12,72,300.27,72C349.36,72,369,101.45,369,140.73s-11.25,45.69-29.45,68.72S310.09,288,280.64,288s-29.46-29.45-29.46-29.45"/><path class="cls-2" d="M171.11,145c15.29,4.16,33.44,15.43,36.59,45.26,3.12,29.58-12,44.4-26,51.72"/><path class="cls-2" d="M179.24,119.56c23,6.25,50.25,23.19,55,68,4.69,44.45-18,66.72-39,77.73"/><path class="cls-2" d="M161.2,168.37c8.35,2.28,18.27,8.44,20,24.74s-6.55,24.26-14.19,28.26"/><path class="cls-2" d="M339.55,150.55c8.24-32.72-14.41-49.1-39.28-49.1S263.19,113.1,261,140.73c-3,30.49,19.64,29.45,19.64,49.09s-13.86,27.4-9.82,39.27,35.59,8.83,29.45-9.82c-4.66-14.15-14.1-23.22-21.66-38.57"/><path class="cls-3" d="M278.54,180.7c7.56,15.35,17,24.42,21.67,38.57,6.14,18.65-25.42,21.69-29.46,9.82s9.82-19.64,9.82-39.27Z"/><path class="cls-2" d="M73.06,287.81s48.36,2.11,59.88-14.33.12-26.11-.12-34.88,13.54-7.46,12.09-17.27-16.55-7.17-19.27-18.57,15.16-20.74,14-28.84-9.36-4.25-11.33-14.44,21.56-20.88,19-38.85-44.94-23.1-47.66-34.5"/><path class="cls-4" d="M661.86,121.59S671.12,72,723.27,72C772.36,72,792,101.45,792,140.73s-11.25,45.69-29.45,68.72S733.09,288,703.64,288s-29.46-29.45-29.46-29.45"/><path class="cls-4" d="M594.11,145c15.29,4.16,33.44,15.43,36.59,45.26,3.12,29.58-12,44.4-26,51.72"/><path class="cls-4" d="M602.24,119.56c23,6.25,50.25,23.19,55,68,4.69,44.45-18,66.72-39,77.73"/><path class="cls-4" d="M584.2,168.37c8.35,2.28,18.27,8.44,20,24.74s-6.55,24.26-14.19,28.26"/><path class="cls-4" d="M762.55,150.55c8.24-32.72-14.41-49.1-39.28-49.1S686.19,113.1,684,140.73c-3,30.49,19.64,29.45,19.64,49.09s-13.86,27.4-9.82,39.27,35.59,8.83,29.45-9.82c-4.66-14.15-14.1-23.22-21.66-38.57"/><path d="M701.54,180.7c7.56,15.35,17,24.42,21.67,38.57,6.14,18.65-25.42,21.69-29.46,9.82s9.82-19.64,9.82-39.27Z"/><path class="cls-4" d="M496.06,287.81s48.36,2.11,59.88-14.33.12-26.11-.12-34.88,13.54-7.46,12.09-17.27-16.55-7.17-19.27-18.57,15.16-20.74,14-28.84-9.36-4.25-11.33-14.44,21.56-20.88,19-38.85-44.94-23.1-47.66-34.5"/></g></g></svg>