<?xml version="1.0" encoding="utf-8"?>
<!-- Generator: Adobe Illustrator 23.0.1, SVG Export Plug-In . SVG Version: 6.00 Build 0)  -->
<svg version="1.1" id="Layer_1" xmlns="http://www.w3.org/2000/svg" xmlns:xlink="http://www.w3.org/1999/xlink" x="0px" y="0px"
	 viewBox="0 0 864 360" style="enable-background:new 0 0 864 360;" xml:space="preserve">
<style type="text/css">
	.st0{fill:none;stroke:#EE275E;stroke-width:3;stroke-miterlimit:10;}
	.st1{fill:#EE275E;}
	.st2{fill:none;stroke:#000000;stroke-width:3;stroke-miterlimit:10;}
</style>
<title>Asset 2</title>
<g>
	<g id="Ears">
		<path class="st0" d="M238.9,121.6c0,0,9.3-49.6,61.4-49.6c49.1,0,68.7,29.4,68.7,68.7s-11.2,45.7-29.5,68.7S310.1,288,280.6,288
			s-29.5-29.5-29.5-29.5"/>
		<path class="st0" d="M171.1,145c15.3,4.2,33.4,15.4,36.6,45.3c3.1,29.6-12,44.4-26,51.7"/>
		<path class="st0" d="M179.2,119.6c23,6.2,50.2,23.2,55,68c4.7,44.4-18,66.7-39,77.7"/>
		<path class="st0" d="M161.2,168.4c8.4,2.3,18.3,8.4,20,24.7s-6.6,24.3-14.2,28.3"/>
		<path class="st0" d="M339.5,150.6c8.2-32.7-14.4-49.1-39.3-49.1s-37.1,11.6-39.3,39.3c-3,30.5,19.6,29.4,19.6,49.1
			s-13.9,27.4-9.8,39.3s35.6,8.8,29.5-9.8c-4.7-14.1-14.1-23.2-21.7-38.6"/>
		<path class="st1" d="M278.5,180.7c7.6,15.4,17,24.4,21.7,38.6c6.1,18.6-25.4,21.7-29.5,9.8s9.8-19.6,9.8-39.3L278.5,180.7z"/>
		<path class="st0" d="M73.1,287.8c0,0,48.4,2.1,59.9-14.3s0.1-26.1-0.1-34.9s13.5-7.5,12.1-17.3s-16.6-7.2-19.3-18.6
			s15.2-20.7,14-28.8s-9.4-4.2-11.3-14.4s21.6-20.9,19-38.8s-44.9-23.1-47.7-34.5"/>
		<path class="st2" d="M661.9,121.6c0,0,9.3-49.6,61.4-49.6c49.1,0,68.7,29.4,68.7,68.7s-11.2,45.7-29.5,68.7S733.1,288,703.6,288
			s-29.5-29.5-29.5-29.5"/>
		<path class="st2" d="M594.1,145c15.3,4.2,33.4,15.4,36.6,45.3c3.1,29.6-12,44.4-26,51.7"/>
		<path class="st2" d="M602.2,119.6c23,6.2,50.2,23.2,55,68c4.7,44.4-18,66.7-39,77.7"/>
		<path class="st2" d="M584.2,168.4c8.3,2.3,18.3,8.4,20,24.7s-6.5,24.3-14.2,28.3"/>
		<path class="st2" d="M762.5,150.6c8.2-32.7-14.4-49.1-39.3-49.1s-37.1,11.6-39.3,39.3c-3,30.5,19.6,29.4,19.6,49.1
			s-13.9,27.4-9.8,39.3s35.6,8.8,29.5-9.8c-4.7-14.1-14.1-23.2-21.7-38.6"/>
		<path d="M701.5,180.7c7.6,15.4,17,24.4,21.7,38.6c6.1,18.6-25.4,21.7-29.5,9.8s9.8-19.6,9.8-39.3L701.5,180.7z"/>
		<path class="st2" d="M496.1,287.8c0,0,48.4,2.1,59.9-14.3s0.1-26.1-0.1-34.9s13.5-7.5,12.1-17.3s-16.5-7.2-19.3-18.6
			s15.2-20.7,14-28.8s-9.4-4.2-11.3-14.4s21.6-20.9,19-38.8s-44.9-23.1-47.7-34.5"/>
	</g>
</g>
</svg>
