<?xml version="1.0" encoding="utf-8"?>
<!-- Generator: Adobe Illustrator 23.0.1, SVG Export Plug-In . SVG Version: 6.00 Build 0)  -->
<svg version="1.1" id="Layer_1" xmlns="http://www.w3.org/2000/svg" xmlns:xlink="http://www.w3.org/1999/xlink" x="0px" y="0px"
	 viewBox="0 0 469 469" style="enable-background:new 0 0 469 469;" xml:space="preserve">
<style type="text/css">
	.st0{fill:none;stroke:#000000;stroke-width:3;}
	.st1{fill:none;stroke:#FFFFFF;stroke-width:3;}
</style>
<title>Iridium</title>
<g>
	<g id="Icons">
		<g id="Iridium">
			<path class="st0" d="M340.1,235l-15,50h15c0,0,5.9-22.1,10.2-29.6c4.2-7.2,20.1-21,13.5-1s-9.1,30.4-9.1,30.4h15.6
				c0,0,2.4-7.2,5-16.9c3.8-14.8,28.5-40.1,18-10.2c-8.8,25.1-7.3,27.1,1.2,27.3c16.6,0.5,24.3-14.8,23.9-14.4
				c-1.8,1.4-6.6,7.1-12.8,5.9c-5-1-2.1-7.2-0.9-11.8c1-4,6.4-17,7.8-21.4c2.7-8.2-14.2-14.9-24.6-2.5c-7,8.3-9.9,11.3-9.8,11.2
				c0.9-2.6,3.5-8.1,3.2-12.3c-0.3-5.3-13.8-10.9-24.3,1.3c-5.4,6.3-7.6,9.3-6.4,7s4.3-12.9,4.3-12.9H340.1z"/>
			<path class="st0" d="M294.6,234.9h-14.7L267,269.8c0,0-5.6,13.7,2.1,15.6c14.1,3.5,20.5-8.9,26.1-13.3
				c0.9-0.7-1.8,13.1,10.5,14.1c9.5,0.8,19.8-14.8,19.4-15s-12.3,10.3-14.9,3.1c-2.7-7.6,8.1-31.9,10.8-39.5h-14.3
				c0,0-10.3,29.2-13.2,33.5c-7.8,11.8-15.3,11-11.7,1.3C287.1,255.6,294.6,234.9,294.6,234.9z"/>
			<path class="st0" d="M258.9,234.9h-15.6L232,269.4c0,0-3.8,12.7,3.6,15.1c13.1,4.4,27.2-11.9,26.8-11.8
				c-1.3,0.4-7.1,7.5-13.6,3.2c-2.5-1.6-2.2-2.5-0.3-8.9C249.8,262.8,259,234.9,258.9,234.9"/>
			<path class="st0" d="M268.3,207.6c0.5-5.1-2.9-9.3-7.6-9.3s-8.9,4.2-9.4,9.3s2.9,9.3,7.6,9.3S267.8,212.7,268.3,207.6"/>
			<path class="st0" d="M185.4,211.3c-0.5,1,12.8-19.5,28.1-12.7c10.9,4.8,13.2,36.3-7.8,73.2c-10.5,18.4-13.8,5.6-13.8,0
				s5.1-24.8,21.6-33.8c9-4.9,0.6-5.5-3.3-4c-5.4,2.1-23.7,7.9-30.6,23.7s-0.6,26.6,6.3,28s20.7,0.7,31.2-14.5s33.9-56.8,10.5-74
				C203.7,179.6,185.8,210.2,185.4,211.3"/>
			<path class="st0" d="M168.7,234.7h-15.6l-11.4,34.5c0,0-3.7,12.7,3.6,15.1c13.1,4.4,27.2-11.9,26.8-11.8
				c-1.3,0.4-7.1,7.5-13.6,3.2c-2.5-1.6-2.2-2.5-0.3-8.9C159.5,262.6,168.7,234.7,168.7,234.7"/>
			<path class="st0" d="M177.8,207.6c0.5-5.1-2.9-9.3-7.6-9.3s-8.9,4.2-9.4,9.3s2.9,9.3,7.6,9.3S177.3,212.7,177.8,207.6z"/>
			<path class="st0" d="M136.3,233.6c-6.3-0.5-13.4,8.8-18.4,15.4l4.6-14.1h-15L91,285h15.9l7.5-22c2.3-6.5,7.7-15.7,10.2-17.3
				c1.2-0.7,0.9-1.3,3,0c2.1,1.3,5.2,12.4,10.8,7.2C153.2,239.3,136.3,233.6,136.3,233.6"/>
			<path class="st0" d="M86.2,234.7H70.6l-11.4,34.5c0,0-3.8,12.6,3.6,15.1c13.1,4.4,27.2-11.9,26.8-11.8c-1.3,0.4-7.1,7.5-13.6,3.2
				c-2.5-1.6-2.2-2.5-0.3-8.9C77,262.6,86.2,234.7,86.2,234.7z"/>
			<path class="st0" d="M86.5,216.9c-4.7,0-8.1-4.2-7.6-9.3s4.7-9.3,9.4-9.3s8.1,4.2,7.6,9.3S91.2,216.9,86.5,216.9z"/>
			<path class="st1" d="M287,225.9h-14.6l-12.9,34.9c0,0-5.6,13.7,2.1,15.6c14.1,3.5,20.5-8.9,26.1-13.3c0.9-0.7-1.8,13.1,10.5,14.1
				c9.5,0.8,19.8-14.8,19.4-15s-12.3,10.3-14.9,3.1c-2.7-7.6,8.1-31.9,10.8-39.5H299c0,0-10.3,29.2-13.2,33.5
				c-7.8,11.8-15.3,11-11.7,1.3C279.5,246.6,287,225.9,287,225.9z"/>
			<path class="st1" d="M332.5,226l-15,50h15c0,0,5.9-22.1,10.2-29.6c4.2-7.2,20.1-21,13.5-1s-9.1,30.4-9.1,30.4h15.6
				c0,0,2.4-7.2,5-16.9c3.8-14.8,28.5-40.1,18-10.2c-8.8,25.1-7.3,27.1,1.2,27.3c16.6,0.5,24.3-14.8,23.9-14.4
				c-1.8,1.4-6.6,7.1-12.8,5.9c-5-1-2.1-7.2-0.9-11.8c1-4,6.4-17,7.8-21.4c2.7-8.2-14.2-14.9-24.6-2.5c-7,8.3-9.9,11.3-9.8,11.2
				c0.9-2.6,3.5-8.1,3.2-12.3c-0.3-5.3-13.8-10.9-24.3,1.3c-5.4,6.3-7.6,9.3-6.4,7s4.3-12.9,4.3-12.9H332.5z"/>
			<path class="st1" d="M251.4,225.9h-15.6l-11.4,34.5c0,0-3.8,12.7,3.6,15.1c13.1,4.4,27.2-11.9,26.8-11.8
				c-1.3,0.4-7.1,7.5-13.6,3.2c-2.5-1.6-2.2-2.5-0.3-8.9C242.2,253.8,251.4,225.9,251.4,225.9"/>
			<path class="st1" d="M260.7,198.6c0.5-5.1-2.9-9.3-7.6-9.3s-8.9,4.2-9.4,9.3s2.9,9.3,7.6,9.3S260.3,203.7,260.7,198.6"/>
			<path class="st1" d="M177.8,202.3c-0.5,1,12.8-19.5,28.1-12.7c10.9,4.8,13.2,36.3-7.8,73.2c-10.5,18.4-13.8,5.6-13.8,0
				s5.1-24.8,21.6-33.8c9-4.9,0.6-5.5-3.3-4c-5.4,2.1-23.7,7.9-30.6,23.7s-0.6,26.6,6.3,28s20.7,0.7,31.2-14.5s33.9-56.8,10.5-74
				C196.1,170.6,178.2,201.2,177.8,202.3"/>
			<path class="st1" d="M161.1,225.7h-15.6l-11.4,34.5c0,0-3.8,12.6,3.6,15.1c13.1,4.4,27.2-11.9,26.8-11.8
				c-1.3,0.4-7.1,7.5-13.6,3.2c-2.5-1.6-2.2-2.5-0.3-8.9C151.9,253.6,161.1,225.7,161.1,225.7"/>
			<path class="st1" d="M170.2,198.6c0.5-5.1-2.9-9.3-7.6-9.3s-8.9,4.2-9.4,9.3s2.9,9.3,7.6,9.3S169.7,203.7,170.2,198.6z"/>
			<path class="st1" d="M128.7,224.6c-6.3-0.5-13.4,8.8-18.4,15.4l4.6-14.1h-15L83.4,276h15.9l7.5-22c2.3-6.5,7.7-15.7,10.2-17.3
				c1.2-0.7,0.9-1.3,3,0s5.2,12.4,10.8,7.2C145.6,230.3,128.7,224.6,128.7,224.6"/>
			<path class="st1" d="M78.7,225.7H63.1l-11.4,34.5c0,0-3.8,12.6,3.6,15.1c13.1,4.4,27.2-11.9,26.7-11.8c-1.3,0.4-7.1,7.5-13.6,3.2
				c-2.5-1.6-2.2-2.5-0.3-8.9C69.5,253.6,78.7,225.7,78.7,225.7z"/>
			<path class="st1" d="M79,207.9c-4.7,0-8.1-4.2-7.6-9.3s4.7-9.3,9.4-9.3s8.1,4.2,7.6,9.3S83.6,207.9,79,207.9z"/>
		</g>
	</g>
</g>
</svg>
