<?xml version="1.0" encoding="utf-8"?>
<!-- Generator: Adobe Illustrator 23.0.1, SVG Export Plug-In . SVG Version: 6.00 Build 0)  -->
<svg version="1.1" id="Layer_1" xmlns="http://www.w3.org/2000/svg" xmlns:xlink="http://www.w3.org/1999/xlink" x="0px" y="0px"
	 viewBox="0 0 576 576" style="enable-background:new 0 0 576 576;" xml:space="preserve">
<style type="text/css">
	.st0{fill:none;stroke:#000000;stroke-width:2;stroke-linejoin:bevel;}
</style>
<title>akgc414-black</title>
<g>
	<g id="akgc414">
		<g id="akgc414-black">
			<g id="Vector">
				<path class="st0" d="M250.9,335.1c-5.7-2.7-5.6,7.8-4.2,17.6s1.4,18.3,11.3,24c9.9,5.7,174.8,103.6,184.7,108.5
					s12.8,4.8,21.9-3.5s96-99.9,102.1-106.2c7.1-7.4,6.2-4.7,4.8-22.2c-0.8-9.7-0.8-9.7-9.7,0c-6.2,6.8-95.7,99.7-99.4,102.5
					s-8.7,7.3-17.9,2.2S255.9,337.5,250.9,335.1z"/>
				<path class="st0" d="M238.3,238.5c1.1-1.6-2.6-5.5-4.6-2.9S235.8,242.1,238.3,238.5z"/>
				<path class="st0" d="M243.6,240c1.3-2.7-3.7-4.1-5.2-1.5S242.2,242.6,243.6,240z"/>
				<path class="st0" d="M251.6,225.9c-1.2,2.6,3.3,4.8,6,1.5s0.3-5.9-2.9-4.6c0,0-3-1.4-4.5,0.2S251.6,225.9,251.6,225.9z"/>
				<path class="st0" d="M268,213.1c0-2.1,1.5-3.6,2.7-3.6s4.4,5.8,1.6,7s-8.4,1.4-8.4-1.1S268,213.1,268,213.1z"/>
				<path class="st0" d="M292.5,184.9c-4,4,4.1,10.4,8.2,5.5S296.5,180.9,292.5,184.9z"/>
				<polygon class="st0" points="269.6,244.2 269.6,250.5 277.6,249 				"/>
				<polygon class="st0" points="314.4,203.8 324.7,208.4 323.7,202.8 				"/>
				<path class="st0" d="M255.8,248.8c0,0,54.2-50.2,61.2-53.2l22.3,10c0,0-24,18.8-32.6,26.8S275.7,262,275.7,262L255.8,248.8z"/>
				<path class="st0" d="M255.8,338c0,0-4.4-19.3-4.4-25.1s-0.6-11,7.4-18.7s22.5-22.2,22.5-22.2l-32.4-23.4l64.2-55.1l38.4,17.7
					c0,0,21.6-20.4,24.9-22.1s8.8,0.4,9.8,6.6c0.4,2.4,0.7,4.8,0.8,7.2"/>
				<path class="st0" d="M269.3,393.7c-3.4,3-8.4,6.1-8.6-0.7s-1.1-15.4-1.1-15.4"/>
				<path class="st0" d="M261.7,396.4c0,0-151.9-119.1-153.9-121.1s-3.5-5.6-4.1-9.3s-12.6-65.1-12.6-65.1s-2.5-6.4,4.9-13.3
					s93.3-76.4,98.4-79.8c5.4-3.7,5.8-4.3,11.9-1.5c4.8,2.2,174.8,82.7,174.8,82.7"/>
				<line class="st0" x1="252.8" y1="302.2" x2="91.5" y2="194.1"/>
				<path class="st0" d="M91.1,200.9c0,0-63.8-40.8-69.7-44.4s-17.5-11-10.7-31.5s24.7-48,46.9-43.7l97.2,57.9"/>
				<path class="st0" d="M68.2,110.1c-8.7,6.6,3.7,17.2,15.1,8.4S74.5,105.3,68.2,110.1z"/>
				<path class="st0" d="M286.2,203.8c4.4-4.1-1.8-9.6-4.1-4.5C276.2,199.8,281.9,207.9,286.2,203.8z"/>
				<path class="st0" d="M560.4,382.1c5.7,11.1-90.5,103.2-98.9,110.6s-12.9,5.3-21.7,0s-163.7-94.5-168.2-97.3s-9-4.6-7.9-15.4"/>
				<path class="st0" d="M382.7,200.1c0-2.6-0.8-8.5-6.8-4.5s-106.7,93.5-111.2,98.1s-15.2,10.7-5.3,40.9
					c0,0,171.5,107.9,180.5,113.9s12.2,9.1,21.1,0s95.2-94.3,100.2-100.1s3.8-11.1,2.7-16.2s-3.1-12-6.4-15.3
					S375.9,195.6,375.9,195.6"/>
				<path class="st0" d="M563.9,332.2c3.9,2.3,8.8,8.2,6.2,14"/>
				<path class="st0" d="M21.4,156.5c-5.7-0.4-25.8-8.4-14.3-39.3S39,72.1,57.6,81.3"/>
				<path class="st0" d="M350,217.8c0.5-3.7-7.2-7.3-10.8-7.6l-0.5-4.7"/>
				<line class="st0" x1="282.9" y1="269.5" x2="345.9" y2="212.6"/>
				<path class="st0" d="M275.7,262l1.2,3.4c3.1,1.7,8.1,4.4,8.1,9.9"/>
				<line class="st0" x1="277" y1="265.5" x2="339.2" y2="210.1"/>
				<line class="st0" x1="256" y1="248.3" x2="255.8" y2="253.5"/>
				<line class="st0" x1="263.2" y1="236.1" x2="266.6" y2="238.8"/>
				<line class="st0" x1="272.3" y1="233.6" x2="269.2" y2="231"/>
				<line class="st0" x1="278.3" y1="223.2" x2="281.2" y2="225.6"/>
				<line class="st0" x1="286.6" y1="220.7" x2="283.8" y2="218.5"/>
				<line class="st0" x1="293.1" y1="210.4" x2="295.9" y2="212.5"/>
				<line class="st0" x1="301" y1="208.1" x2="298.3" y2="206"/>
				<path class="st0" d="M257.2,303.3c4.5,2.3,174.8,113.8,182.6,118.8c11,7.2,14.7,8.1,24.3-3.7c7.4-9.1,93.3-94.8,93.5-101.5"/>
				<line class="st0" x1="439.5" y1="492.7" x2="463.7" y2="490.7"/>
				<line class="st0" x1="462.7" y1="483.4" x2="472.2" y2="482.6"/>
				<line class="st0" x1="429.5" y1="486.2" x2="442.6" y2="485.1"/>
				<line class="st0" x1="471" y1="475.3" x2="480.6" y2="474.5"/>
				<line class="st0" x1="417.6" y1="479.8" x2="431.1" y2="478.7"/>
				<line class="st0" x1="478.8" y1="467.3" x2="488.7" y2="466.4"/>
				<line class="st0" x1="406.5" y1="473.4" x2="419.9" y2="472.3"/>
				<line class="st0" x1="486.6" y1="459.2" x2="497" y2="458.4"/>
				<line class="st0" x1="395.4" y1="467" x2="409.2" y2="465.8"/>
				<line class="st0" x1="494.3" y1="451.2" x2="505" y2="450.3"/>
				<line class="st0" x1="384.3" y1="460.5" x2="398.1" y2="459.4"/>
				<line class="st0" x1="502" y1="443.2" x2="513.2" y2="442.2"/>
				<line class="st0" x1="373.1" y1="454.1" x2="387.1" y2="452.9"/>
				<line class="st0" x1="509.7" y1="435.2" x2="520.6" y2="434.2"/>
				<line class="st0" x1="362" y1="447.7" x2="376.2" y2="446.5"/>
				<line class="st0" x1="517.3" y1="427.1" x2="527.9" y2="426.2"/>
				<line class="st0" x1="350.9" y1="441.2" x2="365.2" y2="440"/>
				<line class="st0" x1="525" y1="419.1" x2="535.7" y2="418.2"/>
				<line class="st0" x1="339.7" y1="434.8" x2="355.4" y2="434.2"/>
				<line class="st0" x1="533.4" y1="410.3" x2="542.5" y2="410.3"/>
				<line class="st0" x1="435.5" y1="419.3" x2="465.4" y2="416.8"/>
				<line class="st0" x1="328.3" y1="428.4" x2="343.4" y2="427.1"/>
				<line class="st0" x1="540.3" y1="403.1" x2="549.1" y2="402.3"/>
				<line class="st0" x1="425.5" y1="412.8" x2="473" y2="408.8"/>
				<line class="st0" x1="317.5" y1="422" x2="332.3" y2="420.7"/>
				<line class="st0" x1="547.9" y1="395" x2="555" y2="394.5"/>
				<line class="st0" x1="415.5" y1="406.3" x2="480.7" y2="400.8"/>
				<line class="st0" x1="306.3" y1="415.5" x2="322" y2="414.2"/>
				<line class="st0" x1="555.4" y1="387" x2="559.7" y2="386.7"/>
				<line class="st0" x1="405.5" y1="399.8" x2="488.4" y2="392.7"/>
				<line class="st0" x1="295.1" y1="409.1" x2="310.7" y2="407.8"/>
				<line class="st0" x1="395.5" y1="393.2" x2="496.2" y2="384.7"/>
				<line class="st0" x1="284.7" y1="402.6" x2="299.8" y2="401.4"/>
				<line class="st0" x1="385.6" y1="386.7" x2="503.9" y2="376.7"/>
				<line class="st0" x1="274.7" y1="396.1" x2="288.9" y2="394.9"/>
				<line class="st0" x1="376.4" y1="380.7" x2="511.7" y2="368.6"/>
				<line class="st0" x1="264.9" y1="389.6" x2="278" y2="388.5"/>
				<line class="st0" x1="366.1" y1="374" x2="519.6" y2="360.4"/>
				<line class="st0" x1="355.6" y1="367.1" x2="527" y2="352.6"/>
				<line class="st0" x1="345.6" y1="360.6" x2="534.6" y2="344.6"/>
				<line class="st0" x1="335.7" y1="354.2" x2="541.1" y2="336.7"/>
				<line class="st0" x1="325.8" y1="347.5" x2="548.8" y2="328.6"/>
				<line class="st0" x1="315.8" y1="341" x2="555.4" y2="320.7"/>
				<line class="st0" x1="305.5" y1="334.5" x2="552.9" y2="313.5"/>
				<line class="st0" x1="295.1" y1="328" x2="543.2" y2="307"/>
				<line class="st0" x1="285.3" y1="321.4" x2="533.5" y2="300.4"/>
				<line class="st0" x1="276" y1="314.9" x2="523.7" y2="293.9"/>
				<line class="st0" x1="265.5" y1="308.4" x2="514" y2="287.4"/>
				<line class="st0" x1="257.9" y1="301.7" x2="504.2" y2="280.8"/>
				<line class="st0" x1="264.7" y1="293.7" x2="494.4" y2="274.3"/>
				<line class="st0" x1="273.8" y1="285.6" x2="484.8" y2="267.7"/>
				<line class="st0" x1="282.6" y1="277.5" x2="474.8" y2="261.2"/>
				<line class="st0" x1="291.7" y1="269.3" x2="464.9" y2="254.6"/>
				<line class="st0" x1="300.9" y1="261.2" x2="455.1" y2="248.1"/>
				<line class="st0" x1="310" y1="253" x2="445.5" y2="241.6"/>
				<line class="st0" x1="319.2" y1="244.9" x2="435.4" y2="235"/>
				<line class="st0" x1="328.4" y1="236.7" x2="425.5" y2="228.5"/>
				<line class="st0" x1="337.7" y1="228.6" x2="415.7" y2="222"/>
				<line class="st0" x1="346.7" y1="220.4" x2="405.8" y2="215.4"/>
				<line class="st0" x1="356.1" y1="212.3" x2="395.9" y2="208.9"/>
				<line class="st0" x1="365.7" y1="204.1" x2="385.7" y2="202.4"/>
				<line class="st0" x1="273.6" y1="385.9" x2="274.8" y2="397.3"/>
				<line class="st0" x1="264" y1="294.4" x2="265.5" y2="308.4"/>
				<line class="st0" x1="283.3" y1="391.6" x2="284.5" y2="402.9"/>
				<line class="st0" x1="272.3" y1="286.9" x2="275.3" y2="315"/>
				<line class="st0" x1="293" y1="397.3" x2="294.2" y2="408.8"/>
				<line class="st0" x1="280.6" y1="279.5" x2="285" y2="321.4"/>
				<line class="st0" x1="302.6" y1="403" x2="303.8" y2="414.1"/>
				<line class="st0" x1="288.9" y1="271.8" x2="294.8" y2="327.5"/>
				<line class="st0" x1="312.3" y1="408.8" x2="313.5" y2="419.7"/>
				<line class="st0" x1="297.2" y1="264.4" x2="304.5" y2="333.8"/>
				<line class="st0" x1="322" y1="414.5" x2="323.2" y2="425.4"/>
				<line class="st0" x1="305.5" y1="256.9" x2="314.3" y2="340.2"/>
				<line class="st0" x1="331.7" y1="420.2" x2="332.8" y2="430.8"/>
				<line class="st0" x1="314" y1="249.5" x2="324" y2="346.6"/>
				<line class="st0" x1="341.4" y1="425.9" x2="342.5" y2="436.4"/>
				<line class="st0" x1="322.2" y1="242.2" x2="333.8" y2="352.9"/>
				<line class="st0" x1="351.1" y1="431.7" x2="352.1" y2="441.5"/>
				<line class="st0" x1="330.5" y1="234.9" x2="343.5" y2="359.2"/>
				<line class="st0" x1="360.8" y1="437.4" x2="361.8" y2="447.6"/>
				<line class="st0" x1="338.8" y1="227.2" x2="353.3" y2="365.6"/>
				<line class="st0" x1="370.5" y1="443.1" x2="371.5" y2="453.4"/>
				<line class="st0" x1="347.2" y1="220.2" x2="363" y2="372"/>
				<line class="st0" x1="380.1" y1="448.4" x2="381.2" y2="458.8"/>
				<line class="st0" x1="355.5" y1="212.9" x2="372.8" y2="378.4"/>
				<line class="st0" x1="389.8" y1="454.1" x2="390.8" y2="464.3"/>
				<line class="st0" x1="363.8" y1="206" x2="382.5" y2="384.7"/>
				<line class="st0" x1="399.5" y1="460.2" x2="400.5" y2="469.9"/>
				<line class="st0" x1="372.2" y1="198.6" x2="392.3" y2="391.1"/>
				<line class="st0" x1="409.2" y1="465.9" x2="410.2" y2="475.5"/>
				<line class="st0" x1="381.3" y1="199.4" x2="402" y2="397.5"/>
				<line class="st0" x1="418.9" y1="472" x2="419.9" y2="481.1"/>
				<line class="st0" x1="391.1" y1="206" x2="411.7" y2="403.5"/>
				<line class="st0" x1="428.5" y1="477.2" x2="429.5" y2="486.7"/>
				<line class="st0" x1="400.8" y1="212.1" x2="421.5" y2="410.2"/>
				<line class="st0" x1="438.2" y1="482.9" x2="439.2" y2="492.3"/>
				<line class="st0" x1="410.6" y1="218.9" x2="431.3" y2="416.6"/>
				<line class="st0" x1="447.8" y1="487.5" x2="448.8" y2="497.4"/>
				<line class="st0" x1="420.4" y1="225.3" x2="441" y2="423"/>
				<line class="st0" x1="456.9" y1="487.5" x2="457.7" y2="495.5"/>
				<line class="st0" x1="430.1" y1="231.8" x2="450.6" y2="427.4"/>
				<line class="st0" x1="465.3" y1="481" x2="466" y2="488.1"/>
				<line class="st0" x1="439.9" y1="238" x2="459.3" y2="423.8"/>
				<line class="st0" x1="474.3" y1="471.9" x2="474.3" y2="480.6"/>
				<line class="st0" x1="449.6" y1="244.5" x2="467.4" y2="414.6"/>
				<line class="st0" x1="481.7" y1="464.3" x2="482.6" y2="472.6"/>
				<line class="st0" x1="459.4" y1="251.2" x2="475.6" y2="406"/>
				<line class="st0" x1="489.9" y1="455.8" x2="490.8" y2="464.2"/>
				<line class="st0" x1="469.2" y1="257.5" x2="483.8" y2="397.5"/>
				<line class="st0" x1="498.1" y1="447.2" x2="499" y2="456.1"/>
				<line class="st0" x1="479" y1="264" x2="492" y2="389"/>
				<line class="st0" x1="506.3" y1="438.7" x2="507.2" y2="447.6"/>
				<line class="st0" x1="488.7" y1="270.5" x2="500.2" y2="380.5"/>
				<line class="st0" x1="514.5" y1="430.3" x2="515.5" y2="439.5"/>
				<line class="st0" x1="498.5" y1="277" x2="508.4" y2="372"/>
				<line class="st0" x1="522.7" y1="421.5" x2="523.7" y2="430.9"/>
				<line class="st0" x1="508.2" y1="283.5" x2="516.6" y2="363.5"/>
				<line class="st0" x1="530.9" y1="413" x2="531.8" y2="422.2"/>
				<line class="st0" x1="518" y1="290" x2="524.8" y2="354.7"/>
				<line class="st0" x1="539.1" y1="404.4" x2="540" y2="413.1"/>
				<line class="st0" x1="527.8" y1="296.6" x2="533" y2="346.2"/>
				<line class="st0" x1="547.2" y1="395.8" x2="548.1" y2="403.6"/>
				<line class="st0" x1="537.6" y1="303.4" x2="541.1" y2="336.7"/>
				<line class="st0" x1="555.4" y1="387.2" x2="556" y2="393"/>
				<line class="st0" x1="547.4" y1="309.9" x2="549.3" y2="328.1"/>
				<line class="st0" x1="560.6" y1="349.1" x2="560.6" y2="321.7"/>
				<line class="st0" x1="553.3" y1="356.6" x2="553.3" y2="323.4"/>
				<line class="st0" x1="545.9" y1="364" x2="545.9" y2="332"/>
				<line class="st0" x1="538.6" y1="371.4" x2="538.6" y2="339.2"/>
				<line class="st0" x1="531.3" y1="378.8" x2="531.3" y2="348"/>
				<line class="st0" x1="523.9" y1="386" x2="523.9" y2="355.8"/>
				<line class="st0" x1="516.6" y1="393.3" x2="516.6" y2="363.5"/>
				<line class="st0" x1="509.2" y1="400.6" x2="509.2" y2="371.2"/>
				<line class="st0" x1="501.9" y1="408.5" x2="501.9" y2="378.8"/>
				<line class="st0" x1="494.5" y1="415.2" x2="494.5" y2="386.4"/>
				<line class="st0" x1="487.2" y1="422.5" x2="487.2" y2="394"/>
				<line class="st0" x1="479.9" y1="429.7" x2="479.9" y2="401.6"/>
				<line class="st0" x1="472.5" y1="437" x2="472.5" y2="409.2"/>
				<line class="st0" x1="465.2" y1="444.7" x2="465.2" y2="417.1"/>
				<line class="st0" x1="457.8" y1="451.4" x2="457.8" y2="424.9"/>
				<line class="st0" x1="450.5" y1="454.1" x2="450.5" y2="427.3"/>
				<line class="st0" x1="443.1" y1="450.6" x2="443.1" y2="424.2"/>
				<line class="st0" x1="435.8" y1="445.9" x2="435.8" y2="419.5"/>
				<line class="st0" x1="428.4" y1="441.7" x2="428.4" y2="414.7"/>
				<line class="st0" x1="421.1" y1="436.6" x2="421.1" y2="409.9"/>
				<line class="st0" x1="413.8" y1="431.9" x2="413.8" y2="405.1"/>
				<line class="st0" x1="406.4" y1="427.3" x2="406.4" y2="400.3"/>
				<line class="st0" x1="399.1" y1="423.1" x2="399.1" y2="395.5"/>
				<line class="st0" x1="391.7" y1="418.5" x2="391.7" y2="390.7"/>
				<line class="st0" x1="384.4" y1="413.4" x2="384.4" y2="385.9"/>
				<line class="st0" x1="377" y1="408.8" x2="377" y2="381.1"/>
				<line class="st0" x1="369.7" y1="404.6" x2="369.7" y2="376.4"/>
				<line class="st0" x1="362.4" y1="399.7" x2="362.4" y2="371.5"/>
				<line class="st0" x1="355" y1="394.9" x2="355" y2="366.8"/>
				<line class="st0" x1="347.7" y1="390.5" x2="347.7" y2="362"/>
				<line class="st0" x1="340.3" y1="385.9" x2="340.3" y2="357.2"/>
				<line class="st0" x1="333" y1="381.1" x2="333" y2="352.4"/>
				<line class="st0" x1="325.6" y1="376.4" x2="325.6" y2="347.6"/>
				<line class="st0" x1="318.3" y1="371.7" x2="318.3" y2="342.8"/>
				<line class="st0" x1="311" y1="366.8" x2="311" y2="338"/>
				<line class="st0" x1="303.6" y1="362.5" x2="303.6" y2="333.2"/>
				<line class="st0" x1="296.3" y1="357.9" x2="296.3" y2="328.5"/>
				<line class="st0" x1="288.9" y1="353.2" x2="288.9" y2="323.7"/>
				<line class="st0" x1="281.6" y1="348.6" x2="281.6" y2="318.9"/>
				<line class="st0" x1="274.2" y1="344" x2="274.2" y2="314.2"/>
				<line class="st0" x1="266.9" y1="339.4" x2="266.9" y2="309.5"/>
				<line class="st0" x1="259.5" y1="334.7" x2="259.5" y2="304.8"/>
				<line class="st0" x1="257.3" y1="327.5" x2="456.3" y2="452.5"/>
				<line class="st0" x1="255.6" y1="317.8" x2="462" y2="447.5"/>
				<line class="st0" x1="255.3" y1="308.9" x2="467.4" y2="442.1"/>
				<line class="st0" x1="455.8" y1="426.2" x2="472.3" y2="436.6"/>
				<line class="st0" x1="461.4" y1="421" x2="477.9" y2="431.4"/>
				<line class="st0" x1="466.4" y1="415.5" x2="483.4" y2="426.2"/>
				<line class="st0" x1="471.7" y1="410.1" x2="488.8" y2="420.9"/>
				<line class="st0" x1="476.9" y1="404.7" x2="494" y2="415.5"/>
				<line class="st0" x1="482.1" y1="399.3" x2="499.3" y2="410.1"/>
				<line class="st0" x1="487.3" y1="393.9" x2="504.8" y2="405"/>
				<line class="st0" x1="492.5" y1="388.5" x2="510.2" y2="399.6"/>
				<line class="st0" x1="497.6" y1="383" x2="515.5" y2="394.3"/>
				<line class="st0" x1="502.9" y1="377.7" x2="520.9" y2="389"/>
				<line class="st0" x1="508.1" y1="372.3" x2="526.2" y2="383.7"/>
				<line class="st0" x1="513.3" y1="366.9" x2="531.6" y2="378.4"/>
				<line class="st0" x1="518.5" y1="361.5" x2="536.9" y2="373"/>
				<line class="st0" x1="523.7" y1="356.1" x2="542.2" y2="367.7"/>
				<line class="st0" x1="528.8" y1="350.6" x2="547.5" y2="362.4"/>
				<line class="st0" x1="533.9" y1="345.2" x2="553.1" y2="357.2"/>
				<line class="st0" x1="539" y1="339.7" x2="558.1" y2="351.7"/>
				<line class="st0" x1="544" y1="334.2" x2="563.2" y2="346.2"/>
				<line class="st0" x1="548.9" y1="328.6" x2="564.9" y2="338.6"/>
				<line class="st0" x1="553.7" y1="322.9" x2="563.1" y2="328.8"/>
			</g>
		</g>
	</g>
</g>
</svg>
