<svg xmlns="http://www.w3.org/2000/svg" viewBox="0 0 576 576"><defs><style>.cls-1{opacity:0;}.cls-2{fill:#fff;}.cls-3{fill:none;stroke:#000;stroke-linejoin:bevel;stroke-width:2px;}</style></defs><title>akgc414-black</title><g id="Layer_2" data-name="Layer 2"><g id="akgc414"><g id="akgc414-black"><g id="Background" class="cls-1"><rect class="cls-2" width="576" height="576"/></g><g id="Vector"><path class="cls-3" d="M250.94,335.09c-5.69-2.71-5.64,7.76-4.23,17.62s1.41,18.33,11.28,24S432.8,480.3,442.67,485.23s12.81,4.83,21.85-3.52,96-99.88,102.09-106.23c7.12-7.39,6.22-4.67,4.83-22.16-.76-9.69-.76-9.69-9.73.05-6.24,6.79-95.74,99.68-99.37,102.48s-8.66,7.26-17.87,2.23S255.94,337.47,250.94,335.09Z"/><path class="cls-3" d="M238.33,238.5c1.14-1.62-2.62-5.5-4.63-2.94S235.8,242.08,238.33,238.5Z"/><path class="cls-3" d="M243.58,240c1.33-2.66-3.72-4.1-5.25-1.46S242.25,242.62,243.58,240Z"/><path class="cls-3" d="M251.62,225.89c-1.23,2.64,3.31,4.84,6,1.47s.27-5.89-2.88-4.57c0,0-3-1.45-4.47.2S251.62,225.89,251.62,225.89Z"/><path class="cls-3" d="M268,213.07c0-2.1,1.47-3.57,2.73-3.57s4.38,5.76,1.65,7-8.37,1.39-8.37-1.14S268,213.07,268,213.07Z"/><path class="cls-3" d="M292.55,184.91c-4,4,4.06,10.37,8.2,5.46S296.55,180.91,292.55,184.91Z"/><polygon class="cls-3" points="269.64 244.18 269.64 250.48 277.63 249.01 269.64 244.18"/><polygon class="cls-3" points="314.41 203.82 324.71 208.45 323.66 202.77 314.41 203.82"/><path class="cls-3" d="M255.77,248.8s54.23-50.23,61.16-53.17l22.28,10s-24,18.81-32.57,26.8S275.74,262,275.74,262Z"/><path class="cls-3" d="M255.77,338s-4.39-19.3-4.39-25.15-.65-10.95,7.36-18.73,22.55-22.24,22.55-22.24L248.84,248.5,313,193.41l38.35,17.72s21.64-20.36,24.85-22.06,8.77.45,9.81,6.56a46.59,46.59,0,0,1,.79,7.2"/><path class="cls-3" d="M269.26,393.67c-3.4,2.95-8.42,6.06-8.57-.74s-1.15-15.35-1.15-15.35"/><path class="cls-3" d="M261.72,396.43S109.87,277.33,107.83,275.29s-3.52-5.56-4.08-9.27-12.61-65.1-12.61-65.1-2.49-6.35,4.9-13.26,93.31-76.36,98.4-79.84c5.4-3.69,5.8-4.29,11.87-1.48,4.75,2.2,174.76,82.68,174.76,82.68"/><line class="cls-3" x1="252.8" y1="302.19" x2="91.48" y2="194.06"/><path class="cls-3" d="M91.14,200.92s-63.81-40.83-69.72-44.4S3.87,145.49,10.71,125,35.4,77,57.61,81.35l97.2,57.88"/><path class="cls-3" d="M68.17,110.08c-8.68,6.57,3.73,17.24,15.07,8.39S74.54,105.27,68.17,110.08Z"/><path class="cls-3" d="M286.24,203.77c4.36-4.09-1.81-9.63-4.09-4.49C276.24,199.82,281.88,207.87,286.24,203.77Z"/><path class="cls-3" d="M560.38,382.08c5.74,11.1-90.51,103.2-98.88,110.58s-12.94,5.26-21.74,0-163.67-94.48-168.18-97.27-9-4.64-7.86-15.36"/><path class="cls-3" d="M382.74,200.15c0-2.65-.75-8.5-6.84-4.52s-106.74,93.54-111.19,98.13-15.24,10.7-5.31,40.9c0,0,171.46,107.92,180.52,113.85s12.18,9.06,21.08,0,95.24-94.3,100.24-100.08,3.76-11.1,2.67-16.25-3.13-12-6.4-15.31S375.9,195.63,375.9,195.63"/><path class="cls-3" d="M563.91,332.18c3.86,2.33,8.77,8.2,6.21,14"/><path class="cls-3" d="M21.42,156.52c-5.73-.44-25.82-8.43-14.34-39.31S39,72.09,57.61,81.35"/><path class="cls-3" d="M350,217.75c.45-3.71-7.19-7.29-10.77-7.63l-.48-4.73"/><line class="cls-3" x1="282.87" y1="269.5" x2="345.91" y2="212.55"/><path class="cls-3" d="M275.74,262l1.24,3.41c3.15,1.7,8.07,4.39,8.07,9.85"/><line class="cls-3" x1="276.98" y1="265.45" x2="339.21" y2="210.12"/><line class="cls-3" x1="256" y1="248.3" x2="255.77" y2="253.49"/><line class="cls-3" x1="263.25" y1="236.13" x2="266.63" y2="238.83"/><line class="cls-3" x1="272.34" y1="233.62" x2="269.23" y2="230.98"/><line class="cls-3" x1="278.29" y1="223.21" x2="281.17" y2="225.64"/><line class="cls-3" x1="286.65" y1="220.73" x2="283.81" y2="218.46"/><line class="cls-3" x1="293.14" y1="210.45" x2="295.9" y2="212.54"/><line class="cls-3" x1="301.03" y1="208.09" x2="298.31" y2="206.01"/><path class="cls-3" d="M257.16,303.33c4.49,2.26,174.82,113.75,182.55,118.76,11,7.17,14.66,8.08,24.34-3.73,7.43-9.06,93.29-94.76,93.46-101.49"/><line class="cls-3" x1="439.48" y1="492.71" x2="463.7" y2="490.66"/><line class="cls-3" x1="462.67" y1="483.38" x2="472.25" y2="482.56"/><line class="cls-3" x1="429.48" y1="486.19" x2="442.6" y2="485.08"/><line class="cls-3" x1="470.96" y1="475.3" x2="480.62" y2="474.48"/><line class="cls-3" x1="417.63" y1="479.82" x2="431.09" y2="478.68"/><line class="cls-3" x1="478.8" y1="467.26" x2="488.72" y2="466.42"/><line class="cls-3" x1="406.52" y1="473.39" x2="419.86" y2="472.26"/><line class="cls-3" x1="486.56" y1="459.23" x2="496.99" y2="458.35"/><line class="cls-3" x1="395.39" y1="466.96" x2="409.19" y2="465.79"/><line class="cls-3" x1="494.28" y1="451.21" x2="504.99" y2="450.3"/><line class="cls-3" x1="384.26" y1="460.54" x2="398.06" y2="459.36"/><line class="cls-3" x1="501.98" y1="443.18" x2="513.18" y2="442.23"/><line class="cls-3" x1="373.13" y1="454.11" x2="387.11" y2="452.92"/><line class="cls-3" x1="509.66" y1="435.16" x2="520.57" y2="434.23"/><line class="cls-3" x1="362.03" y1="447.68" x2="376.18" y2="446.48"/><line class="cls-3" x1="517.33" y1="427.13" x2="527.89" y2="426.24"/><line class="cls-3" x1="350.86" y1="441.25" x2="365.25" y2="440.03"/><line class="cls-3" x1="524.99" y1="419.11" x2="535.72" y2="418.2"/><line class="cls-3" x1="339.72" y1="434.82" x2="355.36" y2="434.19"/><line class="cls-3" x1="533.44" y1="410.26" x2="542.45" y2="410.26"/><line class="cls-3" x1="435.48" y1="419.33" x2="465.42" y2="416.79"/><line class="cls-3" x1="328.3" y1="428.42" x2="343.42" y2="427.14"/><line class="cls-3" x1="540.3" y1="403.07" x2="549.07" y2="402.33"/><line class="cls-3" x1="425.49" y1="412.81" x2="472.95" y2="408.78"/><line class="cls-3" x1="317.46" y1="421.97" x2="332.28" y2="420.71"/><line class="cls-3" x1="547.94" y1="395.05" x2="555.05" y2="394.45"/><line class="cls-3" x1="415.51" y1="406.28" x2="480.67" y2="400.75"/><line class="cls-3" x1="306.33" y1="415.54" x2="322.02" y2="414.21"/><line class="cls-3" x1="555.43" y1="387.04" x2="559.69" y2="386.68"/><line class="cls-3" x1="405.52" y1="399.75" x2="488.44" y2="392.72"/><line class="cls-3" x1="295.13" y1="409.06" x2="310.7" y2="407.79"/><line class="cls-3" x1="395.54" y1="393.23" x2="496.21" y2="384.69"/><line class="cls-3" x1="284.71" y1="402.63" x2="299.75" y2="401.35"/><line class="cls-3" x1="385.63" y1="386.7" x2="503.92" y2="376.67"/><line class="cls-3" x1="274.66" y1="396.11" x2="288.9" y2="394.9"/><line class="cls-3" x1="376.4" y1="380.73" x2="511.68" y2="368.64"/><line class="cls-3" x1="264.9" y1="389.56" x2="277.99" y2="388.45"/><line class="cls-3" x1="366.14" y1="374.03" x2="519.61" y2="360.35"/><line class="cls-3" x1="355.57" y1="367.13" x2="526.96" y2="352.6"/><line class="cls-3" x1="345.58" y1="360.6" x2="534.57" y2="344.58"/><line class="cls-3" x1="335.74" y1="354.19" x2="541.07" y2="336.67"/><line class="cls-3" x1="325.76" y1="347.54" x2="548.79" y2="328.63"/><line class="cls-3" x1="315.78" y1="341.01" x2="555.44" y2="320.69"/><line class="cls-3" x1="305.48" y1="334.48" x2="552.87" y2="313.54"/><line class="cls-3" x1="295.15" y1="328.02" x2="543.25" y2="306.98"/><line class="cls-3" x1="285.34" y1="321.39" x2="533.54" y2="300.43"/><line class="cls-3" x1="275.95" y1="314.9" x2="523.65" y2="293.9"/><line class="cls-3" x1="265.5" y1="308.42" x2="514" y2="287.35"/><line class="cls-3" x1="257.93" y1="301.69" x2="504.2" y2="280.8"/><line class="cls-3" x1="264.74" y1="293.74" x2="494.39" y2="274.26"/><line class="cls-3" x1="273.75" y1="285.6" x2="484.82" y2="267.7"/><line class="cls-3" x1="282.63" y1="277.48" x2="474.75" y2="261.18"/><line class="cls-3" x1="291.73" y1="269.33" x2="464.91" y2="254.65"/><line class="cls-3" x1="300.86" y1="261.18" x2="455.07" y2="248.11"/><line class="cls-3" x1="310.02" y1="253.04" x2="445.47" y2="241.55"/><line class="cls-3" x1="319.21" y1="244.88" x2="435.37" y2="235.03"/><line class="cls-3" x1="328.42" y1="236.73" x2="425.54" y2="228.5"/><line class="cls-3" x1="337.74" y1="228.57" x2="415.66" y2="221.96"/><line class="cls-3" x1="346.7" y1="220.44" x2="405.8" y2="215.43"/><line class="cls-3" x1="356.15" y1="212.26" x2="395.93" y2="208.89"/><line class="cls-3" x1="365.68" y1="204.08" x2="385.66" y2="202.39"/><line class="cls-3" x1="273.59" y1="385.85" x2="274.79" y2="397.27"/><line class="cls-3" x1="264.04" y1="294.43" x2="265.5" y2="308.42"/><line class="cls-3" x1="283.28" y1="391.58" x2="284.46" y2="402.89"/><line class="cls-3" x1="272.34" y1="286.93" x2="275.28" y2="315.01"/><line class="cls-3" x1="292.97" y1="397.3" x2="294.17" y2="408.81"/><line class="cls-3" x1="280.65" y1="279.45" x2="285.03" y2="321.41"/><line class="cls-3" x1="302.65" y1="403.03" x2="303.81" y2="414.08"/><line class="cls-3" x1="288.94" y1="271.83" x2="294.76" y2="327.5"/><line class="cls-3" x1="312.34" y1="408.76" x2="313.48" y2="419.67"/><line class="cls-3" x1="297.25" y1="264.41" x2="304.51" y2="333.84"/><line class="cls-3" x1="322.02" y1="414.49" x2="323.17" y2="425.44"/><line class="cls-3" x1="305.55" y1="256.9" x2="314.26" y2="340.19"/><line class="cls-3" x1="331.71" y1="420.22" x2="332.82" y2="430.84"/><line class="cls-3" x1="313.97" y1="249.53" x2="324.04" y2="346.56"/><line class="cls-3" x1="341.39" y1="425.94" x2="342.49" y2="436.42"/><line class="cls-3" x1="322.19" y1="242.24" x2="333.76" y2="352.86"/><line class="cls-3" x1="351.08" y1="431.66" x2="352.11" y2="441.55"/><line class="cls-3" x1="330.51" y1="234.89" x2="343.5" y2="359.19"/><line class="cls-3" x1="360.77" y1="437.38" x2="361.83" y2="447.59"/><line class="cls-3" x1="338.8" y1="227.25" x2="353.26" y2="365.62"/><line class="cls-3" x1="370.45" y1="443.1" x2="371.53" y2="453.42"/><line class="cls-3" x1="347.16" y1="220.23" x2="363.02" y2="371.99"/><line class="cls-3" x1="380.09" y1="448.42" x2="381.17" y2="458.75"/><line class="cls-3" x1="355.48" y1="212.95" x2="372.77" y2="378.36"/><line class="cls-3" x1="389.78" y1="454.14" x2="390.84" y2="464.34"/><line class="cls-3" x1="363.84" y1="206" x2="382.52" y2="384.69"/><line class="cls-3" x1="399.5" y1="460.21" x2="400.52" y2="469.93"/><line class="cls-3" x1="372.16" y1="198.6" x2="392.28" y2="391.1"/><line class="cls-3" x1="409.18" y1="465.89" x2="410.19" y2="475.51"/><line class="cls-3" x1="381.33" y1="199.41" x2="402.03" y2="397.47"/><line class="cls-3" x1="418.91" y1="472.01" x2="419.86" y2="481.11"/><line class="cls-3" x1="391.1" y1="206" x2="411.74" y2="403.47"/><line class="cls-3" x1="428.54" y1="477.2" x2="429.53" y2="486.71"/><line class="cls-3" x1="400.83" y1="212.14" x2="421.54" y2="410.22"/><line class="cls-3" x1="438.22" y1="482.89" x2="439.21" y2="492.34"/><line class="cls-3" x1="410.62" y1="218.85" x2="431.29" y2="416.6"/><line class="cls-3" x1="447.79" y1="487.53" x2="448.83" y2="497.44"/><line class="cls-3" x1="420.38" y1="225.28" x2="441.04" y2="422.95"/><line class="cls-3" x1="456.87" y1="487.47" x2="457.71" y2="495.52"/><line class="cls-3" x1="430.15" y1="231.8" x2="450.59" y2="427.35"/><line class="cls-3" x1="465.28" y1="480.99" x2="466.03" y2="488.11"/><line class="cls-3" x1="439.89" y1="238.03" x2="459.3" y2="423.75"/><line class="cls-3" x1="474.33" y1="471.86" x2="474.33" y2="480.57"/><line class="cls-3" x1="449.65" y1="244.51" x2="467.43" y2="414.61"/><line class="cls-3" x1="481.71" y1="464.26" x2="482.58" y2="472.57"/><line class="cls-3" x1="459.44" y1="251.23" x2="475.62" y2="406"/><line class="cls-3" x1="489.91" y1="455.75" x2="490.79" y2="464.22"/><line class="cls-3" x1="469.18" y1="257.49" x2="483.82" y2="397.5"/><line class="cls-3" x1="498.1" y1="447.22" x2="499.03" y2="456.12"/><line class="cls-3" x1="478.95" y1="263.98" x2="492.02" y2="389.02"/><line class="cls-3" x1="506.3" y1="438.67" x2="507.23" y2="447.64"/><line class="cls-3" x1="488.72" y1="270.48" x2="500.22" y2="380.54"/><line class="cls-3" x1="514.51" y1="430.33" x2="515.47" y2="439.46"/><line class="cls-3" x1="498.48" y1="276.99" x2="508.42" y2="372.04"/><line class="cls-3" x1="522.68" y1="421.54" x2="523.66" y2="430.92"/><line class="cls-3" x1="508.25" y1="283.48" x2="516.61" y2="363.49"/><line class="cls-3" x1="530.87" y1="412.96" x2="531.83" y2="422.18"/><line class="cls-3" x1="518.02" y1="290.03" x2="524.78" y2="354.7"/><line class="cls-3" x1="539.06" y1="404.37" x2="539.97" y2="413.11"/><line class="cls-3" x1="527.79" y1="296.58" x2="532.98" y2="346.21"/><line class="cls-3" x1="547.25" y1="395.78" x2="548.06" y2="403.57"/><line class="cls-3" x1="537.59" y1="303.35" x2="541.07" y2="336.68"/><line class="cls-3" x1="555.44" y1="387.18" x2="556.05" y2="393"/><line class="cls-3" x1="547.36" y1="309.94" x2="549.31" y2="328.12"/><line class="cls-3" x1="560.63" y1="349.1" x2="560.63" y2="321.69"/><line class="cls-3" x1="553.29" y1="356.63" x2="553.29" y2="323.37"/><line class="cls-3" x1="545.94" y1="364.01" x2="545.94" y2="331.98"/><line class="cls-3" x1="538.6" y1="371.35" x2="538.6" y2="339.2"/><line class="cls-3" x1="531.26" y1="378.82" x2="531.26" y2="348.02"/><line class="cls-3" x1="523.91" y1="385.98" x2="523.91" y2="355.82"/><line class="cls-3" x1="516.57" y1="393.28" x2="516.57" y2="363.53"/><line class="cls-3" x1="509.22" y1="400.58" x2="509.22" y2="371.2"/><line class="cls-3" x1="501.88" y1="408.47" x2="501.88" y2="378.82"/><line class="cls-3" x1="494.54" y1="415.16" x2="494.54" y2="386.42"/><line class="cls-3" x1="487.19" y1="422.45" x2="487.19" y2="394.01"/><line class="cls-3" x1="479.85" y1="429.73" x2="479.85" y2="401.61"/><line class="cls-3" x1="472.51" y1="437.03" x2="472.51" y2="409.25"/><line class="cls-3" x1="465.16" y1="444.67" x2="465.16" y2="417.08"/><line class="cls-3" x1="457.82" y1="451.43" x2="457.82" y2="424.85"/><line class="cls-3" x1="450.48" y1="454.13" x2="450.48" y2="427.31"/><line class="cls-3" x1="443.13" y1="450.63" x2="443.13" y2="424.24"/><line class="cls-3" x1="435.79" y1="445.87" x2="435.79" y2="419.53"/><line class="cls-3" x1="428.44" y1="441.74" x2="428.44" y2="414.74"/><line class="cls-3" x1="421.1" y1="436.56" x2="421.1" y2="409.94"/><line class="cls-3" x1="413.76" y1="431.92" x2="413.76" y2="405.14"/><line class="cls-3" x1="406.41" y1="427.29" x2="406.41" y2="400.34"/><line class="cls-3" x1="399.07" y1="423.14" x2="399.07" y2="395.54"/><line class="cls-3" x1="391.73" y1="418.53" x2="391.73" y2="390.74"/><line class="cls-3" x1="384.38" y1="413.39" x2="384.38" y2="385.94"/><line class="cls-3" x1="377.04" y1="408.76" x2="377.04" y2="381.14"/><line class="cls-3" x1="369.69" y1="404.63" x2="369.69" y2="376.35"/><line class="cls-3" x1="362.35" y1="399.66" x2="362.35" y2="371.55"/><line class="cls-3" x1="355.01" y1="394.87" x2="355.01" y2="366.76"/><line class="cls-3" x1="347.66" y1="390.49" x2="347.66" y2="361.97"/><line class="cls-3" x1="340.32" y1="385.94" x2="340.32" y2="357.18"/><line class="cls-3" x1="332.98" y1="381.14" x2="332.98" y2="352.39"/><line class="cls-3" x1="325.63" y1="376.36" x2="325.63" y2="347.6"/><line class="cls-3" x1="318.29" y1="371.74" x2="318.29" y2="342.81"/><line class="cls-3" x1="310.95" y1="366.77" x2="310.95" y2="338.01"/><line class="cls-3" x1="303.6" y1="362.49" x2="303.6" y2="333.25"/><line class="cls-3" x1="296.26" y1="357.86" x2="296.26" y2="328.48"/><line class="cls-3" x1="288.91" y1="353.24" x2="288.91" y2="323.71"/><line class="cls-3" x1="281.57" y1="348.61" x2="281.57" y2="318.94"/><line class="cls-3" x1="274.23" y1="343.99" x2="274.23" y2="314.19"/><line class="cls-3" x1="266.88" y1="339.37" x2="266.88" y2="309.46"/><line class="cls-3" x1="259.54" y1="334.74" x2="259.54" y2="304.77"/><line class="cls-3" x1="257.32" y1="327.54" x2="456.31" y2="452.52"/><line class="cls-3" x1="255.55" y1="317.75" x2="462.05" y2="447.45"/><line class="cls-3" x1="255.33" y1="308.94" x2="467.38" y2="442.13"/><line class="cls-3" x1="455.83" y1="426.2" x2="472.34" y2="436.58"/><line class="cls-3" x1="461.35" y1="421" x2="477.89" y2="431.39"/><line class="cls-3" x1="466.41" y1="415.51" x2="483.42" y2="426.19"/><line class="cls-3" x1="471.66" y1="410.13" x2="488.77" y2="420.88"/><line class="cls-3" x1="476.85" y1="404.72" x2="494.02" y2="415.51"/><line class="cls-3" x1="482.06" y1="399.32" x2="499.27" y2="410.13"/><line class="cls-3" x1="487.28" y1="393.92" x2="504.83" y2="404.95"/><line class="cls-3" x1="492.5" y1="388.53" x2="510.18" y2="399.63"/><line class="cls-3" x1="497.58" y1="383.05" x2="515.52" y2="394.32"/><line class="cls-3" x1="502.93" y1="377.74" x2="520.87" y2="389.01"/><line class="cls-3" x1="508.13" y1="372.33" x2="526.21" y2="383.69"/><line class="cls-3" x1="513.33" y1="366.92" x2="531.56" y2="378.37"/><line class="cls-3" x1="518.51" y1="361.51" x2="536.89" y2="373.05"/><line class="cls-3" x1="523.67" y1="356.08" x2="542.22" y2="367.73"/><line class="cls-3" x1="528.81" y1="350.63" x2="547.55" y2="362.4"/><line class="cls-3" x1="533.92" y1="345.17" x2="553.11" y2="357.22"/><line class="cls-3" x1="538.99" y1="339.68" x2="558.13" y2="351.71"/><line class="cls-3" x1="544" y1="334.16" x2="563.2" y2="346.22"/><line class="cls-3" x1="548.92" y1="328.58" x2="564.89" y2="338.61"/><line class="cls-3" x1="553.67" y1="322.89" x2="563.11" y2="328.82"/></g></g></g></g></svg>