<svg xmlns="http://www.w3.org/2000/svg" viewBox="0 0 576 576"><defs><style>.cls-1{opacity:0;}.cls-2{fill:#fff;}.cls-3,.cls-4,.cls-5{fill:none;stroke:#fff;}.cls-3,.cls-5{stroke-linejoin:bevel;}.cls-3,.cls-4{stroke-width:2px;}.cls-4{stroke-miterlimit:10;}</style></defs><title>lespaul-white</title><g id="Layer_2" data-name="Layer 2"><g id="lespaul"><g id="lespaul-white"><g id="Background" class="cls-1"><rect class="cls-2" width="576" height="576"/></g><g id="Vector"><path class="cls-3" d="M278.33,231.63C266,217,241,203.17,213.36,215.78s-30.09,39-50.42,49.6S91.38,255.21,39.75,295.06,1.53,381.26,20.49,426.15c11.89,28.13,65.94,79.74,131.11,56.74s79.74-85.11,84.34-104.27,15.33-29.14,31.43-32.21,46-11.91,49.26-24.52-20.59,2-34.08-18.29,11.51-40.66,34.38-55.7l182.7-124.51,26.94-1.12s35.28-16.94,45.83-16.94c0,0-8.59-2-8.61-7.22S547,81.38,542.68,81.17s-5.28-5.84-5.28-5.84L492.68,95.89l-10.27,9.44L233.84,260.91"/><polygon class="cls-3" points="164.57 295.87 138.55 312.54 174.84 359.24 203.2 339.78 164.57 295.87"/><polygon class="cls-3" points="145.05 312.95 173.92 349.74 195.47 335.31 164.98 300.35 145.05 312.95"/><polygon class="cls-3" points="209.29 272.7 237.35 306.04 257.68 293.43 227.67 260.91 209.29 272.7"/><polygon class="cls-3" points="226.5 253.23 202.02 269.09 239.79 315.8 267.03 295.87 226.5 253.23"/><line class="cls-3" x1="234.03" y1="308.63" x2="199" y2="334.35"/><path class="cls-3" d="M174.84,359.24l20.63,30.15c2.85,6.5,13,11.79,22-3.26s52.85-75.62,56.11-80.09-3.66-13.83,0-26.43l-12.93,9.49"/><line class="cls-3" x1="235.94" y1="378.62" x2="224.02" y2="375.94"/><line class="cls-3" x1="238.43" y1="370.57" x2="229.98" y2="367.22"/><path class="cls-3" d="M27.52,438.55c9.54,20.68,65.19,79.31,128.49,57.22s75.36-74.77,79.1-86.24,4.94-41.21,43.22-46.31,40.4-25.49,40.4-25.49l-2-19.28"/><path class="cls-3" d="M104,429.44c-5,3.35-4.38,11.68,0,14.6a10.28,10.28,0,0,0,13.87-1.7c3.9-4.38,1.22-10.47-2.19-12.9A10.23,10.23,0,0,0,104,429.44Z"/><path class="cls-3" d="M143.89,402.42c-2.59,2.44-3.27,8.27,1.16,11.92s9.55-.73,11.5-2.92,1-7.3-1.47-9S146.47,400,143.89,402.42Z"/><path class="cls-3" d="M141.83,443.22c-10.59,8.69,1.68,17.38,10.09,12.44S149.85,436.63,141.83,443.22Z"/><path class="cls-3" d="M180.84,418.15c-7,6.34,4.2,18.74,12.26,9.46S188.34,411.38,180.84,418.15Z"/><path class="cls-3" d="M97.25,341.9c-3.89-5.06,2-15.58,10.13-8.18s32.71,39.53,35.82,45.76-4.47,14-11.29,6.23S97.25,341.9,97.25,341.9Z"/><path class="cls-3" d="M126.26,328.47c-4.48-5.46.78-14,8-8.18s26.64,30.31,30.76,35-.29,14.69-9.72,5.36C144,350,126.26,328.47,126.26,328.47Z"/><path class="cls-3" d="M220.53,226.23c-14,8.68,3.69,22.08,14.58,13.59S232,219.08,220.53,226.23Z"/><line class="cls-3" x1="273.54" y1="279.61" x2="316.93" y2="247.9"/><line class="cls-3" x1="240.99" y1="256.43" x2="266.06" y2="285.1"/><line class="cls-3" x1="247.3" y1="252.48" x2="271.45" y2="281.14"/><line class="cls-3" x1="253.52" y1="248.59" x2="278.33" y2="276.11"/><line class="cls-3" x1="260.19" y1="244.41" x2="283.92" y2="272.02"/><line class="cls-3" x1="291.05" y1="266.81" x2="267.03" y2="240.13"/><line class="cls-3" x1="275.39" y1="234.9" x2="299.02" y2="260.91"/><line class="cls-3" x1="306.55" y1="255.48" x2="282.55" y2="230.42"/><line class="cls-3" x1="291.05" y1="225.1" x2="314.57" y2="249.62"/><line class="cls-3" x1="323.15" y1="243.66" x2="299.02" y2="220.11"/><line class="cls-3" x1="309.67" y1="213.45" x2="332.39" y2="237.36"/><line class="cls-3" x1="341.75" y1="230.98" x2="319.53" y2="207.28"/><line class="cls-3" x1="351.88" y1="224.08" x2="329.3" y2="201.16"/><line class="cls-3" x1="339.57" y1="194.73" x2="362.02" y2="217.17"/><line class="cls-3" x1="372.77" y1="209.84" x2="351.88" y2="187.03"/><line class="cls-3" x1="363.62" y1="179.68" x2="384.82" y2="201.63"/><line class="cls-3" x1="396.62" y1="193.59" x2="375.29" y2="172.37"/><line class="cls-3" x1="388.51" y1="164.1" x2="409.81" y2="184.6"/><line class="cls-3" x1="422.55" y1="175.92" x2="401.69" y2="155.85"/><line class="cls-3" x1="415.8" y1="147.02" x2="437.27" y2="165.89"/><line class="cls-3" x1="451.11" y1="156.45" x2="430.69" y2="137.7"/><line class="cls-3" x1="445.89" y1="128.19" x2="466.08" y2="146.25"/><line class="cls-3" x1="481.57" y1="135.7" x2="462" y2="118.11"/><line class="cls-3" x1="479.9" y1="106.9" x2="497.36" y2="124.93"/><line class="cls-3" x1="499.63" y1="123.39" x2="482.41" y2="105.33"/><path class="cls-3" d="M528.16,128a31.39,31.39,0,0,1-6.88,1.9c-7,.4-17-3.18-20.68-1.66S331.78,241.81,327,246.39s-16.13,17.55-19,27.67-27.42,17.46-26.91,27.15"/><path class="cls-3" d="M542,122.35c-2.54,1.11-5,2.16-7.34,3.1"/><path class="cls-3" d="M555.86,115.87c-2.45,1.22-5,2.46-7.63,3.67"/><path class="cls-3" d="M572.4,105.33c-.24,1.5-5.49,4.8-12.56,8.51"/><path class="cls-3" d="M250,301.21c-3.59,1.9-.31,4.76,2,3.22S252,300.15,250,301.21Z"/><path class="cls-3" d="M266.06,287.64c-2.69,1.53-.2,5.24,2.57,4.16S269,285.94,266.06,287.64Z"/><path class="cls-3" d="M215.78,262.6c-2,1.24-1.06,4.26,1.6,2.75S217.82,261.36,215.78,262.6Z"/><path class="cls-3" d="M207.29,366c-3.4,2.37.89,7.3,3.68,4.54A2.92,2.92,0,0,0,207.29,366Z"/><path class="cls-3" d="M185.8,344.59c-1.7.78-.73,5.53,2.36,3.49S188.81,343.21,185.8,344.59Z"/><path class="cls-3" d="M131.16,323.5c-3.84,2.35-1,8.75,3,6.08S135,321.15,131.16,323.5Z"/><path class="cls-3" d="M136.6,330.22c-4.18,2.33-1.75,7.7,2.88,4.13S139.48,328.62,136.6,330.22Z"/><path class="cls-3" d="M141,335.54c-3.34,2.37-.28,6.53,2.95,3.86S143.85,333.5,141,335.54Z"/><path class="cls-3" d="M145.88,340.89c-3.19,1.94-1.07,7.9,2.24,4.91S148.87,339.08,145.88,340.89Z"/><path class="cls-3" d="M155.06,351.35c-2.88,2.56-.32,7.79,2.66,4.91S157.94,348.79,155.06,351.35Z"/><path class="cls-3" d="M153,350.6c2.88-2.24-.63-6-3.36-4S150.15,352.84,153,350.6Z"/><path class="cls-3" d="M101.21,346c.71-3,3.4-3.6,6.23,0s20.3,25.7,21.91,28.25.41,6.71-2.32,5.55"/><path class="cls-3" d="M135.06,378.39c5.33-3.5,8.73,4.76,4.46,7.36S130.53,381.36,135.06,378.39Z"/><path class="cls-3" d="M104.18,341.59c3.76-1.62,1.21-9.42-3-7.81S98.94,343.84,104.18,341.59Z"/><polyline class="cls-3" points="113.04 499.49 110.1 491.81 137.72 491.81 138.97 499.88"/><path class="cls-4" d="M28.38,440.28c-3.26-.43-6.49.46-2.72,6.94s7.66,2.88,7.07,0"/><polygon class="cls-3" points="254.6 253.47 254.6 257.34 267.03 272.72 272.06 272.72 254.6 253.47"/><polygon class="cls-3" points="267.38 244.41 267.38 249.62 280.15 263.75 285.12 263.75 267.38 244.41"/><polygon class="cls-3" points="283.18 234.32 281.97 239.41 295.24 254.08 300.99 254.4 283.18 234.32"/><polygon class="cls-3" points="299.02 224.08 299.02 230.98 311.08 242.95 318.07 242.08 299.02 224.08"/><polygon class="cls-3" points="329.3 205.95 326.91 211.43 338.18 223.93 345.33 222.94 329.3 205.95"/><polygon class="cls-3" points="363.62 185.51 359.38 192.05 369.31 201.63 379 199.31 363.62 185.51"/><polygon class="cls-3" points="388.51 169.52 382.88 175.33 393.66 185.51 401.69 182.24 388.51 169.52"/><polygon class="cls-3" points="416.8 151.59 409.81 160.19 418.98 169.52 429.15 164.1 416.8 151.59"/><polygon class="cls-3" points="445.89 132.81 439.81 140.81 448.05 149.41 459.19 144.56 445.89 132.81"/><path class="cls-3" d="M151.37,312.19c3.38-1.85,5.53,2.79,3.28,4.19S147.46,314.34,151.37,312.19Z"/><path class="cls-3" d="M157,318.33c-2.11,1.39-.11,5.56,2.47,3.63A2.2,2.2,0,1,0,157,318.33Z"/><path class="cls-3" d="M161.62,323.46c-1.85,1.21-1.39,6.68,2.15,4.09S164.09,321.85,161.62,323.46Z"/><path class="cls-3" d="M165.81,329.68c2.85-3.44,5.36,1.57,2.79,2.93S163.77,332.15,165.81,329.68Z"/><path class="cls-3" d="M170.26,334.35c-2,2-.27,5.86,2.09,3.92S172.25,332.36,170.26,334.35Z"/><path class="cls-3" d="M173.75,340.26c2.79-2.09,5.48,2.31,3.33,3.59S171,342.36,173.75,340.26Z"/><path class="cls-3" d="M226.29,265.14c1.91-1.61,4.78,2,2.77,3.41S223.32,267.63,226.29,265.14Z"/><path class="cls-3" d="M231.57,270.36c2.11-1.29,3.93,3,1.92,4.22S228.48,272.24,231.57,270.36Z"/><path class="cls-3" d="M235.69,275.39c1.24-1,4.42,3,2.11,4.22S232.61,277.83,235.69,275.39Z"/><path class="cls-3" d="M240.11,280.61c1.89-2,4.52,2.41,2.11,3.52S237.7,283.12,240.11,280.61Z"/><path class="cls-3" d="M244.33,285.21c2.08-1.84,4.73,2.16,2.62,3.69A2.26,2.26,0,1,1,244.33,285.21Z"/><path class="cls-3" d="M248.4,290.06c1.91-1.87,4.37,2.11,3,3.62S246.13,292.27,248.4,290.06Z"/><polyline class="cls-5" points="137.32 370.57 156.12 353.85 497.36 121.01 526.52 113.52"/><polyline class="cls-5" points="130.54 361.41 146.72 343.52 492.5 115.92 554.72 103.08"/><polyline class="cls-5" points="119.97 347.94 137.95 332.61 487.54 110.71 519.64 91.08"/><polyline class="cls-5" points="114.99 341.94 132.66 326.59 485.36 106.9 506.57 97.16"/><polyline class="cls-5" points="124.7 353.85 142.39 337.58 489.31 112.57 532.91 85.63"/><polyline class="cls-5" points="134.45 366.63 151.37 348.59 495.23 118.78 540.45 107.78"/><path class="cls-3" d="M100.67,438.8c-.09,3.28,2.67,11.68,13.83,9.43s3.86-15.76,3.86-15.76"/><path class="cls-3" d="M137.72,451.11c.87,4.77,4.29,11.46,12,9.4s7.65-8.48,4.86-12.61"/><path class="cls-3" d="M179.25,425.83c.15,3.7,4.76,9.24,10.77,8.21s8.49-6.05,5.64-13.27"/><path class="cls-3" d="M141.83,408.94c1,4.08,2.5,11,10.07,9.49s8.61-5.92,5.51-11.93"/><path class="cls-3" d="M219.6,232.47c.82,3.73,3.51,6.19,6.69,6.19s7.51-2,7.2-7.25-4.19-4.61-7.2-4.48S219.06,230,219.6,232.47Z"/><path class="cls-3" d="M554.86,113.08l1,5.32s1.35,1.45,3.36,3.68,3.74,3.69,6.42,2.06,1.72-3.51,0-5.18-4-3.74-4-3.74l-4-2.74"/><path class="cls-3" d="M542,119.07v5.62a35.94,35.94,0,0,0,3.36,4.49c1.92,2.15,3.07,3.37,6.73,1.59s1.53-3.73.57-5.42-3.46-5.06-3.46-5.06L545.48,118"/><path class="cls-3" d="M528.16,124.59v5.28a29.33,29.33,0,0,0,2.11,3.92c1.05,1.53,3.25,4,6.68,2.13s1.67-4.52,1-5.71S535,126,535,126l-3.78-2.65"/><path class="cls-3" d="M489.31,99c-2-.89-2.63-3.73,0-6.25s5.73.66,6.65,1.64"/><path class="cls-3" d="M501.59,91.79c-1.14-1.57-1.88-3.45.53-4.92s4.73.47,5.57,2.12"/><path class="cls-3" d="M515,85.63c-1.32-1.7-1.32-4.64.47-5.38a4.28,4.28,0,0,1,5.94,2.44"/><path class="cls-3" d="M523.54,109.76c-3.26,1-1,9.4,4.62,7.63S530.45,107.63,523.54,109.76Z"/><path class="cls-3" d="M537.9,104.16c-4.51,2.66,1.24,9.69,5.32,7.15S541.8,101.86,537.9,104.16Z"/><path class="cls-3" d="M551.73,99c-3.65,1.1-.71,10.72,5.14,7.91S556.87,97.43,551.73,99Z"/><path class="cls-3" d="M531,82.1c-4.75,1.42-1.26,8.26,3.61,7S536.38,80.51,531,82.1Z"/><path class="cls-3" d="M517.72,88c-4.11,2.13-1.13,8.51,3.68,6.21S521.84,85.82,517.72,88Z"/><path class="cls-3" d="M504.11,93.63c-4.25.94-1.14,9.39,4.35,6.73S509.68,92.39,504.11,93.63Z"/></g></g></g></g></svg>