<?xml version="1.0" encoding="utf-8"?>
<!-- Generator: Adobe Illustrator 23.0.1, SVG Export Plug-In . SVG Version: 6.00 Build 0)  -->
<svg version="1.1" id="Layer_1" xmlns="http://www.w3.org/2000/svg" xmlns:xlink="http://www.w3.org/1999/xlink" x="0px" y="0px"
	 viewBox="0 0 576 576" style="enable-background:new 0 0 576 576;" xml:space="preserve">
<style type="text/css">
	.st0{fill:none;stroke:#000000;stroke-width:2;stroke-linejoin:bevel;}
	.st1{fill:none;stroke:#000000;stroke-width:2;stroke-miterlimit:10;}
	.st2{fill:none;stroke:#000000;stroke-linejoin:bevel;}
</style>
<title>lespaul-black</title>
<g>
	<g id="lespaul">
		<g id="lespaul-black">
			<g id="Vector">
				<path class="st0" d="M278.3,231.6c-12.3-14.6-37.3-28.5-65-15.9s-30.1,39-50.4,49.6s-71.6-10.2-123.2,29.7S1.5,381.3,20.5,426.1
					c11.9,28.1,65.9,79.7,131.1,56.7s79.7-85.1,84.3-104.3s15.3-29.1,31.4-32.2s46-11.9,49.3-24.5s-20.6,2-34.1-18.3
					s11.5-40.7,34.4-55.7l182.7-124.5l26.9-1.1c0,0,35.3-16.9,45.8-16.9c0,0-8.6-2-8.6-7.2S547,81.4,542.7,81.2s-5.3-5.8-5.3-5.8
					l-44.7,20.6l-10.3,9.4L233.8,260.9"/>
				<polygon class="st0" points="164.6,295.9 138.6,312.5 174.8,359.2 203.2,339.8 				"/>
				<polygon class="st0" points="145.1,313 173.9,349.7 195.5,335.3 165,300.4 				"/>
				<polygon class="st0" points="209.3,272.7 237.4,306 257.7,293.4 227.7,260.9 				"/>
				<polygon class="st0" points="226.5,253.2 202,269.1 239.8,315.8 267,295.9 				"/>
				<line class="st0" x1="234" y1="308.6" x2="199" y2="334.4"/>
				<path class="st0" d="M174.8,359.2l20.6,30.1c2.9,6.5,13,11.8,22-3.3s52.9-75.6,56.1-80.1s-3.7-13.8,0-26.4l-12.9,9.5"/>
				<line class="st0" x1="235.9" y1="378.6" x2="224" y2="375.9"/>
				<line class="st0" x1="238.4" y1="370.6" x2="230" y2="367.2"/>
				<path class="st0" d="M27.5,438.5c9.5,20.7,65.2,79.3,128.5,57.2s75.4-74.8,79.1-86.2s4.9-41.2,43.2-46.3s40.4-25.5,40.4-25.5
					l-2-19.3"/>
				<path class="st0" d="M104,429.4c-5,3.4-4.4,11.7,0,14.6c4.4,3.1,10.4,2.4,13.9-1.7c3.9-4.4,1.2-10.5-2.2-12.9
					C112.2,427,107.5,427,104,429.4z"/>
				<path class="st0" d="M143.9,402.4c-2.6,2.4-3.3,8.3,1.2,11.9s9.6-0.7,11.5-2.9s1-7.3-1.5-9S146.5,400,143.9,402.4z"/>
				<path class="st0" d="M141.8,443.2c-10.6,8.7,1.7,17.4,10.1,12.4S149.9,436.6,141.8,443.2z"/>
				<path class="st0" d="M180.8,418.1c-7,6.3,4.2,18.7,12.3,9.5S188.3,411.4,180.8,418.1z"/>
				<path class="st0" d="M97.2,341.9c-3.9-5.1,2-15.6,10.1-8.2s32.7,39.5,35.8,45.8s-4.5,14-11.3,6.2S97.2,341.9,97.2,341.9z"/>
				<path class="st0" d="M126.3,328.5c-4.5-5.5,0.8-14,8-8.2c7.2,5.8,26.6,30.3,30.8,35s-0.3,14.7-9.7,5.4
					C144,350,126.3,328.5,126.3,328.5z"/>
				<path class="st0" d="M220.5,226.2c-14,8.7,3.7,22.1,14.6,13.6S232,219.1,220.5,226.2z"/>
				<line class="st0" x1="273.5" y1="279.6" x2="316.9" y2="247.9"/>
				<line class="st0" x1="241" y1="256.4" x2="266.1" y2="285.1"/>
				<line class="st0" x1="247.3" y1="252.5" x2="271.5" y2="281.1"/>
				<line class="st0" x1="253.5" y1="248.6" x2="278.3" y2="276.1"/>
				<line class="st0" x1="260.2" y1="244.4" x2="283.9" y2="272"/>
				<line class="st0" x1="291" y1="266.8" x2="267" y2="240.1"/>
				<line class="st0" x1="275.4" y1="234.9" x2="299" y2="260.9"/>
				<line class="st0" x1="306.5" y1="255.5" x2="282.5" y2="230.4"/>
				<line class="st0" x1="291" y1="225.1" x2="314.6" y2="249.6"/>
				<line class="st0" x1="323.1" y1="243.7" x2="299" y2="220.1"/>
				<line class="st0" x1="309.7" y1="213.4" x2="332.4" y2="237.4"/>
				<line class="st0" x1="341.8" y1="231" x2="319.5" y2="207.3"/>
				<line class="st0" x1="351.9" y1="224.1" x2="329.3" y2="201.2"/>
				<line class="st0" x1="339.6" y1="194.7" x2="362" y2="217.2"/>
				<line class="st0" x1="372.8" y1="209.8" x2="351.9" y2="187"/>
				<line class="st0" x1="363.6" y1="179.7" x2="384.8" y2="201.6"/>
				<line class="st0" x1="396.6" y1="193.6" x2="375.3" y2="172.4"/>
				<line class="st0" x1="388.5" y1="164.1" x2="409.8" y2="184.6"/>
				<line class="st0" x1="422.5" y1="175.9" x2="401.7" y2="155.9"/>
				<line class="st0" x1="415.8" y1="147" x2="437.3" y2="165.9"/>
				<line class="st0" x1="451.1" y1="156.4" x2="430.7" y2="137.7"/>
				<line class="st0" x1="445.9" y1="128.2" x2="466.1" y2="146.2"/>
				<line class="st0" x1="481.6" y1="135.7" x2="462" y2="118.1"/>
				<line class="st0" x1="479.9" y1="106.9" x2="497.4" y2="124.9"/>
				<line class="st0" x1="499.6" y1="123.4" x2="482.4" y2="105.3"/>
				<path class="st0" d="M528.2,128c-2.2,0.9-4.5,1.5-6.9,1.9c-7,0.4-17-3.2-20.7-1.7c-3.7,1.5-168.8,113.6-173.6,118.2
					s-16.1,17.6-19,27.7s-27.4,17.5-26.9,27.1"/>
				<path class="st0" d="M542,122.3c-2.5,1.1-5,2.2-7.3,3.1"/>
				<path class="st0" d="M555.9,115.9c-2.5,1.2-5,2.5-7.6,3.7"/>
				<path class="st0" d="M572.4,105.3c-0.2,1.5-5.5,4.8-12.6,8.5"/>
				<path class="st0" d="M250,301.2c-3.6,1.9-0.3,4.8,2,3.2S252,300.1,250,301.2z"/>
				<path class="st0" d="M266.1,287.6c-2.7,1.5-0.2,5.2,2.6,4.2S269,285.9,266.1,287.6z"/>
				<path class="st0" d="M215.8,262.6c-2,1.2-1.1,4.3,1.6,2.8S217.8,261.4,215.8,262.6z"/>
				<path class="st0" d="M207.3,366c-3.4,2.4,0.9,7.3,3.7,4.5c1.3-1,1.4-2.9,0.4-4.1C210.4,365.2,208.5,365,207.3,366z"/>
				<path class="st0" d="M185.8,344.6c-1.7,0.8-0.7,5.5,2.4,3.5S188.8,343.2,185.8,344.6z"/>
				<path class="st0" d="M131.2,323.5c-3.8,2.4-1,8.8,3,6.1S135,321.1,131.2,323.5z"/>
				<path class="st0" d="M136.6,330.2c-4.2,2.3-1.8,7.7,2.9,4.1S139.5,328.6,136.6,330.2z"/>
				<path class="st0" d="M141,335.5c-3.3,2.4-0.3,6.5,2.9,3.9S143.9,333.5,141,335.5z"/>
				<path class="st0" d="M145.9,340.9c-3.2,1.9-1.1,7.9,2.2,4.9S148.9,339.1,145.9,340.9z"/>
				<path class="st0" d="M155.1,351.4c-2.9,2.6-0.3,7.8,2.7,4.9S157.9,348.8,155.1,351.4z"/>
				<path class="st0" d="M153,350.6c2.9-2.2-0.6-6-3.4-4S150.1,352.8,153,350.6z"/>
				<path class="st0" d="M101.2,346c0.7-3,3.4-3.6,6.2,0s20.3,25.7,21.9,28.2s0.4,6.7-2.3,5.5"/>
				<path class="st0" d="M135.1,378.4c5.3-3.5,8.7,4.8,4.5,7.4S130.5,381.4,135.1,378.4z"/>
				<path class="st0" d="M104.2,341.6c3.8-1.6,1.2-9.4-3-7.8S98.9,343.8,104.2,341.6z"/>
				<polyline class="st0" points="113,499.5 110.1,491.8 137.7,491.8 139,499.9 				"/>
				<path class="st1" d="M28.4,440.3c-3.3-0.4-6.5,0.5-2.7,6.9s7.7,2.9,7.1,0"/>
				<polygon class="st0" points="254.6,253.5 254.6,257.3 267,272.7 272.1,272.7 				"/>
				<polygon class="st0" points="267.4,244.4 267.4,249.6 280.1,263.8 285.1,263.8 				"/>
				<polygon class="st0" points="283.2,234.3 282,239.4 295.2,254.1 301,254.4 				"/>
				<polygon class="st0" points="299,224.1 299,231 311.1,242.9 318.1,242.1 				"/>
				<polygon class="st0" points="329.3,205.9 326.9,211.4 338.2,223.9 345.3,222.9 				"/>
				<polygon class="st0" points="363.6,185.5 359.4,192.1 369.3,201.6 379,199.3 				"/>
				<polygon class="st0" points="388.5,169.5 382.9,175.3 393.7,185.5 401.7,182.2 				"/>
				<polygon class="st0" points="416.8,151.6 409.8,160.2 419,169.5 429.1,164.1 				"/>
				<polygon class="st0" points="445.9,132.8 439.8,140.8 448,149.4 459.2,144.6 				"/>
				<path class="st0" d="M151.4,312.2c3.4-1.9,5.5,2.8,3.3,4.2S147.5,314.3,151.4,312.2z"/>
				<path class="st0" d="M157,318.3c-2.1,1.4-0.1,5.6,2.5,3.6c1-0.6,1.4-2,0.8-3c-0.6-1-2-1.4-3-0.8
					C157.2,318.2,157.1,318.3,157,318.3z"/>
				<path class="st0" d="M161.6,323.5c-1.9,1.2-1.4,6.7,2.1,4.1S164.1,321.9,161.6,323.5z"/>
				<path class="st0" d="M165.8,329.7c2.9-3.4,5.4,1.6,2.8,2.9S163.8,332.1,165.8,329.7z"/>
				<path class="st0" d="M170.3,334.4c-2,2-0.3,5.9,2.1,3.9S172.2,332.4,170.3,334.4z"/>
				<path class="st0" d="M173.8,340.3c2.8-2.1,5.5,2.3,3.3,3.6S171,342.4,173.8,340.3z"/>
				<path class="st0" d="M226.3,265.1c1.9-1.6,4.8,2,2.8,3.4S223.3,267.6,226.3,265.1z"/>
				<path class="st0" d="M231.6,270.4c2.1-1.3,3.9,3,1.9,4.2S228.5,272.2,231.6,270.4z"/>
				<path class="st0" d="M235.7,275.4c1.2-1,4.4,3,2.1,4.2S232.6,277.8,235.7,275.4z"/>
				<path class="st0" d="M240.1,280.6c1.9-2,4.5,2.4,2.1,3.5S237.7,283.1,240.1,280.6z"/>
				<path class="st0" d="M244.3,285.2c2.1-1.8,4.7,2.2,2.6,3.7c-1,0.7-2.4,0.5-3.2-0.5S243.3,285.9,244.3,285.2L244.3,285.2z"/>
				<path class="st0" d="M248.4,290.1c1.9-1.9,4.4,2.1,3,3.6S246.1,292.3,248.4,290.1z"/>
				<polyline class="st2" points="137.3,370.6 156.1,353.9 497.4,121 526.5,113.5 				"/>
				<polyline class="st2" points="130.5,361.4 146.7,343.5 492.5,115.9 554.7,103.1 				"/>
				<polyline class="st2" points="120,347.9 137.9,332.6 487.5,110.7 519.6,91.1 				"/>
				<polyline class="st2" points="115,341.9 132.7,326.6 485.4,106.9 506.6,97.2 				"/>
				<polyline class="st2" points="124.7,353.9 142.4,337.6 489.3,112.6 532.9,85.6 				"/>
				<polyline class="st2" points="134.4,366.6 151.4,348.6 495.2,118.8 540.5,107.8 				"/>
				<path class="st0" d="M100.7,438.8c-0.1,3.3,2.7,11.7,13.8,9.4s3.9-15.8,3.9-15.8"/>
				<path class="st0" d="M137.7,451.1c0.9,4.8,4.3,11.5,12,9.4s7.6-8.5,4.9-12.6"/>
				<path class="st0" d="M179.2,425.8c0.1,3.7,4.8,9.2,10.8,8.2s8.5-6,5.6-13.3"/>
				<path class="st0" d="M141.8,408.9c1,4.1,2.5,11,10.1,9.5s8.6-5.9,5.5-11.9"/>
				<path class="st0" d="M219.6,232.5c0.8,3.7,3.5,6.2,6.7,6.2s7.5-2,7.2-7.2s-4.2-4.6-7.2-4.5S219.1,230,219.6,232.5z"/>
				<path class="st0" d="M554.9,113.1l1,5.3c0,0,1.3,1.4,3.4,3.7s3.7,3.7,6.4,2.1s1.7-3.5,0-5.2s-4-3.7-4-3.7l-4-2.7"/>
				<path class="st0" d="M542,119.1v5.6c1,1.6,2.1,3.1,3.4,4.5c1.9,2.1,3.1,3.4,6.7,1.6s1.5-3.7,0.6-5.4s-3.5-5.1-3.5-5.1l-3.7-2.3"
					/>
				<path class="st0" d="M528.2,124.6v5.3c0.6,1.4,1.3,2.7,2.1,3.9c1,1.5,3.2,4,6.7,2.1s1.7-4.5,1-5.7S535,126,535,126l-3.8-2.7"/>
				<path class="st0" d="M489.3,99c-2-0.9-2.6-3.7,0-6.2s5.7,0.7,6.6,1.6"/>
				<path class="st0" d="M501.6,91.8c-1.1-1.6-1.9-3.4,0.5-4.9s4.7,0.5,5.6,2.1"/>
				<path class="st0" d="M515,85.6c-1.3-1.7-1.3-4.6,0.5-5.4c2.1-1,4.7-0.2,5.7,1.9c0.1,0.2,0.1,0.3,0.2,0.5"/>
				<path class="st0" d="M523.5,109.8c-3.3,1-1,9.4,4.6,7.6S530.5,107.6,523.5,109.8z"/>
				<path class="st0" d="M537.9,104.2c-4.5,2.7,1.2,9.7,5.3,7.2S541.8,101.9,537.9,104.2z"/>
				<path class="st0" d="M551.7,99c-3.7,1.1-0.7,10.7,5.1,7.9S556.9,97.4,551.7,99z"/>
				<path class="st0" d="M531,82.1c-4.8,1.4-1.3,8.3,3.6,7S536.4,80.5,531,82.1z"/>
				<path class="st0" d="M517.7,88c-4.1,2.1-1.1,8.5,3.7,6.2S521.8,85.8,517.7,88z"/>
				<path class="st0" d="M504.1,93.6c-4.2,0.9-1.1,9.4,4.4,6.7S509.7,92.4,504.1,93.6z"/>
			</g>
		</g>
	</g>
</g>
</svg>
