<?xml version="1.0" encoding="utf-8"?>
<!-- Generator: Adobe Illustrator 23.0.1, SVG Export Plug-In . SVG Version: 6.00 Build 0)  -->
<svg version="1.1" id="Layer_1" xmlns="http://www.w3.org/2000/svg" xmlns:xlink="http://www.w3.org/1999/xlink" x="0px" y="0px"
	 viewBox="0 0 576 576" style="enable-background:new 0 0 576 576;" xml:space="preserve">
<style type="text/css">
	.st0{fill:none;stroke:#000000;stroke-width:2;stroke-linejoin:bevel;}
	.st1{fill:none;stroke:#000000;stroke-width:2;stroke-linecap:round;stroke-linejoin:round;}
</style>
<title>pens-black</title>
<g>
	<g id="pens">
		<g id="pens-black">
			<g id="Vector">
				<g id="Pen">
					<path class="st0" d="M446,26.5c0,0,2.4-2.2,9.9-2.2s11.8,2.2,11.8,2.2l18.7,148.3c-11.1,2-22.3,3.1-33.5,3.2
						c-9.8,0-19.5-1.1-29.1-3.3L446,26.5z"/>
					<path class="st0" d="M494,560.3c0,0-11.7,4.8-48.2,4.8s-47.7-8.8-47.7-8.8l-1.2-18.7c0,0,7.4,8.9,47.5,9.6s51.5-7.1,51.5-7.1
						L494,560.3z"/>
					<line class="st0" x1="494.9" y1="572.4" x2="494" y2="560.3"/>
					<line class="st0" x1="398.1" y1="568.6" x2="398.1" y2="556.3"/>
					<path class="st0" d="M495.8,540.1c0,0,2.3-10.6,1-12.7c2.2-2.2,4.9-14.9-2.9-16.9c0,4.3,0,14.2-52.7,12.6s-40.4-10.8-40.8-14
						c0,0-9.9,10.4-1.4,18.3c-3.3,3.1-2.2,10.2-2.2,10.2"/>
					<path class="st0" d="M399,527.4c0,0,12.8,7.5,47.3,7.5s50.5-7.5,50.5-7.5"/>
					<path class="st0" d="M400.5,509.1c0,0,6.5-214.5,8.3-227.3l15.1-107.1"/>
					<path class="st0" d="M486.5,174.8c0,0,8.6,104.8,8.5,112.9s-1,222.9-1,222.9"/>
					<polyline class="st1" points="449.9,24.9 451.5,15.5 456.8,5.2 462.6,15.5 464.3,25.3 					"/>
				</g>
				<g id="Fountain_Pen">
					<path class="st0" d="M138.6,130.6c0-25.3,6.2-50.1,6.2-62.5S119.4,4.6,119.4,4.6S96.3,55.2,96.3,64.8s6.2,56.3,6.8,65.8H138.6z
						"/>
					<circle class="st0" cx="120.6" cy="67.5" r="4.9"/>
					<line class="st0" x1="119.4" y1="4.6" x2="120.6" y2="62.6"/>
					<path class="st0" d="M152.6,149c0,0-8.9-1.9-32.1-1.3S90.2,149,90.2,149c0.7-3.4-0.2-6.9-2.4-9.5c0,0,8.9-1.8,32.8-2
						s34,2.5,34,2.5S150.1,144,152.6,149z"/>
					<polyline class="st0" points="138.6,130.6 146.2,131.3 146.2,138.7 					"/>
					<polyline class="st0" points="103.1,130.6 95.7,131.8 95.7,138.6 					"/>
					<path class="st0" d="M152.6,149c0,0,9.9,141.3,9.4,201.6l-82,0.9c0,0,8.4-192.5,10.2-202.5"/>
					<polygon class="st0" points="168.1,365.6 165.7,366.6 80,366.6 76.8,365.6 76.8,355.6 80,351.5 162,350.6 168.1,353.9 					"/>
					<polygon class="st0" points="168.1,369.5 168.1,379 164.9,380.8 80,381.4 76.8,380.3 76.8,370.3 80,366.6 165.7,366.6 					"/>
					<path class="st0" d="M164.9,380.8l3.2,3.1c0,0-1.6,127.2-6.4,181.9"/>
					<path class="st0" d="M80,381.4l-2.2,3.1c0,0-1.4,143.2,3.4,181.3"/>
				</g>
				<g id="Pencil">
					<line class="st0" x1="258.6" y1="162" x2="268.7" y2="571"/>
					<polyline class="st0" points="250.1,560.6 241.2,168.9 251.2,155.5 258.6,162 275,155.5 300.4,162 308.6,155.5 313.5,162 
						320.4,560.6 					"/>
					<line class="st0" x1="300.4" y1="162" x2="308.7" y2="568.7"/>
					<polyline class="st0" points="241.2,168.9 276.3,3.6 313.5,162 					"/>
					<path class="st0" d="M264.8,57.8c8,5.8,20.1-17.7,20.1-17.7"/>
				</g>
			</g>
		</g>
	</g>
</g>
</svg>
