<svg xmlns="http://www.w3.org/2000/svg" viewBox="0 0 576 576"><defs><style>.cls-1{opacity:0;}.cls-2{fill:#fff;}.cls-3,.cls-4{fill:none;stroke:#000;stroke-width:2px;}.cls-3{stroke-linejoin:bevel;}.cls-4{stroke-linecap:round;stroke-linejoin:round;}</style></defs><title>pens-black</title><g id="Layer_2" data-name="Layer 2"><g id="pens"><g id="pens-black"><g id="Background" class="cls-1"><rect class="cls-2" width="576" height="576"/></g><g id="Vector"><g id="Pen"><path class="cls-3" d="M446,26.48s2.4-2.17,9.89-2.17,11.83,2.17,11.83,2.17l18.69,148.3a205.68,205.68,0,0,1-33.51,3.2,125.29,125.29,0,0,1-29.07-3.28Z"/><path class="cls-3" d="M494,560.28s-11.72,4.78-48.21,4.78-47.66-8.75-47.66-8.75l-1.25-18.69s7.4,8.94,47.48,9.56,51.49-7.09,51.49-7.09Z"/><line class="cls-3" x1="494.9" y1="572.4" x2="493.98" y2="560.28"/><line class="cls-3" x1="398.11" y1="568.59" x2="398.11" y2="556.31"/><path class="cls-3" d="M495.83,540.09s2.33-10.59,1-12.67c2.25-2.15,4.9-14.89-2.88-16.9,0,4.28,0,14.16-52.7,12.61s-40.35-10.85-40.81-14c0,0-9.92,10.39-1.43,18.28-3.29,3.11-2.18,10.2-2.18,10.2"/><path class="cls-3" d="M399,527.42s12.78,7.49,47.31,7.5,50.51-7.5,50.51-7.5"/><path class="cls-3" d="M400.47,509.14S407,294.68,408.8,281.81L423.87,174.7"/><path class="cls-3" d="M486.45,174.78s8.62,104.75,8.52,112.87-1,222.87-1,222.87"/><polyline class="cls-4" points="449.85 24.92 451.45 15.5 456.76 5.24 462.6 15.5 464.26 25.29"/></g><g id="Fountain_Pen" data-name="Fountain Pen"><path class="cls-3" d="M138.56,130.64c0-25.33,6.19-50.09,6.19-62.48S119.43,4.57,119.43,4.57,96.35,55.22,96.35,64.79s6.19,56.28,6.75,65.85Z"/><circle class="cls-3" cx="120.55" cy="67.54" r="4.93"/><line class="cls-3" x1="119.43" y1="4.57" x2="120.55" y2="62.62"/><path class="cls-3" d="M152.63,149s-8.88-1.86-32.08-1.33S90.17,149,90.17,149a11,11,0,0,0-2.43-9.47s8.89-1.77,32.81-2,34,2.46,34,2.46S150.07,144,152.63,149Z"/><polyline class="cls-3" points="138.56 130.64 146.24 131.26 146.24 138.68"/><polyline class="cls-3" points="103.11 130.64 95.7 131.75 95.7 138.56"/><path class="cls-3" d="M152.63,149s9.85,141.28,9.37,201.6l-82,.92S88.4,159.05,90.17,149"/><polygon class="cls-3" points="168.05 365.65 165.66 366.6 79.97 366.6 76.82 365.65 76.82 355.63 79.97 351.51 162 350.58 168.05 353.89 168.05 365.65"/><polygon class="cls-3" points="168.05 369.46 168.05 379 164.87 380.75 79.97 381.38 76.82 380.27 76.82 370.26 79.97 366.6 165.66 366.6 168.05 369.46"/><path class="cls-3" d="M164.87,380.75l3.18,3.12s-1.56,127.19-6.41,181.93"/><path class="cls-3" d="M80,381.38l-2.19,3.1S76.37,527.66,81.19,565.8"/></g><g id="Pencil"><line class="cls-3" x1="258.57" y1="162.02" x2="268.68" y2="570.97"/><polyline class="cls-3" points="250.07 560.63 241.2 168.92 251.19 155.46 258.57 162.02 274.98 155.46 300.4 162.02 308.61 155.46 313.5 162.02 320.37 560.63"/><line class="cls-3" x1="300.4" y1="162.02" x2="308.72" y2="568.65"/><polyline class="cls-3" points="241.2 168.92 276.26 3.6 313.5 162.02"/><path class="cls-3" d="M264.77,57.8c8.05,5.76,20.06-17.74,20.06-17.74"/></g></g></g></g></g></svg>