<?xml version="1.0" encoding="utf-8"?>
<!-- Generator: Adobe Illustrator 23.0.1, SVG Export Plug-In . SVG Version: 6.00 Build 0)  -->
<svg version="1.1" id="Layer_1" xmlns="http://www.w3.org/2000/svg" xmlns:xlink="http://www.w3.org/1999/xlink" x="0px" y="0px"
	 viewBox="0 0 576 576" style="enable-background:new 0 0 576 576;" xml:space="preserve">
<style type="text/css">
	.st0{fill:none;stroke:#FFFFFF;stroke-linejoin:bevel;}
	.st1{fill:none;stroke:#FFFFFF;stroke-miterlimit:10;}
</style>
<title>recordplayer-white</title>
<g>
	<g id="recordplayer">
		<g id="recordplayer-white">
			<g id="vector">
				<line class="st0" x1="451.3" y1="313.1" x2="350.5" y2="303.6"/>
				<polyline class="st0" points="47.5,379.5 3.6,420.6 502.9,477.2 572.4,324.6 510.3,318.7 				"/>
				<polyline class="st0" points="228.5,292 149,284.5 61,366.9 				"/>
				<path class="st0" d="M61,366.9c-5.8-0.1-13.2,3.1-13.5,5.9s0,5.7,10.7,5.9c11.5,0.3,16.9-3.1,16.6-6.4S66.8,367,61,366.9"/>
				<path class="st0" d="M74.8,372.4v20.9c-4,2.7-8.8,4.1-13.7,4.1c-4.9,0-9.8-1.6-13.7-4.6v-20"/>
				<polygon class="st0" points="34.8,400.2 73.6,404.8 59.2,418.1 19.4,413.7 				"/>
				<polygon class="st0" points="73.6,416.5 68.7,420.9 91.2,423.7 95.2,419.2 				"/>
				<polygon class="st0" points="98.4,419.5 95.2,424.1 118.3,426.9 120.7,423.2 				"/>
				<polygon class="st0" points="502.9,477.2 502.9,493.6 3.6,435 3.6,420.6 				"/>
				<polygon class="st0" points="572.4,324.6 572.4,338.7 502.9,493.6 502.9,477.2 				"/>
				<polygon class="st0" points="572.4,365.4 506,524.5 502.9,493.6 572.4,338.7 				"/>
				<polygon class="st0" points="3.6,435 3.6,470.3 506,524.5 502.9,493.6 				"/>
				<path class="st0" d="M86.4,485.5c1.2,13.5-2,18.4-29.9,20.3S25.1,498.7,24,487c0,0,2.7,6.3,34.3,4.2S86.4,485.5,86.4,485.5z"/>
				<path class="st0" d="M445.5,529.5c-0.2,8.3,0.4,19.9,31.5,19.9c36.1,0,33.1-14,32.4-19.9c0,0-8.5,8-32,7.1
					C455,535.7,445.5,529.5,445.5,529.5z"/>
				<line class="st0" x1="446.2" y1="517.8" x2="445.5" y2="529.5"/>
				<line class="st0" x1="508" y1="519.6" x2="509.3" y2="529.5"/>
				<path class="st0" d="M445.8,521.8c0,0,3.6,8.6,33.6,8.2s28.6-8,28.6-8"/>
				<line class="st1" x1="21.8" y1="472.3" x2="24" y2="487"/>
				<path class="st0" d="M564.2,384.9c0,0,5.2,22.4-1.4,26.3s-10.9,3.2-10.9,3.2"/>
				<path class="st0" d="M557.8,400.4c0,0,6.3-2.6,7.7-4.5"/>
				<polygon class="st0" points="485.9,410 483.8,414.4 500.8,415.2 502.9,410 				"/>
				<polygon class="st0" points="483,425.1 483.8,414.4 500.8,415.2 500.8,426.1 				"/>
				<polygon class="st0" points="502.9,410 504.4,419 500.8,426.1 500.8,415.2 				"/>
				<line class="st0" x1="499.7" y1="410" x2="504.4" y2="399.6"/>
				<line class="st0" x1="483.3" y1="446" x2="492.6" y2="425.6"/>
				<polyline class="st0" points="483.3,421.4 469.3,449.5 491,450.9 516.7,395.9 497.1,394 489.1,410 				"/>
				<line class="st0" x1="484.2" y1="398.2" x2="494.7" y2="398.2"/>
				<line class="st0" x1="482.6" y1="402.9" x2="492.6" y2="402.9"/>
				<line class="st0" x1="480.6" y1="407.7" x2="490.1" y2="407.7"/>
				<line class="st0" x1="477.9" y1="413.2" x2="484.2" y2="413.2"/>
				<line class="st0" x1="474.8" y1="418.9" x2="483.1" y2="418.9"/>
				<line class="st0" x1="472" y1="424.5" x2="480.9" y2="425.4"/>
				<line class="st0" x1="469.5" y1="430.2" x2="477.8" y2="431.6"/>
				<line class="st0" x1="466.9" y1="436.7" x2="475.5" y2="436.7"/>
				<line class="st0" x1="463.8" y1="442.9" x2="472.6" y2="442.9"/>
				<path class="st0" d="M286.2,435c3,0,6.2-1.4,6.3-3s-3.5-2.5-5.6-2.5s-6,0.1-6.2,2.2S283.2,435,286.2,435z"/>
				<path class="st0" d="M292.5,432.1v11.5c0,0-1.5,2.5-5.5,2.6c-2.4,0-4.7-0.9-6.4-2.6l0-11.8"/>
				<path class="st0" d="M520.7,338.6c5,0.3,12.3-2,12.3-4.4s-7.4-4.3-12.3-4.3s-10.7,0.7-10.7,3.3S515.8,338.3,520.7,338.6z"/>
				<path class="st0" d="M452.4,371.6c-5.5-1.7-10.7-4-15.7-6.8"/>
				<path class="st0" d="M533.1,337.6c4.8,3.5,7.3,7.8,6.5,13.2c-2.5,16.1-18.2,28.1-62,24.7c-4.4-0.4-8.6-0.9-12.5-1.5"/>
				<path class="st0" d="M425.1,339c5.2-5.8,13.8-9.5,24.3-11.6"/>
				<path class="st0" d="M436.5,391.4c0,0,28-13.2,31.7-21.8s3.6-34.7,3.6-34.7s-2.6-2.4-5-2.4c-1.6,0.1-3.1,0.7-4.4,1.7
					c0,0,1.1,22.5-3.8,31.2s-27.9,16.9-27.9,16.9"/>
				<polygon class="st0" points="430.8,382.4 416.5,389.2 421.9,396.6 436.5,391.4 				"/>
				<polygon class="st0" points="421.7,400.6 421.9,396.6 436.5,391.4 436.5,395.1 				"/>
				<polygon class="st0" points="416.5,389.2 416.5,394.5 421.7,400.6 421.9,396.6 				"/>
				<polyline class="st0" points="568.5,310.6 533.1,104 47.5,75.3 149.2,274.8 454.1,299.6 				"/>
				<polygon class="st0" points="537.7,52.6 533.1,104 47.5,75.3 64.8,26.7 				"/>
				<polygon class="st0" points="200.5,264.5 195.2,278.6 251.6,283.2 253.8,268.5 				"/>
				<polyline class="st0" points="491.1,302.6 518.8,305.5 521.6,288.9 459.1,282.6 458.2,289 				"/>
				<path class="st0" d="M470.6,358.4c2.6,0.5,5.2,0.8,7.8,1c9,0.4,18-0.3,26.8-2.1"/>
				<path class="st0" d="M449.5,334.7c-7.2,2.2-12.4,5-13,7.6c-1,4.3,11.4,10.4,25,14.1"/>
				<path class="st0" d="M511.4,355.7c7.3-2,12.4-4.7,12.4-7.3"/>
				<path class="st0" d="M469.6,364.6c3.7,0.8,7.5,1.3,11.2,1.5c25.2,1.5,42.9-9.6,42.9-9.6v-8.1"/>
				<path class="st0" d="M436.5,342.2v7.6c7.3,5.2,15.3,9.3,23.8,12.2"/>
				<path class="st0" d="M510.1,333.1v5.6c0,0,5.9,3.5,12.2,3.7c3.7,0.1,7.4-0.7,10.8-2.4v-5.8"/>
				<path class="st0" d="M123.2,321.5c-15.9,8.8-28.6,20-35.5,34.2c-27.5,56.3,85.4,77.8,117.9,81.8c24.9,2.9,50,3.1,75,0.8"/>
				<path class="st0" d="M430.8,382.4c3.2-4.6,5.2-9.9,5.7-15.5c4.4-33.8-53.3-56.7-103.8-67.6"/>
				<path class="st0" d="M292.5,437.1c51.5-6.1,99.1-21.7,124.7-41.8"/>
				<path class="st0" d="M107.9,340.8c-16,42.1,29.7,73.9,116.4,78.1s181.6-21,191.2-62.9s-94.6-63.2-144.3-65
					S124,298.6,107.9,340.8z"/>
				<path class="st0" d="M405.1,355.2c8.8-39.2-88.8-59.2-135.1-60.7s-137.6,7.1-152.6,46.6s28.6,69,109.3,72.9
					S396.2,394.4,405.1,355.2z"/>
				<path class="st0" d="M394.6,354.3c8-36.6-83-55.1-126-56.5s-127.8,6.7-141.6,43.3s27.5,64.1,102.2,67.6S386.6,391,394.6,354.3z"
					/>
				<path class="st0" d="M384.2,353.5c7.2-34-77.3-51-116.8-52.2s-118,6.2-130.8,40.1s26.4,59.2,95.1,62.3S376.9,387.5,384.2,353.5z
					"/>
				<path class="st0" d="M373.7,352.6c6.4-31.4-71.5-46.9-107.6-47.9s-108.3,5.7-120,36.9s25.4,54.3,88,57S367.3,384,373.7,352.6z"
					/>
				<path class="st0" d="M363.2,351.8c5.6-28.8-65.7-42.8-98.5-43.7s-98.5,5.2-109.2,33.7s24.3,49.4,80.9,51.7
					S357.6,380.6,363.2,351.8z"/>
				<path class="st0" d="M352.8,351c4.8-26.1-60-38.7-89.4-39.4s-88.7,4.7-98.3,30.5s23.2,44.5,73.8,46.5S348,377.1,352.8,351z"/>
				<path class="st0" d="M342.3,350.1c4-23.5-54.2-34.6-80.2-35.1s-79,4.2-87.5,27.2s22.1,39.5,66.7,41.2S338.3,373.6,342.3,350.1z"
					/>
				<path class="st0" d="M331.9,349.3c3.2-20.9-48.4-30.5-71-30.9s-69.2,3.8-76.6,24s21,34.6,59.6,35.9S328.7,370.2,331.9,349.3z"/>
				<path class="st0" d="M321.4,348.5c2.4-18.3-42.7-26.4-61.9-26.6s-59.4,3.3-65.8,20.8s19.9,29.7,52.5,30.6S319,366.7,321.4,348.5
					z"/>
				<path class="st0" d="M311,347.6c1.6-15.6-36.9-22.3-52.7-22.4s-49.7,2.8-54.9,17.6s18.9,24.8,45.4,25.3S309.4,363.2,311,347.6z"
					/>
				<path class="st0" d="M251.1,363.1c20.5,0.1,48.7-3.3,49.4-16.3s-31.1-18.2-43.6-18.1S217,331,212.8,343S230.6,363,251.1,363.1z"
					/>
				<path class="st0" d="M256.1,338c1.5,0,3.6,0.4,3.6,3s-3.6,2.5-4.6,2.5s-3.7-0.5-3.7-3S254.6,338,256.1,338z"/>
				<path class="st0" d="M251.3,340.5l-0.3,6.4c0,0,0.1,1.4,4.3,1.4c4.3,0,4.3-1.7,4.3-1.7l-0.1-5.6"/>
				<polyline class="st0" points="234.7,291.6 234.7,281.8 219.2,280.5 219.2,291.1 				"/>
				<polygon class="st0" points="537.7,52.6 572.4,253.5 568.5,310.6 533.1,104 				"/>
				<polygon class="st0" points="64.8,26.7 161,226.7 149.2,274.8 47.5,75.3 				"/>
				<polyline class="st0" points="490.3,302.6 568.5,310.6 572.4,253.5 161,226.7 149.2,274.8 454.1,299.6 				"/>
				<path class="st0" d="M176.5,299.5c0.3-0.5,0.5-1.1,0.7-1.7c0.6-2.9-5.4-5.9-12-7s-16.8,1.2-19.5,5.3c-2.3,3.6-1.9,8.2,7.6,9.9"
					/>
				<path class="st0" d="M484.4,321.2c1.2,0.4,2.4,0.6,3.6,0.8c4.5,0.6,4.2-10.7,2.9-11.5s-21.7-6-21.7-6c-4-0.2-6.7,5.4-5.7,7.6
					c0.3,0.6,1.8,1.5,4,2.5"/>
				<path class="st0" d="M462.6,322.1c3.5,0.6,18.2,2.6,18.3,5.3"/>
				<path class="st0" d="M481.3,326.8c6.9,2.2,13.1,3.6,14.9,3c3.9-1.2,4.3-19,2.5-20.9s-34.4-9.9-34.4-9.9c-2.5,0-10.6,12.5-4.3,18
					c1.1,0.9,2.3,1.7,3.6,2.4"/>
				<path class="st0" d="M484.5,293.7c-3.9-2.2-14.5-6.5-17-6.5s-11.6,1.8-11.2,3.3s15.8,6.8,19.6,6.8S484.5,293.7,484.5,293.7z"/>
				<path class="st0" d="M496.1,329.8c0,0,11.3,0.2,14-2.5s-1.9-17.2-3.5-19.2l-8,0.9"/>
				<polyline class="st0" points="483.7,293.3 485.7,300.9 480.1,302.2 475.9,297.2 				"/>
				<line class="st0" x1="506.6" y1="308.1" x2="485.7" y2="300.9"/>
				<path class="st0" d="M302.5,439.8c3-0.2,6.3,1.5,6.7,4.5s-3.3,3.6-6.7,3.6s-5.5-1.2-5.5-4S299.5,440,302.5,439.8z"/>
				<path class="st0" d="M499.7,345.7c0,0,7.1,6.3,5.2,13.3s3.2,4.2,6.1-2.1c2.9-6.3-2.7-11.1-2.7-11.1H499.7z"/>
				<path class="st0" d="M456.2,290.5c0,0-9.5,38.4-6,42.7s12.3,7.7,12.3,7.7"/>
				<path class="st0" d="M471.2,351.5c1.1,0.2,2.2,0.3,3.4,0.4c9.6,0.6,19.3,0.1,28.7-1.6"/>
				<path class="st0" d="M449.6,330.9l-0.1,11.4c4,2.9,8.4,5.2,13,6.9"/>
				<path class="st0" d="M471.2,342.2l28.5,3.5l-1.5-8l-26.4-2.7c6.1-0.9,14.9-15.3,13.9-19.6s-10.8-4.7-10.8-4.7
					c-3.3,1.2-18.3,11.4-12.4,23.5"/>
				<line class="st0" x1="510.1" y1="327.3" x2="512.7" y2="330.9"/>
				<path class="st0" d="M485.9,336.5l24.3,2.3l-1.9,7c5,1.7,10.2,2.6,15.5,2.7c7.9,0,9.3-2.7,9.3-2.7V340"/>
				<path class="st0" d="M86.4,485.5v-6.4c0,0,1.8,4.8-28.5,6.3s-34.7-4.3-34.7-4.3"/>
				<line class="st0" x1="86.4" y1="479.1" x2="86.4" y2="485.5"/>
				<line class="st1" x1="502.7" y1="304.2" x2="502.7" y2="306.7"/>
			</g>
		</g>
	</g>
</g>
</svg>
