<svg xmlns="http://www.w3.org/2000/svg" viewBox="0 0 576 576"><defs><style>.cls-1{opacity:0;}.cls-2,.cls-3{fill:none;stroke:#fff;}.cls-2{stroke-linejoin:bevel;}.cls-3{stroke-miterlimit:10;}</style></defs><title>recordplayer-white</title><g id="Layer_2" data-name="Layer 2"><g id="recordplayer"><g id="recordplayer-white"><g id="background" class="cls-1"><rect width="576" height="576"/></g><g id="vector"><line class="cls-2" x1="451.31" y1="313.11" x2="350.54" y2="303.57"/><polyline class="cls-2" points="47.46 379.53 3.6 420.58 502.91 477.18 572.4 324.59 510.26 318.7"/><polyline class="cls-2" points="228.46 292.02 149.02 284.47 60.96 366.89"/><path class="cls-2" d="M61,366.89c-5.79-.12-13.19,3.07-13.45,5.94s0,5.68,10.72,5.94c11.49.27,16.85-3.06,16.59-6.38S66.76,367,61,366.89"/><path class="cls-2" d="M74.82,372.39v20.92a24.34,24.34,0,0,1-13.68,4.09,22.67,22.67,0,0,1-13.69-4.6l0-20"/><polygon class="cls-2" points="34.75 400.2 73.55 404.8 59.25 418.07 19.44 413.73 34.75 400.2"/><polygon class="cls-2" points="73.55 416.54 68.7 420.88 91.15 423.68 95.2 419.17 73.55 416.54"/><polygon class="cls-2" points="98.36 419.49 95.2 424.13 118.3 426.87 120.72 423.18 98.36 419.49"/><polygon class="cls-2" points="502.91 477.18 502.91 493.58 3.6 435.05 3.6 420.58 502.91 477.18"/><polygon class="cls-2" points="572.4 324.59 572.4 338.74 502.91 493.58 502.91 477.18 572.4 324.59"/><polygon class="cls-2" points="572.4 365.35 505.98 524.45 502.91 493.58 572.4 338.74 572.4 365.35"/><polygon class="cls-2" points="3.6 435.05 3.6 470.3 505.98 524.45 502.91 493.58 3.6 435.05"/><path class="cls-2" d="M86.4,485.49c1.24,13.54-2,18.37-29.92,20.33S25.14,498.71,24,487c0,0,2.74,6.27,34.31,4.24S86.4,485.49,86.4,485.49Z"/><path class="cls-2" d="M445.46,529.46c-.2,8.28.35,19.88,31.46,19.88,36.13,0,33.06-14.05,32.4-19.88,0,0-8.53,8-32,7.13C455,535.71,445.46,529.46,445.46,529.46Z"/><line class="cls-2" x1="446.17" y1="517.8" x2="445.46" y2="529.46"/><line class="cls-2" x1="508" y1="519.61" x2="509.32" y2="529.46"/><path class="cls-2" d="M445.81,521.75s3.65,8.62,33.58,8.17,28.61-8,28.61-8"/><line class="cls-3" x1="21.83" y1="472.26" x2="23.96" y2="486.99"/><path class="cls-2" d="M564.23,384.92s5.2,22.36-1.44,26.27-10.87,3.21-10.87,3.21"/><path class="cls-2" d="M557.75,400.43s6.34-2.61,7.73-4.54"/><polygon class="cls-2" points="485.88 409.99 483.84 414.39 500.8 415.24 502.91 409.99 485.88 409.99"/><polygon class="cls-2" points="482.99 425.08 483.84 414.39 500.8 415.24 500.8 426.09 482.99 425.08"/><polygon class="cls-2" points="502.91 409.99 504.36 418.95 500.8 426.09 500.8 415.24 502.91 409.99"/><line class="cls-2" x1="499.67" y1="409.99" x2="504.36" y2="399.64"/><line class="cls-2" x1="483.34" y1="446.04" x2="492.59" y2="425.63"/><polyline class="cls-2" points="483.34 421.41 469.26 449.49 490.96 450.85 516.73 395.89 497.06 394.05 489.07 409.99"/><line class="cls-2" x1="484.23" y1="398.16" x2="494.67" y2="398.16"/><line class="cls-2" x1="482.56" y1="402.93" x2="492.56" y2="402.93"/><line class="cls-2" x1="480.6" y1="407.72" x2="490.08" y2="407.72"/><line class="cls-2" x1="477.93" y1="413.23" x2="484.17" y2="413.23"/><line class="cls-2" x1="474.81" y1="418.94" x2="483.12" y2="418.94"/><line class="cls-2" x1="471.99" y1="424.45" x2="480.91" y2="425.4"/><line class="cls-2" x1="469.53" y1="430.18" x2="477.84" y2="431.59"/><line class="cls-2" x1="466.88" y1="436.71" x2="475.55" y2="436.71"/><line class="cls-2" x1="463.83" y1="442.88" x2="472.58" y2="442.88"/><path class="cls-2" d="M286.2,435.05c2.95,0,6.17-1.42,6.27-3s-3.45-2.51-5.64-2.51-6,.1-6.17,2.19S283.25,435.05,286.2,435.05Z"/><path class="cls-2" d="M292.47,432.06v11.5s-1.47,2.52-5.45,2.62a8.86,8.86,0,0,1-6.42-2.62l.05-11.82"/><path class="cls-2" d="M520.74,338.61c5,.32,12.35-2,12.35-4.44s-7.4-4.34-12.27-4.34-10.7.69-10.7,3.3S515.8,338.28,520.74,338.61Z"/><path class="cls-2" d="M452.41,371.65a83.57,83.57,0,0,1-15.72-6.83"/><path class="cls-2" d="M533.14,337.61c4.75,3.48,7.28,7.81,6.45,13.16-2.49,16.13-18.2,28.15-62,24.7-4.42-.35-8.6-.87-12.53-1.53"/><path class="cls-2" d="M425.14,339c5.25-5.78,13.84-9.51,24.34-11.6"/><path class="cls-2" d="M436.52,391.42s28-13.23,31.67-21.75S471.84,335,471.84,335s-2.61-2.43-5-2.43a7.39,7.39,0,0,0-4.35,1.68s1.12,22.48-3.82,31.21-27.85,16.87-27.85,16.87"/><polygon class="cls-2" points="430.77 382.37 416.51 389.16 421.9 396.64 436.52 391.42 430.77 382.37"/><polygon class="cls-2" points="421.73 400.57 421.9 396.64 436.52 391.42 436.52 395.08 421.73 400.57"/><polygon class="cls-2" points="416.51 389.16 416.51 394.48 421.73 400.57 421.9 396.64 416.51 389.16"/><polyline class="cls-2" points="568.54 310.6 533.09 103.99 47.46 75.32 149.22 274.83 454.13 299.64"/><polygon class="cls-2" points="537.66 52.59 533.09 103.99 47.46 75.32 64.8 26.66 537.66 52.59"/><polygon class="cls-2" points="200.5 264.47 195.22 278.57 251.64 283.17 253.79 268.5 200.5 264.47"/><polyline class="cls-2" points="491.08 302.65 518.75 305.49 521.61 288.92 459.11 282.63 458.25 289.05"/><path class="cls-2" d="M470.6,358.35a73.5,73.5,0,0,0,7.81,1,105.37,105.37,0,0,0,26.77-2.11"/><path class="cls-2" d="M449.48,334.68c-7.19,2.24-12.39,5-13,7.56-1,4.34,11.4,10.42,25,14.08"/><path class="cls-2" d="M511.36,355.74c7.26-2,12.38-4.67,12.38-7.34"/><path class="cls-2" d="M469.64,364.58a74.87,74.87,0,0,0,11.23,1.54c25.23,1.49,42.87-9.61,42.87-9.61V348.4"/><path class="cls-2" d="M436.52,342.24l0,7.59A89.53,89.53,0,0,0,460.35,362"/><path class="cls-2" d="M510.12,333.13v5.63s5.89,3.48,12.21,3.66A22,22,0,0,0,533.09,340v-5.84"/><path class="cls-2" d="M123.22,321.48c-15.91,8.83-28.58,20-35.48,34.18C60.24,412,173.17,433.5,205.63,437.47a362.55,362.55,0,0,0,75,.83"/><path class="cls-2" d="M430.77,382.37a32.14,32.14,0,0,0,5.73-15.48c4.38-33.79-53.28-56.71-103.81-67.63"/><path class="cls-2" d="M292.48,437.08C344,431,391.6,415.34,417.15,395.23"/><path class="cls-2" d="M107.89,340.78c-16,42.14,29.68,73.9,116.44,78.15S405.9,397.88,415.53,356s-94.59-63.25-144.26-65S124,298.63,107.89,340.78Z"/><path class="cls-2" d="M405.07,355.17C413.9,315.93,316.25,296,270,294.44S132.41,301.58,117.43,341,146,410,226.76,413.85,396.25,394.42,405.07,355.17Z"/><path class="cls-2" d="M394.62,354.33c8-36.62-83.05-55.07-126-56.47S140.87,304.52,127,341.19s27.51,64.09,102.22,67.59S386.6,391,394.62,354.33Z"/><path class="cls-2" d="M384.16,353.49c7.22-34-77.28-51-116.81-52.21s-118,6.18-130.84,40.12,26.43,59.18,95.11,62.3S376.94,387.49,384.16,353.49Z"/><path class="cls-2" d="M373.7,352.65c6.42-31.37-71.51-46.88-107.65-47.94s-108.26,5.69-120,36.9,25.35,54.27,88,57S367.29,384,373.7,352.65Z"/><path class="cls-2" d="M363.25,351.81c5.61-28.75-65.74-42.79-98.5-43.68s-98.5,5.21-109.16,33.68,24.26,49.37,80.9,51.74S357.64,380.56,363.25,351.81Z"/><path class="cls-2" d="M352.79,351c4.81-26.13-60-38.7-89.35-39.42s-88.73,4.73-98.31,30.47,23.18,44.46,73.79,46.46S348,377.1,352.79,351Z"/><path class="cls-2" d="M342.34,350.13c4-23.5-54.21-34.61-80.2-35.15s-79,4.24-87.47,27.25,22.1,39.55,66.68,41.17S338.33,373.63,342.34,350.13Z"/><path class="cls-2" d="M331.88,349.29c3.2-20.88-48.43-30.52-71-30.89s-69.2,3.76-76.63,24,21,34.65,59.58,35.9S328.68,370.17,331.88,349.29Z"/><path class="cls-2" d="M321.42,348.45c2.4-18.26-42.66-26.42-61.89-26.63s-59.43,3.28-65.78,20.82,19.93,29.74,52.47,30.61S319,366.7,321.42,348.45Z"/><path class="cls-2" d="M311,347.61c1.59-15.63-36.9-22.33-52.74-22.36s-49.67,2.79-54.94,17.6,18.85,24.83,45.36,25.33S309.38,363.24,311,347.61Z"/><path class="cls-2" d="M251.08,363.1c20.49.12,48.65-3.32,49.43-16.33s-31.12-18.24-43.58-18.1S217,331,212.83,343.05,230.59,363,251.08,363.1Z"/><path class="cls-2" d="M256.06,338c1.46,0,3.59.4,3.59,3s-3.65,2.54-4.6,2.54-3.71-.5-3.71-3S254.59,338,256.06,338Z"/><path class="cls-2" d="M251.34,340.54l-.26,6.43s.06,1.41,4.32,1.41,4.31-1.72,4.31-1.72l-.06-5.65"/><polyline class="cls-2" points="234.7 291.59 234.7 281.79 219.2 280.52 219.2 291.12"/><polygon class="cls-2" points="537.66 52.59 572.4 253.47 568.54 310.6 533.09 103.99 537.66 52.59"/><polygon class="cls-2" points="64.8 26.66 160.96 226.72 149.22 274.83 47.46 75.32 64.8 26.66"/><polyline class="cls-2" points="490.33 302.57 568.54 310.6 572.4 253.47 160.96 226.72 149.22 274.83 454.13 299.64"/><path class="cls-2" d="M176.49,299.55a6.5,6.5,0,0,0,.66-1.74c.59-2.93-5.37-5.94-12-7s-16.82,1.16-19.47,5.3c-2.32,3.62-1.95,8.17,7.61,9.86"/><path class="cls-2" d="M484.42,321.16A28.27,28.27,0,0,0,488,322c4.49.61,4.24-10.66,2.93-11.48s-21.66-5.95-21.66-5.95c-4-.2-6.69,5.41-5.67,7.59.27.58,1.79,1.5,4,2.55"/><path class="cls-2" d="M462.56,322.06c3.49.58,18.16,2.58,18.31,5.28"/><path class="cls-2" d="M481.26,326.78c6.9,2.21,13.12,3.6,14.88,3,3.93-1.23,4.34-19,2.49-20.87s-34.43-9.88-34.43-9.88c-2.46,0-10.63,12.51-4.3,18a21.12,21.12,0,0,0,3.62,2.41"/><path class="cls-2" d="M484.49,293.74c-3.89-2.25-14.55-6.55-17-6.55s-11.62,1.84-11.24,3.28,15.75,6.76,19.64,6.76S484.49,293.74,484.49,293.74Z"/><path class="cls-2" d="M496.14,329.82s11.3.2,14-2.48-1.86-17.2-3.49-19.25l-8,.86"/><polyline class="cls-2" points="483.71 293.31 485.7 300.92 480.12 302.19 475.88 297.23"/><line class="cls-2" x1="506.63" y1="308.09" x2="485.7" y2="300.92"/><path class="cls-2" d="M302.55,439.84c3.05-.18,6.28,1.53,6.7,4.51s-3.26,3.57-6.7,3.57-5.52-1.19-5.52-4S299.5,440,302.55,439.84Z"/><path class="cls-2" d="M499.69,345.71s7.15,6.34,5.19,13.26,3.22,4.2,6.07-2.13-2.7-11.13-2.7-11.13Z"/><path class="cls-2" d="M456.24,290.47s-9.45,38.42-6,42.66,12.26,7.69,12.26,7.69"/><path class="cls-2" d="M471.23,351.52c1.11.19,2.25.34,3.41.44a117.1,117.1,0,0,0,28.72-1.64"/><path class="cls-2" d="M449.57,330.88l-.09,11.36a52.85,52.85,0,0,0,13,6.92"/><path class="cls-2" d="M471.24,342.24l28.45,3.47-1.45-8L471.84,335c6.09-.92,14.87-15.27,13.86-19.57s-10.84-4.68-10.84-4.68c-3.28,1.19-18.27,11.38-12.42,23.5"/><line class="cls-2" x1="510.12" y1="327.34" x2="512.72" y2="330.88"/><path class="cls-2" d="M485.86,336.45l24.26,2.31-1.87,6.95a53.35,53.35,0,0,0,15.49,2.69c7.9,0,9.35-2.69,9.35-2.69V340"/><path class="cls-2" d="M86.4,485.49v-6.35s1.82,4.75-28.45,6.3-34.73-4.27-34.73-4.27"/><line class="cls-2" x1="86.4" y1="479.14" x2="86.4" y2="485.49"/><line class="cls-3" x1="502.67" y1="304.24" x2="502.67" y2="306.74"/></g></g></g></g></svg>