<svg xmlns="http://www.w3.org/2000/svg" viewBox="0 0 576 576"><defs><style>.cls-1{fill:#f71e5c;opacity:0;}.cls-2{fill:none;stroke:#000;stroke-linejoin:bevel;stroke-width:2px;}</style></defs><title>sourcefour-black</title><g id="Layer_2" data-name="Layer 2"><g id="sourcefour"><g id="sourcefour-black"><rect id="Background" class="cls-1" width="576" height="576"/><g id="Vector"><path class="cls-2" d="M273.34,220.79c-29.14,3.69-47.2,22.3-44.36,60.61,3.13,42.11,28.07,76.91,75.39,85.28,34.49,6.11,58.86-6.71,65.85-30.87"/><path class="cls-2" d="M360.35,278.22C346.3,252.5,321.9,230.67,298.68,223"/><path class="cls-2" d="M369.59,333.33c-20,12.27-70-5.05-91.14-27.66s-27-51.78-23.43-79.93"/><polyline class="cls-2" points="406.93 414.27 436.79 480.62 404.17 572.4 129.94 524.85 165.87 437.5 234.99 388.84 389.51 411.7"/><polyline class="cls-2" points="159.31 210.26 109.48 261.68 143.21 388.84 204.02 392.16 238.3 373.36 201.01 214.08"/><polygon class="cls-2" points="179.7 182.61 89.02 188.14 26.55 198.09 310.18 224.08 370.44 211.36 359.94 199.2 179.7 182.61"/><polygon class="cls-2" points="364.18 218.63 359.39 293.19 393.11 425.88 406.93 414.27 364.18 218.63"/><polygon class="cls-2" points="259.23 151.49 223.61 179.32 386.14 192.12 415.09 165.96 351.63 154.82 428.77 90.71 400.7 90.71 321.34 152.89 259.23 151.49"/><polyline class="cls-2" points="503.11 260.9 518.85 242.6 518.85 236.18 527.05 226.07 524.56 203.35 518.85 199.79 517.42 171.6 522.41 164.11 516.35 134.85 499.56 152.61"/><polyline class="cls-2" points="484.13 168.92 435.71 220.12 415.09 165.96 386.14 192.12 422.15 372.28 451.41 340.36 459.62 311.46 484.23 282.85"/><polyline class="cls-2" points="483.28 143.74 434.31 199.43 435.71 220.12 484.13 168.92"/><polyline class="cls-2" points="499.56 152.61 516.35 134.85 499.22 127.58"/><polyline class="cls-2" points="483.28 143.74 434.31 199.43 415.09 165.96 372.58 150.63 351.63 154.82 428.77 90.71 483.05 119.21"/><polygon class="cls-2" points="297.95 161.8 283.36 173.58 334.04 177.92 346.84 166.54 297.95 161.8"/><line class="cls-2" x1="291.62" y1="174.29" x2="304.91" y2="162.47"/><line class="cls-2" x1="313.16" y1="163.27" x2="299.58" y2="174.97"/><line class="cls-2" x1="309.28" y1="175.8" x2="320.9" y2="164.02"/><line class="cls-2" x1="329.42" y1="164.85" x2="315.93" y2="176.37"/><line class="cls-2" x1="326.19" y1="177.25" x2="338.02" y2="165.68"/><line class="cls-2" x1="412.16" y1="90.71" x2="341.81" y2="149.19"/><line class="cls-2" x1="327.2" y1="148.3" x2="357.29" y2="150.12"/><polyline class="cls-2" points="321.34 152.89 313.16 159.23 250.67 159.23"/><path class="cls-2" d="M480.61,229.06c-4.68,6.09-2.78,14.38-2.78,14.38a35.08,35.08,0,0,1,8.58,14.61c2.78,9.27,4.17,22.48,4.17,22.48s1.85.24,6-5.33,5.74-13.42,5.74-13.42A170.39,170.39,0,0,1,495.91,246c-2.78-8.12-5.87-22-5.87-22S485.25,223,480.61,229.06Z"/><polyline class="cls-2" points="484.42 181.72 439.11 223.91 444.21 249 485.62 205.22"/><polyline class="cls-2" points="501.01 188.95 517.42 171.6 513.3 154.82 499.56 167.62"/><path class="cls-2" d="M444.21,233.24c.28,2.21,2.64,4.46,4.17,3.71s1.9-4,1.39-6-2.45-4.29-4-3.24S443.93,231,444.21,233.24Z"/><path class="cls-2" d="M509,170.09c1.2,2.23,2.89,2.63,4,1.82s1.57-1.92,1.06-3.94-2.23-4.18-4.23-3.56S508.16,168.57,509,170.09Z"/><path class="cls-2" d="M304.91,152.52s-2.77-114.79-2.77-120.9,3-23.4,16.41-23.18"/><path class="cls-2" d="M274.23,220.79c-.32,5.82,1.19,49.47,18.09,69.54,15.85,18.8,38.9,30.44,73,28.84"/><line class="cls-2" x1="254.03" y1="236.16" x2="274.22" y2="224.08"/><line class="cls-2" x1="259.72" y1="272.15" x2="278.45" y2="258.38"/><line class="cls-2" x1="267.95" y1="292.05" x2="284.56" y2="277.42"/><line class="cls-2" x1="283.49" y1="310.47" x2="296.47" y2="294.9"/><polyline class="cls-2" points="384.46 391.84 250.9 375.32 210.81 214.98 201.01 214.08 238.3 373.36 222.54 382 230.27 392.16 243.61 381.43 386.97 401.72"/><polyline class="cls-2" points="359.94 199.2 370.44 196.87 405.41 368.19 397.27 370.33 362.94 212.95"/><polygon class="cls-2" points="409.63 388.84 424.8 385.53 386.14 192.12 370.44 196.87 409.63 388.84"/><polygon class="cls-2" points="411.33 412.76 418.14 399.15 409.63 388.84 404.07 401.17 411.33 412.76"/><polygon class="cls-2" points="223.61 179.32 223.61 186.65 359.94 199.2 386.14 192.12 223.61 179.32"/><polyline class="cls-2" points="386.14 192.12 389.21 206.58 415.58 185.52 408.17 172.22 342.1 161.8 351.63 154.82"/><line class="cls-2" x1="398.92" y1="256.04" x2="435.71" y2="220.12"/><line class="cls-2" x1="457.09" y1="258.84" x2="412.41" y2="323.51"/><line class="cls-2" x1="493.54" y1="227.88" x2="518.85" y2="199.79"/><line class="cls-2" x1="505.79" y1="204.98" x2="489.4" y2="223.61"/><line class="cls-2" x1="518.39" y1="190.66" x2="509.84" y2="200.37"/><line class="cls-2" x1="509.84" y1="193.37" x2="518.1" y2="184.95"/><line class="cls-2" x1="483.43" y1="222.16" x2="494.68" y2="208.84"/><line class="cls-2" x1="517.73" y1="177.69" x2="507.25" y2="188.95"/><line class="cls-2" x1="372.58" y1="150.63" x2="439.11" y2="96.14"/><polygon class="cls-2" points="280.09 136.59 272.18 119.58 269.91 123.39 274.22 148.44 280.09 136.59"/><polygon class="cls-2" points="259.72 119.58 257.71 125.1 269.91 123.39 272.18 119.58 259.72 119.58"/><polygon class="cls-2" points="264.7 151.61 257.71 125.1 269.91 123.39 275 151.84 264.7 151.61"/><path class="cls-2" d="M497.82,273.4c-10.82,17.08-22.6,8.75-28.51-6.27s4.55-37.59,11.26-43.22,14.12,3.49,17.95,11S508.65,256.32,497.82,273.4Z"/><path class="cls-2" d="M484.23,282.85c-11.47,6.7-21.84-4.16-24.62-10.48,0,0-9.83-21.68,9.32-42.25l19.14-20.57"/><line class="cls-2" x1="448.45" y1="215.21" x2="455.48" y2="237.09"/><polyline class="cls-2" points="484.57 188.5 452.78 218.55 456.6 230.12 484.92 201.16"/><polyline class="cls-2" points="499.56 186.19 508.35 177.2 505.83 168.41 499.56 174.34"/><path class="cls-2" d="M499.56,204.76s-4.08,5.36-9.66,5.36-5.14-13.25-5.14-13.25S481.5,54,481.5,35.5,470,10.6,461.93,10.5,338,8.86,312.24,8.32s-25,17.76-24.81,22.83l4.19,121.07"/><path class="cls-2" d="M273.82,151.84l.4-3.4,5.87-11.85,5-1.74,1.19,17.25s-2.92-100.38-2.9-125.67,29.8-22.69,29.8-22.69,135.49-.32,157.53,0,28.09,22.94,28.12,28.85L499.49,189"/><polyline class="cls-2" points="390.29 189.26 392.56 198.16 401.46 191.18 396.89 182.61"/><line class="cls-2" x1="254.6" y1="252.59" x2="275.55" y2="241.64"/><path class="cls-2" d="M506.1,189H492.9a14.25,14.25,0,0,0-2.09,7.92,10.6,10.6,0,0,0,3.71,7.91l11.27.2"/><path class="cls-2" d="M502.35,196.37c-.27,5.54,1,9,4.46,8.35s3-6,3-9.74-1.88-6-3.72-6S502.63,190.83,502.35,196.37Z"/></g></g></g></g></svg>