<?xml version="1.0" encoding="utf-8"?>
<!-- Generator: Adobe Illustrator 23.0.1, SVG Export Plug-In . SVG Version: 6.00 Build 0)  -->
<svg version="1.1" id="Layer_1" xmlns="http://www.w3.org/2000/svg" xmlns:xlink="http://www.w3.org/1999/xlink" x="0px" y="0px"
	 viewBox="0 0 576 576" style="enable-background:new 0 0 576 576;" xml:space="preserve">
<style type="text/css">
	.st0{fill:none;stroke:#FFFFFF;stroke-width:2;stroke-linejoin:bevel;}
</style>
<title>sourcefour-white</title>
<g>
	<g id="sourcefour">
		<g id="sourcefour-white">
			<g id="Vector">
				<path class="st0" d="M273.3,220.8c-29.1,3.7-47.2,22.3-44.4,60.6c3.1,42.1,28.1,76.9,75.4,85.3c34.5,6.1,58.9-6.7,65.9-30.9"/>
				<path class="st0" d="M360.4,278.2c-14.1-25.7-38.5-47.6-61.7-55.2"/>
				<path class="st0" d="M369.6,333.3c-20,12.3-70-5-91.1-27.7s-27-51.8-23.4-79.9"/>
				<polyline class="st0" points="406.9,414.3 436.8,480.6 404.2,572.4 129.9,524.8 165.9,437.5 235,388.8 389.5,411.7 				"/>
				<polyline class="st0" points="159.3,210.3 109.5,261.7 143.2,388.8 204,392.2 238.3,373.4 201,214.1 				"/>
				<polygon class="st0" points="179.7,182.6 89,188.1 26.5,198.1 310.2,224.1 370.4,211.4 359.9,199.2 				"/>
				<polygon class="st0" points="364.2,218.6 359.4,293.2 393.1,425.9 406.9,414.3 				"/>
				<polygon class="st0" points="259.2,151.5 223.6,179.3 386.1,192.1 415.1,166 351.6,154.8 428.8,90.7 400.7,90.7 321.3,152.9 
									"/>
				<polyline class="st0" points="503.1,260.9 518.8,242.6 518.8,236.2 527,226.1 524.6,203.4 518.8,199.8 517.4,171.6 522.4,164.1 
					516.3,134.9 499.6,152.6 				"/>
				<polyline class="st0" points="484.1,168.9 435.7,220.1 415.1,166 386.1,192.1 422.1,372.3 451.4,340.4 459.6,311.5 484.2,282.9 
									"/>
				<polyline class="st0" points="483.3,143.7 434.3,199.4 435.7,220.1 484.1,168.9 				"/>
				<polyline class="st0" points="499.6,152.6 516.3,134.9 499.2,127.6 				"/>
				<polyline class="st0" points="483.3,143.7 434.3,199.4 415.1,166 372.6,150.6 351.6,154.8 428.8,90.7 483,119.2 				"/>
				<polygon class="st0" points="298,161.8 283.4,173.6 334,177.9 346.8,166.5 				"/>
				<line class="st0" x1="291.6" y1="174.3" x2="304.9" y2="162.5"/>
				<line class="st0" x1="313.2" y1="163.3" x2="299.6" y2="175"/>
				<line class="st0" x1="309.3" y1="175.8" x2="320.9" y2="164"/>
				<line class="st0" x1="329.4" y1="164.9" x2="315.9" y2="176.4"/>
				<line class="st0" x1="326.2" y1="177.2" x2="338" y2="165.7"/>
				<line class="st0" x1="412.2" y1="90.7" x2="341.8" y2="149.2"/>
				<line class="st0" x1="327.2" y1="148.3" x2="357.3" y2="150.1"/>
				<polyline class="st0" points="321.3,152.9 313.2,159.2 250.7,159.2 				"/>
				<path class="st0" d="M480.6,229.1c-4.7,6.1-2.8,14.4-2.8,14.4c4,4.1,7,9.1,8.6,14.6c2.8,9.3,4.2,22.5,4.2,22.5s1.9,0.2,6-5.3
					s5.7-13.4,5.7-13.4c-2.4-5.1-4.5-10.4-6.4-15.8c-2.8-8.1-5.9-22-5.9-22S485.2,223,480.6,229.1z"/>
				<polyline class="st0" points="484.4,181.7 439.1,223.9 444.2,249 485.6,205.2 				"/>
				<polyline class="st0" points="501,188.9 517.4,171.6 513.3,154.8 499.6,167.6 				"/>
				<path class="st0" d="M444.2,233.2c0.3,2.2,2.6,4.5,4.2,3.7s1.9-4,1.4-6s-2.5-4.3-4-3.2S443.9,231,444.2,233.2z"/>
				<path class="st0" d="M509,170.1c1.2,2.2,2.9,2.6,4,1.8s1.6-1.9,1.1-3.9s-2.2-4.2-4.2-3.6S508.2,168.6,509,170.1z"/>
				<path class="st0" d="M304.9,152.5c0,0-2.8-114.8-2.8-120.9s3-23.4,16.4-23.2"/>
				<path class="st0" d="M274.2,220.8c-0.3,5.8,1.2,49.5,18.1,69.5c15.9,18.8,38.9,30.4,73,28.8"/>
				<line class="st0" x1="254" y1="236.2" x2="274.2" y2="224.1"/>
				<line class="st0" x1="259.7" y1="272.1" x2="278.5" y2="258.4"/>
				<line class="st0" x1="268" y1="292" x2="284.6" y2="277.4"/>
				<line class="st0" x1="283.5" y1="310.5" x2="296.5" y2="294.9"/>
				<polyline class="st0" points="384.5,391.8 250.9,375.3 210.8,215 201,214.1 238.3,373.4 222.5,382 230.3,392.2 243.6,381.4 
					387,401.7 				"/>
				<polyline class="st0" points="359.9,199.2 370.4,196.9 405.4,368.2 397.3,370.3 362.9,212.9 				"/>
				<polygon class="st0" points="409.6,388.8 424.8,385.5 386.1,192.1 370.4,196.9 				"/>
				<polygon class="st0" points="411.3,412.8 418.1,399.1 409.6,388.8 404.1,401.2 				"/>
				<polygon class="st0" points="223.6,179.3 223.6,186.6 359.9,199.2 386.1,192.1 				"/>
				<polyline class="st0" points="386.1,192.1 389.2,206.6 415.6,185.5 408.2,172.2 342.1,161.8 351.6,154.8 				"/>
				<line class="st0" x1="398.9" y1="256" x2="435.7" y2="220.1"/>
				<line class="st0" x1="457.1" y1="258.8" x2="412.4" y2="323.5"/>
				<line class="st0" x1="493.5" y1="227.9" x2="518.8" y2="199.8"/>
				<line class="st0" x1="505.8" y1="205" x2="489.4" y2="223.6"/>
				<line class="st0" x1="518.4" y1="190.7" x2="509.8" y2="200.4"/>
				<line class="st0" x1="509.8" y1="193.4" x2="518.1" y2="184.9"/>
				<line class="st0" x1="483.4" y1="222.2" x2="494.7" y2="208.8"/>
				<line class="st0" x1="517.7" y1="177.7" x2="507.2" y2="188.9"/>
				<line class="st0" x1="372.6" y1="150.6" x2="439.1" y2="96.1"/>
				<polygon class="st0" points="280.1,136.6 272.2,119.6 269.9,123.4 274.2,148.4 				"/>
				<polygon class="st0" points="259.7,119.6 257.7,125.1 269.9,123.4 272.2,119.6 				"/>
				<polygon class="st0" points="264.7,151.6 257.7,125.1 269.9,123.4 275,151.8 				"/>
				<path class="st0" d="M497.8,273.4c-10.8,17.1-22.6,8.8-28.5-6.3s4.5-37.6,11.3-43.2s14.1,3.5,18,11S508.6,256.3,497.8,273.4z"/>
				<path class="st0" d="M484.2,282.9c-11.5,6.7-21.8-4.2-24.6-10.5c0,0-9.8-21.7,9.3-42.2l19.1-20.6"/>
				<line class="st0" x1="448.5" y1="215.2" x2="455.5" y2="237.1"/>
				<polyline class="st0" points="484.6,188.5 452.8,218.6 456.6,230.1 484.9,201.2 				"/>
				<polyline class="st0" points="499.6,186.2 508.4,177.2 505.8,168.4 499.6,174.3 				"/>
				<path class="st0" d="M499.6,204.8c0,0-4.1,5.4-9.7,5.4s-5.1-13.2-5.1-13.2S481.5,54,481.5,35.5s-11.5-24.9-19.6-25
					S338,8.9,312.2,8.3s-25,17.8-24.8,22.8l4.2,121.1"/>
				<path class="st0" d="M273.8,151.8l0.4-3.4l5.9-11.9l5-1.7l1.2,17.2c0,0-2.9-100.4-2.9-125.7s29.8-22.7,29.8-22.7
					s135.5-0.3,157.5,0s28.1,22.9,28.1,28.9l0.7,156.4"/>
				<polyline class="st0" points="390.3,189.3 392.6,198.2 401.5,191.2 396.9,182.6 				"/>
				<line class="st0" x1="254.6" y1="252.6" x2="275.5" y2="241.6"/>
				<path class="st0" d="M506.1,189h-13.2c-1.5,2.4-2.2,5.1-2.1,7.9c0,3,1.4,5.9,3.7,7.9l11.3,0.2"/>
				<path class="st0" d="M502.4,196.4c-0.3,5.5,1,9,4.5,8.4s3-6,3-9.7s-1.9-6-3.7-6S502.6,190.8,502.4,196.4z"/>
			</g>
		</g>
	</g>
</g>
</svg>
