<svg xmlns="http://www.w3.org/2000/svg" viewBox="0 0 576 576"><defs><style>.cls-1{opacity:0;}.cls-2{fill:#fff;}.cls-3,.cls-4{fill:none;stroke:#000;stroke-width:2px;}.cls-3{stroke-linejoin:bevel;}.cls-4{stroke-miterlimit:10;}</style></defs><title>stopwatch-black</title><g id="Layer_2" data-name="Layer 2"><g id="stopwatch"><g id="stopwatch-black"><g id="Background" class="cls-1"><rect class="cls-2" width="576" height="576"/></g><g id="Vector"><path class="cls-3" d="M307.6,162.74c104.18,9.87,185.69,97.6,185.69,204.37,0,113.38-91.91,205.29-205.29,205.29S82.71,480.49,82.71,367.11c0-63.73,30.18-121.69,75.75-159.34"/><path class="cls-3" d="M181.43,191.61a204.18,204.18,0,0,1,86.74-28.85"/><circle class="cls-3" cx="288" cy="367.11" r="191.64"/><circle class="cls-3" cx="288" cy="367.11" r="179.02"/><circle class="cls-3" cx="287.56" cy="300.86" r="48.07"/><circle class="cls-3" cx="288" cy="299.14" r="7.59"/><circle class="cls-3" cx="288" cy="299.14" r="3.23"/><path class="cls-3" d="M255,148.5l1.76-20.33a57.38,57.38,0,1,1,88.05-48.5c0,21.16-9.83,39.64-26.86,49.58l1.92,19.25a76.08,76.08,0,1,0-64.87,0"/><path class="cls-3" d="M251.27,103.81s11-4.18,35.63-4.18,33.87,4.18,33.87,4.18l0-46.67s-2.18-7.28-36.07-5.82-33.42,8-33.42,8Z"/><path class="cls-3" d="M262.86,101.09v54.65c4,.25,5.31,7,5.31,7s3,7.68,20.13,7.33,19.3-7.35,19.3-7.35,2.61-9.06,4.8-9.06V101.59"/><polyline class="cls-3" points="262.86 135.84 256.48 131.65 255.44 143.62 262.86 146.7"/><polyline class="cls-3" points="312.4 137.05 318.35 133.08 319.36 143.22 312.4 146.7"/><path class="cls-4" d="M262.86,155.74s4-4,24.59-4.11,24.95,2.05,24.95,2.05"/><path class="cls-4" d="M140.23,198A70.1,70.1,0,0,1,155.5,183.2,102.88,102.88,0,0,1,176.94,172l-32.16-43.87s-8.37.39-21.88,10.16S107.48,154,107.48,154Z"/><path class="cls-4" d="M144.22,193.22l16.07,16.41s5.37,5.81,15.46-1.9,6.77-14.51,6.77-14.51L170.15,174.9"/><line class="cls-3" x1="255.36" y1="102.65" x2="254.64" y2="56.18"/><line class="cls-3" x1="260.52" y1="101.09" x2="259.8" y2="54.34"/><line class="cls-3" x1="267.53" y1="100.62" x2="267.53" y2="52.81"/><line class="cls-3" x1="278.53" y1="99.8" x2="277.87" y2="51.71"/><line class="cls-3" x1="288.65" y1="51.12" x2="289.63" y2="99.65"/><line class="cls-3" x1="316.07" y1="102.37" x2="316.07" y2="53.9"/><line class="cls-3" x1="309.68" y1="52.27" x2="309.68" y2="101.14"/><line class="cls-3" x1="303.35" y1="100.36" x2="303.35" y2="51.5"/><line class="cls-3" x1="296.64" y1="51.16" x2="297.11" y2="99.89"/><circle class="cls-3" cx="288" cy="367.11" r="8.42"/><circle class="cls-3" cx="288" cy="367.11" r="3.59"/><path class="cls-3" d="M275.48,370.07a12.87,12.87,0,0,0,17.93,8.72s5.22-4.57,30.43,5l2.81-8.25S307,371,300.26,363.22c0,0-2.28-4.69-4.48-6.36a12.87,12.87,0,0,0-17.18,1.46l-.05-.05c-12,.44-156.14-43.69-156.14-43.69s145.78,50.15,153,55.18Z"/><path class="cls-3" d="M289.35,310.66c-4.44.87-8.29-1.05-11-5a11.59,11.59,0,0,1-1.27-10.47h0C274,284.55,270,279.81,270,279.81l7.61-5.13,11.8,12.95a11.58,11.58,0,0,1,8.23,5,12.22,12.22,0,0,1-.17,13.19h0c.66,9.4,14.92,32,14.92,32s-16.92-23.73-23-27.22Z"/><line class="cls-4" x1="241.46" y1="328.05" x2="250.35" y2="322.88"/><line class="cls-4" x1="235.06" y1="300.86" x2="244.15" y2="300.86"/><line class="cls-4" x1="241.46" y1="273.49" x2="250.35" y2="278.45"/><line class="cls-4" x1="261.71" y1="345.4" x2="266.18" y2="338.58"/><line class="cls-4" x1="309.66" y1="338.58" x2="314.41" y2="345.4"/><line class="cls-4" x1="325.98" y1="322.05" x2="333.63" y2="327.01"/><line class="cls-4" x1="337.29" y1="298.91" x2="346.69" y2="298.91"/><line class="cls-4" x1="324.95" y1="278.45" x2="333.63" y2="273.49"/><line class="cls-4" x1="308.83" y1="261.92" x2="313.58" y2="254.27"/><line class="cls-4" x1="260.89" y1="255.1" x2="266.18" y2="261.92"/><line class="cls-4" x1="369.39" y1="225.29" x2="377.68" y2="212.14"/><line class="cls-4" x1="287.77" y1="204.43" x2="288" y2="188.09"/><line class="cls-4" x1="430.6" y1="284.21" x2="442.55" y2="276.72"/><line class="cls-4" x1="451.64" y1="367.11" x2="467.02" y2="367.11"/><line class="cls-4" x1="431.06" y1="447.89" x2="443.65" y2="455.61"/><line class="cls-4" x1="372.14" y1="509.1" x2="379.71" y2="520.89"/><line class="cls-4" x1="290.29" y1="531.57" x2="290.29" y2="546.11"/><line class="cls-4" x1="208.45" y1="509.1" x2="200.07" y2="523.08"/><line class="cls-4" x1="148.62" y1="450.64" x2="134.49" y2="459.26"/><line class="cls-4" x1="127.07" y1="369.72" x2="109" y2="369.72"/><line class="cls-4" x1="147.7" y1="288.04" x2="132.38" y2="278.56"/><line class="cls-4" x1="207.08" y1="227.35" x2="198.22" y2="212.2"/><line class="cls-4" x1="287.93" y1="343.43" x2="287.93" y2="351.6"/><line class="cls-4" x1="288.65" y1="257.33" x2="288.65" y2="243.85"/><path d="M283.9,218.65a5.56,5.56,0,0,0,.19-.61,3.5,3.5,0,0,0,.08-.74,2.24,2.24,0,0,0-1-2,5.13,5.13,0,0,0-2.91-.71,4.18,4.18,0,0,0-2.42.73,6.21,6.21,0,0,0-1.84,2,12.23,12.23,0,0,0-1.23,3.1,18.18,18.18,0,0,0-.53,3.9,8.3,8.3,0,0,1,1.05-1.48,7.11,7.11,0,0,1,1.42-1.2,7,7,0,0,1,1.71-.8,6.11,6.11,0,0,1,1.91-.3,7.55,7.55,0,0,1,2.94.57,7.45,7.45,0,0,1,2.37,1.58,7,7,0,0,1,1.56,2.42,8.37,8.37,0,0,1,.56,3.09,7.91,7.91,0,0,1-.58,3,7.52,7.52,0,0,1-4.11,4.2,8,8,0,0,1-3.2.62,7.33,7.33,0,0,1-6.06-2.76q-2.2-2.76-2.2-7.86a21.44,21.44,0,0,1,.38-4.14,20,20,0,0,1,1-3.42,9.83,9.83,0,0,1,3-4.26,6.85,6.85,0,0,1,4.41-1.5,7.19,7.19,0,0,1,4.8,1.45,4.78,4.78,0,0,1,1.71,3.84,4.36,4.36,0,0,1-.1.94,4.91,4.91,0,0,1-.2.74Zm-4.07,4.4a5.26,5.26,0,0,0-2,.37,4.75,4.75,0,0,0-1.65,1.05,5.1,5.1,0,0,0-1.12,1.68,6.3,6.3,0,0,0,0,4.47,5.1,5.1,0,0,0,1.12,1.68,4.75,4.75,0,0,0,1.65,1,5.45,5.45,0,0,0,2,.36,5.53,5.53,0,0,0,2-.36,4.62,4.62,0,0,0,1.62-1,5.24,5.24,0,0,0,1.11-1.68,6.3,6.3,0,0,0,0-4.47,5.24,5.24,0,0,0-1.11-1.68,4.62,4.62,0,0,0-1.62-1.05A5.33,5.33,0,0,0,279.83,223.05Z"/><path d="M308,224.17q0,5.79-2.26,8.88a8.07,8.07,0,0,1-12.7,0q-2.26-3.09-2.27-8.88t2.27-8.88a8.07,8.07,0,0,1,12.7,0Q308,218.38,308,224.17Zm-14.47,0a15.52,15.52,0,0,0,1,5.92L302.85,216a4.76,4.76,0,0,0-3.42-1.32,4.81,4.81,0,0,0-4.36,2.47A13.69,13.69,0,0,0,293.57,224.17Zm5.86,9.54a4.8,4.8,0,0,0,4.36-2.47,13.8,13.8,0,0,0,1.49-7.07,15.77,15.77,0,0,0-.95-5.92L296,232.39A4.76,4.76,0,0,0,299.43,233.71Z"/><path d="M351.24,239.34H364.3v2.43H353.44l-.62,7.57a6,6,0,0,1,2.4-2.06,6.89,6.89,0,0,1,2.83-.64,8.55,8.55,0,0,1,3.27.59,6.81,6.81,0,0,1,2.42,1.67,7,7,0,0,1,1.49,2.53,9.75,9.75,0,0,1,.51,3.24,9.13,9.13,0,0,1-.57,3.27,7.62,7.62,0,0,1-1.63,2.58,7.42,7.42,0,0,1-2.53,1.7,8.72,8.72,0,0,1-3.29.6,9,9,0,0,1-3.18-.54,8.07,8.07,0,0,1-2.45-1.43,6.15,6.15,0,0,1-1.56-2.05,5.72,5.72,0,0,1-.54-2.42,5.55,5.55,0,0,1,.08-.89,2.6,2.6,0,0,1,.25-.76l2.43.53a4.13,4.13,0,0,0-.1.44,5,5,0,0,0,0,.58,3.75,3.75,0,0,0,1.48,3.06,4.85,4.85,0,0,0,1.63.79,7.53,7.53,0,0,0,2,.26,5,5,0,0,0,3.81-1.5,5.78,5.78,0,0,0,1.45-4.22,7,7,0,0,0-.39-2.42,5.18,5.18,0,0,0-1.12-1.81,4.75,4.75,0,0,0-1.7-1.12,5.69,5.69,0,0,0-2.08-.38,5.35,5.35,0,0,0-3.21,1,6.73,6.73,0,0,0-2.06,2.3l-2.23-.62Z"/><path d="M405.19,308.8H391.25v-2.24h5.59V289.49a4.4,4.4,0,0,1-2.09,1.23,11.31,11.31,0,0,1-2.85.32v-2.37a6.49,6.49,0,0,0,3.26-.68,5.12,5.12,0,0,0,1.94-2.22h2.5v20.79h5.59Z"/><path d="M425.91,297.29c0,3.86-.76,6.81-2.27,8.88a8.06,8.06,0,0,1-12.69,0c-1.52-2.07-2.27-5-2.27-8.88s.75-6.82,2.27-8.88a8,8,0,0,1,12.69,0Q425.91,291.5,425.91,297.29Zm-14.47,0a15.77,15.77,0,0,0,.95,5.92l8.32-14.15a5.09,5.09,0,0,0-7.77,1.15A13.76,13.76,0,0,0,411.44,297.29Zm5.85,9.53a4.81,4.81,0,0,0,4.36-2.46,13.72,13.72,0,0,0,1.5-7.07,15.49,15.49,0,0,0-1-5.92l-8.32,14.14A4.75,4.75,0,0,0,417.29,306.82Z"/><path d="M425.53,378.47H411.59v-2.24h5.59V359.16a4.43,4.43,0,0,1-2.09,1.23,11.32,11.32,0,0,1-2.84.31v-2.36a6.47,6.47,0,0,0,3.25-.68,5.17,5.17,0,0,0,1.94-2.22h2.5v20.79h5.59Z"/><path d="M431,355.44H444v2.44H433.16l-.62,7.56a5.86,5.86,0,0,1,2.4-2.05,6.75,6.75,0,0,1,2.83-.65,8.36,8.36,0,0,1,3.27.6,6.66,6.66,0,0,1,2.42,1.66,7,7,0,0,1,1.49,2.53,9.83,9.83,0,0,1,.51,3.24,9.13,9.13,0,0,1-.57,3.27,7.62,7.62,0,0,1-1.63,2.58,7.42,7.42,0,0,1-2.53,1.7,8.72,8.72,0,0,1-3.29.61,8.9,8.9,0,0,1-3.17-.55,8,8,0,0,1-2.46-1.43,6.05,6.05,0,0,1-1.56-2.05,5.72,5.72,0,0,1-.54-2.42,5.55,5.55,0,0,1,.08-.89,2.6,2.6,0,0,1,.25-.76l2.43.53a3.83,3.83,0,0,0-.1.45,4.67,4.67,0,0,0,0,.57,3.75,3.75,0,0,0,1.48,3.06,4.85,4.85,0,0,0,1.63.79,7.53,7.53,0,0,0,2,.26,5.07,5.07,0,0,0,3.81-1.49,5.82,5.82,0,0,0,1.45-4.23,7,7,0,0,0-.39-2.42,5.28,5.28,0,0,0-1.12-1.81,4.89,4.89,0,0,0-1.7-1.12,5.69,5.69,0,0,0-2.08-.37,5.35,5.35,0,0,0-3.21.95,6.72,6.72,0,0,0-2.06,2.3l-2.23-.62Z"/><path d="M401,437.33a13.73,13.73,0,0,0,1.56-1.73,9,9,0,0,0,1-1.54,5.51,5.51,0,0,0,.5-1.48,9.85,9.85,0,0,0,.13-1.56,4.1,4.1,0,0,0-1.35-3.11,4.33,4.33,0,0,0-1.5-.89,5.51,5.51,0,0,0-1.89-.31,5.14,5.14,0,0,0-1.87.33A4.33,4.33,0,0,0,396,428a4.24,4.24,0,0,0-1,1.47,4.94,4.94,0,0,0-.35,1.87,4,4,0,0,0,.27,1.48l-2.44.4a4.88,4.88,0,0,1-.31-1.09,6.39,6.39,0,0,1-.08-1.08,6.27,6.27,0,0,1,.51-2.46,6.49,6.49,0,0,1,1.46-2.12,7.52,7.52,0,0,1,2.3-1.48,8,8,0,0,1,3.06-.56,9,9,0,0,1,3,.48,6.91,6.91,0,0,1,2.32,1.35,5.87,5.87,0,0,1,1.48,2.07,6.62,6.62,0,0,1,.51,2.62,9.81,9.81,0,0,1-.22,2,7.92,7.92,0,0,1-.71,2,11.73,11.73,0,0,1-1.26,2,23.72,23.72,0,0,1-1.86,2.07l-6.68,6.51h10.76v2.44H392v-1.81Z"/><path d="M427.79,436.38q0,5.79-2.27,8.88a8.07,8.07,0,0,1-12.7,0q-2.26-3.09-2.27-8.88t2.27-8.88a8.05,8.05,0,0,1,12.7,0Q427.79,430.59,427.79,436.38Zm-14.47,0a15.77,15.77,0,0,0,.95,5.92l8.32-14.15a5.1,5.1,0,0,0-7.78,1.16A13.8,13.8,0,0,0,413.32,436.38Zm5.85,9.53a4.81,4.81,0,0,0,4.36-2.46,13.72,13.72,0,0,0,1.5-7.07,15.52,15.52,0,0,0-1-5.92l-8.32,14.14A4.75,4.75,0,0,0,419.17,445.91Z"/><path d="M351.29,488a13.73,13.73,0,0,0,1.56-1.73,9,9,0,0,0,1-1.54,5.88,5.88,0,0,0,.5-1.48,9.85,9.85,0,0,0,.13-1.56,4.18,4.18,0,0,0-.36-1.75,4.25,4.25,0,0,0-2.49-2.25,5.51,5.51,0,0,0-1.89-.31,5.14,5.14,0,0,0-1.87.33,4.33,4.33,0,0,0-1.48.93,4.24,4.24,0,0,0-1,1.47A4.94,4.94,0,0,0,345,482a4.22,4.22,0,0,0,.26,1.48l-2.43.4a4.88,4.88,0,0,1-.31-1.09,6.39,6.39,0,0,1-.08-1.08,6.27,6.27,0,0,1,.51-2.46,6.49,6.49,0,0,1,1.46-2.12,7.52,7.52,0,0,1,2.3-1.48,8,8,0,0,1,3.06-.56,9,9,0,0,1,3,.48,6.91,6.91,0,0,1,2.32,1.35,5.85,5.85,0,0,1,1.47,2.07,6.62,6.62,0,0,1,.51,2.62,9.8,9.8,0,0,1-.21,2,7.92,7.92,0,0,1-.71,1.95,12.41,12.41,0,0,1-1.26,2,23.72,23.72,0,0,1-1.86,2.07l-6.68,6.51h10.76v2.44H342.31v-1.81Z"/><path d="M362.83,475.57h13.06V478H365l-.63,7.56a5.93,5.93,0,0,1,2.4-2.05,6.8,6.8,0,0,1,2.83-.64,8.45,8.45,0,0,1,3.28.59,6.75,6.75,0,0,1,2.41,1.66,7.15,7.15,0,0,1,1.5,2.53,9.83,9.83,0,0,1,.51,3.24,8.85,8.85,0,0,1-.58,3.27,7.32,7.32,0,0,1-4.16,4.28,8.46,8.46,0,0,1-3.29.61,8.9,8.9,0,0,1-3.17-.54,8.28,8.28,0,0,1-2.45-1.43,6.19,6.19,0,0,1-1.56-2.06,5.7,5.7,0,0,1-.55-2.42,4.71,4.71,0,0,1,.09-.89,2.28,2.28,0,0,1,.24-.75l2.44.52a2,2,0,0,0-.1.45,4.67,4.67,0,0,0,0,.57,3.83,3.83,0,0,0,.39,1.76,3.7,3.7,0,0,0,1.09,1.3,4.71,4.71,0,0,0,1.62.79,7.19,7.19,0,0,0,2,.26,5.07,5.07,0,0,0,3.82-1.49,5.87,5.87,0,0,0,1.45-4.23,6.83,6.83,0,0,0-.4-2.42,5,5,0,0,0-1.12-1.8,4.59,4.59,0,0,0-1.69-1.12,5.75,5.75,0,0,0-2.09-.38,5.41,5.41,0,0,0-3.21.95,6.83,6.83,0,0,0-2.05,2.31l-2.24-.63Z"/><path d="M276.19,517.46a1.51,1.51,0,0,0-.1.45,6,6,0,0,0,0,.67,4,4,0,0,0,.38,1.74,4.07,4.07,0,0,0,1,1.35,5,5,0,0,0,1.56.89,5.77,5.77,0,0,0,2,.33,5.26,5.26,0,0,0,3.64-1.17,4.52,4.52,0,0,0,1.3-3.53,4,4,0,0,0-.5-2,4.28,4.28,0,0,0-1.35-1.43,5.72,5.72,0,0,0-2-.84,11,11,0,0,0-2.5-.27v-2.23a7.49,7.49,0,0,0,2.51-.36,4.08,4.08,0,0,0,1.57-1,3.34,3.34,0,0,0,.78-1.33,4.9,4.9,0,0,0,.24-1.53,3.19,3.19,0,0,0-1.12-2.58,5.16,5.16,0,0,0-4.59-.68,3.82,3.82,0,0,0-1.28.76,3.62,3.62,0,0,0-.88,1.19,3.51,3.51,0,0,0-.32,1.54,2.78,2.78,0,0,0,.16,1l-2.4.36a4.78,4.78,0,0,1-.22-.84,7.17,7.17,0,0,1,0-.84,5.2,5.2,0,0,1,.47-2.22,5.58,5.58,0,0,1,1.35-1.82,6.31,6.31,0,0,1,2.07-1.24,7.85,7.85,0,0,1,2.68-.44,9.63,9.63,0,0,1,2.9.41,6.08,6.08,0,0,1,2.14,1.15,5.2,5.2,0,0,1,1.31,1.75,5.07,5.07,0,0,1,.46,2.18,6.55,6.55,0,0,1-.8,3.18,4.59,4.59,0,0,1-1.11,1.31,4.5,4.5,0,0,1-1.67.87,7.69,7.69,0,0,1,1.92.79,6.47,6.47,0,0,1,1.56,1.27,5.48,5.48,0,0,1,1,1.71,5.83,5.83,0,0,1,.38,2.12,7.53,7.53,0,0,1-.61,3.11,6.67,6.67,0,0,1-4.08,3.63,9.45,9.45,0,0,1-3,.46,8.75,8.75,0,0,1-3.27-.57,7.7,7.7,0,0,1-2.42-1.5,6.32,6.32,0,0,1-1.51-2.1,5.82,5.82,0,0,1-.53-2.37,6.38,6.38,0,0,1,.1-1,4.74,4.74,0,0,1,.26-.93Z"/><path d="M309.37,513.35c0,3.86-.75,6.82-2.27,8.88a8.06,8.06,0,0,1-12.69,0c-1.52-2.06-2.27-5-2.27-8.88s.75-6.82,2.27-8.88a8.06,8.06,0,0,1,12.69,0C308.62,506.53,309.37,509.49,309.37,513.35Zm-14.47,0a15.74,15.74,0,0,0,1,5.92l8.33-14.14a5.09,5.09,0,0,0-7.78,1.15A13.69,13.69,0,0,0,294.9,513.35Zm5.85,9.54a4.78,4.78,0,0,0,4.36-2.47,13.69,13.69,0,0,0,1.5-7.07,15.77,15.77,0,0,0-.95-5.92l-8.33,14.14A4.77,4.77,0,0,0,300.75,522.89Z"/><path d="M207.86,491.2a1.51,1.51,0,0,0-.1.44,6.23,6.23,0,0,0,0,.68,4,4,0,0,0,.38,1.74,4.07,4.07,0,0,0,1,1.35,5.17,5.17,0,0,0,1.56.89,5.77,5.77,0,0,0,2,.32,5.25,5.25,0,0,0,3.64-1.16,4.54,4.54,0,0,0,1.29-3.54,4,4,0,0,0-.49-2,4.38,4.38,0,0,0-1.35-1.43,6.12,6.12,0,0,0-2-.84,11.56,11.56,0,0,0-2.5-.26v-2.24a7.49,7.49,0,0,0,2.51-.36,4.06,4.06,0,0,0,1.57-.95,3.41,3.41,0,0,0,.78-1.33,5,5,0,0,0,.24-1.53,3.22,3.22,0,0,0-1.12-2.59,4.66,4.66,0,0,0-3.06-.93,4.39,4.39,0,0,0-1.53.26,3.82,3.82,0,0,0-1.28.76,3.69,3.69,0,0,0-.88,1.18,3.55,3.55,0,0,0-.32,1.55,2.69,2.69,0,0,0,.16,1l-2.4.37a4.78,4.78,0,0,1-.22-.84,7.28,7.28,0,0,1,0-.84,5.2,5.2,0,0,1,.47-2.22,5.72,5.72,0,0,1,1.35-1.83,6.29,6.29,0,0,1,2.07-1.23,7.61,7.61,0,0,1,2.68-.45,9.31,9.31,0,0,1,2.9.42,5.92,5.92,0,0,1,2.14,1.15,5.06,5.06,0,0,1,1.31,1.74,5.15,5.15,0,0,1,.46,2.19,7,7,0,0,1-.19,1.61,6.57,6.57,0,0,1-.61,1.56,4.94,4.94,0,0,1-1.11,1.32,4.82,4.82,0,0,1-1.67.87,7.33,7.33,0,0,1,1.92.79A6.44,6.44,0,0,1,219,488a5.72,5.72,0,0,1,1,1.71,5.89,5.89,0,0,1,.38,2.13,7.45,7.45,0,0,1-.61,3.1,6.71,6.71,0,0,1-1.65,2.26,6.93,6.93,0,0,1-2.43,1.38,9.74,9.74,0,0,1-3,.46,8.56,8.56,0,0,1-3.27-.58A7.68,7.68,0,0,1,207,497a6.46,6.46,0,0,1-1.51-2.11,5.82,5.82,0,0,1-.53-2.37,6.26,6.26,0,0,1,.1-1,5.06,5.06,0,0,1,.26-.94Z"/><path d="M225.75,475.57h13.06V478H228l-.62,7.56a5.87,5.87,0,0,1,2.4-2.05,6.73,6.73,0,0,1,2.83-.64,8.4,8.4,0,0,1,3.27.59,6.79,6.79,0,0,1,2.42,1.66,7.27,7.27,0,0,1,1.49,2.53,9.83,9.83,0,0,1,.51,3.24,9.05,9.05,0,0,1-.57,3.27,7.76,7.76,0,0,1-1.63,2.59,7.54,7.54,0,0,1-2.53,1.69,8.53,8.53,0,0,1-3.29.61,9,9,0,0,1-3.18-.54,8.28,8.28,0,0,1-2.45-1.43A6.19,6.19,0,0,1,225,495a5.49,5.49,0,0,1-.46-3.31,2.27,2.27,0,0,1,.25-.75l2.43.52a2.72,2.72,0,0,0-.1.45,4.67,4.67,0,0,0,0,.57,3.68,3.68,0,0,0,1.48,3.06,4.67,4.67,0,0,0,1.63.79,7.14,7.14,0,0,0,2,.26,5,5,0,0,0,3.81-1.49,5.82,5.82,0,0,0,1.45-4.23,7.06,7.06,0,0,0-.39-2.42,5.14,5.14,0,0,0-1.12-1.8,4.71,4.71,0,0,0-1.7-1.12,5.69,5.69,0,0,0-2.08-.38,5.41,5.41,0,0,0-3.21.95,6.75,6.75,0,0,0-2.06,2.31l-2.23-.63Z"/><path d="M155.54,443.6l10.23-16h2.77v16h2.59V446h-2.59v4.6h-2.77V446H155.54Zm2.83,0h7.4V431.86Z"/><path d="M191.92,439.13q0,5.79-2.27,8.88A8.06,8.06,0,0,1,177,448c-1.52-2.06-2.27-5-2.27-8.88s.75-6.82,2.27-8.88a8.06,8.06,0,0,1,12.69,0Q191.92,433.34,191.92,439.13Zm-14.47,0a15.74,15.74,0,0,0,1,5.92l8.32-14.14a4.76,4.76,0,0,0-3.42-1.32,4.81,4.81,0,0,0-4.36,2.47A13.8,13.8,0,0,0,177.45,439.13Zm5.85,9.54a4.8,4.8,0,0,0,4.36-2.47,13.69,13.69,0,0,0,1.5-7.07,15.56,15.56,0,0,0-1-5.92l-8.32,14.14A4.76,4.76,0,0,0,183.3,448.67Z"/><path d="M136.43,374.08l10.23-16h2.76v16H152v2.43h-2.6v4.61h-2.76v-4.61H136.43Zm2.83,0h7.4V362.34Z"/><path d="M157.51,358.09h13.06v2.44H159.71l-.62,7.56a5.86,5.86,0,0,1,2.4-2,6.77,6.77,0,0,1,2.83-.64,8.37,8.37,0,0,1,3.27.59,6.79,6.79,0,0,1,2.42,1.66,7,7,0,0,1,1.49,2.53,9.83,9.83,0,0,1,.51,3.24,9.09,9.09,0,0,1-.57,3.27,7.62,7.62,0,0,1-1.63,2.58,7.33,7.33,0,0,1-2.53,1.7,9.29,9.29,0,0,1-6.46.06,7.65,7.65,0,0,1-2.45-1.43,6.21,6.21,0,0,1-1.57-2.05,5.72,5.72,0,0,1-.54-2.42,5.65,5.65,0,0,1,.08-.89,2.53,2.53,0,0,1,.25-.75L159,374a3.83,3.83,0,0,0-.1.45,4.67,4.67,0,0,0,0,.57,3.75,3.75,0,0,0,1.48,3.06,5,5,0,0,0,1.63.79,7.14,7.14,0,0,0,2,.26,5,5,0,0,0,3.81-1.49,5.82,5.82,0,0,0,1.45-4.23,7.06,7.06,0,0,0-.39-2.42,5.28,5.28,0,0,0-1.12-1.81,4.73,4.73,0,0,0-1.7-1.11,5.49,5.49,0,0,0-2.08-.38,5.41,5.41,0,0,0-3.21.95,6.92,6.92,0,0,0-2.06,2.3l-2.23-.62Z"/><path d="M155.94,288.37H169v2.44H158.14l-.62,7.56a5.86,5.86,0,0,1,2.4-2.05,6.75,6.75,0,0,1,2.83-.65,8.4,8.4,0,0,1,3.27.6,6.79,6.79,0,0,1,2.42,1.66,7,7,0,0,1,1.49,2.53,9.83,9.83,0,0,1,.51,3.24,9.09,9.09,0,0,1-.57,3.27,7.62,7.62,0,0,1-1.63,2.58,7.42,7.42,0,0,1-2.53,1.7,9.32,9.32,0,0,1-6.47.06,7.87,7.87,0,0,1-2.45-1.43,6.05,6.05,0,0,1-1.56-2.05,5.72,5.72,0,0,1-.54-2.42,5.65,5.65,0,0,1,.08-.89,2.53,2.53,0,0,1,.25-.75l2.43.52a3.83,3.83,0,0,0-.1.45,4.67,4.67,0,0,0,0,.57,3.68,3.68,0,0,0,1.48,3.06,4.85,4.85,0,0,0,1.63.79,7.14,7.14,0,0,0,2,.26,5.07,5.07,0,0,0,3.81-1.49,5.82,5.82,0,0,0,1.45-4.23,7,7,0,0,0-.39-2.42,5.28,5.28,0,0,0-1.12-1.81,4.89,4.89,0,0,0-1.7-1.12,5.69,5.69,0,0,0-2.08-.37,5.41,5.41,0,0,0-3.21.95,6.83,6.83,0,0,0-2.06,2.3l-2.23-.62Z"/><path d="M191,299.88c0,3.86-.75,6.82-2.27,8.89a8.06,8.06,0,0,1-12.69,0c-1.52-2.07-2.27-5-2.27-8.89s.75-6.82,2.27-8.88a8.06,8.06,0,0,1,12.69,0C190.28,293.06,191,296,191,299.88Zm-14.47,0a15.7,15.7,0,0,0,.95,5.92l8.33-14.14a5.1,5.1,0,0,0-7.78,1.15A13.72,13.72,0,0,0,176.56,299.88Zm5.86,9.54a4.79,4.79,0,0,0,4.35-2.46,13.76,13.76,0,0,0,1.5-7.08,15.77,15.77,0,0,0-1-5.92L179,308.11A4.81,4.81,0,0,0,182.42,309.42Z"/><path d="M204.09,238h13.06v2.44H206.3l-.63,7.56a5.93,5.93,0,0,1,2.4-2,6.8,6.8,0,0,1,2.83-.64,8.45,8.45,0,0,1,3.28.59,6.66,6.66,0,0,1,2.41,1.66,7.15,7.15,0,0,1,1.5,2.53,9.83,9.83,0,0,1,.51,3.24,8.88,8.88,0,0,1-.58,3.27,7.24,7.24,0,0,1-4.16,4.28,8.46,8.46,0,0,1-3.29.61,8.9,8.9,0,0,1-3.17-.54,8.09,8.09,0,0,1-2.45-1.44,6.05,6.05,0,0,1-1.56-2,5.69,5.69,0,0,1-.54-2.42,4.67,4.67,0,0,1,.08-.89,2.28,2.28,0,0,1,.24-.75l2.44.52a1.87,1.87,0,0,0-.1.45,4.67,4.67,0,0,0,0,.57,3.83,3.83,0,0,0,.39,1.76A3.7,3.7,0,0,0,207,258a4.71,4.71,0,0,0,1.62.79,7.19,7.19,0,0,0,2,.26,5.07,5.07,0,0,0,3.82-1.49,5.87,5.87,0,0,0,1.45-4.23,6.83,6.83,0,0,0-.4-2.42,5,5,0,0,0-1.12-1.81,4.69,4.69,0,0,0-1.69-1.11,5.55,5.55,0,0,0-2.09-.38,5.41,5.41,0,0,0-3.21.95,6.89,6.89,0,0,0-2.05,2.3l-2.24-.62Z"/><path d="M223.89,238H237v2.44H226.1l-.63,7.56a5.93,5.93,0,0,1,2.4-2,6.8,6.8,0,0,1,2.83-.64,8.37,8.37,0,0,1,3.27.59,6.7,6.7,0,0,1,2.42,1.66,7.15,7.15,0,0,1,1.5,2.53,9.83,9.83,0,0,1,.51,3.24,8.88,8.88,0,0,1-.58,3.27,7.24,7.24,0,0,1-4.16,4.28,8.46,8.46,0,0,1-3.29.61,8.9,8.9,0,0,1-3.17-.54,8.09,8.09,0,0,1-2.45-1.44,6.05,6.05,0,0,1-1.56-2,5.7,5.7,0,0,1-.55-2.42,4.71,4.71,0,0,1,.09-.89,2.28,2.28,0,0,1,.24-.75l2.44.52a1.87,1.87,0,0,0-.1.45,4.67,4.67,0,0,0,0,.57,3.83,3.83,0,0,0,.39,1.76,3.6,3.6,0,0,0,1.09,1.3,4.71,4.71,0,0,0,1.62.79,7.19,7.19,0,0,0,2,.26,5.07,5.07,0,0,0,3.82-1.49,5.87,5.87,0,0,0,1.45-4.23,7.06,7.06,0,0,0-.4-2.42,5,5,0,0,0-1.12-1.81,4.69,4.69,0,0,0-1.69-1.11,5.55,5.55,0,0,0-2.09-.38,5.41,5.41,0,0,0-3.21.95,6.89,6.89,0,0,0-2,2.3l-2.24-.62Z"/><path d="M252,277.54h6.61v1.23h-5.49l-.32,3.82a3.1,3.1,0,0,1,1.22-1,3.49,3.49,0,0,1,1.43-.32,4.26,4.26,0,0,1,1.65.3,3.41,3.41,0,0,1,1.22.84,3.51,3.51,0,0,1,.76,1.28,5,5,0,0,1,.26,1.64,4.61,4.61,0,0,1-.29,1.65,4,4,0,0,1-.82,1.31,3.82,3.82,0,0,1-1.29.85,4.2,4.2,0,0,1-1.66.31,4.51,4.51,0,0,1-1.6-.27,4,4,0,0,1-1.24-.72,3,3,0,0,1-.79-1,2.83,2.83,0,0,1-.28-1.23,3.75,3.75,0,0,1,0-.45,1.21,1.21,0,0,1,.13-.38l1.23.27a1.19,1.19,0,0,0-.05.22,2.48,2.48,0,0,0,0,.29,2,2,0,0,0,.2.89,2.07,2.07,0,0,0,.55.66,2.37,2.37,0,0,0,.83.4,3.61,3.61,0,0,0,1,.13,2.58,2.58,0,0,0,1.93-.75,3,3,0,0,0,.73-2.14,3.32,3.32,0,0,0-.2-1.22,2.58,2.58,0,0,0-.56-.92,2.33,2.33,0,0,0-.86-.56,2.86,2.86,0,0,0-1.06-.2,2.73,2.73,0,0,0-1.62.49,3.48,3.48,0,0,0-1,1.16l-1.13-.31Z"/><path d="M269.72,283.36a7.46,7.46,0,0,1-1.15,4.49,4.08,4.08,0,0,1-6.42,0,9.41,9.41,0,0,1,0-9,4.08,4.08,0,0,1,6.42,0A7.46,7.46,0,0,1,269.72,283.36Zm-7.32,0a7.89,7.89,0,0,0,.48,3l4.21-7.15a2.58,2.58,0,0,0-3.93.58A7,7,0,0,0,262.4,283.36Zm3,4.82a2.43,2.43,0,0,0,2.21-1.24,7,7,0,0,0,.75-3.58,7.89,7.89,0,0,0-.48-3l-4.21,7.15A2.44,2.44,0,0,0,265.36,288.18Z"/><path d="M251.33,319.32l5.17-8.09h1.4v8.09h1.31v1.23H257.9v2.33h-1.4v-2.33h-5.17Zm1.43,0h3.74v-5.94Z"/><path d="M269.72,317.05a7.5,7.5,0,0,1-1.15,4.5,4.08,4.08,0,0,1-6.42,0,9.43,9.43,0,0,1,0-9,4.08,4.08,0,0,1,6.42,0A7.48,7.48,0,0,1,269.72,317.05Zm-7.32,0a8,8,0,0,0,.48,3l4.21-7.15a2.38,2.38,0,0,0-1.73-.67,2.43,2.43,0,0,0-2.2,1.25A7,7,0,0,0,262.4,317.05Zm3,4.83a2.44,2.44,0,0,0,2.21-1.25,7,7,0,0,0,.75-3.58,7.93,7.93,0,0,0-.48-3l-4.21,7.15A2.41,2.41,0,0,0,265.36,321.88Z"/><path d="M281.2,338.25a.9.9,0,0,0-.05.22,3.28,3.28,0,0,0,0,.34,2.06,2.06,0,0,0,.72,1.57,2.43,2.43,0,0,0,.79.45,2.93,2.93,0,0,0,1,.16,2.62,2.62,0,0,0,1.83-.59,2.27,2.27,0,0,0,.66-1.79,2,2,0,0,0-.25-1,2.22,2.22,0,0,0-.68-.72,3,3,0,0,0-1-.42,5.68,5.68,0,0,0-1.27-.14v-1.13a3.8,3.8,0,0,0,1.27-.18,2,2,0,0,0,.79-.48,1.75,1.75,0,0,0,.4-.68,2.48,2.48,0,0,0,.12-.77,1.63,1.63,0,0,0-.57-1.31,2.34,2.34,0,0,0-1.54-.47,2.28,2.28,0,0,0-.78.13,1.94,1.94,0,0,0-.65.39,1.76,1.76,0,0,0-.6,1.38,1.35,1.35,0,0,0,.08.5l-1.21.18a1.6,1.6,0,0,1-.11-.43,2.79,2.79,0,0,1,.21-1.54A2.82,2.82,0,0,1,281,331a3.27,3.27,0,0,1,1-.62,3.92,3.92,0,0,1,1.36-.22,5.05,5.05,0,0,1,1.46.2,2.94,2.94,0,0,1,1.08.59,2.52,2.52,0,0,1,.67.88,2.67,2.67,0,0,1,.23,1.1,3.34,3.34,0,0,1-.1.82,2.83,2.83,0,0,1-.31.79,2.16,2.16,0,0,1-.55.66,2.37,2.37,0,0,1-.85.44,4.13,4.13,0,0,1,1,.4,3.12,3.12,0,0,1,.79.64,2.94,2.94,0,0,1,.53.87,3.08,3.08,0,0,1,.19,1.07,3.67,3.67,0,0,1-.31,1.57,3.29,3.29,0,0,1-.83,1.14,3.4,3.4,0,0,1-1.23.7,4.7,4.7,0,0,1-1.52.23,4.31,4.31,0,0,1-1.66-.29,3.81,3.81,0,0,1-1.22-.75,3.36,3.36,0,0,1-.77-1.07,3.05,3.05,0,0,1-.26-1.2,2.29,2.29,0,0,1,.05-.5,2.54,2.54,0,0,1,.13-.48Z"/><path d="M298,336.17a7.46,7.46,0,0,1-1.15,4.49,4.07,4.07,0,0,1-6.41,0,9.34,9.34,0,0,1,0-9,4.07,4.07,0,0,1,6.41,0A7.46,7.46,0,0,1,298,336.17Zm-7.32,0a7.68,7.68,0,0,0,.49,3l4.2-7.15a2.58,2.58,0,0,0-3.93.58A7,7,0,0,0,290.66,336.17Zm3,4.82a2.43,2.43,0,0,0,2.21-1.24,7,7,0,0,0,.76-3.58,7.88,7.88,0,0,0-.49-3l-4.21,7.15A2.44,2.44,0,0,0,293.62,341Z"/><path d="M311.18,317.54a6.72,6.72,0,0,0,.79-.88,4.31,4.31,0,0,0,.49-.78,2.76,2.76,0,0,0,.25-.75,4,4,0,0,0,.07-.79,2.13,2.13,0,0,0-.18-.88,2.44,2.44,0,0,0-.5-.69,2.51,2.51,0,0,0-.76-.45,3,3,0,0,0-1-.16,2.58,2.58,0,0,0-.94.17,2.1,2.1,0,0,0-.75.48,2,2,0,0,0-.49.74,2.39,2.39,0,0,0-.18.94,2.27,2.27,0,0,0,.13.75l-1.23.2a2.38,2.38,0,0,1-.15-.55,3.08,3.08,0,0,1,.21-1.79,3.26,3.26,0,0,1,.74-1.07,3.68,3.68,0,0,1,1.17-.75,4.14,4.14,0,0,1,1.54-.28,4.55,4.55,0,0,1,1.53.24,3.51,3.51,0,0,1,1.18.68,3.09,3.09,0,0,1,.74,1.05,3.24,3.24,0,0,1,.26,1.32,4.34,4.34,0,0,1-.11,1,4,4,0,0,1-.35,1,6.14,6.14,0,0,1-.64,1,10.81,10.81,0,0,1-.94,1.05l-3.38,3.3h5.44v1.23h-7.52V322Z"/><path d="M324.75,317.05a7.57,7.57,0,0,1-1.14,4.5,4.08,4.08,0,0,1-6.42,0,9.36,9.36,0,0,1,0-9,4.08,4.08,0,0,1,6.42,0A7.56,7.56,0,0,1,324.75,317.05Zm-7.31,0a8,8,0,0,0,.48,3l4.2-7.15a2.37,2.37,0,0,0-1.72-.67,2.44,2.44,0,0,0-2.21,1.25A7,7,0,0,0,317.44,317.05Zm3,4.83a2.44,2.44,0,0,0,2.2-1.25,7,7,0,0,0,.76-3.58,7.72,7.72,0,0,0-.49-3l-4.2,7.15A2.38,2.38,0,0,0,320.4,321.88Z"/><path d="M314.28,289.18h-7.06v-1.13h2.83v-8.63A2.17,2.17,0,0,1,309,280a5.47,5.47,0,0,1-1.43.16V279a3.23,3.23,0,0,0,1.64-.34,2.6,2.6,0,0,0,1-1.12h1.27v10.51h2.83Z"/><path d="M324.75,283.36a7.54,7.54,0,0,1-1.14,4.49,4.08,4.08,0,0,1-6.42,0,9.34,9.34,0,0,1,0-9,4.08,4.08,0,0,1,6.42,0A7.54,7.54,0,0,1,324.75,283.36Zm-7.31,0a7.89,7.89,0,0,0,.48,3l4.2-7.15a2.4,2.4,0,0,0-1.72-.66,2.43,2.43,0,0,0-2.21,1.24A7,7,0,0,0,317.44,283.36Zm3,4.82a2.43,2.43,0,0,0,2.2-1.24,7,7,0,0,0,.76-3.58,7.68,7.68,0,0,0-.49-3l-4.2,7.15A2.41,2.41,0,0,0,320.4,288.18Z"/><path d="M283.92,262.48a1.26,1.26,0,0,0,.09-.31,1.44,1.44,0,0,0,.05-.37,1.14,1.14,0,0,0-.53-1,2.58,2.58,0,0,0-1.47-.36,2.09,2.09,0,0,0-1.22.37,3.12,3.12,0,0,0-.93,1,6.27,6.27,0,0,0-.63,1.57,9.29,9.29,0,0,0-.26,2,4.1,4.1,0,0,1,.53-.75,3.7,3.7,0,0,1,.71-.6,3.85,3.85,0,0,1,.87-.41,3.11,3.11,0,0,1,1-.15,3.76,3.76,0,0,1,2.69,1.09,3.52,3.52,0,0,1,.79,1.22,4.2,4.2,0,0,1,.28,1.56,4,4,0,0,1-.29,1.54,3.73,3.73,0,0,1-.81,1.27,3.78,3.78,0,0,1-1.27.85,4.07,4.07,0,0,1-1.62.32,3.7,3.7,0,0,1-3.06-1.4,6.23,6.23,0,0,1-1.11-4,10.65,10.65,0,0,1,.19-2.1,9.59,9.59,0,0,1,.49-1.73,4.89,4.89,0,0,1,1.5-2.15,3.42,3.42,0,0,1,2.22-.76,3.67,3.67,0,0,1,2.43.73,2.43,2.43,0,0,1,.87,1.95,2.5,2.5,0,0,1-.05.47c0,.16-.07.29-.1.38Zm-2.06,2.23a2.87,2.87,0,0,0-1,.18,2.53,2.53,0,0,0-.83.54,2.63,2.63,0,0,0-.56.84,3.17,3.17,0,0,0,0,2.27,2.63,2.63,0,0,0,.56.84,2.53,2.53,0,0,0,.83.54,2.92,2.92,0,0,0,2,0,2.39,2.39,0,0,0,.82-.54,2.63,2.63,0,0,0,.56-.84,3.17,3.17,0,0,0,0-2.27,2.63,2.63,0,0,0-.56-.84,2.39,2.39,0,0,0-.82-.54A2.87,2.87,0,0,0,281.86,264.71Z"/><path d="M296.13,265.28a7.48,7.48,0,0,1-1.15,4.49,4.08,4.08,0,0,1-6.42,0,9.41,9.41,0,0,1,0-9,4.07,4.07,0,0,1,6.42,0A7.44,7.44,0,0,1,296.13,265.28Zm-7.32,0a7.93,7.93,0,0,0,.48,3l4.21-7.15a2.56,2.56,0,0,0-3.93.58A6.88,6.88,0,0,0,288.81,265.28Zm3,4.82a2.44,2.44,0,0,0,2.21-1.25,7,7,0,0,0,.75-3.57,8,8,0,0,0-.48-3L290,269.43A2.41,2.41,0,0,0,291.77,270.1Z"/></g></g></g></g></svg>