<?xml version="1.0" encoding="utf-8"?>
<!-- Generator: Adobe Illustrator 23.0.1, SVG Export Plug-In . SVG Version: 6.00 Build 0)  -->
<svg version="1.1" id="Layer_1" xmlns="http://www.w3.org/2000/svg" xmlns:xlink="http://www.w3.org/1999/xlink" x="0px" y="0px"
	 viewBox="0 0 576 576" style="enable-background:new 0 0 576 576;" xml:space="preserve">
<style type="text/css">
	.st0{fill:none;stroke:#000000;stroke-width:2;stroke-linejoin:bevel;}
	.st1{fill:none;stroke:#000000;stroke-width:2;stroke-miterlimit:10;}
</style>
<title>stopwatch-black</title>
<g>
	<g id="stopwatch">
		<g id="stopwatch-black">
			<g id="Vector">
				<path class="st0" d="M307.6,162.7c104.2,9.9,185.7,97.6,185.7,204.4c0,113.4-91.9,205.3-205.3,205.3S82.7,480.5,82.7,367.1
					c0-63.7,30.2-121.7,75.7-159.3"/>
				<path class="st0" d="M181.4,191.6c26.4-16,56-25.9,86.7-28.9"/>
				<circle class="st0" cx="288" cy="367.1" r="191.6"/>
				<circle class="st0" cx="288" cy="367.1" r="179"/>
				<circle class="st0" cx="287.6" cy="300.9" r="48.1"/>
				<circle class="st0" cx="288" cy="299.1" r="7.6"/>
				<circle class="st0" cx="288" cy="299.1" r="3.2"/>
				<path class="st0" d="M255,148.5l1.8-20.3C230,111.2,222,75.8,238.9,49s52.4-34.8,79.2-17.8c16.6,10.5,26.7,28.8,26.7,48.5
					c0,21.2-9.8,39.6-26.9,49.6l1.9,19.2c38-17.9,54.3-63.2,36.4-101.3S293-7.1,255,10.9s-54.3,63.2-36.4,101.3
					C226.1,128.1,239,141,255,148.5"/>
				<path class="st0" d="M251.3,103.8c0,0,11-4.2,35.6-4.2s33.9,4.2,33.9,4.2V57.1c0,0-2.2-7.3-36.1-5.8s-33.4,8-33.4,8L251.3,103.8
					z"/>
				<path class="st0" d="M262.9,101.1v54.6c4,0.2,5.3,7,5.3,7s3,7.7,20.1,7.3s19.3-7.4,19.3-7.4s2.6-9.1,4.8-9.1v-52.1"/>
				<polyline class="st0" points="262.9,135.8 256.5,131.6 255.4,143.6 262.9,146.7 				"/>
				<polyline class="st0" points="312.4,137.1 318.4,133.1 319.4,143.2 312.4,146.7 				"/>
				<path class="st1" d="M262.9,155.7c0,0,4-4,24.6-4.1s25,2.1,25,2.1"/>
				<path class="st1" d="M140.2,198c4.3-5.7,9.5-10.7,15.3-14.8c6.7-4.6,13.9-8.3,21.4-11.2l-32.2-43.9c0,0-8.4,0.4-21.9,10.2
					S107.5,154,107.5,154L140.2,198z"/>
				<path class="st1" d="M144.2,193.2l16.1,16.4c0,0,5.4,5.8,15.5-1.9s6.8-14.5,6.8-14.5l-12.4-18.3"/>
				<line class="st0" x1="255.4" y1="102.7" x2="254.6" y2="56.2"/>
				<line class="st0" x1="260.5" y1="101.1" x2="259.8" y2="54.3"/>
				<line class="st0" x1="267.5" y1="100.6" x2="267.5" y2="52.8"/>
				<line class="st0" x1="278.5" y1="99.8" x2="277.9" y2="51.7"/>
				<line class="st0" x1="288.6" y1="51.1" x2="289.6" y2="99.7"/>
				<line class="st0" x1="316.1" y1="102.4" x2="316.1" y2="53.9"/>
				<line class="st0" x1="309.7" y1="52.3" x2="309.7" y2="101.1"/>
				<line class="st0" x1="303.4" y1="100.4" x2="303.4" y2="51.5"/>
				<line class="st0" x1="296.6" y1="51.2" x2="297.1" y2="99.9"/>
				<circle class="st0" cx="288" cy="367.1" r="8.4"/>
				<circle class="st0" cx="288" cy="367.1" r="3.6"/>
				<path class="st0" d="M275.5,370.1c1.6,6.9,8.6,11.2,15.5,9.6c0.8-0.2,1.7-0.5,2.4-0.8c0,0,5.2-4.6,30.4,5l2.8-8.2
					c0,0-19.6-4.5-26.4-12.3c0,0-2.3-4.7-4.5-6.4c-5.3-4-12.7-3.4-17.2,1.5l0,0c-12,0.4-156.1-43.7-156.1-43.7s145.8,50.1,153,55.2
					L275.5,370.1z"/>
				<path class="st0" d="M289.4,310.7c-4.4,0.9-8.3-1-11-5c-2.1-3.1-2.6-7-1.3-10.5l0,0c-3.1-10.6-7.1-15.4-7.1-15.4l7.6-5.1
					l11.8,13c3.3,0.4,6.3,2.2,8.2,5c2.5,4.1,2.5,9.2-0.2,13.2l0,0c0.7,9.4,14.9,32,14.9,32S295.5,314.1,289.4,310.7L289.4,310.7z"/>
				<line class="st1" x1="241.5" y1="328" x2="250.4" y2="322.9"/>
				<line class="st1" x1="235.1" y1="300.9" x2="244.1" y2="300.9"/>
				<line class="st1" x1="241.5" y1="273.5" x2="250.4" y2="278.5"/>
				<line class="st1" x1="261.7" y1="345.4" x2="266.2" y2="338.6"/>
				<line class="st1" x1="309.7" y1="338.6" x2="314.4" y2="345.4"/>
				<line class="st1" x1="326" y1="322" x2="333.6" y2="327"/>
				<line class="st1" x1="337.3" y1="298.9" x2="346.7" y2="298.9"/>
				<line class="st1" x1="325" y1="278.5" x2="333.6" y2="273.5"/>
				<line class="st1" x1="308.8" y1="261.9" x2="313.6" y2="254.3"/>
				<line class="st1" x1="260.9" y1="255.1" x2="266.2" y2="261.9"/>
				<line class="st1" x1="369.4" y1="225.3" x2="377.7" y2="212.1"/>
				<line class="st1" x1="287.8" y1="204.4" x2="288" y2="188.1"/>
				<line class="st1" x1="430.6" y1="284.2" x2="442.5" y2="276.7"/>
				<line class="st1" x1="451.6" y1="367.1" x2="467" y2="367.1"/>
				<line class="st1" x1="431.1" y1="447.9" x2="443.6" y2="455.6"/>
				<line class="st1" x1="372.1" y1="509.1" x2="379.7" y2="520.9"/>
				<line class="st1" x1="290.3" y1="531.6" x2="290.3" y2="546.1"/>
				<line class="st1" x1="208.4" y1="509.1" x2="200.1" y2="523.1"/>
				<line class="st1" x1="148.6" y1="450.6" x2="134.5" y2="459.3"/>
				<line class="st1" x1="127.1" y1="369.7" x2="109" y2="369.7"/>
				<line class="st1" x1="147.7" y1="288" x2="132.4" y2="278.6"/>
				<line class="st1" x1="207.1" y1="227.4" x2="198.2" y2="212.2"/>
				<line class="st1" x1="287.9" y1="343.4" x2="287.9" y2="351.6"/>
				<line class="st1" x1="288.6" y1="257.3" x2="288.6" y2="243.9"/>
				<path d="M283.9,218.6c0.1-0.2,0.1-0.4,0.2-0.6c0.1-0.2,0.1-0.5,0.1-0.7c0-0.8-0.3-1.6-1-2c-0.9-0.5-1.9-0.8-2.9-0.7
					c-0.9,0-1.7,0.2-2.4,0.7c-0.8,0.5-1.4,1.2-1.8,2c-0.5,1-1,2-1.2,3.1c-0.3,1.3-0.5,2.6-0.5,3.9c0.3-0.5,0.6-1,1-1.5
					c0.4-0.5,0.9-0.9,1.4-1.2c0.5-0.3,1.1-0.6,1.7-0.8c0.6-0.2,1.3-0.3,1.9-0.3c1,0,2,0.2,2.9,0.6c0.9,0.4,1.7,0.9,2.4,1.6
					c0.7,0.7,1.2,1.5,1.6,2.4c0.4,1,0.6,2,0.6,3.1c0,1-0.2,2-0.6,3c-0.7,1.9-2.2,3.4-4.1,4.2c-1,0.4-2.1,0.6-3.2,0.6
					c-2.3,0.1-4.6-0.9-6.1-2.8c-1.5-1.8-2.2-4.5-2.2-7.9c0-1.4,0.1-2.8,0.4-4.1c0.2-1.2,0.6-2.3,1-3.4c0.6-1.7,1.6-3.1,3-4.3
					c1.2-1,2.8-1.5,4.4-1.5c1.7-0.1,3.4,0.4,4.8,1.4c1.1,0.9,1.8,2.4,1.7,3.8c0,0.3,0,0.6-0.1,0.9c0,0.3-0.1,0.5-0.2,0.7
					L283.9,218.6z M279.8,223c-0.7,0-1.4,0.1-2,0.4c-0.6,0.2-1.2,0.6-1.6,1.1c-0.5,0.5-0.9,1.1-1.1,1.7c-0.5,1.4-0.5,3,0,4.5
					c0.3,0.6,0.6,1.2,1.1,1.7c0.5,0.4,1,0.8,1.6,1c0.6,0.2,1.3,0.4,2,0.4c0.7,0,1.4-0.1,2-0.4c0.6-0.2,1.2-0.6,1.6-1
					c0.5-0.5,0.9-1.1,1.1-1.7c0.5-1.4,0.5-3,0-4.5c-0.3-0.6-0.6-1.2-1.1-1.7c-0.5-0.5-1-0.8-1.6-1.1
					C281.2,223.2,280.5,223,279.8,223L279.8,223z"/>
				<path d="M308,224.2c0,3.9-0.8,6.8-2.3,8.9c-2.8,3.5-7.8,4.1-11.3,1.4c-0.5-0.4-1-0.9-1.4-1.4c-1.5-2.1-2.3-5-2.3-8.9
					c0-3.9,0.8-6.8,2.3-8.9c2.8-3.5,7.8-4.1,11.3-1.4c0.5,0.4,1,0.9,1.4,1.4C307.2,217.3,308,220.3,308,224.2z M293.5,224.2
					c-0.1,2,0.3,4,1,5.9l8.3-14.1c-0.9-0.9-2.1-1.4-3.4-1.3c-1.8-0.1-3.5,0.9-4.4,2.5C294,219.3,293.4,221.7,293.5,224.2
					L293.5,224.2z M299.4,233.7c1.8,0.1,3.5-0.9,4.4-2.5c1.1-2.2,1.6-4.6,1.5-7.1c0.1-2-0.3-4-1-5.9l-8.3,14.1
					C296.9,233.3,298.2,233.7,299.4,233.7L299.4,233.7z"/>
				<path d="M351.2,239.3h13.1v2.4h-10.9l-0.6,7.6c0.6-0.9,1.4-1.6,2.4-2.1c0.9-0.4,1.9-0.6,2.8-0.6c1.1,0,2.2,0.2,3.3,0.6
					c0.9,0.4,1.7,0.9,2.4,1.7c0.7,0.7,1.2,1.6,1.5,2.5c0.4,1,0.5,2.1,0.5,3.2c0,1.1-0.2,2.2-0.6,3.3c-0.4,1-0.9,1.8-1.6,2.6
					c-0.7,0.7-1.6,1.3-2.5,1.7c-1,0.4-2.2,0.6-3.3,0.6c-1.1,0-2.2-0.2-3.2-0.5c-0.9-0.3-1.7-0.8-2.5-1.4c-0.7-0.6-1.2-1.3-1.6-2
					c-0.4-0.8-0.5-1.6-0.5-2.4c0-0.3,0-0.6,0.1-0.9c0-0.3,0.1-0.5,0.2-0.8l2.4,0.5c0,0.1-0.1,0.3-0.1,0.4c0,0.2,0,0.4,0,0.6
					c0,1.2,0.5,2.3,1.5,3.1c0.5,0.4,1,0.6,1.6,0.8c0.7,0.2,1.3,0.3,2,0.3c1.4,0.1,2.8-0.5,3.8-1.5c1-1.2,1.6-2.7,1.5-4.2
					c0-0.8-0.1-1.6-0.4-2.4c-0.2-0.7-0.6-1.3-1.1-1.8c-0.5-0.5-1.1-0.9-1.7-1.1c-0.7-0.3-1.4-0.4-2.1-0.4c-1.1,0-2.3,0.3-3.2,1
					c-0.9,0.6-1.6,1.4-2.1,2.3l-2.2-0.6L351.2,239.3z"/>
				<path d="M405.2,308.8h-13.9v-2.2h5.6v-17.1c-0.6,0.6-1.3,1-2.1,1.2c-0.9,0.2-1.9,0.3-2.9,0.3v-2.4c1.1,0.1,2.3-0.2,3.3-0.7
					c0.9-0.5,1.5-1.3,1.9-2.2h2.5v20.8h5.6V308.8z"/>
				<path d="M425.9,297.3c0,3.9-0.8,6.8-2.3,8.9c-2.7,3.5-7.8,4.1-11.3,1.4c-0.5-0.4-1-0.9-1.4-1.4c-1.5-2.1-2.3-5-2.3-8.9
					s0.8-6.8,2.3-8.9c2.7-3.5,7.7-4.2,11.2-1.5c0.6,0.4,1,0.9,1.5,1.5C425.2,290.5,425.9,293.4,425.9,297.3z M411.4,297.3
					c-0.1,2,0.3,4,1,5.9l8.3-14.1c-2.1-1.9-5.3-1.7-7.2,0.4c-0.2,0.2-0.4,0.5-0.6,0.8C411.8,292.4,411.3,294.8,411.4,297.3z
					 M417.3,306.8c1.8,0.1,3.5-0.9,4.4-2.5c1.1-2.2,1.6-4.6,1.5-7.1c0.1-2-0.3-4-1-5.9l-8.3,14.1C414.8,306.4,416,306.9,417.3,306.8
					z"/>
				<path d="M425.5,378.5h-13.9v-2.2h5.6v-17.1c-0.6,0.6-1.3,1-2.1,1.2c-0.9,0.2-1.9,0.3-2.8,0.3v-2.4c1.1,0.1,2.2-0.2,3.2-0.7
					c0.8-0.5,1.5-1.3,1.9-2.2h2.5v20.8h5.6V378.5z"/>
				<path d="M431,355.4h13v2.4h-10.8l-0.6,7.6c0.6-0.9,1.4-1.6,2.4-2c0.9-0.4,1.9-0.6,2.8-0.6c1.1,0,2.2,0.2,3.3,0.6
					c0.9,0.4,1.7,0.9,2.4,1.7c0.7,0.7,1.2,1.6,1.5,2.5c0.4,1,0.5,2.1,0.5,3.2c0,1.1-0.2,2.2-0.6,3.3c-0.4,1-0.9,1.8-1.6,2.6
					c-0.7,0.7-1.6,1.3-2.5,1.7c-1,0.4-2.2,0.6-3.3,0.6c-1.1,0-2.2-0.2-3.2-0.5c-0.9-0.3-1.7-0.8-2.5-1.4c-0.7-0.6-1.2-1.3-1.6-2
					c-0.4-0.8-0.5-1.6-0.5-2.4c0-0.3,0-0.6,0.1-0.9c0-0.3,0.1-0.5,0.2-0.8l2.4,0.5c0,0.1-0.1,0.3-0.1,0.5c0,0.2,0,0.4,0,0.6
					c0,1.2,0.5,2.3,1.5,3.1c0.5,0.4,1,0.6,1.6,0.8c0.7,0.2,1.3,0.3,2,0.3c1.4,0.1,2.8-0.5,3.8-1.5c1-1.2,1.5-2.7,1.5-4.2
					c0-0.8-0.1-1.6-0.4-2.4c-0.2-0.7-0.6-1.3-1.1-1.8c-0.5-0.5-1.1-0.9-1.7-1.1c-0.7-0.3-1.4-0.4-2.1-0.4c-1.1,0-2.3,0.3-3.2,1
					c-0.9,0.6-1.6,1.4-2.1,2.3l-2.2-0.6L431,355.4z"/>
				<path d="M401,437.3c0.6-0.5,1.1-1.1,1.6-1.7c0.4-0.5,0.7-1,1-1.5c0.2-0.5,0.4-1,0.5-1.5c0.1-0.5,0.1-1,0.1-1.6
					c0-1.2-0.5-2.3-1.4-3.1c-0.4-0.4-0.9-0.7-1.5-0.9c-0.6-0.2-1.2-0.3-1.9-0.3c-0.6,0-1.3,0.1-1.9,0.3c-0.6,0.2-1.1,0.5-1.6,1
					c-0.4,0.4-0.8,0.9-1,1.5c-0.2,0.6-0.4,1.2-0.4,1.9c0,0.5,0.1,1,0.3,1.5l-2.4,0.4c-0.1-0.4-0.2-0.7-0.3-1.1
					c-0.1-0.4-0.1-0.7-0.1-1.1c0-0.8,0.2-1.7,0.5-2.5c0.3-0.8,0.8-1.5,1.5-2.1c0.7-0.6,1.4-1.1,2.3-1.5c1-0.4,2-0.6,3.1-0.6
					c1,0,2,0.2,3,0.5c0.9,0.3,1.6,0.8,2.3,1.4c0.6,0.6,1.1,1.3,1.5,2.1c0.3,0.8,0.5,1.7,0.5,2.6c0,0.7-0.1,1.3-0.2,2
					c-0.1,0.7-0.4,1.4-0.7,2c-0.4,0.7-0.8,1.4-1.3,2c-0.6,0.7-1.2,1.4-1.9,2.1l-6.7,6.5h10.8v2.4H392v-1.8L401,437.3z"/>
				<path d="M427.8,436.4c0,3.9-0.8,6.8-2.3,8.9c-2.8,3.5-7.8,4.1-11.3,1.4c-0.5-0.4-1-0.9-1.4-1.4c-1.5-2.1-2.3-5-2.3-8.9
					s0.8-6.8,2.3-8.9c2.7-3.5,7.8-4.1,11.3-1.4c0.5,0.4,1,0.9,1.4,1.4C427,429.6,427.8,432.5,427.8,436.4z M413.3,436.4
					c-0.1,2,0.3,4,1,5.9l8.3-14.1c-2.1-1.9-5.3-1.7-7.2,0.4c-0.2,0.2-0.4,0.5-0.6,0.8C413.7,431.5,413.2,433.9,413.3,436.4z
					 M419.2,445.9c1.8,0.1,3.5-0.9,4.4-2.5c1.1-2.2,1.6-4.6,1.5-7.1c0.1-2-0.3-4-1-5.9l-8.3,14.1C416.6,445.5,417.9,446,419.2,445.9
					z"/>
				<path d="M351.3,488c0.6-0.5,1.1-1.1,1.6-1.7c0.4-0.5,0.7-1,1-1.5c0.2-0.5,0.4-1,0.5-1.5c0.1-0.5,0.1-1,0.1-1.6
					c0-0.6-0.1-1.2-0.4-1.8c-0.5-1.1-1.4-1.9-2.5-2.2c-0.6-0.2-1.2-0.3-1.9-0.3c-0.6,0-1.3,0.1-1.9,0.3c-0.6,0.2-1.1,0.5-1.5,0.9
					c-0.4,0.4-0.8,0.9-1,1.5c-0.3,0.6-0.4,1.2-0.4,1.9c0,0.5,0.1,1,0.3,1.5l-2.4,0.4c-0.1-0.4-0.2-0.7-0.3-1.1
					c-0.1-0.4-0.1-0.7-0.1-1.1c0-0.8,0.2-1.7,0.5-2.5c0.3-0.8,0.8-1.5,1.5-2.1c0.7-0.6,1.4-1.1,2.3-1.5c1-0.4,2-0.6,3.1-0.6
					c1,0,2,0.2,3,0.5c0.9,0.3,1.6,0.8,2.3,1.4c0.6,0.6,1.1,1.3,1.5,2.1c0.3,0.8,0.5,1.7,0.5,2.6c0,0.7-0.1,1.3-0.2,2
					c-0.2,0.7-0.4,1.3-0.7,2c-0.4,0.7-0.8,1.4-1.3,2c-0.6,0.7-1.2,1.4-1.9,2.1l-6.7,6.5h10.8v2.4h-14.8v-1.8L351.3,488z"/>
				<path d="M362.8,475.6h13.1v2.4H365l-0.6,7.6c0.6-0.9,1.4-1.6,2.4-2c0.9-0.4,1.9-0.6,2.8-0.6c1.1,0,2.2,0.2,3.3,0.6
					c0.9,0.4,1.7,0.9,2.4,1.7c0.7,0.7,1.2,1.6,1.5,2.5c0.4,1,0.5,2.1,0.5,3.2c0,1.1-0.2,2.2-0.6,3.3c-0.7,2-2.2,3.5-4.2,4.3
					c-1,0.4-2.2,0.6-3.3,0.6c-1.1,0-2.2-0.2-3.2-0.5c-0.9-0.3-1.7-0.8-2.5-1.4c-0.7-0.6-1.2-1.3-1.6-2.1c-0.4-0.8-0.5-1.6-0.5-2.4
					c0-0.3,0-0.6,0.1-0.9c0-0.3,0.1-0.5,0.2-0.8l2.4,0.5c-0.1,0.1-0.1,0.3-0.1,0.5c0,0.2,0,0.4,0,0.6c0,0.6,0.1,1.2,0.4,1.8
					c0.3,0.5,0.6,1,1.1,1.3c0.5,0.4,1,0.6,1.6,0.8c0.7,0.2,1.3,0.3,2,0.3c1.4,0.1,2.8-0.5,3.8-1.5c1-1.2,1.5-2.7,1.5-4.2
					c0-0.8-0.1-1.6-0.4-2.4c-0.2-0.7-0.6-1.3-1.1-1.8c-0.5-0.5-1.1-0.9-1.7-1.1c-0.7-0.3-1.4-0.4-2.1-0.4c-1.1,0-2.3,0.3-3.2,1
					c-0.9,0.6-1.6,1.4-2,2.3l-2.2-0.6L362.8,475.6z"/>
				<path d="M276.2,517.5c-0.1,0.1-0.1,0.3-0.1,0.5c0,0.2,0,0.4,0,0.7c0,0.6,0.1,1.2,0.4,1.7c0.2,0.5,0.6,1,1,1.3
					c0.5,0.4,1,0.7,1.6,0.9c0.6,0.2,1.3,0.3,2,0.3c1.3,0.1,2.6-0.3,3.6-1.2c0.9-0.9,1.4-2.2,1.3-3.5c0-0.7-0.2-1.4-0.5-2
					c-0.3-0.6-0.8-1.1-1.4-1.4c-0.6-0.4-1.3-0.7-2-0.8c-0.8-0.2-1.7-0.3-2.5-0.3v-2.2c0.9,0,1.7-0.1,2.5-0.4c0.6-0.2,1.1-0.6,1.6-1
					c0.4-0.4,0.6-0.8,0.8-1.3c0.2-0.5,0.2-1,0.2-1.5c0-1-0.4-1.9-1.1-2.6c-1.3-0.9-3-1.2-4.6-0.7c-0.5,0.2-0.9,0.4-1.3,0.8
					c-0.4,0.3-0.7,0.7-0.9,1.2c-0.2,0.5-0.3,1-0.3,1.5c0,0.3,0,0.7,0.2,1l-2.4,0.4c-0.1-0.3-0.2-0.6-0.2-0.8c0-0.3,0-0.6,0-0.8
					c0-0.8,0.2-1.5,0.5-2.2c0.3-0.7,0.8-1.3,1.4-1.8c0.6-0.5,1.3-1,2.1-1.2c0.9-0.3,1.8-0.5,2.7-0.4c1,0,2,0.1,2.9,0.4
					c0.8,0.2,1.5,0.6,2.1,1.1c0.6,0.5,1,1.1,1.3,1.8c0.3,0.7,0.5,1.4,0.5,2.2c0,1.1-0.3,2.2-0.8,3.2c-0.3,0.5-0.7,0.9-1.1,1.3
					c-0.5,0.4-1.1,0.7-1.7,0.9c0.7,0.2,1.3,0.4,1.9,0.8c0.6,0.3,1.1,0.8,1.6,1.3c0.4,0.5,0.8,1.1,1,1.7c0.3,0.7,0.4,1.4,0.4,2.1
					c0,1.1-0.2,2.1-0.6,3.1c-0.8,1.7-2.3,3.1-4.1,3.6c-1,0.3-2,0.5-3,0.5c-1.1,0-2.2-0.2-3.3-0.6c-0.9-0.3-1.7-0.9-2.4-1.5
					c-0.6-0.6-1.2-1.3-1.5-2.1c-0.3-0.7-0.5-1.6-0.5-2.4c0-0.3,0-0.7,0.1-1c0.1-0.3,0.1-0.6,0.3-0.9L276.2,517.5z"/>
				<path d="M309.4,513.3c0,3.9-0.8,6.8-2.3,8.9c-2.7,3.5-7.8,4.1-11.3,1.4c-0.5-0.4-1-0.9-1.4-1.4c-1.5-2.1-2.3-5-2.3-8.9
					s0.8-6.8,2.3-8.9c2.7-3.5,7.8-4.1,11.3-1.4c0.5,0.4,1,0.9,1.4,1.4C308.6,506.5,309.4,509.5,309.4,513.3z M294.9,513.3
					c0,2,0.3,4,1,5.9l8.3-14.1c-2.1-1.9-5.3-1.7-7.2,0.4c-0.2,0.2-0.4,0.5-0.6,0.8C295.3,508.5,294.8,510.9,294.9,513.3z
					 M300.8,522.9c1.8,0.1,3.5-0.9,4.4-2.5c1.1-2.2,1.6-4.6,1.5-7.1c0.1-2-0.3-4-1-5.9l-8.3,14.1
					C298.2,522.4,299.5,522.9,300.8,522.9L300.8,522.9z"/>
				<path d="M207.9,491.2c-0.1,0.1-0.1,0.3-0.1,0.4c0,0.2,0,0.5,0,0.7c0,0.6,0.1,1.2,0.4,1.7c0.2,0.5,0.6,1,1,1.4
					c0.5,0.4,1,0.7,1.6,0.9c0.6,0.2,1.3,0.3,2,0.3c1.3,0.1,2.6-0.3,3.6-1.2c0.9-0.9,1.4-2.2,1.3-3.5c0-0.7-0.2-1.4-0.5-2
					c-0.3-0.6-0.8-1.1-1.4-1.4c-0.6-0.4-1.3-0.7-2-0.8c-0.8-0.2-1.7-0.3-2.5-0.3v-2.2c0.9,0,1.7-0.1,2.5-0.4c0.6-0.2,1.1-0.5,1.6-1
					c0.4-0.4,0.6-0.8,0.8-1.3c0.2-0.5,0.2-1,0.2-1.5c0-1-0.4-1.9-1.1-2.6c-0.9-0.7-2-1-3.1-0.9c-0.5,0-1,0.1-1.5,0.3
					c-0.5,0.2-0.9,0.4-1.3,0.8c-0.4,0.3-0.7,0.7-0.9,1.2c-0.2,0.5-0.3,1-0.3,1.5c0,0.3,0,0.7,0.2,1l-2.4,0.4
					c-0.1-0.3-0.2-0.6-0.2-0.8c0-0.3,0-0.6,0-0.8c0-0.8,0.2-1.5,0.5-2.2c0.3-0.7,0.8-1.3,1.4-1.8c0.6-0.5,1.3-1,2.1-1.2
					c0.9-0.3,1.8-0.5,2.7-0.5c1,0,2,0.1,2.9,0.4c0.8,0.2,1.5,0.6,2.1,1.1c0.6,0.5,1,1.1,1.3,1.7c0.3,0.7,0.5,1.4,0.5,2.2
					c0,0.5-0.1,1.1-0.2,1.6c-0.1,0.5-0.3,1.1-0.6,1.6c-0.3,0.5-0.7,0.9-1.1,1.3c-0.5,0.4-1.1,0.7-1.7,0.9c0.7,0.2,1.3,0.4,1.9,0.8
					c0.6,0.3,1.1,0.7,1.5,1.2c0.4,0.5,0.8,1.1,1,1.7c0.3,0.7,0.4,1.4,0.4,2.1c0,1.1-0.2,2.1-0.6,3.1c-0.4,0.9-0.9,1.6-1.6,2.3
					c-0.7,0.6-1.5,1.1-2.4,1.4c-1,0.3-2,0.5-3,0.5c-1.1,0-2.2-0.2-3.3-0.6c-0.9-0.3-1.7-0.8-2.4-1.5c-0.6-0.6-1.2-1.3-1.5-2.1
					c-0.3-0.7-0.5-1.6-0.5-2.4c0-0.3,0-0.7,0.1-1c0.1-0.3,0.1-0.6,0.3-0.9L207.9,491.2z"/>
				<path d="M225.8,475.6h13.1v2.4H228l-0.6,7.6c0.6-0.9,1.4-1.6,2.4-2c0.9-0.4,1.9-0.6,2.8-0.6c1.1,0,2.2,0.2,3.3,0.6
					c0.9,0.4,1.7,0.9,2.4,1.7c0.7,0.7,1.2,1.6,1.5,2.5c0.4,1,0.5,2.1,0.5,3.2c0,1.1-0.2,2.2-0.6,3.3c-0.4,1-0.9,1.8-1.6,2.6
					c-0.7,0.7-1.6,1.3-2.5,1.7c-1,0.4-2.2,0.6-3.3,0.6c-1.1,0-2.2-0.2-3.2-0.5c-0.9-0.3-1.7-0.8-2.4-1.4c-0.7-0.6-1.3-1.3-1.7-2.1
					c-0.5-1-0.7-2.2-0.5-3.3c0-0.3,0.1-0.5,0.2-0.8l2.4,0.5c0,0.1-0.1,0.3-0.1,0.5c0,0.2,0,0.4,0,0.6c0,1.2,0.5,2.3,1.5,3.1
					c0.5,0.4,1,0.6,1.6,0.8c0.7,0.2,1.3,0.3,2,0.3c1.4,0.1,2.8-0.5,3.8-1.5c1-1.2,1.5-2.7,1.4-4.2c0-0.8-0.1-1.6-0.4-2.4
					c-0.2-0.7-0.6-1.3-1.1-1.8c-0.5-0.5-1.1-0.9-1.7-1.1c-0.7-0.3-1.4-0.4-2.1-0.4c-1.1,0-2.3,0.3-3.2,1c-0.9,0.6-1.6,1.4-2.1,2.3
					l-2.2-0.6L225.8,475.6z"/>
				<path d="M155.5,443.6l10.2-16h2.8v16h2.6v2.4h-2.6v4.6h-2.8V446h-10.2V443.6z M158.4,443.6h7.4v-11.7L158.4,443.6z"/>
				<path d="M191.9,439.1c0,3.9-0.8,6.8-2.3,8.9c-2.8,3.5-7.8,4.1-11.3,1.3c-0.5-0.4-0.9-0.8-1.3-1.3c-1.5-2.1-2.3-5-2.3-8.9
					s0.8-6.8,2.3-8.9c2.7-3.5,7.8-4.1,11.3-1.4c0.5,0.4,1,0.9,1.4,1.4C191.2,432.3,191.9,435.3,191.9,439.1z M177.4,439.1
					c0,2,0.3,4,1,5.9l8.3-14.1c-0.9-0.9-2.1-1.4-3.4-1.3c-1.8-0.1-3.5,0.9-4.4,2.5C177.9,434.2,177.3,436.7,177.4,439.1z
					 M183.3,448.7c1.8,0.1,3.5-0.9,4.4-2.5c1.1-2.2,1.6-4.6,1.5-7.1c0.1-2-0.3-4-1-5.9l-8.3,14.1C180.8,448.2,182,448.7,183.3,448.7
					z"/>
				<path d="M136.4,374.1l10.2-16h2.8v16h2.6v2.4h-2.6v4.6h-2.8v-4.6h-10.2V374.1z M139.3,374.1h7.4v-11.7L139.3,374.1z"/>
				<path d="M157.5,358.1h13.1v2.4h-10.9l-0.6,7.6c0.6-0.9,1.4-1.6,2.4-2c0.9-0.4,1.9-0.6,2.8-0.6c1.1,0,2.2,0.2,3.3,0.6
					c0.9,0.4,1.7,0.9,2.4,1.7c0.7,0.7,1.2,1.6,1.5,2.5c0.4,1,0.5,2.1,0.5,3.2c0,1.1-0.2,2.2-0.6,3.3c-0.4,1-0.9,1.8-1.6,2.6
					c-0.7,0.7-1.6,1.3-2.5,1.7c-2.1,0.8-4.4,0.8-6.5,0.1c-0.9-0.3-1.7-0.8-2.4-1.4c-0.7-0.6-1.2-1.3-1.6-2c-0.4-0.8-0.5-1.6-0.5-2.4
					c0-0.3,0-0.6,0.1-0.9c0-0.3,0.1-0.5,0.2-0.8l2.4,0.5c0,0.1-0.1,0.3-0.1,0.5c0,0.2,0,0.4,0,0.6c0,1.2,0.5,2.3,1.5,3.1
					c0.5,0.4,1,0.6,1.6,0.8c0.7,0.2,1.3,0.3,2,0.3c1.4,0.1,2.8-0.5,3.8-1.5c1-1.2,1.5-2.7,1.4-4.2c0-0.8-0.1-1.6-0.4-2.4
					c-0.2-0.7-0.6-1.3-1.1-1.8c-0.5-0.5-1.1-0.9-1.7-1.1c-0.7-0.3-1.4-0.4-2.1-0.4c-1.1,0-2.3,0.3-3.2,1c-0.9,0.6-1.6,1.4-2.1,2.3
					l-2.2-0.6L157.5,358.1z"/>
				<path d="M155.9,288.4H169v2.4h-10.9l-0.6,7.6c0.6-0.9,1.4-1.6,2.4-2c0.9-0.4,1.9-0.6,2.8-0.6c1.1,0,2.2,0.2,3.3,0.6
					c0.9,0.4,1.7,0.9,2.4,1.7c0.7,0.7,1.2,1.6,1.5,2.5c0.4,1,0.5,2.1,0.5,3.2c0,1.1-0.2,2.2-0.6,3.3c-0.4,1-0.9,1.8-1.6,2.6
					c-0.7,0.7-1.6,1.3-2.5,1.7c-2.1,0.8-4.4,0.8-6.5,0.1c-0.9-0.3-1.7-0.8-2.4-1.4c-0.7-0.6-1.2-1.3-1.6-2c-0.4-0.8-0.5-1.6-0.5-2.4
					c0-0.3,0-0.6,0.1-0.9c0-0.3,0.1-0.5,0.2-0.8l2.4,0.5c0,0.1-0.1,0.3-0.1,0.5c0,0.2,0,0.4,0,0.6c0,1.2,0.5,2.3,1.5,3.1
					c0.5,0.4,1,0.6,1.6,0.8c0.7,0.2,1.3,0.3,2,0.3c1.4,0.1,2.8-0.5,3.8-1.5c1-1.2,1.5-2.7,1.4-4.2c0-0.8-0.1-1.6-0.4-2.4
					c-0.2-0.7-0.6-1.3-1.1-1.8c-0.5-0.5-1.1-0.9-1.7-1.1c-0.7-0.3-1.4-0.4-2.1-0.4c-1.1,0-2.3,0.3-3.2,1c-0.9,0.6-1.6,1.4-2.1,2.3
					l-2.2-0.6L155.9,288.4z"/>
				<path d="M191,299.9c0,3.9-0.8,6.8-2.3,8.9c-2.7,3.5-7.8,4.1-11.3,1.4c-0.5-0.4-1-0.9-1.4-1.4c-1.5-2.1-2.3-5-2.3-8.9
					s0.8-6.8,2.3-8.9c2.7-3.5,7.8-4.1,11.3-1.4c0.5,0.4,1,0.9,1.4,1.4C190.3,293.1,191,296,191,299.9z M176.5,299.9
					c-0.1,2,0.3,4,0.9,5.9l8.3-14.1c-2.1-1.9-5.3-1.7-7.2,0.4c-0.2,0.2-0.4,0.5-0.6,0.8C176.9,295,176.4,297.4,176.5,299.9
					L176.5,299.9z M182.4,309.4c1.8,0.1,3.5-0.9,4.4-2.5c1.1-2.2,1.6-4.6,1.5-7.1c0-2-0.3-4-1-5.9l-8.2,14.1
					C179.9,309,181.2,309.5,182.4,309.4L182.4,309.4z"/>
				<path d="M204.1,238h13.1v2.4h-10.8l-0.6,7.6c0.6-0.9,1.4-1.6,2.4-2c0.9-0.4,1.9-0.6,2.8-0.6c1.1,0,2.2,0.2,3.3,0.6
					c0.9,0.4,1.7,0.9,2.4,1.7c0.7,0.7,1.2,1.6,1.5,2.5c0.4,1,0.5,2.1,0.5,3.2c0,1.1-0.2,2.2-0.6,3.3c-0.7,2-2.2,3.5-4.2,4.3
					c-1,0.4-2.2,0.6-3.3,0.6c-1.1,0-2.2-0.2-3.2-0.5c-0.9-0.3-1.7-0.8-2.4-1.4c-0.7-0.5-1.2-1.2-1.6-2c-0.4-0.8-0.5-1.6-0.5-2.4
					c0-0.3,0-0.6,0.1-0.9c0-0.3,0.1-0.5,0.2-0.8l2.4,0.5c-0.1,0.1-0.1,0.3-0.1,0.4c0,0.2,0,0.4,0,0.6c0,0.6,0.1,1.2,0.4,1.8
					c0.3,0.5,0.6,0.9,1.1,1.2c0.5,0.4,1,0.6,1.6,0.8c0.7,0.2,1.3,0.3,2,0.3c1.4,0.1,2.8-0.5,3.8-1.5c1-1.2,1.5-2.7,1.4-4.2
					c0-0.8-0.1-1.6-0.4-2.4c-0.2-0.7-0.6-1.3-1.1-1.8c-0.5-0.5-1.1-0.9-1.7-1.1c-0.7-0.3-1.4-0.4-2.1-0.4c-1.1,0-2.3,0.3-3.2,0.9
					c-0.8,0.6-1.5,1.4-2.1,2.3l-2.2-0.6L204.1,238z"/>
				<path d="M223.9,238H237v2.4h-10.9l-0.6,7.6c0.6-0.9,1.4-1.6,2.4-2c0.9-0.4,1.9-0.6,2.8-0.6c1.1,0,2.2,0.2,3.3,0.6
					c0.9,0.4,1.7,0.9,2.4,1.7c0.7,0.7,1.2,1.6,1.5,2.5c0.4,1,0.5,2.1,0.5,3.2c0,1.1-0.2,2.2-0.6,3.3c-0.7,2-2.2,3.5-4.2,4.3
					c-1,0.4-2.2,0.6-3.3,0.6c-1.1,0-2.2-0.2-3.2-0.5c-0.9-0.3-1.7-0.8-2.4-1.4c-0.7-0.5-1.2-1.2-1.6-2c-0.4-0.8-0.5-1.6-0.6-2.4
					c0-0.3,0-0.6,0.1-0.9c0-0.3,0.1-0.5,0.2-0.8l2.4,0.5c-0.1,0.1-0.1,0.3-0.1,0.4c0,0.2,0,0.4,0,0.6c0,0.6,0.1,1.2,0.4,1.8
					c0.3,0.5,0.6,1,1.1,1.3c0.5,0.4,1,0.6,1.6,0.8c0.7,0.2,1.3,0.3,2,0.3c1.4,0.1,2.8-0.5,3.8-1.5c1-1.2,1.5-2.7,1.4-4.2
					c0-0.8-0.1-1.6-0.4-2.4c-0.2-0.7-0.6-1.3-1.1-1.8c-0.5-0.5-1.1-0.9-1.7-1.1c-0.7-0.3-1.4-0.4-2.1-0.4c-1.1,0-2.3,0.3-3.2,0.9
					c-0.8,0.6-1.5,1.4-2,2.3l-2.2-0.6L223.9,238z"/>
				<path d="M252,277.5h6.6v1.2h-5.5l-0.3,3.8c0.3-0.4,0.7-0.8,1.2-1c0.4-0.2,0.9-0.3,1.4-0.3c0.6,0,1.1,0.1,1.7,0.3
					c0.5,0.2,0.9,0.5,1.2,0.8c0.3,0.4,0.6,0.8,0.8,1.3c0.2,0.5,0.3,1.1,0.3,1.6c0,0.6-0.1,1.1-0.3,1.6c-0.2,0.5-0.5,0.9-0.8,1.3
					c-0.4,0.4-0.8,0.7-1.3,0.9c-0.5,0.2-1.1,0.3-1.7,0.3c-0.5,0-1.1-0.1-1.6-0.3c-0.5-0.2-0.9-0.4-1.2-0.7c-0.3-0.3-0.6-0.6-0.8-1
					c-0.2-0.4-0.3-0.8-0.3-1.2c0-0.1,0-0.3,0-0.5c0-0.1,0.1-0.3,0.1-0.4l1.2,0.3c0,0.1,0,0.1-0.1,0.2c0,0.1,0,0.2,0,0.3
					c0,0.3,0.1,0.6,0.2,0.9c0.1,0.3,0.3,0.5,0.6,0.7c0.2,0.2,0.5,0.3,0.8,0.4c0.3,0.1,0.7,0.1,1,0.1c0.7,0,1.4-0.2,1.9-0.8
					c0.5-0.6,0.8-1.4,0.7-2.1c0-0.4-0.1-0.8-0.2-1.2c-0.1-0.3-0.3-0.7-0.6-0.9c-0.2-0.2-0.5-0.4-0.9-0.6c-0.3-0.1-0.7-0.2-1.1-0.2
					c-0.6,0-1.1,0.2-1.6,0.5c-0.4,0.3-0.8,0.7-1,1.2l-1.1-0.3L252,277.5z"/>
				<path d="M269.7,283.4c0.1,1.6-0.3,3.2-1.1,4.5c-1.4,1.8-4,2.1-5.7,0.7c-0.3-0.2-0.5-0.4-0.7-0.7c-1.5-2.8-1.5-6.2,0-9
					c1.4-1.8,4-2.1,5.7-0.7c0.3,0.2,0.5,0.4,0.7,0.7C269.4,280.2,269.8,281.8,269.7,283.4z M262.4,283.4c0,1,0.1,2,0.5,3l4.2-7.1
					c-1.1-1-2.7-0.9-3.6,0.2c-0.1,0.1-0.2,0.2-0.3,0.4C262.6,280.9,262.3,282.1,262.4,283.4z M265.4,288.2c0.9,0,1.8-0.4,2.2-1.2
					c0.6-1.1,0.8-2.3,0.8-3.6c0-1-0.1-2-0.5-3l-4.2,7.1C264.1,287.9,264.7,288.2,265.4,288.2L265.4,288.2z"/>
				<path d="M251.3,319.3l5.2-8.1h1.4v8.1h1.3v1.2h-1.3v2.3h-1.4v-2.3h-5.2V319.3z M252.8,319.3h3.7v-5.9L252.8,319.3z"/>
				<path d="M269.7,317c0.1,1.6-0.3,3.2-1.1,4.5c-1.4,1.8-4,2.1-5.7,0.7c-0.3-0.2-0.5-0.4-0.7-0.7c-1.5-2.8-1.5-6.2,0-9
					c1.4-1.8,4-2.1,5.7-0.7c0.3,0.2,0.5,0.4,0.7,0.7C269.4,313.9,269.8,315.5,269.7,317z M262.4,317c0,1,0.1,2,0.5,3l4.2-7.1
					c-0.5-0.4-1.1-0.7-1.7-0.7c-0.9,0-1.8,0.5-2.2,1.2C262.6,314.6,262.3,315.8,262.4,317z M265.4,321.9c0.9,0,1.8-0.5,2.2-1.2
					c0.6-1.1,0.8-2.3,0.8-3.6c0-1-0.1-2-0.5-3l-4.2,7.1C264.1,321.6,264.7,321.9,265.4,321.9L265.4,321.9z"/>
				<path d="M281.2,338.2c0,0.1,0,0.1,0,0.2c0,0.1,0,0.2,0,0.3c0,0.6,0.3,1.2,0.7,1.6c0.2,0.2,0.5,0.4,0.8,0.5
					c0.3,0.1,0.7,0.2,1,0.2c0.7,0,1.3-0.2,1.8-0.6c0.5-0.5,0.7-1.1,0.7-1.8c0-0.3-0.1-0.7-0.2-1c-0.2-0.3-0.4-0.5-0.7-0.7
					c-0.3-0.2-0.6-0.3-1-0.4c-0.4-0.1-0.8-0.1-1.3-0.1v-1.1c0.4,0,0.9,0,1.3-0.2c0.3-0.1,0.6-0.3,0.8-0.5c0.2-0.2,0.3-0.4,0.4-0.7
					c0.1-0.2,0.1-0.5,0.1-0.8c0-0.5-0.2-1-0.6-1.3c-0.4-0.3-1-0.5-1.5-0.5c-0.3,0-0.5,0-0.8,0.1c-0.2,0.1-0.5,0.2-0.6,0.4
					c-0.4,0.3-0.6,0.9-0.6,1.4c0,0.2,0,0.3,0.1,0.5l-1.2,0.2c-0.1-0.1-0.1-0.3-0.1-0.4c-0.1-0.5,0-1.1,0.2-1.5
					c0.1-0.3,0.4-0.7,0.6-0.9c0.3-0.3,0.6-0.5,1-0.6c0.4-0.2,0.9-0.2,1.4-0.2c0.5,0,1,0.1,1.5,0.2c0.4,0.1,0.8,0.3,1.1,0.6
					c0.3,0.2,0.5,0.5,0.7,0.9c0.2,0.3,0.2,0.7,0.2,1.1c0,0.3,0,0.6-0.1,0.8c-0.1,0.3-0.2,0.5-0.3,0.8c-0.1,0.3-0.3,0.5-0.5,0.7
					c-0.3,0.2-0.5,0.4-0.9,0.4c0.3,0.1,0.7,0.2,1,0.4c0.3,0.2,0.6,0.4,0.8,0.6c0.2,0.3,0.4,0.6,0.5,0.9c0.1,0.3,0.2,0.7,0.2,1.1
					c0,0.5-0.1,1.1-0.3,1.6c-0.2,0.4-0.5,0.8-0.8,1.1c-0.4,0.3-0.8,0.6-1.2,0.7c-0.5,0.2-1,0.2-1.5,0.2c-0.6,0-1.1-0.1-1.7-0.3
					c-0.5-0.2-0.9-0.4-1.2-0.8c-0.3-0.3-0.6-0.7-0.8-1.1c-0.2-0.4-0.3-0.8-0.3-1.2c0-0.2,0-0.3,0-0.5c0-0.2,0.1-0.3,0.1-0.5
					L281.2,338.2z"/>
				<path d="M298,336.2c0.1,1.6-0.3,3.2-1.1,4.5c-1.4,1.8-3.9,2.1-5.7,0.7c-0.3-0.2-0.5-0.4-0.7-0.7c-1.5-2.8-1.5-6.2,0-9
					c1.4-1.8,3.9-2.1,5.7-0.7c0.3,0.2,0.5,0.4,0.7,0.7C297.7,333,298.1,334.6,298,336.2z M290.7,336.2c0,1,0.1,2,0.5,3l4.2-7.1
					c-1.1-1-2.7-0.9-3.6,0.2c-0.1,0.1-0.2,0.2-0.3,0.4C290.9,333.7,290.6,334.9,290.7,336.2L290.7,336.2z M293.7,341
					c0.9,0,1.8-0.4,2.2-1.2c0.6-1.1,0.8-2.3,0.8-3.6c0-1-0.1-2-0.5-3l-4.2,7.1C292.4,340.8,293,341,293.7,341L293.7,341z"/>
				<path d="M311.2,317.5c0.3-0.3,0.6-0.6,0.8-0.9c0.2-0.2,0.4-0.5,0.5-0.8c0.1-0.2,0.2-0.5,0.2-0.8c0-0.3,0.1-0.5,0.1-0.8
					c0-0.3-0.1-0.6-0.2-0.9c-0.1-0.3-0.3-0.5-0.5-0.7c-0.2-0.2-0.5-0.3-0.8-0.5c-0.3-0.1-0.7-0.2-1-0.2c-0.3,0-0.6,0.1-0.9,0.2
					c-0.3,0.1-0.5,0.3-0.8,0.5c-0.2,0.2-0.4,0.5-0.5,0.7c-0.1,0.3-0.2,0.6-0.2,0.9c0,0.3,0,0.5,0.1,0.8l-1.2,0.2
					c-0.1-0.2-0.1-0.4-0.1-0.5c-0.1-0.6,0-1.2,0.2-1.8c0.2-0.4,0.4-0.8,0.7-1.1c0.3-0.3,0.7-0.6,1.2-0.8c0.5-0.2,1-0.3,1.5-0.3
					c0.5,0,1,0.1,1.5,0.2c0.4,0.1,0.8,0.4,1.2,0.7c0.3,0.3,0.6,0.7,0.7,1c0.2,0.4,0.3,0.9,0.3,1.3c0,0.3,0,0.7-0.1,1
					c-0.1,0.3-0.2,0.7-0.4,1c-0.2,0.4-0.4,0.7-0.6,1c-0.3,0.4-0.6,0.7-0.9,1l-3.4,3.3h5.4v1.2h-7.5V322L311.2,317.5z"/>
				<path d="M324.8,317c0.1,1.6-0.3,3.2-1.1,4.5c-1.4,1.8-4,2.1-5.7,0.7c-0.3-0.2-0.5-0.4-0.7-0.7c-1.5-2.8-1.5-6.2,0-9
					c1.4-1.8,4-2.1,5.7-0.7c0.3,0.2,0.5,0.4,0.7,0.7C324.5,313.9,324.9,315.5,324.8,317z M317.4,317c0,1,0.1,2,0.5,3l4.2-7.1
					c-0.5-0.4-1.1-0.7-1.7-0.7c-0.9,0-1.8,0.5-2.2,1.2C317.6,314.6,317.4,315.8,317.4,317z M320.4,321.9c0.9,0,1.8-0.5,2.2-1.2
					c0.6-1.1,0.8-2.3,0.8-3.6c0-1-0.1-2-0.5-3l-4.2,7.1C319.2,321.6,319.8,321.9,320.4,321.9L320.4,321.9z"/>
				<path d="M314.3,289.2h-7.1V288h2.8v-8.6c-0.3,0.3-0.7,0.5-1,0.6c-0.5,0.1-0.9,0.2-1.4,0.2V279c0.6,0,1.1-0.1,1.6-0.3
					c0.4-0.3,0.8-0.7,1-1.1h1.3v10.5h2.8L314.3,289.2z"/>
				<path d="M324.8,283.4c0.1,1.6-0.3,3.2-1.1,4.5c-1.4,1.8-4,2.1-5.7,0.7c-0.3-0.2-0.5-0.4-0.7-0.7c-1.5-2.8-1.5-6.2,0-9
					c1.4-1.8,4-2.1,5.7-0.7c0.3,0.2,0.5,0.4,0.7,0.7C324.5,280.2,324.9,281.8,324.8,283.4z M317.4,283.4c0,1,0.1,2,0.5,3l4.2-7.1
					c-0.5-0.4-1.1-0.7-1.7-0.7c-0.9,0-1.8,0.4-2.2,1.2C317.6,280.9,317.4,282.1,317.4,283.4z M320.4,288.2c0.9,0,1.8-0.4,2.2-1.2
					c0.6-1.1,0.8-2.3,0.8-3.6c0-1-0.1-2-0.5-3l-4.2,7.1C319.2,287.9,319.8,288.2,320.4,288.2L320.4,288.2z"/>
				<path d="M283.9,262.5c0-0.1,0.1-0.2,0.1-0.3c0-0.1,0-0.2,0-0.4c0-0.4-0.2-0.8-0.5-1c-0.4-0.3-1-0.4-1.5-0.4
					c-0.4,0-0.9,0.1-1.2,0.4c-0.4,0.3-0.7,0.6-0.9,1c-0.3,0.5-0.5,1-0.6,1.6c-0.2,0.7-0.2,1.3-0.3,2c0.1-0.3,0.3-0.5,0.5-0.8
					c0.2-0.2,0.4-0.4,0.7-0.6c0.3-0.2,0.6-0.3,0.9-0.4c0.3-0.1,0.7-0.2,1-0.1c1,0,2,0.4,2.7,1.1c0.3,0.3,0.6,0.8,0.8,1.2
					c0.2,0.5,0.3,1,0.3,1.6c0,0.5-0.1,1.1-0.3,1.5c-0.2,0.5-0.5,0.9-0.8,1.3c-0.4,0.4-0.8,0.7-1.3,0.9c-0.5,0.2-1.1,0.3-1.6,0.3
					c-1.2,0.1-2.3-0.5-3.1-1.4c-0.8-1.2-1.2-2.6-1.1-4c0-0.7,0.1-1.4,0.2-2.1c0.1-0.6,0.3-1.2,0.5-1.7c0.3-0.8,0.8-1.6,1.5-2.1
					c0.6-0.5,1.4-0.8,2.2-0.8c0.9-0.1,1.7,0.2,2.4,0.7c0.6,0.5,0.9,1.2,0.9,2c0,0.2,0,0.3,0,0.5c0,0.2-0.1,0.3-0.1,0.4L283.9,262.5z
					 M281.9,264.7c-0.3,0-0.7,0.1-1,0.2c-0.3,0.1-0.6,0.3-0.8,0.5c-0.2,0.2-0.4,0.5-0.6,0.8c-0.3,0.7-0.3,1.5,0,2.3
					c0.1,0.3,0.3,0.6,0.6,0.8c0.2,0.2,0.5,0.4,0.8,0.5c0.6,0.2,1.4,0.2,2,0c0.3-0.1,0.6-0.3,0.8-0.5c0.2-0.2,0.4-0.5,0.6-0.8
					c0.3-0.7,0.3-1.5,0-2.3c-0.1-0.3-0.3-0.6-0.6-0.8c-0.2-0.2-0.5-0.4-0.8-0.5C282.5,264.8,282.2,264.7,281.9,264.7L281.9,264.7z"
					/>
				<path d="M296.1,265.3c0.1,1.6-0.3,3.2-1.1,4.5c-1.4,1.8-4,2.1-5.7,0.7c-0.3-0.2-0.5-0.4-0.7-0.7c-1.5-2.8-1.5-6.2,0-9
					c1.4-1.8,3.9-2.1,5.7-0.7c0.3,0.2,0.5,0.4,0.7,0.7C295.8,262.1,296.2,263.7,296.1,265.3z M288.8,265.3c0,1,0.1,2,0.5,3l4.2-7.1
					c-1-1-2.7-0.9-3.6,0.2c-0.1,0.1-0.2,0.3-0.3,0.4C289,262.8,288.7,264,288.8,265.3z M291.8,270.1c0.9,0,1.8-0.5,2.2-1.2
					c0.6-1.1,0.8-2.3,0.8-3.6c0-1-0.1-2-0.5-3l-4.3,7.1C290.5,269.9,291.1,270.1,291.8,270.1L291.8,270.1z"/>
			</g>
		</g>
	</g>
</g>
</svg>
