<?xml version="1.0" encoding="utf-8"?>
<!-- Generator: Adobe Illustrator 23.0.1, SVG Export Plug-In . SVG Version: 6.00 Build 0)  -->
<svg version="1.1" id="Layer_1" xmlns="http://www.w3.org/2000/svg" xmlns:xlink="http://www.w3.org/1999/xlink" x="0px" y="0px"
	 viewBox="0 0 576 576" style="enable-background:new 0 0 576 576;" xml:space="preserve">
<style type="text/css">
	.st0{fill:none;stroke:#FFFFFF;stroke-width:2;stroke-miterlimit:10;}
	.st1{fill:none;stroke:#FFFFFF;stroke-width:2;stroke-miterlimit:10;stroke-dasharray:12.12,12.12;}
	.st2{fill:none;stroke:#FFFFFF;stroke-miterlimit:10;}
	.st3{fill:none;stroke:#FFFFFF;stroke-width:1.08;stroke-miterlimit:10;}
	.st4{fill:none;stroke:#FFFFFF;stroke-width:1.15;stroke-miterlimit:10;}
	.st5{fill:none;stroke:#FFFFFF;stroke-width:1.23;stroke-miterlimit:10;}
	.st6{fill:none;stroke:#FFFFFF;stroke-width:1.31;stroke-miterlimit:10;}
	.st7{fill:none;stroke:#FFFFFF;stroke-width:1.38;stroke-miterlimit:10;}
	.st8{fill:none;stroke:#FFFFFF;stroke-width:1.46;stroke-miterlimit:10;}
	.st9{fill:none;stroke:#FFFFFF;stroke-width:1.54;stroke-miterlimit:10;}
	.st10{fill:none;stroke:#FFFFFF;stroke-width:1.62;stroke-miterlimit:10;}
	.st11{fill:none;stroke:#FFFFFF;stroke-width:1.69;stroke-miterlimit:10;}
	.st12{fill:none;stroke:#FFFFFF;stroke-width:1.77;stroke-miterlimit:10;}
	.st13{fill:none;stroke:#FFFFFF;stroke-width:1.85;stroke-miterlimit:10;}
	.st14{fill:none;stroke:#FFFFFF;stroke-width:1.92;stroke-miterlimit:10;}
	.st15{fill:none;stroke:#FFFFFF;stroke-width:2.08;stroke-miterlimit:10;}
	.st16{fill:none;stroke:#FFFFFF;stroke-width:2.15;stroke-miterlimit:10;}
	.st17{fill:none;stroke:#FFFFFF;stroke-width:2.23;stroke-miterlimit:10;}
	.st18{fill:none;stroke:#FFFFFF;stroke-width:2.31;stroke-miterlimit:10;}
	.st19{fill:none;stroke:#FFFFFF;stroke-width:2.38;stroke-miterlimit:10;}
	.st20{fill:none;stroke:#FFFFFF;stroke-width:2.46;stroke-miterlimit:10;}
	.st21{fill:none;stroke:#FFFFFF;stroke-width:2.54;stroke-miterlimit:10;}
	.st22{fill:none;stroke:#FFFFFF;stroke-width:2.62;stroke-miterlimit:10;}
	.st23{fill:none;stroke:#FFFFFF;stroke-width:2.69;stroke-miterlimit:10;}
	.st24{fill:none;stroke:#FFFFFF;stroke-width:2.77;stroke-miterlimit:10;}
	.st25{fill:none;stroke:#FFFFFF;stroke-width:2.85;stroke-miterlimit:10;}
	.st26{fill:none;stroke:#FFFFFF;stroke-width:2.92;stroke-miterlimit:10;}
	.st27{fill:none;stroke:#FFFFFF;stroke-width:3;stroke-miterlimit:10;}
	.st28{fill:#FFFFFF;}
</style>
<title>tickets-white</title>
<g>
	<g id="tickets">
		<g id="tickets-white">
			<g id="vector">
				<g id="ticket">
					<rect x="19.5" y="191.3" class="st0" width="536.9" height="193.8"/>
					<line class="st0" x1="78.1" y1="384.7" x2="78.1" y2="190.9"/>
					<line class="st0" x1="53.3" y1="190.9" x2="53.3" y2="384.7"/>
					<line class="st0" x1="152.4" y1="190.9" x2="152.4" y2="196.9"/>
					<line class="st1" x1="152.4" y1="209" x2="152.4" y2="372.6"/>
					<line class="st0" x1="152.4" y1="378.7" x2="152.4" y2="384.7"/>
					<line class="st0" x1="532.8" y1="190.9" x2="532.8" y2="196.9"/>
					<line class="st1" x1="532.8" y1="209" x2="532.8" y2="372.6"/>
					<line class="st0" x1="532.8" y1="378.7" x2="532.8" y2="384.7"/>
					<line class="st2" x1="47.7" y1="376.3" x2="25.2" y2="376.3"/>
					<line class="st3" x1="47.7" y1="369.5" x2="25.2" y2="369.5"/>
					<line class="st4" x1="47.7" y1="362.7" x2="25.2" y2="362.7"/>
					<line class="st5" x1="47.7" y1="356" x2="25.2" y2="356"/>
					<line class="st6" x1="47.7" y1="349.2" x2="25.2" y2="349.2"/>
					<line class="st7" x1="47.7" y1="342.4" x2="25.3" y2="342.4"/>
					<line class="st8" x1="47.7" y1="335.6" x2="25.3" y2="335.6"/>
					<line class="st9" x1="47.7" y1="328.9" x2="25.3" y2="328.9"/>
					<line class="st10" x1="47.7" y1="322.1" x2="25.3" y2="322.1"/>
					<line class="st11" x1="47.7" y1="315.3" x2="25.3" y2="315.3"/>
					<line class="st12" x1="47.7" y1="308.5" x2="25.3" y2="308.5"/>
					<line class="st13" x1="47.8" y1="301.8" x2="25.3" y2="301.8"/>
					<line class="st14" x1="47.8" y1="295" x2="25.3" y2="295"/>
					<line class="st0" x1="47.8" y1="288.2" x2="25.3" y2="288.2"/>
					<line class="st15" x1="47.8" y1="281.4" x2="25.3" y2="281.4"/>
					<line class="st16" x1="47.8" y1="274.6" x2="25.3" y2="274.6"/>
					<line class="st17" x1="47.8" y1="267.9" x2="25.4" y2="267.9"/>
					<line class="st18" x1="47.8" y1="261.1" x2="25.4" y2="261.1"/>
					<line class="st19" x1="47.8" y1="254.3" x2="25.4" y2="254.3"/>
					<line class="st20" x1="47.8" y1="247.5" x2="25.4" y2="247.5"/>
					<line class="st21" x1="47.8" y1="240.8" x2="25.4" y2="240.8"/>
					<line class="st22" x1="47.8" y1="234" x2="25.4" y2="234"/>
					<line class="st23" x1="47.8" y1="227.2" x2="25.4" y2="227.2"/>
					<line class="st24" x1="47.8" y1="220.4" x2="25.4" y2="220.4"/>
					<line class="st25" x1="47.8" y1="213.7" x2="25.4" y2="213.7"/>
					<line class="st26" x1="47.9" y1="206.9" x2="25.4" y2="206.9"/>
					<line class="st27" x1="47.9" y1="200.1" x2="25.4" y2="200.1"/>
					<path class="st28" d="M219.4,264.1h1.4l4.4,8.4l0.2,0.4l0.2,0.3c0,0.1,0.1,0.2,0.1,0.2v-9.3h1.3v11.7h-1.4l-4.4-8.4L221,267
						l-0.2-0.3c0-0.1-0.1-0.2-0.1-0.2v9.3h-1.3L219.4,264.1z"/>
					<path class="st28" d="M231.4,271.1l-3.8-7h1.4l2.6,5l0.1,0.3c0,0.1,0.1,0.2,0.1,0.2s0.1,0.2,0.1,0.3c0-0.1,0.1-0.2,0.1-0.3
						c0-0.1,0.1-0.2,0.1-0.2l0.1-0.3l2.6-5h1.4l-3.7,7v4.6h-1.4L231.4,271.1z"/>
					<path class="st28" d="M245.4,272.7c-0.1,0.4-0.3,0.9-0.6,1.3c-0.2,0.4-0.5,0.8-0.8,1.1c-0.3,0.3-0.7,0.6-1.1,0.7
						c-0.5,0.2-1,0.3-1.6,0.3c-0.7,0-1.4-0.1-2.1-0.5c-0.6-0.3-1.1-0.7-1.5-1.3c-0.4-0.6-0.7-1.2-0.9-1.9c-0.2-0.8-0.3-1.6-0.3-2.4
						c0-0.8,0.1-1.6,0.3-2.4c0.2-0.7,0.5-1.3,1-1.9c0.4-0.5,0.9-1,1.5-1.3c0.6-0.3,1.3-0.5,2-0.5c0.5,0,1,0.1,1.5,0.2
						c0.4,0.1,0.8,0.4,1.1,0.6c0.3,0.3,0.6,0.6,0.8,1c0.2,0.4,0.4,0.8,0.5,1.2l-1.2,0.6c-0.2-0.7-0.5-1.3-1-1.8
						c-0.5-0.4-1.1-0.6-1.7-0.6c-0.5,0-1,0.1-1.4,0.4c-0.4,0.3-0.7,0.6-1,1c-0.3,0.5-0.5,1-0.6,1.5c-0.1,0.6-0.2,1.3-0.2,1.9
						c0,0.6,0,1.3,0.2,1.9c0.1,0.5,0.3,1.1,0.6,1.5c0.2,0.4,0.6,0.8,1,1c0.5,0.3,1,0.4,1.6,0.4c0.7,0,1.4-0.2,1.9-0.8
						c0.2-0.2,0.4-0.5,0.6-0.8c0.2-0.3,0.3-0.7,0.4-1L245.4,272.7z"/>
					<path class="st28" d="M246.7,270.1h6.3v1h-6.3V270.1z"/>
					<path class="st28" d="M263.2,269.9c0,0.9-0.1,1.7-0.3,2.5c-0.2,0.7-0.5,1.3-0.9,1.9c-0.4,0.5-0.8,0.9-1.4,1.2
						c-0.6,0.3-1.2,0.4-1.9,0.4c-0.6,0-1.3-0.1-1.9-0.4c-0.6-0.3-1-0.7-1.4-1.2c-0.4-0.6-0.7-1.2-0.9-1.9c-0.2-0.8-0.3-1.7-0.3-2.5
						c0-0.9,0.1-1.7,0.3-2.5c0.2-0.7,0.5-1.3,0.9-1.9c0.4-0.5,0.8-0.9,1.4-1.2c0.6-0.3,1.2-0.4,1.9-0.4c0.6,0,1.3,0.1,1.9,0.4
						c0.6,0.3,1,0.7,1.4,1.2c0.4,0.6,0.7,1.2,0.9,1.9C263.1,268.2,263.2,269.1,263.2,269.9z M258.7,274.8c0.5,0,0.9-0.1,1.3-0.3
						c0.4-0.2,0.7-0.6,0.9-1c0.3-0.5,0.5-1,0.6-1.5c0.3-1.3,0.3-2.7,0-4c-0.1-0.5-0.3-1-0.6-1.5c-0.2-0.4-0.5-0.8-0.9-1
						c-0.4-0.2-0.9-0.4-1.3-0.3c-0.5,0-0.9,0.1-1.3,0.3c-0.4,0.2-0.7,0.6-0.9,1c-0.3,0.5-0.5,1-0.6,1.5c-0.3,1.3-0.3,2.7,0,4
						c0.1,0.5,0.3,1,0.6,1.5c0.2,0.4,0.6,0.7,0.9,1C257.8,274.7,258.3,274.8,258.7,274.8z"/>
					<path class="st28" d="M267.4,270.7h-2.2v5.1h-1.4v-11.7h4.3c0.5,0,1.1,0.1,1.5,0.2c0.4,0.2,0.8,0.4,1.2,0.7
						c0.3,0.3,0.6,0.7,0.7,1c0.2,0.4,0.3,0.9,0.2,1.3c0,0.8-0.3,1.5-0.8,2.1c-0.5,0.6-1.2,1-2,1.1l2.9,5.1h-1.6L267.4,270.7z
						 M265.1,269.5h2.6c0.7,0,1.3-0.1,1.9-0.5c0.5-0.4,0.7-1,0.6-1.5c0-0.6-0.2-1.2-0.6-1.6c-0.6-0.4-1.2-0.6-1.9-0.5h-2.6V269.5z"
						/>
					<path class="st28" d="M279.8,265.2h-2.6v9.4h2.7v1.1h-6.8v-1.1h2.7v-9.4h-2.6v-1.1h6.6V265.2z"/>
					<path class="st28" d="M288.4,273.9c-0.2,0.6-0.6,1.1-1,1.5c-0.5,0.4-1.2,0.6-1.9,0.6c-0.7,0-1.4-0.1-2-0.5
						c-0.6-0.3-1-0.7-1.4-1.3c-0.4-0.6-0.7-1.2-0.9-1.9c-0.2-0.8-0.3-1.6-0.3-2.4c0-0.8,0.1-1.6,0.3-2.4c0.2-0.7,0.6-1.3,1-1.9
						c0.4-0.5,0.9-1,1.5-1.3c0.6-0.3,1.3-0.5,2-0.5c0.9,0,1.8,0.2,2.6,0.8c0.6,0.6,1.1,1.3,1.4,2.1l-1.1,0.6c-0.1-0.7-0.5-1.3-1-1.7
						c-0.5-0.4-1.2-0.6-1.8-0.6c-0.5,0-1,0.1-1.4,0.4c-0.4,0.3-0.7,0.6-1,1c-0.3,0.5-0.5,1-0.6,1.5c-0.2,0.7-0.2,1.3-0.2,2
						c0,0.7,0.1,1.3,0.2,2c0.1,0.5,0.3,1.1,0.6,1.5c0.3,0.4,0.6,0.7,1,1c0.4,0.2,0.9,0.4,1.4,0.4c0.4,0,0.8-0.1,1.2-0.3
						c0.3-0.2,0.6-0.5,0.8-0.9c0.2-0.4,0.4-0.8,0.5-1.2c0.1-0.4,0.2-0.9,0.2-1.3h-3.2V270h4.5v5.9h-1L288.4,273.9z"/>
					<path class="st28" d="M297.5,265.2h-2.6v9.4h2.7v1.1h-6.8v-1.1h2.7v-9.4h-2.6v-1.1h6.6V265.2z"/>
					<path class="st28" d="M299.3,264.1h1.4l4.4,8.4l0.2,0.4l0.2,0.3l0.1,0.2v-9.3h1.3v11.7h-1.4l-4.4-8.4l-0.2-0.4l-0.2-0.3
						c0-0.1-0.1-0.2-0.1-0.2v9.3h-1.3V264.1z"/>
					<path class="st28" d="M314.2,272.3h-4.5l-1.2,3.5h-1.4l4.1-11.7h1.5l4.1,11.7h-1.4L314.2,272.3z M310.1,271.1h3.7l-1.5-4.5
						l-0.1-0.4c0-0.1-0.1-0.2-0.1-0.3c0-0.1-0.1-0.2-0.1-0.3c0,0.1-0.1,0.2-0.1,0.3s-0.1,0.2-0.1,0.3l-0.1,0.4L310.1,271.1z"/>
					<path class="st28" d="M317.4,264.1h1.4v10.4h5.9v1.2h-7.3V264.1z"/>
					<path class="st28" d="M173.6,295.7h-2.5l7.9-10.4h-10.6v-1.2h13.2v1.1L173.6,295.7z"/>
					<path class="st28" d="M189.3,287.7h3.7v2.1h-3.7V287.7z M189.3,293.7h3.7v2.1h-3.7V293.7z"/>
					<path class="st28" d="M215.3,289.9c0.1,1.8-0.7,3.4-2.1,4.5c-3.6,2.1-8.1,2.1-11.7,0c-2.5-2.1-2.8-5.8-0.7-8.3
						c0.2-0.3,0.5-0.5,0.7-0.7c3.6-2.1,8.1-2.1,11.7,0C214.6,286.5,215.4,288.2,215.3,289.9z M201.9,289.9c-0.1,1.1,0.3,2.1,0.9,3
						l7.7-7.2c-1-0.5-2.1-0.7-3.2-0.7c-1.4-0.1-2.9,0.3-4,1.2C202.4,287.3,201.9,288.6,201.9,289.9z M207.3,294.8
						c1.4,0.1,2.9-0.4,4-1.2c1-0.9,1.5-2.2,1.4-3.6c0-1.1-0.3-2.1-0.9-3l-7.7,7.2C205.1,294.6,206.2,294.8,207.3,294.8L207.3,294.8z
						"/>
					<path class="st28" d="M231.5,289.9c0.1,1.8-0.7,3.4-2.1,4.5c-3.6,2.1-8.1,2.1-11.7,0c-2.5-2.1-2.8-5.8-0.7-8.3
						c0.2-0.3,0.5-0.5,0.7-0.7c3.6-2.1,8.1-2.1,11.7,0C230.8,286.5,231.6,288.2,231.5,289.9z M218.1,289.9c-0.1,1.1,0.3,2.1,0.9,3
						l7.7-7.2c-1-0.5-2.1-0.7-3.2-0.7c-1.4-0.1-2.9,0.3-4,1.2C218.5,287.3,218,288.6,218.1,289.9z M223.5,294.8
						c1.4,0.1,2.9-0.4,4-1.2c1-0.9,1.5-2.2,1.4-3.6c0-1.1-0.3-2.1-0.9-3l-7.7,7.2C221.3,294.6,222.4,294.8,223.5,294.8z"/>
					<path class="st28" d="M248.5,284.1h7.5c1,0,2,0.1,3,0.3c0.8,0.1,1.6,0.4,2.3,0.7c0.6,0.3,1.1,0.7,1.4,1.1c0.7,0.9,0.7,2.1,0,3
						c-0.4,0.5-0.9,0.9-1.4,1.1c-0.7,0.3-1.5,0.6-2.3,0.7c-1,0.2-2,0.3-3,0.3h-5v4.4h-2.6L248.5,284.1z M251,290.1h4.8
						c1.2,0.1,2.4-0.1,3.5-0.6c1-0.4,1.5-1.5,1.1-2.5c-0.2-0.5-0.6-0.9-1.1-1.1c-1.1-0.4-2.3-0.6-3.5-0.6H251L251,290.1z"/>
					<path class="st28" d="M264.2,284.1h2.9l5,10.3l4.9-10.3h2.9v11.6h-2.4v-8.5c0,0.1-0.1,0.2-0.2,0.4s-0.2,0.4-0.3,0.6
						s-0.2,0.5-0.3,0.8l-3.3,6.6h-2.7l-3.3-6.6l-0.3-0.8c-0.1-0.2-0.2-0.4-0.3-0.6s-0.2-0.3-0.2-0.4v8.5h-2.4L264.2,284.1z"/>
					<path class="st28" d="M297.1,284.1h14.7v1.2h-6.1v10.4h-2.5v-10.4h-6.1V284.1z"/>
					<path class="st28" d="M313.5,284.1h2.5v5.1h9v-5.1h2.5v11.6h-2.5v-5.3h-9v5.3h-2.5V284.1z"/>
					<path class="st28" d="M344.1,291.9c0,0.6-0.2,1.2-0.5,1.7c-0.4,0.5-0.9,1-1.5,1.3c-0.7,0.4-1.5,0.6-2.3,0.8c-2,0.4-4,0.4-6,0
						c-0.8-0.2-1.6-0.4-2.3-0.8c-0.6-0.3-1.1-0.8-1.5-1.3c-0.4-0.5-0.5-1.1-0.5-1.7v-7.8h2.6v7.8c0,0.8,0.5,1.6,1.2,2
						c2.2,1.1,4.8,1.1,7.1,0c0.7-0.4,1.2-1.2,1.2-2v-7.8h2.5L344.1,291.9z"/>
					<path class="st28" d="M352.5,290.7h-4.1v5.1h-2.5v-11.6h7.7c1,0,1.9,0.1,2.8,0.2c0.7,0.1,1.5,0.4,2.1,0.7c0.5,0.2,1,0.6,1.3,1
						c0.3,0.4,0.4,0.8,0.5,1.3c0,0.9-0.6,1.7-1.4,2.1c-1.1,0.6-2.4,1-3.7,1.1l5.3,5.1h-2.9L352.5,290.7z M348.4,289.4h4.7
						c1.2,0.1,2.4-0.1,3.5-0.5c0.9-0.2,1.4-1.1,1.1-2c-0.1-0.6-0.6-1-1.1-1.1c-1.1-0.4-2.3-0.6-3.5-0.5h-4.7V289.4z"/>
					<path class="st28" d="M364.7,286.9c0,1.1,1.9,1.9,5.6,2.3c1.7,0.1,3.4,0.5,5,1.1c0.9,0.4,1.5,1.2,1.5,2.2c0,0.5-0.2,1-0.5,1.3
						c-0.4,0.5-0.9,0.8-1.5,1.1c-0.7,0.3-1.5,0.6-2.3,0.7c-1,0.2-2,0.3-3,0.3c-1.1,0-2.1-0.1-3.2-0.3c-0.8-0.1-1.6-0.4-2.4-0.8
						c-0.6-0.3-1.2-0.7-1.6-1.2c-0.4-0.4-0.8-0.9-1-1.4l2.2-0.6c0.1,0.5,0.4,0.9,0.7,1.2c0.3,0.4,0.8,0.7,1.2,1
						c0.5,0.3,1.1,0.5,1.7,0.6c0.7,0.2,1.5,0.2,2.3,0.2c1.2,0.1,2.4-0.2,3.5-0.6c0.9-0.4,1.3-0.9,1.3-1.5c0-0.3-0.1-0.6-0.3-0.9
						c-0.2-0.3-0.6-0.5-0.9-0.6c-0.5-0.2-1.1-0.4-1.6-0.5c-0.7-0.1-1.5-0.2-2.4-0.3c-1.7-0.1-3.4-0.5-5-1.1
						c-1.2-0.6-1.8-1.3-1.8-2.3c0-0.5,0.2-0.9,0.5-1.2c0.4-0.4,0.9-0.8,1.4-1c0.7-0.3,1.4-0.5,2.2-0.6c0.9-0.2,1.8-0.2,2.7-0.2
						c1.6-0.1,3.3,0.2,4.8,0.8c1.1,0.4,2,1.1,2.6,2l-2,0.7c-0.4-0.8-1.1-1.4-2-1.7c-1.1-0.4-2.2-0.6-3.4-0.6c-0.6,0-1.1,0-1.7,0.1
						c-0.5,0.1-0.9,0.2-1.4,0.4c-0.3,0.1-0.7,0.3-0.9,0.6C364.8,286.3,364.7,286.6,364.7,286.9z"/>
					<path class="st28" d="M189.9,312c0,0.6-0.2,1.1-0.5,1.6c-0.3,0.5-0.8,0.9-1.3,1.2c-0.7,0.4-1.4,0.7-2.1,0.8
						c-0.9,0.2-1.9,0.3-2.8,0.3c-0.9,0-1.8-0.1-2.6-0.2c-0.7-0.1-1.5-0.4-2.1-0.7c-0.6-0.3-1.1-0.7-1.4-1.2
						c-0.3-0.5-0.5-1.1-0.5-1.7l2.6,0.1c0,0.4,0.1,0.8,0.3,1.1c0.2,0.3,0.5,0.6,0.9,0.8c0.4,0.2,0.9,0.4,1.3,0.5
						c0.5,0.1,1.1,0.2,1.6,0.1c0.6,0,1.1,0,1.7-0.1c0.5-0.1,0.9-0.2,1.3-0.5c0.4-0.2,0.7-0.5,0.9-0.9c0.2-0.4,0.3-0.8,0.3-1.3v-7.9
						h2.6L189.9,312z"/>
					<path class="st28" d="M206.6,311.8c0,0.6-0.2,1.2-0.5,1.8c-0.4,0.5-0.9,1-1.5,1.3c-0.7,0.4-1.5,0.6-2.3,0.8c-2,0.4-4,0.4-5.9,0
						c-0.8-0.2-1.6-0.4-2.3-0.8c-0.6-0.3-1.1-0.7-1.5-1.3c-0.4-0.5-0.5-1.1-0.5-1.8v-7.8h2.6v7.8c0,0.8,0.5,1.6,1.2,2
						c2.2,1.1,4.8,1.1,7.1,0c0.7-0.4,1.2-1.2,1.2-2v-7.8h2.6L206.6,311.8z"/>
					<path class="st28" d="M208.4,304.1h2.6l8,8.4l0.4,0.4l0.3,0.3c0.1,0.1,0.1,0.2,0.2,0.2v-9.3h2.4v11.6h-2.6l-8-8.4l-0.4-0.4
						l-0.3-0.3c-0.1-0.1-0.2-0.2-0.2-0.3v9.3h-2.4V304.1z"/>
					<path class="st28" d="M254.9,315.7H242v-1.1h5.2V306c-0.6,0.3-1.2,0.5-1.9,0.6c-0.9,0.1-1.8,0.2-2.6,0.2v-1.2c1,0,2-0.1,3-0.3
						c0.7-0.2,1.3-0.6,1.8-1.1h2.3v10.5h5.2L254.9,315.7z"/>
					<path class="st28" d="M265.4,310.4c0.5-0.3,1-0.6,1.4-0.9c0.3-0.2,0.6-0.5,0.9-0.8c0.2-0.2,0.4-0.5,0.5-0.8
						c0.1-0.3,0.1-0.5,0.1-0.8c0-0.3-0.1-0.6-0.3-0.9c-0.3-0.3-0.6-0.5-0.9-0.7c-0.4-0.2-0.9-0.4-1.4-0.5c-0.6-0.1-1.1-0.2-1.7-0.2
						c-0.6,0-1.2,0.1-1.7,0.2c-0.5,0.1-0.9,0.3-1.4,0.5c-0.3,0.2-0.7,0.4-0.9,0.7c-0.2,0.3-0.3,0.6-0.3,1c0,0.3,0.1,0.5,0.2,0.8
						l-2.2,0.2c-0.1-0.2-0.2-0.3-0.3-0.5c-0.2-0.6,0-1.3,0.4-1.8c0.4-0.4,0.8-0.8,1.4-1.1c0.7-0.3,1.4-0.6,2.1-0.8
						c0.9-0.2,1.9-0.3,2.8-0.3c0.9,0,1.9,0.1,2.8,0.2c0.7,0.1,1.5,0.4,2.1,0.7c0.5,0.2,1,0.6,1.4,1c0.3,0.4,0.5,0.8,0.5,1.3
						c0,0.3-0.1,0.7-0.2,1c-0.1,0.4-0.4,0.7-0.6,1c-0.4,0.4-0.7,0.7-1.2,1c-0.6,0.4-1.1,0.7-1.7,1l-6.2,3.3h9.9v1.2h-13.8v-0.9
						L265.4,310.4z"/>
					<path class="st28" d="M278.3,313.7h3.7v2.1l-3,2.3l-0.9-0.3l1.8-1.9h-1.6L278.3,313.7z"/>
					<path class="st28" d="M314,310.4c0.5-0.3,1-0.6,1.5-0.9c0.3-0.2,0.6-0.5,0.9-0.8c0.2-0.2,0.4-0.5,0.5-0.8
						c0.1-0.3,0.1-0.5,0.1-0.8c0-0.3-0.1-0.6-0.3-0.9c-0.2-0.3-0.6-0.5-0.9-0.7c-0.4-0.2-0.9-0.4-1.4-0.5c-0.6-0.1-1.2-0.2-1.7-0.2
						c-0.6,0-1.2,0.1-1.7,0.2c-0.5,0.1-0.9,0.3-1.4,0.5c-0.3,0.2-0.7,0.4-0.9,0.7c-0.2,0.3-0.3,0.6-0.3,1c0,0.3,0.1,0.5,0.2,0.8
						l-2.2,0.2c-0.1-0.2-0.2-0.4-0.3-0.5c0-0.2-0.1-0.4-0.1-0.5c0-0.5,0.2-0.9,0.5-1.2c0.4-0.4,0.8-0.8,1.4-1.1
						c0.7-0.3,1.4-0.6,2.1-0.8c0.9-0.2,1.9-0.3,2.8-0.3c0.9,0,1.9,0.1,2.8,0.2c0.7,0.1,1.5,0.4,2.1,0.7c0.5,0.2,1,0.6,1.4,1
						c0.3,0.4,0.5,0.8,0.5,1.3c0,0.3-0.1,0.7-0.2,1c-0.1,0.4-0.4,0.7-0.6,1c-0.4,0.4-0.7,0.7-1.2,1c-0.6,0.4-1.1,0.7-1.7,1l-6.2,3.3
						h9.9v1.2h-13.8v-0.9L314,310.4z"/>
					<path class="st28" d="M336.6,309.9c0.1,1.8-0.7,3.4-2.1,4.5c-3.6,2.1-8.1,2.1-11.7,0c-2.5-2.1-2.8-5.8-0.7-8.3
						c0.2-0.3,0.5-0.5,0.7-0.7c3.6-2.1,8.1-2.1,11.7,0C335.9,306.4,336.7,308.1,336.6,309.9z M323.3,309.9c0,1.1,0.3,2.1,0.9,3
						l7.7-7.2c-1-0.5-2.1-0.7-3.1-0.7c-1.4-0.1-2.9,0.3-4,1.2C323.7,307.3,323.2,308.6,323.3,309.9L323.3,309.9z M328.7,314.7
						c1.4,0.1,2.9-0.3,4-1.2c1-0.9,1.5-2.2,1.4-3.6c0-1.1-0.3-2.1-0.9-3l-7.7,7.2C326.5,314.5,327.6,314.8,328.7,314.7L328.7,314.7z
						"/>
					<path class="st28" d="M352,315.7h-12.9v-1.1h5.2V306c-0.6,0.3-1.3,0.5-1.9,0.6c-0.9,0.1-1.8,0.2-2.6,0.2v-1.2c1,0,2-0.1,3-0.3
						c0.7-0.2,1.3-0.6,1.8-1.1h2.3v10.5h5.2V315.7z"/>
					<path class="st28" d="M361,316c-1,0-1.9-0.1-2.9-0.2c-0.8-0.1-1.6-0.4-2.3-0.7c-0.6-0.2-1.1-0.6-1.5-1.1
						c-0.4-0.4-0.5-0.9-0.5-1.4c0-0.7,0.4-1.4,1-1.8c0.8-0.6,1.6-1,2.5-1.2c-0.8-0.2-1.5-0.6-2.1-1.1c-0.5-0.4-0.8-0.9-0.8-1.5
						c0-0.5,0.2-0.9,0.5-1.2c0.4-0.4,0.9-0.7,1.4-1c0.7-0.3,1.4-0.5,2.1-0.6c1.7-0.3,3.5-0.3,5.2,0c0.7,0.1,1.4,0.3,2.1,0.6
						c0.5,0.2,1,0.5,1.4,1c0.3,0.3,0.5,0.8,0.5,1.2c0,0.6-0.3,1.2-0.8,1.5c-0.6,0.5-1.3,0.9-2.1,1.1c0.9,0.2,1.8,0.6,2.5,1.2
						c0.6,0.4,1,1.1,1,1.8c0,0.5-0.2,1-0.5,1.4c-0.4,0.5-0.9,0.8-1.5,1.1c-0.7,0.3-1.5,0.6-2.3,0.7C362.9,315.9,362,316,361,316z
						 M361,314.9c0.6,0,1.3,0,1.9-0.2c0.5-0.1,1-0.3,1.5-0.5c0.4-0.2,0.7-0.4,1-0.8c0.2-0.3,0.4-0.6,0.4-1c0-0.4-0.1-0.7-0.4-1
						c-0.3-0.3-0.7-0.6-1.1-0.8c-0.5-0.2-1-0.4-1.5-0.5c-1.2-0.2-2.4-0.2-3.6,0c-0.5,0.1-1,0.3-1.5,0.5c-0.4,0.2-0.8,0.4-1.1,0.8
						c-0.3,0.3-0.4,0.6-0.4,1c0,0.4,0.1,0.7,0.4,1c0.3,0.3,0.6,0.6,1,0.8c0.5,0.2,1,0.4,1.5,0.5C359.7,314.8,360.4,314.8,361,314.9
						L361,314.9z M356.7,307c0,0.3,0.1,0.6,0.4,0.9c0.3,0.3,0.6,0.5,0.9,0.6c0.4,0.2,0.9,0.3,1.4,0.4c1.1,0.2,2.2,0.2,3.3,0
						c0.5-0.1,0.9-0.2,1.4-0.4c0.4-0.2,0.7-0.4,1-0.6c0.5-0.5,0.5-1.2,0-1.7c0,0,0,0,0,0c-0.3-0.3-0.6-0.5-1-0.6
						c-0.4-0.2-0.9-0.3-1.4-0.4c-1-0.2-2.1-0.2-3.1,0c-0.5,0.1-0.9,0.2-1.4,0.4c-0.4,0.2-0.7,0.4-1,0.6
						C356.9,306.3,356.7,306.7,356.7,307z"/>
					<path class="st28" d="M169.9,345.7l-1.7,1.2l-0.6-1.1l1.9-0.7l-1.9-0.7l0.6-1.1l1.7,1.2l-0.3-2.1h1.3l-0.3,2.1l1.7-1.2l0.6,1.1
						l-1.8,0.7l1.8,0.7l-0.6,1.1l-1.7-1.2l0.3,2.1h-1.3L169.9,345.7z"/>
					<path class="st28" d="M182.4,343.5h-2.6v9.4h2.7v1.1h-6.8v-1.1h2.7v-9.4h-2.6v-1.1h6.6V343.5z"/>
					<path class="st28" d="M184.2,342.4h1.4l4.4,8.4c0.1,0.1,0.1,0.3,0.2,0.4s0.1,0.2,0.2,0.3c0,0.1,0.1,0.2,0.1,0.2v-9.3h1.3v11.7
						h-1.4l-4.4-8.4l-0.2-0.4l-0.2-0.3c0-0.1-0.1-0.2-0.1-0.2v9.3h-1.3V342.4z"/>
					<path class="st28" d="M201.3,351c-0.1,0.4-0.3,0.9-0.6,1.3c-0.2,0.4-0.5,0.7-0.8,1.1c-0.3,0.3-0.7,0.6-1.1,0.7
						c-0.5,0.2-1,0.3-1.6,0.3c-0.7,0-1.4-0.1-2.1-0.5c-0.6-0.3-1.1-0.7-1.5-1.3c-0.4-0.6-0.7-1.2-0.9-1.9c-0.2-0.8-0.3-1.6-0.3-2.4
						c0-0.8,0.1-1.6,0.3-2.4c0.2-0.7,0.5-1.4,1-1.9c0.4-0.5,0.9-1,1.5-1.3c0.6-0.3,1.3-0.5,2-0.5c0.5,0,1,0.1,1.5,0.2
						c0.4,0.1,0.8,0.4,1.1,0.6c0.3,0.3,0.6,0.6,0.8,1c0.2,0.4,0.4,0.8,0.5,1.2l-1.2,0.6c-0.2-0.7-0.5-1.3-1-1.8
						c-0.5-0.4-1.1-0.6-1.7-0.6c-0.5,0-1,0.1-1.4,0.4c-0.4,0.3-0.7,0.6-1,1c-0.3,0.5-0.5,1-0.6,1.5c-0.1,0.6-0.2,1.3-0.2,1.9
						c0,0.6,0.1,1.3,0.2,1.9c0.1,0.5,0.3,1.1,0.6,1.5c0.2,0.4,0.6,0.8,1,1c0.5,0.3,1,0.4,1.6,0.4c0.7,0,1.4-0.2,1.9-0.8
						c0.2-0.2,0.4-0.5,0.6-0.8c0.2-0.3,0.3-0.7,0.4-1L201.3,351z"/>
					<path class="st28" d="M202.3,342.4h1.4v10.4h5.9v1.2h-7.3V342.4z"/>
					<path class="st28" d="M218.7,350.2c0,0.6-0.1,1.2-0.3,1.8c-0.3,1-1.1,1.7-2.1,2.1c-1.1,0.4-2.2,0.4-3.3,0
						c-1-0.3-1.7-1.1-2.1-2.1c-0.2-0.6-0.3-1.2-0.3-1.8v-7.8h1.4v7.8c0,0.7,0.2,1.4,0.7,2c1.1,1.1,2.8,1.1,3.9,0
						c0.5-0.6,0.7-1.3,0.7-2v-7.8h1.4L218.7,350.2z"/>
					<path class="st28" d="M219.6,342.4h2.6c0.8,0,1.5,0.1,2.2,0.4c0.6,0.3,1.2,0.7,1.6,1.2c0.5,0.5,0.8,1.2,1,1.8
						c0.4,1.5,0.4,3.1,0,4.7c-0.2,0.7-0.5,1.3-1,1.8c-0.4,0.5-1,0.9-1.6,1.2c-0.7,0.3-1.4,0.5-2.2,0.4h-2.6V342.4z M222.2,352.8
						c1.1,0.1,2.1-0.4,2.8-1.2c1.2-2.1,1.2-4.7,0-6.8c-0.7-0.8-1.8-1.3-2.8-1.2H221v9.2H222.2z"/>
					<path class="st28" d="M228.9,342.4h7.1v1.2h-5.7v3.8h5.2v1.2h-5.2v4.2h5.8v1.2h-7.1L228.9,342.4z"/>
					<path class="st28" d="M238.9,345.2c0,1.1,1,1.9,3.1,2.3c1,0.1,1.9,0.5,2.7,1.1c0.6,0.6,0.9,1.4,0.8,2.2c0,0.9-0.4,1.8-1.1,2.4
						c-0.4,0.3-0.8,0.6-1.3,0.7c-0.5,0.2-1.1,0.3-1.6,0.3c-0.6,0-1.2-0.1-1.7-0.3c-0.5-0.2-0.9-0.4-1.3-0.8
						c-0.4-0.3-0.7-0.7-0.9-1.2c-0.2-0.5-0.4-0.9-0.5-1.4l1.2-0.6c0.1,0.4,0.2,0.8,0.4,1.2c0.2,0.4,0.4,0.7,0.7,1
						c0.3,0.3,0.6,0.5,1,0.6c0.4,0.2,0.8,0.2,1.2,0.2c0.7,0,1.4-0.2,1.9-0.6c0.4-0.4,0.7-0.9,0.7-1.5c0-0.3-0.1-0.7-0.2-1
						c-0.1-0.3-0.3-0.5-0.5-0.6c-0.3-0.2-0.6-0.4-0.9-0.5c-0.4-0.1-0.9-0.2-1.3-0.3c-1-0.1-2-0.5-2.8-1.1c-0.7-0.6-1-1.4-1-2.3
						c0-0.8,0.4-1.7,1.1-2.2c0.4-0.3,0.8-0.5,1.2-0.6c0.5-0.2,1-0.2,1.5-0.2c0.9,0,1.9,0.2,2.6,0.8c0.7,0.5,1.2,1.2,1.4,2l-1.1,0.7
						c-0.2-0.7-0.5-1.3-1.1-1.7c-0.5-0.4-1.2-0.6-1.9-0.6c-0.3,0-0.6,0-0.9,0.1c-0.3,0.1-0.5,0.2-0.8,0.4c-0.2,0.2-0.4,0.4-0.5,0.6
						C238.9,344.6,238.8,344.9,238.9,345.2z"/>
					<path class="st28" d="M258.4,354.2c-0.5-0.1-1-0.2-1.4-0.4c-0.4-0.2-0.7-0.5-1-0.8c-0.3-0.3-0.6-0.7-0.7-1.1
						c-0.2-0.4-0.4-0.8-0.5-1.3l1.2-0.6c0.1,0.7,0.4,1.4,0.8,2c0.4,0.5,1,0.9,1.6,1v-4.5c-0.9-0.2-1.7-0.6-2.3-1.2
						c-0.6-0.6-0.9-1.3-0.8-2.1c0-0.4,0.1-0.8,0.2-1.1c0.2-0.3,0.4-0.6,0.7-0.9c0.3-0.3,0.6-0.5,1-0.6c0.4-0.2,0.8-0.3,1.3-0.3v-1.5
						h1.3v1.5c0.8,0.1,1.5,0.4,2.1,0.9c0.6,0.5,1,1.1,1.2,1.8l-1.1,0.7c-0.1-0.6-0.4-1.1-0.8-1.5c-0.4-0.4-0.8-0.6-1.4-0.7v4.1
						c1,0.1,1.9,0.5,2.7,1.1c0.6,0.6,0.9,1.4,0.8,2.2c0,0.4-0.1,0.8-0.3,1.2c-0.2,0.4-0.4,0.7-0.7,1c-0.3,0.3-0.7,0.6-1.1,0.8
						c-0.5,0.2-0.9,0.3-1.4,0.4v1.5h-1.3L258.4,354.2z M256.6,345.2c0,0.9,0.6,1.5,1.8,2v-3.8c-0.5,0.1-0.9,0.3-1.3,0.6
						C256.8,344.3,256.6,344.8,256.6,345.2L256.6,345.2z M261.9,350.9c0-0.5-0.1-1-0.5-1.4c-0.5-0.4-1-0.7-1.6-0.8v4.3
						c0.6,0,1.1-0.3,1.6-0.7C261.7,351.9,261.9,351.4,261.9,350.9L261.9,350.9z"/>
					<path class="st28" d="M271.8,354.1h-7.1v-1.1h2.8v-8.6c-0.3,0.3-0.7,0.5-1.1,0.6c-0.5,0.1-1,0.2-1.4,0.2v-1.2
						c0.6,0,1.1-0.1,1.6-0.3c0.4-0.3,0.8-0.7,1-1.1h1.3v10.5h2.8L271.8,354.1z"/>
					<path class="st28" d="M275.8,352h2v2.1h-2V352z"/>
					<path class="st28" d="M290,348.2c0.1,1.6-0.3,3.2-1.1,4.5c-1.4,1.8-3.9,2.1-5.7,0.7c-0.3-0.2-0.5-0.4-0.7-0.7
						c-1.5-2.8-1.5-6.2,0-9c1.4-1.8,4-2.1,5.7-0.7c0.3,0.2,0.5,0.4,0.7,0.7C289.7,345.1,290.1,346.6,290,348.2z M282.7,348.2
						c0,1,0.1,2,0.5,3l4.2-7.2c-0.5-0.4-1.1-0.7-1.7-0.7c-0.9,0-1.8,0.5-2.2,1.2C282.9,345.8,282.6,347,282.7,348.2z M285.7,353.1
						c0.9,0,1.8-0.5,2.2-1.2c0.6-1.1,0.8-2.3,0.8-3.6c0-1-0.1-2-0.5-3l-4.2,7.2C284.4,352.8,285,353.1,285.7,353.1L285.7,353.1z"/>
					<path class="st28" d="M298.9,348.2c0.1,1.6-0.3,3.2-1.1,4.5c-1.4,1.8-4,2.1-5.7,0.7c-0.3-0.2-0.5-0.4-0.7-0.7
						c-1.5-2.8-1.5-6.2,0-9c1.4-1.8,4-2.1,5.7-0.7c0.3,0.2,0.5,0.4,0.7,0.7C298.6,345.1,299,346.6,298.9,348.2z M291.6,348.2
						c0,1,0.1,2,0.5,3l4.2-7.2c-1-1-2.7-0.9-3.6,0.2c-0.1,0.1-0.2,0.3-0.3,0.4C291.7,345.8,291.5,347,291.6,348.2L291.6,348.2z
						 M294.6,353.1c0.9,0,1.8-0.5,2.2-1.2c0.6-1.1,0.8-2.3,0.8-3.6c0-1-0.1-2-0.5-3l-4.2,7.2C293.3,352.8,293.9,353.1,294.6,353.1
						L294.6,353.1z"/>
					<path class="st28" d="M308.7,342.4h7.3v1.2h-5.9v4.1h5.4v1.2h-5.4v5.1h-1.4V342.4z"/>
					<path class="st28" d="M323.4,350.6h-4.5l-1.2,3.5h-1.4l4.1-11.7h1.5l4.1,11.7h-1.4L323.4,350.6z M319.3,349.4h3.7l-1.5-4.5
						l-0.1-0.4c0-0.1-0.1-0.2-0.1-0.3c0-0.1-0.1-0.2-0.1-0.3c0,0.1-0.1,0.2-0.1,0.3c0,0.1-0.1,0.2-0.1,0.3l-0.1,0.4L319.3,349.4z"/>
					<path class="st28" d="M334.4,351c-0.1,0.4-0.3,0.9-0.5,1.3c-0.2,0.4-0.5,0.8-0.8,1.1c-0.3,0.3-0.7,0.6-1.1,0.7
						c-0.5,0.2-1,0.3-1.5,0.3c-0.7,0-1.4-0.1-2.1-0.5c-0.6-0.3-1.1-0.7-1.5-1.3c-0.4-0.6-0.7-1.2-0.9-1.9c-0.2-0.8-0.3-1.6-0.3-2.4
						c0-0.8,0.1-1.6,0.3-2.4c0.2-0.7,0.5-1.4,1-1.9c0.4-0.5,0.9-1,1.5-1.3c0.6-0.3,1.3-0.5,2-0.5c0.5,0,1,0.1,1.5,0.2
						c0.4,0.1,0.8,0.3,1.1,0.6c0.3,0.3,0.6,0.6,0.8,1c0.2,0.4,0.4,0.8,0.5,1.2l-1.2,0.6c-0.2-0.7-0.5-1.3-1-1.8
						c-0.5-0.4-1.1-0.6-1.7-0.6c-0.5,0-1,0.1-1.4,0.4c-0.4,0.3-0.7,0.6-1,1c-0.3,0.5-0.5,1-0.6,1.5c-0.1,0.6-0.2,1.3-0.2,1.9
						c0,0.6,0,1.3,0.2,1.9c0.1,0.5,0.3,1.1,0.6,1.5c0.2,0.4,0.6,0.8,1,1c0.5,0.3,1,0.4,1.5,0.4c0.7,0,1.4-0.2,1.9-0.8
						c0.2-0.2,0.4-0.5,0.6-0.8c0.2-0.3,0.3-0.7,0.4-1L334.4,351z"/>
					<path class="st28" d="M342.2,343.5h-2.6v9.4h2.7v1.1h-6.8v-1.1h2.7v-9.4h-2.6v-1.1h6.6V343.5z"/>
					<path class="st28" d="M344.3,342.4h1.4v10.4h5.9v1.2h-7.3V342.4z"/>
					<path class="st28" d="M359.9,343.5h-2.6v9.4h2.7v1.1h-6.8v-1.1h2.7v-9.4h-2.6v-1.1h6.6L359.9,343.5z"/>
					<path class="st28" d="M361.5,342.4h8v1.2h-3.3v10.4h-1.4v-10.4h-3.3V342.4z"/>
					<path class="st28" d="M373.7,349.5l-3.8-7h1.4l2.6,5l0.1,0.3l0.1,0.3c0,0.1,0.1,0.2,0.1,0.3c0-0.1,0.1-0.2,0.1-0.3l0.1-0.3
						l0.1-0.3l2.6-5h1.4l-3.7,7v4.6h-1.4L373.7,349.5z"/>
					<path class="st28" d="M388.6,342.4h7.3v1.2H390v4.1h5.4v1.2H390v5.1h-1.4V342.4z"/>
					<path class="st28" d="M397.5,342.4h7.1v1.2h-5.7v3.8h5.2v1.2h-5.2v4.2h5.7v1.2h-7.1V342.4z"/>
					<path class="st28" d="M406.3,342.4h7.1v1.2h-5.7v3.8h5.2v1.2h-5.2v4.2h5.7v1.2h-7.1V342.4z"/>
					<path class="st28" d="M181.4,370.6h-4.5l-1.2,3.4h-1.4l4.1-11.7h1.5L184,374h-1.4L181.4,370.6z M177.3,369.4h3.7l-1.5-4.5
						l-0.1-0.4c0-0.1-0.1-0.2-0.1-0.3c0-0.1-0.1-0.2-0.1-0.3c0,0.1-0.1,0.2-0.1,0.3c0,0.1-0.1,0.2-0.1,0.3l-0.1,0.4L177.3,369.4z"/>
					<path class="st28" d="M184.2,362.4h3.8c0.5,0,1,0.1,1.5,0.2c0.4,0.1,0.8,0.3,1.1,0.6c0.3,0.2,0.5,0.5,0.7,0.9
						c0.2,0.4,0.2,0.7,0.2,1.1c0,0.6-0.2,1.2-0.5,1.6c-0.4,0.4-0.8,0.8-1.3,1c0.3,0.1,0.6,0.2,0.9,0.4c0.3,0.2,0.5,0.4,0.7,0.6
						c0.2,0.2,0.4,0.5,0.5,0.8c0.1,0.3,0.2,0.7,0.2,1c0,0.5-0.1,0.9-0.3,1.4c-0.2,0.4-0.5,0.8-0.8,1.1c-0.4,0.3-0.8,0.5-1.2,0.7
						c-0.5,0.2-1,0.3-1.5,0.3h-3.8L184.2,362.4z M185.6,367.3h2.3c0.6,0,1.1-0.1,1.6-0.4c0.8-0.8,0.8-2,0-2.8c0,0,0,0,0,0
						c-0.5-0.3-1.1-0.5-1.6-0.4h-2.3V367.3z M185.6,372.9h2.2c0.7,0,1.4-0.1,2-0.5c0.9-0.9,1-2.3,0.1-3.3c0,0-0.1-0.1-0.1-0.1
						c-0.6-0.4-1.3-0.6-2-0.5h-2.2V372.9z"/>
					<path class="st28" d="M201.3,370.9c-0.1,0.4-0.3,0.9-0.6,1.3c-0.2,0.4-0.5,0.7-0.8,1.1c-0.3,0.3-0.7,0.6-1.1,0.7
						c-0.5,0.2-1,0.3-1.6,0.3c-0.7,0-1.4-0.1-2.1-0.5c-0.6-0.3-1.1-0.7-1.5-1.3c-0.4-0.6-0.7-1.2-0.9-1.9c-0.2-0.8-0.3-1.6-0.3-2.4
						c0-0.8,0.1-1.6,0.3-2.4c0.2-0.7,0.5-1.3,1-1.9c0.4-0.5,0.9-1,1.5-1.3c0.6-0.3,1.3-0.5,2-0.5c0.5,0,1,0.1,1.5,0.2
						c0.4,0.1,0.8,0.4,1.1,0.6c0.3,0.3,0.6,0.6,0.8,1c0.2,0.4,0.4,0.8,0.5,1.2l-1.2,0.6c-0.2-0.7-0.5-1.3-1-1.8
						c-0.5-0.4-1.1-0.6-1.7-0.6c-0.5,0-1,0.1-1.4,0.4c-0.4,0.3-0.7,0.6-1,1c-0.3,0.5-0.5,1-0.6,1.5c-0.1,0.6-0.2,1.3-0.2,1.9
						c0,0.6,0.1,1.3,0.2,1.9c0.1,0.5,0.3,1.1,0.6,1.5c0.2,0.4,0.6,0.8,1,1c0.5,0.3,1,0.4,1.6,0.4c0.7,0,1.4-0.2,1.9-0.8
						c0.2-0.2,0.4-0.5,0.6-0.8c0.2-0.3,0.3-0.7,0.4-1L201.3,370.9z"/>
					<path class="st28" d="M201.9,362.4h2.6c0.8,0,1.5,0.1,2.2,0.4c0.6,0.3,1.2,0.7,1.6,1.2c0.5,0.5,0.8,1.2,1,1.8
						c0.4,1.5,0.4,3.1,0,4.7c-0.2,0.7-0.5,1.3-1,1.8c-0.4,0.5-1,0.9-1.6,1.2c-0.7,0.3-1.4,0.5-2.2,0.5h-2.6V362.4z M204.5,372.8
						c1.1,0.1,2.1-0.4,2.8-1.2c1.2-2.1,1.2-4.7,0-6.8c-0.7-0.8-1.8-1.3-2.8-1.2h-1.2v9.2L204.5,372.8z"/>
					<path class="st28" d="M211.1,362.4h7v1.2h-5.6v3.8h5.2v1.2h-5.2v4.2h5.7v1.2h-7.1V362.4z"/>
					<path class="st28" d="M220,362.4h7.3v1.2h-5.9v4.1h5.4v1.3h-5.4v5H220V362.4z"/>
					<path class="st28" d="M235.5,372.1c-0.2,0.6-0.6,1.1-1.1,1.5c-0.5,0.4-1.2,0.6-1.9,0.6c-0.7,0-1.4-0.1-2-0.5
						c-0.6-0.3-1-0.7-1.4-1.3c-0.4-0.6-0.7-1.2-0.9-1.9c-0.2-0.8-0.3-1.6-0.3-2.4c0-0.8,0.1-1.6,0.3-2.4c0.2-0.7,0.6-1.3,1-1.9
						c0.4-0.5,0.9-1,1.5-1.3c0.6-0.3,1.3-0.5,2-0.5c0.9,0,1.8,0.2,2.6,0.8c0.6,0.6,1.1,1.3,1.4,2.1l-1.1,0.6c-0.1-0.7-0.5-1.3-1-1.7
						c-0.5-0.4-1.2-0.6-1.8-0.6c-0.5,0-1,0.1-1.4,0.4c-0.4,0.3-0.7,0.6-1,1c-0.3,0.5-0.5,1-0.6,1.5c-0.2,0.7-0.2,1.3-0.2,2
						c0,0.7,0.1,1.3,0.2,2c0.1,0.5,0.3,1.1,0.6,1.5c0.3,0.4,0.6,0.7,1,1c0.4,0.2,0.9,0.4,1.4,0.4c0.4,0,0.8-0.1,1.2-0.3
						c0.3-0.2,0.6-0.5,0.8-0.9c0.2-0.4,0.4-0.8,0.5-1.2c0.1-0.4,0.2-0.9,0.2-1.3h-3.2v-1.2h4.5v5.7h-1L235.5,372.1z"/>
					<path class="st28" d="M238.1,368.3h6.3v1h-6.3V368.3z"/>
					<path class="st28" d="M254.5,368.2c0.1,1.6-0.3,3.2-1.1,4.5c-1.4,1.8-4,2.1-5.7,0.7c-0.3-0.2-0.5-0.4-0.7-0.7
						c-1.5-2.8-1.5-6.2,0-9c1.4-1.8,4-2.1,5.7-0.7c0.3,0.2,0.5,0.4,0.7,0.7C254.2,365,254.6,366.6,254.5,368.2z M247.2,368.2
						c0,1,0.1,2,0.5,3l4.2-7.2c-0.5-0.4-1.1-0.7-1.7-0.7c-0.9,0-1.8,0.5-2.2,1.2C247.4,365.7,247.1,367,247.2,368.2z M250.2,373
						c0.9,0,1.8-0.5,2.2-1.2c0.6-1.1,0.8-2.3,0.8-3.6c0-1-0.1-2-0.5-3l-4.2,7.2C248.9,372.8,249.5,373,250.2,373L250.2,373z"/>
					<path class="st28" d="M262.9,374h-7.1v-1.1h2.8v-8.6c-0.3,0.3-0.7,0.5-1.1,0.6c-0.5,0.1-1,0.2-1.4,0.1v-1.2
						c0.6,0,1.1-0.1,1.6-0.4c0.4-0.3,0.8-0.7,1-1.1h1.3v10.5h2.8L262.9,374z"/>
					<path class="st28" d="M268.7,368.7c0.3-0.3,0.6-0.6,0.8-0.9c0.2-0.3,0.4-0.5,0.5-0.8c0.1-0.2,0.2-0.5,0.2-0.7
						c0-0.3,0.1-0.5,0.1-0.8c0-0.3-0.1-0.6-0.2-0.9c-0.1-0.3-0.3-0.5-0.5-0.7c-0.2-0.2-0.5-0.4-0.8-0.5c-0.3-0.1-0.7-0.2-1-0.2
						c-0.3,0-0.6,0.1-1,0.2c-0.3,0.1-0.5,0.3-0.7,0.5c-0.2,0.2-0.4,0.5-0.5,0.8c-0.1,0.3-0.2,0.6-0.2,0.9c0,0.3,0,0.5,0.1,0.8
						l-1.2,0.2c-0.1-0.2-0.1-0.4-0.2-0.5c-0.2-1.1,0.2-2.1,1-2.9c0.3-0.3,0.7-0.6,1.2-0.8c0.5-0.2,1-0.3,1.5-0.3
						c0.5,0,1,0.1,1.5,0.2c0.4,0.1,0.8,0.4,1.2,0.7c0.3,0.3,0.6,0.6,0.8,1c0.2,0.4,0.3,0.9,0.3,1.3c0,0.3,0,0.7-0.1,1
						c-0.1,0.3-0.2,0.7-0.4,1c-0.2,0.4-0.4,0.7-0.6,1c-0.3,0.4-0.6,0.7-0.9,1l-3.4,3.3h5.4v1.2h-7.5v-0.9L268.7,368.7z"/>
					<path class="st28" d="M274.4,370.3c0,0.1,0,0.1,0,0.2c0,0.1,0,0.2,0,0.4c0,0.3,0.1,0.6,0.2,0.9c0.1,0.3,0.3,0.5,0.5,0.7
						c0.2,0.2,0.5,0.3,0.8,0.5c0.3,0.1,0.7,0.2,1,0.2c0.7,0,1.3-0.2,1.8-0.6c0.5-0.5,0.7-1.1,0.7-1.8c0-0.3-0.1-0.7-0.2-1
						c-0.2-0.3-0.4-0.5-0.7-0.7c-0.3-0.2-0.6-0.3-1-0.4c-0.4-0.1-0.8-0.1-1.3-0.1v-1.1c0.4,0,0.9,0,1.3-0.2c0.3-0.1,0.6-0.3,0.8-0.5
						c0.2-0.2,0.3-0.4,0.4-0.7c0.1-0.3,0.1-0.5,0.1-0.8c0-0.5-0.2-1-0.6-1.3c-0.4-0.3-1-0.5-1.5-0.5c-0.3,0-0.5,0-0.8,0.1
						c-0.2,0.1-0.5,0.2-0.6,0.4c-0.2,0.2-0.3,0.4-0.4,0.6c-0.1,0.2-0.2,0.5-0.2,0.8c0,0.2,0,0.3,0.1,0.5l-1.2,0.2
						c-0.1-0.1-0.1-0.3-0.1-0.4c0-0.1,0-0.3,0-0.4c0-0.4,0.1-0.8,0.2-1.1c0.2-0.4,0.4-0.7,0.7-0.9c0.3-0.3,0.7-0.5,1-0.6
						c0.4-0.2,0.9-0.2,1.4-0.2c0.5,0,1,0.1,1.5,0.2c0.4,0.1,0.8,0.3,1.1,0.6c0.3,0.2,0.5,0.5,0.7,0.9c0.2,0.3,0.2,0.7,0.2,1.1
						c0,0.6-0.1,1.1-0.4,1.6c-0.1,0.3-0.3,0.5-0.5,0.7c-0.3,0.2-0.5,0.4-0.9,0.4c0.4,0.1,0.7,0.2,1,0.4c0.3,0.2,0.6,0.4,0.8,0.6
						c0.2,0.3,0.4,0.6,0.5,0.9c0.1,0.3,0.2,0.7,0.2,1.1c0,0.5-0.1,1.1-0.3,1.6c-0.4,0.9-1.1,1.6-2.1,1.8c-0.5,0.2-1,0.2-1.5,0.2
						c-0.6,0-1.1-0.1-1.7-0.3c-0.4-0.2-0.9-0.4-1.2-0.8c-0.3-0.3-0.6-0.7-0.8-1.1c-0.2-0.4-0.3-0.8-0.3-1.2c0-0.2,0-0.3,0-0.5
						c0-0.2,0.1-0.3,0.1-0.5L274.4,370.3z"/>
					<path class="st28" d="M282.5,368.3h6.3v1h-6.3V368.3z"/>
					<path class="st28" d="M290.5,370.5l5.2-8.1h1.4v8.1h1.3v1.2h-1.3v2.3h-1.4v-2.3h-5.2V370.5z M291.9,370.5h3.7v-5.9L291.9,370.5
						z"/>
					<path class="st28" d="M300,362.4h6.6v1.2h-5.5l-0.3,3.8c0.3-0.4,0.7-0.8,1.2-1c0.5-0.2,0.9-0.3,1.4-0.3c0.6,0,1.1,0.1,1.6,0.3
						c0.5,0.2,0.9,0.5,1.2,0.8c0.3,0.4,0.6,0.8,0.8,1.3c0.4,1.1,0.4,2.2,0,3.3c-0.2,0.5-0.5,0.9-0.8,1.3c-0.4,0.4-0.8,0.7-1.3,0.9
						c-0.5,0.2-1.1,0.3-1.7,0.3c-0.5,0-1.1-0.1-1.6-0.3c-0.5-0.2-0.9-0.4-1.2-0.7c-0.3-0.3-0.6-0.6-0.8-1c-0.2-0.4-0.3-0.8-0.3-1.2
						c0-0.1,0-0.3,0-0.4c0-0.1,0.1-0.3,0.1-0.4l1.2,0.3c0,0.1,0,0.1,0,0.2c0,0.1,0,0.2,0,0.3c0,0.3,0.1,0.6,0.2,0.9
						c0.1,0.3,0.3,0.5,0.5,0.6c0.2,0.2,0.5,0.3,0.8,0.4c0.3,0.1,0.7,0.1,1,0.1c0.7,0,1.4-0.2,1.9-0.8c0.5-0.6,0.8-1.4,0.7-2.1
						c0-0.4-0.1-0.8-0.2-1.2c-0.2-0.7-0.7-1.2-1.4-1.5c-0.3-0.1-0.7-0.2-1.1-0.2c-0.6,0-1.1,0.2-1.6,0.5c-0.4,0.3-0.8,0.7-1,1.2
						l-1.1-0.3L300,362.4z"/>
					<path class="st28" d="M314.4,365.4c0-0.1,0.1-0.2,0.1-0.3c0-0.1,0-0.2,0-0.4c0-0.4-0.2-0.8-0.5-1c-0.4-0.3-1-0.4-1.5-0.4
						c-0.4,0-0.9,0.1-1.2,0.4c-0.4,0.3-0.7,0.6-0.9,1c-0.3,0.5-0.5,1-0.6,1.6c-0.2,0.7-0.2,1.3-0.3,2c0.1-0.3,0.3-0.5,0.5-0.7
						c0.2-0.2,0.4-0.4,0.7-0.6c0.3-0.2,0.6-0.3,0.9-0.4c0.3-0.1,0.7-0.2,1-0.1c0.5,0,1,0.1,1.5,0.3c0.4,0.2,0.8,0.5,1.2,0.8
						c0.3,0.3,0.6,0.8,0.8,1.2c0.2,0.5,0.3,1,0.3,1.6c0,0.5-0.1,1-0.3,1.5c-0.2,0.5-0.5,0.9-0.8,1.3c-0.3,0.4-0.8,0.7-1.2,0.9
						c-0.5,0.2-1.1,0.3-1.6,0.3c-1.2,0.1-2.3-0.5-3.1-1.4c-0.8-1.2-1.2-2.6-1.1-4c0-0.7,0.1-1.4,0.2-2.1c0.1-0.6,0.3-1.2,0.5-1.7
						c0.3-0.8,0.8-1.6,1.5-2.1c0.6-0.5,1.4-0.8,2.2-0.8c0.9-0.1,1.7,0.2,2.4,0.7c0.6,0.5,0.9,1.2,0.9,2c0,0.2,0,0.3,0,0.5
						c0,0.1-0.1,0.3-0.1,0.4L314.4,365.4z M312.4,367.6c-0.3,0-0.7,0.1-1,0.2c-0.3,0.1-0.6,0.3-0.8,0.5c-0.2,0.2-0.4,0.5-0.6,0.9
						c-0.3,0.7-0.3,1.5,0,2.3c0.2,0.6,0.8,1.1,1.4,1.4c0.3,0.1,0.7,0.2,1,0.2c0.3,0,0.7-0.1,1-0.2c0.3-0.1,0.6-0.3,0.8-0.5
						c0.2-0.2,0.4-0.5,0.6-0.9c0.3-0.7,0.3-1.5,0-2.3c-0.1-0.3-0.3-0.6-0.6-0.9c-0.2-0.2-0.5-0.4-0.8-0.5
						C313,367.7,312.7,367.6,312.4,367.6z"/>
					<path class="st28" d="M320.4,374H319l4.3-10.4h-5.8v-1.2h7.2v1.1L320.4,374z"/>
					<path class="st28" d="M330,374.3c-0.5,0-1.1-0.1-1.6-0.2c-0.5-0.2-0.9-0.4-1.3-0.7c-0.4-0.3-0.6-0.7-0.8-1.1
						c-0.2-0.4-0.3-0.9-0.3-1.4c0-0.7,0.2-1.3,0.5-1.8c0.4-0.5,0.8-0.9,1.4-1.2c-1-0.5-1.6-1.5-1.6-2.6c0-0.4,0.1-0.8,0.3-1.2
						c0.2-0.4,0.5-0.7,0.8-1c0.3-0.3,0.7-0.5,1.1-0.6c0.9-0.3,1.9-0.3,2.8,0c0.4,0.1,0.8,0.3,1.1,0.6c0.3,0.3,0.6,0.6,0.8,1
						c0.2,0.4,0.3,0.8,0.3,1.2c0,1.1-0.6,2.1-1.6,2.6c0.6,0.3,1,0.7,1.4,1.2c0.4,0.5,0.6,1.2,0.5,1.8c0,0.5-0.1,1-0.3,1.4
						c-0.2,0.4-0.5,0.8-0.8,1.1c-0.4,0.3-0.8,0.5-1.3,0.7C331.1,374.2,330.5,374.3,330,374.3z M330,373.1c0.4,0,0.7-0.1,1-0.2
						c0.3-0.1,0.6-0.3,0.8-0.5c0.2-0.2,0.4-0.5,0.5-0.8c0.1-0.3,0.2-0.7,0.2-1c0-0.3-0.1-0.7-0.2-1c-0.1-0.3-0.3-0.5-0.6-0.8
						c-0.3-0.2-0.5-0.4-0.8-0.5c-0.6-0.2-1.4-0.2-2,0c-0.3,0.1-0.6,0.3-0.8,0.5c-0.2,0.2-0.4,0.5-0.6,0.8c-0.2,0.3-0.2,0.7-0.2,1
						c0,0.3,0.1,0.7,0.2,1c0.1,0.3,0.3,0.5,0.5,0.8c0.2,0.2,0.5,0.4,0.8,0.5C329.3,373.1,329.6,373.1,330,373.1L330,373.1z
						 M327.6,365.3c0,0.3,0.1,0.6,0.2,0.8c0.1,0.2,0.3,0.5,0.5,0.6c0.2,0.2,0.5,0.3,0.8,0.4c0.6,0.2,1.2,0.2,1.8,0
						c0.3-0.1,0.5-0.2,0.8-0.4c0.2-0.2,0.4-0.4,0.5-0.6c0.1-0.3,0.2-0.5,0.2-0.8c0-0.3-0.1-0.6-0.2-0.9c-0.1-0.3-0.3-0.5-0.5-0.6
						c-0.2-0.2-0.5-0.3-0.8-0.4c-0.6-0.2-1.2-0.2-1.7,0c-0.3,0.1-0.5,0.2-0.8,0.4c-0.2,0.2-0.4,0.4-0.5,0.6
						C327.7,364.7,327.6,365,327.6,365.3L327.6,365.3z"/>
					<path class="st28" d="M336.7,371c0,0.1-0.1,0.2-0.1,0.3c0,0.1,0,0.3,0,0.4c0,0.4,0.2,0.8,0.5,1c0.4,0.3,0.9,0.4,1.4,0.4
						c0.9,0,1.8-0.5,2.2-1.3c0.6-1.1,0.9-2.4,0.9-3.7c-0.3,0.6-0.7,1.1-1.2,1.4c-0.5,0.4-1.2,0.5-1.8,0.5c-0.5,0-1-0.1-1.5-0.3
						c-0.5-0.2-0.9-0.5-1.2-0.8c-0.3-0.4-0.6-0.8-0.8-1.2c-0.2-0.5-0.3-1-0.3-1.6c0-0.5,0.1-1,0.3-1.5c0.4-1,1.1-1.7,2.1-2.1
						c0.5-0.2,1.1-0.3,1.6-0.3c1.2-0.1,2.4,0.5,3.1,1.4c0.8,1.2,1.2,2.6,1.1,4c0,0.7-0.1,1.4-0.2,2.1c-0.1,0.6-0.3,1.2-0.5,1.8
						c-0.3,0.8-0.8,1.6-1.5,2.1c-0.6,0.5-1.4,0.7-2.1,0.7c-0.5,0-0.9-0.1-1.4-0.2c-0.4-0.1-0.7-0.3-1.1-0.5c-0.6-0.5-1-1.2-0.9-2
						c0-0.2,0-0.3,0-0.5c0-0.1,0.1-0.2,0.1-0.4L336.7,371z M338.8,368.8c0.3,0,0.7-0.1,1-0.2c0.3-0.1,0.6-0.3,0.8-0.5
						c0.2-0.2,0.4-0.5,0.6-0.9c0.1-0.4,0.2-0.7,0.2-1.1c0-0.4-0.1-0.8-0.2-1.1c-0.1-0.3-0.3-0.6-0.6-0.8c-0.2-0.2-0.5-0.4-0.8-0.5
						c-0.6-0.2-1.4-0.2-2,0c-0.3,0.1-0.6,0.3-0.8,0.5c-0.2,0.2-0.4,0.5-0.6,0.8c-0.1,0.4-0.2,0.7-0.2,1.1c0,0.4,0.1,0.8,0.2,1.1
						c0.1,0.3,0.3,0.6,0.6,0.9c0.2,0.2,0.5,0.4,0.8,0.5C338.1,368.7,338.5,368.8,338.8,368.8z"/>
					<path class="st28" d="M352.1,368.2c0.1,1.6-0.3,3.1-1.1,4.5c-1.4,1.8-4,2.1-5.7,0.7c-0.3-0.2-0.5-0.4-0.7-0.7
						c-1.5-2.8-1.5-6.2,0-9c1.4-1.8,4-2.1,5.7-0.7c0.3,0.2,0.5,0.4,0.7,0.7C351.8,365,352.2,366.6,352.1,368.2z M344.8,368.2
						c0,1,0.1,2,0.5,3l4.2-7.2c-0.5-0.4-1.1-0.7-1.7-0.7c-0.9,0-1.8,0.5-2.2,1.2C345,365.7,344.7,367,344.8,368.2z M347.8,373
						c0.9,0,1.8-0.5,2.2-1.2c0.6-1.1,0.8-2.3,0.8-3.6c0-1-0.1-2-0.5-3l-4.3,7.2C346.5,372.8,347.1,373,347.8,373L347.8,373z"/>
					<path class="st28" d="M426.6,210.7h-4.5l-1.2,3.4h-1.4l4.1-11.6h1.5l4.1,11.6h-1.4L426.6,210.7z M422.5,209.5h3.7l-1.5-4.5
						l-0.1-0.4c0-0.1-0.1-0.2-0.1-0.3c0-0.1-0.1-0.2-0.1-0.3c0,0.1-0.1,0.2-0.1,0.3c0,0.1-0.1,0.2-0.1,0.3L424,205L422.5,209.5z"/>
					<path class="st28" d="M429.4,202.5h3.8c0.5,0,1,0.1,1.5,0.2c0.4,0.1,0.8,0.3,1.1,0.6c0.3,0.2,0.5,0.5,0.7,0.9
						c0.2,0.4,0.2,0.7,0.2,1.1c0,0.6-0.2,1.2-0.5,1.6c-0.4,0.4-0.8,0.8-1.3,1c0.3,0.1,0.6,0.2,0.9,0.4c0.3,0.2,0.5,0.4,0.7,0.6
						c0.2,0.2,0.4,0.5,0.5,0.8c0.1,0.3,0.2,0.7,0.2,1c0,0.5-0.1,0.9-0.3,1.4c-0.2,0.4-0.5,0.8-0.8,1.1c-0.4,0.3-0.8,0.5-1.2,0.7
						c-0.5,0.2-1,0.2-1.5,0.2h-3.8L429.4,202.5z M430.8,207.4h2.3c0.6,0,1.1-0.1,1.6-0.4c0.4-0.3,0.7-0.9,0.6-1.4
						c0.1-0.5-0.2-1.1-0.6-1.4c-0.5-0.3-1.1-0.5-1.6-0.4h-2.3V207.4z M430.8,213h2.2c0.7,0,1.4-0.1,2-0.5c0.9-0.9,1-2.3,0.1-3.2
						c0,0-0.1-0.1-0.1-0.1c-0.6-0.4-1.3-0.6-2-0.5h-2.2L430.8,213z"/>
					<path class="st28" d="M446.5,211.1c-0.1,0.4-0.3,0.9-0.5,1.2c-0.2,0.4-0.5,0.8-0.8,1.1c-0.3,0.3-0.7,0.6-1.1,0.7
						c-0.5,0.2-1,0.3-1.5,0.3c-0.7,0-1.4-0.1-2.1-0.5c-0.6-0.3-1.1-0.7-1.5-1.3c-0.4-0.6-0.7-1.2-0.9-1.9c-0.2-0.8-0.3-1.6-0.3-2.4
						c0-0.8,0.1-1.6,0.3-2.4c0.2-0.7,0.5-1.3,1-1.9c0.4-0.5,0.9-1,1.5-1.3c0.6-0.3,1.3-0.5,2-0.5c0.5,0,1,0.1,1.5,0.2
						c0.4,0.1,0.8,0.3,1.1,0.6c0.3,0.3,0.6,0.6,0.8,0.9c0.2,0.4,0.4,0.8,0.5,1.2l-1.2,0.6c-0.2-0.7-0.5-1.3-1-1.8
						c-0.5-0.4-1.1-0.6-1.7-0.6c-0.5,0-1,0.1-1.4,0.4c-0.4,0.3-0.7,0.6-1,1c-0.3,0.5-0.5,1-0.6,1.5c-0.1,0.6-0.2,1.3-0.2,1.9
						c0,0.6,0,1.3,0.2,1.9c0.1,0.5,0.3,1.1,0.6,1.5c0.2,0.4,0.6,0.8,1,1c0.5,0.3,1,0.4,1.5,0.4c0.4,0,0.7-0.1,1.1-0.2
						c0.3-0.1,0.6-0.3,0.8-0.6c0.2-0.2,0.4-0.5,0.6-0.8c0.2-0.3,0.3-0.7,0.4-1L446.5,211.1z"/>
					<path class="st28" d="M447.1,202.5h2.6c0.8,0,1.5,0.1,2.2,0.4c0.6,0.3,1.2,0.7,1.6,1.2c0.5,0.5,0.8,1.2,1,1.8
						c0.4,1.5,0.4,3.1,0,4.7c-0.2,0.7-0.5,1.3-1,1.8c-0.4,0.5-1,0.9-1.6,1.2c-0.7,0.3-1.5,0.5-2.2,0.4h-2.6V202.5z M449.6,212.9
						c1.1,0.1,2.1-0.4,2.8-1.2c1.2-2.1,1.2-4.7,0-6.8c-0.7-0.8-1.8-1.3-2.8-1.2h-1.2v9.2L449.6,212.9z"/>
					<path class="st28" d="M456.3,202.5h7.1v1.2h-5.7v3.8h5.2v1.2h-5.2v4.2h5.7v1.2h-7.1V202.5z"/>
					<path class="st28" d="M465.2,202.5h7.3v1.2h-5.9v4.1h5.4v1.2h-5.4v5.1h-1.4L465.2,202.5z"/>
					<path class="st28" d="M480.7,212.2c-0.2,0.6-0.6,1.1-1.1,1.5c-0.5,0.4-1.2,0.6-1.9,0.6c-1.4,0-2.6-0.6-3.4-1.7
						c-0.4-0.6-0.7-1.2-0.9-1.9c-0.2-0.8-0.3-1.6-0.3-2.4c0-0.8,0.1-1.6,0.3-2.4c0.2-0.7,0.5-1.3,0.9-1.9c0.4-0.5,0.9-1,1.5-1.3
						c0.6-0.3,1.3-0.5,2-0.5c0.9,0,1.8,0.2,2.6,0.8c0.6,0.6,1.1,1.3,1.4,2.1l-1.1,0.6c-0.1-0.7-0.5-1.3-1-1.7
						c-0.5-0.4-1.2-0.6-1.8-0.6c-0.5,0-1,0.1-1.4,0.4c-0.4,0.3-0.7,0.6-1,1c-0.3,0.5-0.5,1-0.6,1.5c-0.2,0.7-0.2,1.3-0.2,2
						c0,0.7,0.1,1.3,0.2,1.9c0.1,0.5,0.3,1.1,0.6,1.5c0.2,0.4,0.6,0.8,1,1c0.4,0.2,0.9,0.4,1.4,0.4c0.4,0,0.8-0.1,1.2-0.3
						c0.3-0.2,0.6-0.5,0.8-0.9c0.2-0.4,0.4-0.8,0.5-1.2c0.1-0.4,0.2-0.9,0.2-1.3h-3.2v-1.2h4.5v5.8h-1L480.7,212.2z"/>
					<path class="st28" d="M482.6,202.5h1.4v5.1h5v-5.1h1.4v11.6H489v-5.3h-5v5.3h-1.4L482.6,202.5z"/>
					<path class="st28" d="M498.6,203.6H496v9.4h2.7v1.1H492V213h2.7v-9.4h-2.6v-1.1h6.6L498.6,203.6z"/>
					<path class="st28" d="M508,210.4c0,0.5-0.1,1.1-0.3,1.6c-0.2,0.5-0.4,0.9-0.7,1.2c-0.3,0.4-0.7,0.6-1.2,0.8
						c-0.5,0.2-1,0.3-1.6,0.3c-0.5,0-1-0.1-1.5-0.2c-0.4-0.2-0.8-0.4-1.2-0.7c-0.3-0.3-0.6-0.7-0.8-1.2c-0.2-0.5-0.3-1.1-0.3-1.7
						l1.4,0.1c0,0.4,0.1,0.7,0.2,1.1c0.1,0.3,0.3,0.6,0.5,0.8c0.2,0.2,0.5,0.4,0.7,0.5c0.3,0.1,0.6,0.2,0.9,0.1c0.3,0,0.6,0,0.9-0.1
						c0.3-0.1,0.5-0.3,0.7-0.5c0.2-0.3,0.4-0.6,0.5-0.9c0.1-0.4,0.2-0.8,0.2-1.3v-7.9h1.4V210.4z"/>
					<path class="st28" d="M509.3,202.5h1.4v5.3l0.2-0.3l0.3-0.3c0.1-0.1,0.2-0.2,0.3-0.4l3.8-4.3h1.7l-3.9,4.3l4.3,7.3h-1.6
						l-3.7-6.2l-1.5,1.6v4.6h-1.4V202.5z"/>
					<path class="st28" d="M518.5,202.5h1.4v10.4h5.9v1.2h-7.3L518.5,202.5z"/>
					<path class="st28" d="M437.6,228.3c0.1,1.6-0.3,3.2-1.1,4.5c-1.4,1.8-4,2.1-5.7,0.7c-0.3-0.2-0.5-0.4-0.7-0.7
						c-1.5-2.8-1.5-6.2,0-9c1.4-1.8,4-2.1,5.7-0.7c0.3,0.2,0.5,0.4,0.7,0.7C437.3,225.1,437.7,226.7,437.6,228.3z M430.3,228.3
						c0,1,0.1,2,0.5,3l4.2-7.2c-1.1-1-2.7-0.9-3.7,0.2c-0.1,0.1-0.2,0.2-0.3,0.4C430.5,225.8,430.2,227.1,430.3,228.3z M433.3,233.1
						c0.9,0,1.8-0.5,2.2-1.2c0.6-1.1,0.8-2.3,0.8-3.6c0-1-0.1-2-0.5-3l-4.2,7.2C432,232.9,432.6,233.1,433.3,233.1L433.3,233.1z"/>
					<path class="st28" d="M446,234.1h-7.1V233h2.8v-8.6c-0.3,0.3-0.7,0.5-1.1,0.6c-0.5,0.1-1,0.2-1.4,0.2v-1.2
						c0.6,0,1.1-0.1,1.6-0.3c0.4-0.3,0.8-0.7,1-1.1h1.3V233h2.8V234.1z"/>
					<path class="st28" d="M451.8,228.8c0.3-0.3,0.6-0.6,0.8-0.9c0.2-0.2,0.4-0.5,0.5-0.8c0.1-0.2,0.2-0.5,0.2-0.8
						c0-0.3,0.1-0.5,0.1-0.8c0-0.3-0.1-0.6-0.2-0.9c-0.1-0.3-0.3-0.5-0.5-0.7c-0.2-0.2-0.5-0.4-0.8-0.4c-0.3-0.1-0.7-0.2-1-0.2
						c-0.3,0-0.7,0-1,0.2c-0.3,0.1-0.5,0.3-0.8,0.5c-0.2,0.2-0.4,0.5-0.5,0.7c-0.1,0.3-0.2,0.7-0.2,1c0,0.3,0,0.5,0.1,0.8l-1.2,0.2
						c-0.1-0.2-0.1-0.4-0.2-0.6c0-0.2,0-0.4,0-0.6c0-0.9,0.4-1.7,1-2.3c0.3-0.3,0.7-0.6,1.2-0.8c0.5-0.2,1-0.3,1.5-0.3
						c0.5,0,1,0.1,1.5,0.2c0.4,0.1,0.8,0.4,1.2,0.7c0.3,0.3,0.6,0.6,0.8,1.1c0.2,0.4,0.3,0.9,0.3,1.3c0,0.3,0,0.7-0.1,1
						c-0.1,0.3-0.2,0.7-0.4,1c-0.2,0.4-0.4,0.7-0.6,1c-0.3,0.4-0.6,0.7-0.9,1l-3.4,3.3h5.4v1.2h-7.5v-0.9L451.8,228.8z"/>
					<path class="st28" d="M457.4,230.4c0,0.1,0,0.2,0,0.2c0,0.1,0,0.2,0,0.3c0,0.3,0.1,0.6,0.2,0.9c0.1,0.3,0.3,0.5,0.5,0.7
						c0.2,0.2,0.5,0.3,0.8,0.4c0.3,0.1,0.7,0.2,1,0.2c0.7,0,1.3-0.2,1.8-0.6c0.5-0.5,0.7-1.1,0.7-1.8c0-0.3-0.1-0.7-0.2-1
						c-0.2-0.3-0.4-0.5-0.7-0.7c-0.3-0.2-0.6-0.4-1-0.4c-0.4-0.1-0.8-0.1-1.3-0.1v-1.2c0.4,0,0.9,0,1.3-0.2c0.3-0.1,0.6-0.3,0.8-0.5
						c0.2-0.2,0.3-0.4,0.4-0.7c0.1-0.2,0.1-0.5,0.1-0.8c0-0.5-0.2-1-0.6-1.3c-0.4-0.3-1-0.5-1.5-0.5c-0.3,0-0.5,0-0.8,0.1
						c-0.2,0.1-0.5,0.2-0.6,0.4c-0.2,0.2-0.3,0.4-0.4,0.6c-0.1,0.2-0.2,0.5-0.2,0.8c0,0.2,0,0.3,0.1,0.5l-1.2,0.2
						c-0.1-0.1-0.1-0.3-0.1-0.4c0-0.1,0-0.3,0-0.4c0-0.4,0.1-0.8,0.2-1.1c0.2-0.4,0.4-0.7,0.7-0.9c0.3-0.3,0.7-0.5,1-0.6
						c0.4-0.2,0.9-0.2,1.4-0.2c0.5,0,1,0.1,1.5,0.2c0.4,0.1,0.8,0.3,1.1,0.6c0.3,0.2,0.5,0.5,0.7,0.9c0.2,0.3,0.2,0.7,0.2,1.1
						c0,0.3,0,0.6-0.1,0.8c-0.1,0.3-0.2,0.5-0.3,0.8c-0.1,0.3-0.3,0.5-0.6,0.7c-0.2,0.2-0.5,0.4-0.8,0.4c0.4,0.1,0.7,0.2,1,0.4
						c0.3,0.2,0.6,0.4,0.8,0.6c0.2,0.3,0.4,0.5,0.5,0.9c0.1,0.3,0.2,0.7,0.2,1.1c0,0.5-0.1,1.1-0.3,1.6c-0.2,0.4-0.5,0.8-0.8,1.1
						c-0.4,0.3-0.8,0.6-1.2,0.7c-0.5,0.2-1,0.2-1.5,0.2c-0.6,0-1.1-0.1-1.7-0.3c-0.5-0.2-0.9-0.4-1.2-0.8c-0.3-0.3-0.6-0.7-0.8-1.1
						c-0.2-0.4-0.3-0.8-0.3-1.2c0-0.3,0.1-0.7,0.2-1L457.4,230.4z"/>
					<path class="st28" d="M464.7,230.6l5.2-8.1h1.4v8.1h1.3v1.2h-1.3v2.3h-1.4v-2.3h-5.2V230.6z M466.1,230.6h3.8v-5.9L466.1,230.6
						z"/>
					<path class="st28" d="M474.2,222.5h6.6v1.2h-5.5l-0.3,3.8c0.3-0.4,0.7-0.8,1.2-1c0.4-0.2,0.9-0.3,1.4-0.3
						c0.6,0,1.1,0.1,1.7,0.3c0.5,0.2,0.9,0.5,1.2,0.8c0.3,0.4,0.6,0.8,0.8,1.3c0.2,0.5,0.3,1.1,0.3,1.6c0,0.6-0.1,1.1-0.3,1.6
						c-0.4,1-1.1,1.8-2.1,2.2c-0.5,0.2-1.1,0.3-1.7,0.3c-0.5,0-1.1-0.1-1.6-0.3c-0.5-0.2-0.9-0.4-1.2-0.7c-0.3-0.3-0.6-0.6-0.8-1.1
						c-0.2-0.4-0.3-0.8-0.3-1.2c0-0.1,0-0.3,0-0.4c0-0.1,0.1-0.3,0.1-0.4l1.2,0.3c0,0.1,0,0.1,0,0.2c0,0.1,0,0.2,0,0.3
						c0,0.3,0.1,0.6,0.2,0.9c0.1,0.3,0.3,0.5,0.5,0.7c0.2,0.2,0.5,0.3,0.8,0.4c0.3,0.1,0.7,0.1,1,0.1c0.7,0,1.4-0.2,1.9-0.8
						c0.5-0.6,0.8-1.4,0.7-2.1c0-0.4,0-0.9-0.1-1.3c-0.2-0.7-0.8-1.2-1.4-1.5c-0.3-0.1-0.7-0.2-1.1-0.2c-0.6,0-1.2,0.2-1.6,0.5
						c-0.4,0.3-0.8,0.7-1,1.2l-1.1-0.3L474.2,222.5z"/>
					<path class="st28" d="M488.6,225.5c0-0.1,0.1-0.2,0.1-0.3c0-0.1,0-0.3,0-0.4c0-0.4-0.2-0.8-0.5-1c-0.4-0.3-1-0.4-1.5-0.4
						c-0.4,0-0.9,0.1-1.2,0.4c-0.4,0.3-0.7,0.6-0.9,1c-0.3,0.5-0.5,1-0.6,1.6c-0.2,0.7-0.3,1.3-0.3,2c0.1-0.3,0.3-0.5,0.5-0.8
						c0.2-0.2,0.5-0.4,0.7-0.6c0.3-0.2,0.6-0.3,0.9-0.4c0.3-0.1,0.7-0.2,1-0.1c0.5,0,1,0.1,1.5,0.3c0.4,0.2,0.9,0.5,1.2,0.8
						c0.3,0.3,0.6,0.8,0.8,1.2c0.2,0.5,0.3,1,0.3,1.6c0,0.5-0.1,1.1-0.3,1.5c-0.2,0.5-0.5,0.9-0.8,1.3c-0.4,0.4-0.8,0.7-1.3,0.9
						c-0.5,0.2-1.1,0.3-1.6,0.3c-1.2,0.1-2.3-0.4-3.1-1.3c-0.8-1.2-1.2-2.6-1.1-4c0-1.3,0.2-2.6,0.7-3.8c0.3-0.8,0.8-1.6,1.5-2.2
						c0.6-0.5,1.4-0.8,2.2-0.8c0.9-0.1,1.7,0.2,2.4,0.7c0.6,0.5,0.9,1.2,0.9,1.9c0,0.2,0,0.3,0,0.5c0,0.2-0.1,0.3-0.1,0.4
						L488.6,225.5z M486.6,227.7c-0.3,0-0.7,0.1-1,0.2c-0.3,0.1-0.6,0.3-0.8,0.5c-0.2,0.2-0.4,0.5-0.6,0.9c-0.3,0.7-0.3,1.5,0,2.3
						c0.1,0.3,0.3,0.6,0.6,0.9c0.2,0.2,0.5,0.4,0.8,0.5c0.3,0.1,0.7,0.2,1,0.2c0.3,0,0.7-0.1,1-0.2c0.3-0.1,0.6-0.3,0.8-0.5
						c0.2-0.2,0.4-0.5,0.6-0.9c0.3-0.7,0.3-1.5,0-2.3c-0.1-0.3-0.3-0.6-0.6-0.9c-0.2-0.2-0.5-0.4-0.8-0.5
						C487.3,227.8,486.9,227.7,486.6,227.7L486.6,227.7z"/>
					<path class="st28" d="M494.6,234.1h-1.4l4.4-10.4h-5.8v-1.2h7.2v1.1L494.6,234.1z"/>
					<path class="st28" d="M504.2,234.4c-0.5,0-1.1-0.1-1.6-0.2c-0.5-0.2-0.9-0.4-1.3-0.7c-0.4-0.3-0.6-0.7-0.8-1.1
						c-0.2-0.4-0.3-0.9-0.3-1.4c0-0.6,0.2-1.3,0.5-1.8c0.4-0.5,0.8-0.9,1.4-1.2c-0.5-0.3-0.9-0.6-1.2-1.1c-0.3-0.5-0.4-1-0.4-1.5
						c0-0.4,0.1-0.8,0.3-1.2c0.2-0.4,0.5-0.7,0.8-0.9c0.3-0.3,0.7-0.5,1.1-0.6c0.9-0.3,1.9-0.3,2.9,0c0.4,0.1,0.8,0.3,1.1,0.6
						c0.3,0.3,0.6,0.6,0.8,0.9c0.2,0.4,0.3,0.8,0.3,1.2c0,0.5-0.1,1.1-0.4,1.5c-0.3,0.5-0.7,0.8-1.1,1.1c0.6,0.3,1,0.7,1.4,1.2
						c0.4,0.5,0.6,1.2,0.5,1.8c0,0.5-0.1,1-0.3,1.4c-0.2,0.4-0.5,0.8-0.8,1.1c-0.4,0.3-0.8,0.5-1.3,0.7
						C505.3,234.3,504.8,234.4,504.2,234.4z M504.2,233.2c0.3,0,0.7-0.1,1-0.2c0.3-0.1,0.6-0.3,0.8-0.5c0.5-0.4,0.8-1.1,0.8-1.7
						c0-0.3-0.1-0.7-0.2-1c-0.1-0.3-0.3-0.5-0.6-0.8c-0.2-0.2-0.5-0.4-0.8-0.5c-0.6-0.2-1.4-0.2-2,0c-0.3,0.1-0.6,0.3-0.8,0.5
						c-0.2,0.2-0.4,0.5-0.6,0.8c-0.1,0.3-0.2,0.7-0.2,1c0,0.7,0.3,1.3,0.8,1.7c0.2,0.2,0.5,0.4,0.8,0.5
						C503.5,233.2,503.8,233.2,504.2,233.2z M501.9,225.4c0,0.3,0.1,0.6,0.2,0.8c0.1,0.3,0.3,0.5,0.5,0.6c0.2,0.2,0.5,0.3,0.8,0.4
						c0.3,0.1,0.6,0.1,0.9,0.1c0.3,0,0.6,0,0.9-0.1c0.3-0.1,0.5-0.2,0.8-0.4c0.2-0.2,0.4-0.4,0.5-0.6c0.1-0.3,0.2-0.5,0.2-0.8
						c0-0.3-0.1-0.6-0.2-0.9c-0.1-0.2-0.3-0.5-0.5-0.6c-0.2-0.2-0.5-0.3-0.8-0.4c-0.6-0.2-1.2-0.2-1.7,0c-0.3,0.1-0.5,0.2-0.8,0.4
						c-0.2,0.2-0.4,0.4-0.5,0.6C501.9,224.7,501.8,225.1,501.9,225.4z"/>
					<path class="st28" d="M510.9,231.1c0,0.1-0.1,0.2-0.1,0.3c0,0.1,0,0.2,0,0.4c0,0.4,0.2,0.8,0.5,1c0.4,0.3,0.9,0.4,1.4,0.4
						c0.9,0,1.8-0.4,2.2-1.2c0.6-1.1,0.9-2.4,0.9-3.7c-0.3,0.6-0.7,1-1.2,1.4c-0.5,0.3-1.2,0.5-1.8,0.5c-0.5,0-1-0.1-1.5-0.3
						c-0.5-0.2-0.9-0.5-1.2-0.8c-0.3-0.4-0.6-0.8-0.8-1.2c-0.4-1-0.4-2.1,0-3.1c0.4-1,1.1-1.7,2.1-2.1c0.5-0.2,1.1-0.3,1.6-0.3
						c1.2-0.1,2.3,0.5,3.1,1.4c0.8,1.2,1.2,2.6,1.1,4c0,0.7-0.1,1.4-0.2,2.1c-0.1,0.6-0.3,1.2-0.5,1.8c-0.3,0.8-0.8,1.6-1.5,2.1
						c-0.6,0.5-1.4,0.7-2.1,0.7c-0.5,0-0.9-0.1-1.4-0.2c-0.4-0.1-0.7-0.3-1.1-0.5c-0.3-0.2-0.5-0.5-0.7-0.9
						c-0.2-0.3-0.2-0.7-0.2-1.1c0-0.2,0-0.3,0-0.5c0-0.1,0.1-0.3,0.1-0.4L510.9,231.1z M513,228.9c0.3,0,0.7-0.1,1-0.2
						c0.3-0.1,0.6-0.3,0.8-0.5c0.2-0.2,0.4-0.5,0.6-0.9c0.3-0.7,0.3-1.5,0-2.3c-0.1-0.3-0.3-0.6-0.6-0.9c-0.2-0.2-0.5-0.4-0.8-0.5
						c-0.3-0.1-0.7-0.2-1-0.2c-0.3,0-0.7,0.1-1,0.2c-0.3,0.1-0.6,0.3-0.8,0.5c-0.2,0.2-0.4,0.5-0.5,0.9c-0.3,0.7-0.3,1.5,0,2.3
						c0.1,0.3,0.3,0.6,0.5,0.9c0.2,0.2,0.5,0.4,0.8,0.5C512.3,228.8,512.7,228.9,513,228.9L513,228.9z"/>
					<path class="st28" d="M526.3,228.3c0.1,1.6-0.3,3.2-1.2,4.5c-1.4,1.8-4,2.1-5.7,0.7c-0.3-0.2-0.5-0.4-0.7-0.7
						c-1.5-2.8-1.5-6.2,0-9c1.4-1.8,4-2.1,5.7-0.7c0.3,0.2,0.5,0.4,0.7,0.7C526,225.1,526.4,226.7,526.3,228.3z M519,228.3
						c0,1,0.1,2,0.5,3l4.2-7.2c-1.1-1-2.7-0.9-3.6,0.2c-0.1,0.1-0.2,0.2-0.3,0.4C519.2,225.8,518.9,227.1,519,228.3z M522,233.1
						c0.9,0,1.8-0.4,2.2-1.2c0.6-1.1,0.8-2.3,0.8-3.6c0-1-0.1-2-0.5-3l-4.2,7.2C520.7,232.9,521.4,233.1,522,233.1z"/>
					<path class="st28" d="M441,250.7h-8.1l-2.1,3.4h-2.5l7.4-11.6h2.7l7.4,11.6h-2.5L441,250.7z M433.6,249.5h6.7l-2.8-4.5
						l-0.2-0.4l-0.2-0.3c-0.1-0.1-0.1-0.2-0.2-0.3l-0.2,0.3l-0.2,0.3l-0.2,0.4L433.6,249.5z"/>
					<path class="st28" d="M446.2,242.5h6.9c0.9,0,1.8,0.1,2.7,0.2c0.7,0.1,1.4,0.3,2,0.6c0.5,0.2,0.9,0.5,1.2,0.9
						c0.3,0.3,0.4,0.7,0.4,1.1c0,0.7-0.4,1.3-0.9,1.6c-0.7,0.5-1.5,0.8-2.3,1c0.5,0.1,1.1,0.2,1.6,0.4c0.5,0.1,0.9,0.3,1.3,0.6
						c0.3,0.2,0.6,0.5,0.9,0.8c0.2,0.3,0.3,0.6,0.3,1c0,0.5-0.2,1-0.5,1.4c-0.4,0.5-0.9,0.8-1.5,1.1c-0.7,0.3-1.5,0.5-2.2,0.7
						c-0.9,0.2-1.8,0.2-2.8,0.2h-7L446.2,242.5z M448.7,247.4h4.2c1,0,2-0.1,3-0.4c0.8-0.2,1.3-1,1-1.8c-0.1-0.5-0.5-0.9-1-1
						c-1-0.3-2-0.5-3-0.4h-4.2V247.4z M448.7,252.9h4c1.2,0,2.5-0.1,3.6-0.5c0.9-0.2,1.5-1.2,1.3-2.1c-0.2-0.6-0.7-1.1-1.3-1.3
						c-1.2-0.4-2.4-0.6-3.6-0.5h-4L448.7,252.9z"/>
					<path class="st28" d="M477.2,251c-0.3,0.5-0.6,0.9-1,1.3c-0.4,0.4-0.9,0.8-1.5,1.1c-0.7,0.3-1.4,0.6-2.1,0.7
						c-0.9,0.2-1.9,0.3-2.8,0.3c-1.3,0-2.5-0.1-3.8-0.5c-1-0.2-1.9-0.7-2.7-1.3c-0.7-0.5-1.2-1.2-1.6-1.9c-0.4-0.8-0.5-1.6-0.5-2.4
						c0-0.8,0.2-1.7,0.6-2.4c0.4-0.8,1-1.4,1.8-1.9c0.8-0.6,1.8-1,2.7-1.3c1.2-0.3,2.4-0.5,3.6-0.5c0.9,0,1.8,0.1,2.7,0.2
						c0.7,0.1,1.4,0.3,2,0.6c0.5,0.3,1,0.6,1.5,1c0.4,0.3,0.7,0.7,1,1.2l-2.2,0.6c-0.4-0.8-1.1-1.4-1.9-1.8c-1-0.4-2.1-0.6-3.1-0.6
						c-0.9,0-1.8,0.1-2.6,0.4c-0.7,0.2-1.3,0.6-1.9,1c-0.5,0.4-0.9,0.9-1.1,1.5c-0.2,0.6-0.4,1.2-0.4,1.9c0,0.7,0.1,1.3,0.3,1.9
						c0.2,0.6,0.5,1.1,1,1.5c0.5,0.5,1.2,0.8,1.9,1c0.9,0.3,1.9,0.4,2.8,0.4c0.7,0,1.3-0.1,2-0.2c0.5-0.1,1-0.3,1.5-0.6
						c0.4-0.2,0.8-0.5,1.1-0.8c0.3-0.3,0.6-0.6,0.8-1L477.2,251z"/>
					<path class="st28" d="M478.4,242.5h4.8c1.3,0,2.7,0.1,4,0.4c1,0.2,2,0.6,2.9,1.2c0.7,0.5,1.3,1.1,1.8,1.8
						c0.8,1.5,0.8,3.2,0,4.7c-0.4,0.8-1,1.4-1.8,1.8c-0.9,0.6-1.9,1-2.9,1.2c-1.3,0.3-2.7,0.5-4,0.4h-4.8V242.5z M483.1,252.9
						c1.8,0.1,3.6-0.3,5.2-1.2c1.9-1.5,2.2-4.2,0.8-6c-0.2-0.3-0.5-0.6-0.8-0.8c-1.6-0.9-3.4-1.3-5.2-1.2h-2.1v9.2L483.1,252.9z"/>
					<path class="st28" d="M495.2,242.5h12.9v1.2h-10.3v3.8h9.5v1.2h-9.5v4.2h10.4v1.2h-13L495.2,242.5z"/>
					<path class="st28" d="M523.4,252.2c-0.5,0.7-1.2,1.2-1.9,1.5c-1.1,0.4-2.2,0.7-3.4,0.6c-1.2,0-2.4-0.1-3.6-0.5
						c-0.9-0.3-1.8-0.7-2.6-1.3c-0.7-0.5-1.2-1.2-1.6-1.9c-0.4-0.8-0.5-1.6-0.5-2.4c0-0.8,0.2-1.7,0.6-2.4c0.4-0.8,1-1.4,1.7-1.9
						c0.8-0.6,1.8-1,2.7-1.3c1.2-0.3,2.4-0.5,3.6-0.5c1.6-0.1,3.2,0.2,4.7,0.8c1,0.4,1.9,1.2,2.5,2.1l-2.1,0.6
						c-0.4-0.8-1-1.4-1.8-1.7c-1.1-0.4-2.2-0.7-3.3-0.6c-0.9,0-1.7,0.1-2.6,0.4c-0.7,0.2-1.3,0.6-1.9,1c-0.5,0.4-0.9,0.9-1.2,1.5
						c-0.3,0.6-0.4,1.3-0.4,1.9c0,0.7,0.1,1.4,0.4,2c0.2,0.6,0.6,1.1,1.1,1.5c0.5,0.5,1.2,0.8,1.8,1c0.8,0.3,1.7,0.4,2.6,0.4
						c0.7,0,1.5-0.1,2.2-0.3c0.5-0.2,1.1-0.5,1.5-0.9c0.4-0.3,0.7-0.7,0.9-1.2c0.2-0.4,0.3-0.9,0.4-1.3h-5.8v-1.2h8.3v5.8h-1.8
						L523.4,252.2z"/>
					<path class="st28" d="M419.7,274.2c-0.9-0.1-1.7-0.2-2.5-0.4c-0.7-0.2-1.3-0.4-1.9-0.8c-0.5-0.3-1-0.7-1.4-1.1
						c-0.3-0.4-0.6-0.8-0.8-1.3l2.2-0.6c0.3,0.8,0.8,1.5,1.5,2c0.9,0.6,1.9,0.9,3,1v-4.5c-1.5-0.1-2.9-0.5-4.3-1.2
						c-0.9-0.4-1.5-1.2-1.5-2.1c0-0.4,0.2-0.8,0.4-1.1c0.3-0.4,0.7-0.7,1.2-0.9c0.6-0.3,1.2-0.5,1.8-0.6c0.8-0.2,1.6-0.3,2.3-0.4
						v-1.5h2.4v1.5c1.3,0.1,2.6,0.4,3.9,0.9c0.9,0.4,1.7,1,2.2,1.8l-2,0.7c-0.4-0.6-0.9-1.2-1.5-1.5c-0.8-0.4-1.6-0.6-2.5-0.7v4.1
						c1.7,0.1,3.3,0.5,4.9,1.1c0.9,0.4,1.5,1.2,1.5,2.2c0,0.5-0.2,0.9-0.5,1.2c-0.4,0.4-0.8,0.8-1.3,1c-0.6,0.3-1.3,0.6-2,0.8
						c-0.9,0.2-1.7,0.3-2.6,0.4v1.5h-2.4L419.7,274.2z M416.3,265.2c0,0.9,1.1,1.6,3.3,2v-3.8c-0.8,0-1.6,0.2-2.4,0.6
						C416.7,264.2,416.4,264.7,416.3,265.2L416.3,265.2z M426,271c0-0.6-0.3-1.1-0.9-1.4c-0.9-0.4-2-0.7-3-0.8v4.3
						c1,0,1.9-0.3,2.8-0.7C425.5,272.2,426,271.6,426,271z"/>
					<path class="st28" d="M429.6,270.5l9.5-8.1h2.5v8.1h2.4v1.2h-2.4v2.3H439v-2.3h-9.5L429.6,270.5z M432.2,270.5h6.8v-6
						L432.2,270.5z"/>
					<path class="st28" d="M449.2,271.1c-0.1,0.1-0.1,0.2-0.2,0.3c-0.1,0.1-0.1,0.2-0.1,0.4c0,0.4,0.3,0.8,0.9,1
						c0.8,0.3,1.7,0.4,2.5,0.4c1.5,0.1,2.9-0.3,4.1-1.3c1-1,1.6-2.3,1.6-3.7c-0.6,0.6-1.4,1.1-2.2,1.4c-1.1,0.4-2.2,0.5-3.4,0.5
						c-0.9,0-1.9-0.1-2.8-0.3c-0.8-0.2-1.5-0.4-2.2-0.8c-0.6-0.3-1.1-0.7-1.4-1.2c-0.7-0.9-0.7-2.2,0-3.1c0.4-0.5,0.9-1,1.5-1.3
						c0.7-0.4,1.5-0.7,2.3-0.9c1-0.2,2-0.3,3-0.3c2-0.1,3.9,0.4,5.6,1.4c1.3,0.9,2.1,2.4,2,4c0,0.7-0.1,1.5-0.4,2.1
						c-0.2,0.6-0.5,1.2-0.9,1.8c-0.7,0.9-1.6,1.7-2.7,2.1c-1.2,0.5-2.6,0.7-3.9,0.7c-0.8,0-1.7-0.1-2.5-0.2
						c-0.7-0.1-1.3-0.3-1.9-0.5c-0.5-0.2-0.9-0.5-1.2-0.9c-0.3-0.3-0.4-0.7-0.4-1.1c0-0.2,0-0.3,0.1-0.5c0-0.1,0.1-0.3,0.2-0.4
						L449.2,271.1z M453,268.8c0.6,0,1.2-0.1,1.8-0.2c0.5-0.1,1-0.3,1.5-0.5c0.4-0.2,0.7-0.5,1-0.9c0.5-0.7,0.5-1.6,0-2.3
						c-0.3-0.4-0.6-0.6-1-0.9c-0.5-0.2-1-0.4-1.5-0.5c-0.6-0.1-1.2-0.2-1.8-0.2c-0.6,0-1.2,0.1-1.8,0.2c-0.5,0.1-1,0.3-1.5,0.5
						c-0.4,0.2-0.7,0.5-1,0.9c-0.5,0.7-0.5,1.6,0,2.3c0.3,0.4,0.6,0.6,1,0.9c0.5,0.2,1,0.4,1.5,0.5
						C451.7,268.8,452.4,268.8,453,268.8L453,268.8z"/>
					<path class="st28" d="M467.5,272h3.7v2.1h-3.7V272z"/>
					<path class="st28" d="M493.4,268.3c0.1,1.8-0.7,3.4-2.1,4.5c-3.6,2.1-8.1,2.1-11.7,0c-2.5-2.1-2.8-5.8-0.7-8.3
						c0.2-0.3,0.5-0.5,0.7-0.7c3.6-2.1,8.1-2.1,11.7,0C492.7,264.8,493.5,266.5,493.4,268.3z M480.1,268.3c0,1.1,0.3,2.1,0.9,3
						l7.7-7.2c-1-0.5-2.1-0.7-3.2-0.7c-1.4-0.1-2.9,0.4-4,1.2C480.5,265.6,480,266.9,480.1,268.3z M485.5,273.1
						c1.4,0.1,2.9-0.4,4-1.2c1-0.9,1.5-2.2,1.4-3.6c0-1.1-0.3-2.1-0.9-3l-7.7,7.2C483.3,272.9,484.4,273.1,485.5,273.1L485.5,273.1z
						"/>
					<path class="st28" d="M509.6,268.3c0.1,1.8-0.7,3.4-2.1,4.5c-3.6,2.1-8.1,2.1-11.7,0c-2.5-2.1-2.8-5.8-0.7-8.3
						c0.2-0.3,0.5-0.5,0.7-0.7c3.6-2.1,8.1-2.1,11.7,0C508.9,264.8,509.7,266.5,509.6,268.3z M496.2,268.3c0,1.1,0.3,2.1,0.9,3
						l7.7-7.2c-1-0.5-2.1-0.7-3.2-0.7c-1.4-0.1-2.9,0.4-4,1.2C496.7,265.6,496.2,266.9,496.2,268.3z M501.7,273.1
						c1.4,0.1,2.9-0.4,4-1.2c1-0.9,1.5-2.2,1.4-3.6c0-1.1-0.3-2.1-0.9-3l-7.7,7.2C499.5,272.9,500.6,273.1,501.7,273.1z"/>
					<path class="st28" d="M517.1,265.8L514,267l-1-1.2l3.4-0.7l-3.4-0.7l1-1.1l3.1,1.2l-0.5-2.1h2.4l-0.5,2.1l3.1-1.2l1.1,1.1
						l-3.4,0.7l3.4,0.7l-1.1,1.2l-3.1-1.2l0.5,2.1h-2.4L517.1,265.8z"/>
					<path class="st28" d="M455.3,291c-0.1,0.4-0.3,0.9-0.5,1.3c-0.2,0.4-0.5,0.7-0.8,1.1c-0.3,0.3-0.7,0.6-1.1,0.7
						c-0.5,0.2-1,0.3-1.5,0.3c-0.7,0-1.4-0.1-2.1-0.5c-0.6-0.3-1.1-0.7-1.5-1.3c-0.4-0.6-0.7-1.2-0.9-1.9c-0.2-0.8-0.3-1.6-0.3-2.4
						c0-0.8,0.1-1.6,0.3-2.4c0.2-0.7,0.5-1.4,1-1.9c0.4-0.5,0.9-1,1.5-1.3c0.6-0.3,1.3-0.5,2-0.5c0.5,0,1,0.1,1.5,0.2
						c0.4,0.1,0.8,0.3,1.1,0.6c0.3,0.3,0.6,0.6,0.8,1c0.2,0.4,0.4,0.8,0.5,1.2l-1.2,0.6c-0.2-0.7-0.5-1.3-1-1.8
						c-0.5-0.4-1.1-0.6-1.7-0.6c-0.5,0-1,0.1-1.4,0.4c-0.4,0.3-0.7,0.6-1,1c-0.3,0.5-0.5,1-0.6,1.5c-0.1,0.6-0.2,1.3-0.2,1.9
						c0,0.6,0,1.3,0.2,1.9c0.1,0.5,0.3,1.1,0.5,1.5c0.2,0.4,0.6,0.8,1,1c0.5,0.3,1,0.4,1.6,0.4c0.4,0,0.7-0.1,1.1-0.2
						c0.3-0.1,0.6-0.3,0.8-0.5c0.2-0.2,0.4-0.5,0.6-0.8c0.2-0.3,0.3-0.7,0.4-1L455.3,291z"/>
					<path class="st28" d="M459.6,289h-2.2v5.1H456v-11.6h4.2c0.5,0,1.1,0.1,1.6,0.2c0.4,0.2,0.8,0.4,1.2,0.7c0.3,0.3,0.5,0.6,0.7,1
						c0.2,0.4,0.3,0.9,0.2,1.3c0,0.8-0.3,1.5-0.8,2.1c-0.5,0.6-1.3,1-2,1.1l2.9,5.1h-1.6L459.6,289z M457.4,287.8h2.6
						c0.7,0.1,1.3-0.1,1.9-0.5c0.9-0.9,0.9-2.2,0-3.1c0,0,0,0,0,0c-0.6-0.4-1.2-0.6-1.9-0.5h-2.6L457.4,287.8z"/>
					<path class="st28" d="M465.2,282.4h7.1v1.2h-5.7v3.8h5.2v1.2h-5.2v4.2h5.7v1.2h-7.1V282.4z"/>
					<path class="st28" d="M473.7,282.4h2.6c0.8,0,1.5,0.1,2.2,0.4c0.6,0.3,1.2,0.7,1.6,1.2c0.5,0.5,0.8,1.2,1,1.8
						c0.4,1.5,0.4,3.1,0,4.7c-0.2,0.7-0.5,1.3-1,1.8c-0.4,0.5-1,0.9-1.6,1.2c-0.7,0.3-1.4,0.5-2.2,0.4h-2.6V282.4z M476.3,292.8
						c1.1,0.1,2.1-0.4,2.8-1.2c1.2-2.1,1.2-4.7,0-6.8c-0.7-0.8-1.8-1.3-2.8-1.2h-1.2v9.2H476.3z"/>
					<path class="st28" d="M489.8,283.5h-2.6v9.4h2.7v1.1h-6.8v-1.1h2.7v-9.4h-2.6v-1.1h6.6V283.5z"/>
					<path class="st28" d="M491.3,282.4h8.1v1.2H496v10.4h-1.4v-10.4h-3.3L491.3,282.4z"/>
					<path class="st28" d="M517.5,291c-0.1,0.4-0.3,0.9-0.5,1.3c-0.2,0.4-0.5,0.8-0.8,1.1c-0.3,0.3-0.7,0.6-1.2,0.7
						c-0.5,0.2-1,0.3-1.5,0.3c-0.7,0-1.4-0.1-2.1-0.5c-0.6-0.3-1.1-0.7-1.5-1.3c-0.4-0.6-0.7-1.2-0.9-1.9c-0.2-0.8-0.3-1.6-0.3-2.4
						c0-0.8,0.1-1.6,0.3-2.4c0.2-0.7,0.6-1.4,1-1.9c0.4-0.5,0.9-1,1.5-1.3c0.6-0.3,1.3-0.5,2-0.5c0.5,0,1,0.1,1.5,0.2
						c0.4,0.1,0.8,0.4,1.1,0.6c0.3,0.3,0.6,0.6,0.8,1c0.2,0.4,0.4,0.8,0.5,1.2l-1.2,0.6c-0.2-0.7-0.5-1.3-1-1.8
						c-0.5-0.4-1.1-0.6-1.7-0.6c-0.5,0-1,0.1-1.4,0.4c-0.4,0.3-0.7,0.6-1,1c-0.3,0.5-0.5,1-0.6,1.5c-0.1,0.6-0.2,1.3-0.2,1.9
						c0,0.6,0,1.3,0.2,1.9c0.1,0.5,0.3,1.1,0.6,1.5c0.2,0.4,0.6,0.8,1,1c0.5,0.3,1,0.4,1.6,0.4c0.4,0,0.7-0.1,1.1-0.2
						c0.3-0.1,0.6-0.3,0.8-0.5c0.2-0.2,0.4-0.5,0.6-0.8c0.2-0.3,0.3-0.7,0.4-1L517.5,291z"/>
					<path class="st28" d="M524.2,290.6h-4.5l-1.2,3.5h-1.4l4.1-11.7h1.5l4.1,11.7h-1.4L524.2,290.6z M520.1,289.5h3.7l-1.5-4.5
						l-0.1-0.4c0-0.1-0.1-0.2-0.1-0.3l0-0.3c0,0.1-0.1,0.2-0.1,0.3c0,0.1-0.1,0.2-0.1,0.3l-0.1,0.4L520.1,289.5z"/>
					<path class="st28" d="M482.3,302.4h7.8v1.2l-6.4,9.2h6.7v1.2h-8.2v-1.2l6.5-9.2h-6.4V302.4z"/>
					<path class="st28" d="M499.8,308.2c0,0.9-0.1,1.7-0.3,2.5c-0.2,0.7-0.5,1.3-0.9,1.9c-0.4,0.5-0.8,0.9-1.4,1.2
						c-1.2,0.6-2.5,0.6-3.7,0c-0.6-0.3-1-0.7-1.4-1.2c-0.4-0.6-0.7-1.2-0.9-1.9c-0.2-0.8-0.3-1.7-0.3-2.5c0-0.9,0.1-1.7,0.3-2.5
						c0.2-0.7,0.5-1.3,0.9-1.9c0.4-0.5,0.8-0.9,1.4-1.2c1.2-0.6,2.5-0.6,3.7,0c0.6,0.3,1,0.7,1.4,1.2c0.4,0.6,0.7,1.2,0.9,1.9
						C499.7,306.5,499.8,307.4,499.8,308.2z M495.3,313c0.5,0,0.9-0.1,1.3-0.3c0.4-0.3,0.7-0.6,0.9-1c0.3-0.5,0.5-1,0.6-1.5
						c0.3-1.3,0.3-2.7,0-4c-0.1-0.5-0.3-1-0.6-1.5c-0.2-0.4-0.5-0.8-0.9-1c-0.4-0.2-0.9-0.4-1.3-0.3c-0.5,0-0.9,0.1-1.3,0.3
						c-0.4,0.2-0.7,0.6-0.9,1c-0.3,0.5-0.5,1-0.6,1.5c-0.3,1.3-0.3,2.7,0,4c0.1,0.5,0.3,1,0.6,1.5c0.2,0.4,0.5,0.8,0.9,1
						C494.4,312.9,494.9,313.1,495.3,313z"/>
					<path class="st28" d="M500.4,302.4h1.4l4.4,8.4l0.2,0.4l0.2,0.3l0.1,0.2v-9.3h1.3V314h-1.4l-4.4-8.4l-0.2-0.4
						c0-0.1-0.1-0.2-0.2-0.3c0-0.1-0.1-0.2-0.1-0.2v9.3h-1.3L500.4,302.4z"/>
					<path class="st28" d="M509.5,302.4h7.1v1.2h-5.7v3.8h5.2v1.2h-5.2v4.2h5.7v1.2h-7.1L509.5,302.4z"/>
					<path class="st28" d="M521.2,306.1h2.3l0.6-3.7h1.3l-0.6,3.7h1.8v1h-2l-0.3,2.2h2v1h-2.1l-0.6,3.7h-1.3l0.6-3.7h-2.3L520,314
						h-1.3l0.6-3.7h-1.8v-1h2l0.3-2.2h-2v-1h2.1l0.6-3.7h1.3L521.2,306.1z M520.7,309.3h2.3l0.3-2.2h-2.3L520.7,309.3z"/>
					<path class="st28" d="M461.2,328.2c0,0.9-0.2,1.8-0.6,2.5c-0.4,0.8-0.9,1.4-1.6,1.9c-0.8,0.6-1.6,1-2.5,1.2
						c-2.2,0.6-4.5,0.6-6.8,0c-0.9-0.2-1.8-0.6-2.5-1.2c-0.7-0.5-1.2-1.1-1.6-1.9c-0.7-1.6-0.7-3.5,0-5.1c0.4-0.8,0.9-1.4,1.6-1.9
						c0.8-0.6,1.6-1,2.5-1.2c2.2-0.5,4.5-0.5,6.8,0c0.9,0.2,1.8,0.6,2.5,1.2c0.7,0.5,1.2,1.1,1.6,1.9
						C461,326.4,461.2,327.3,461.2,328.2z M453.1,333c0.8,0,1.6-0.1,2.4-0.3c0.6-0.2,1.2-0.5,1.7-1c0.4-0.4,0.8-0.9,1-1.5
						c0.5-1.3,0.5-2.7,0-4c-0.2-0.6-0.6-1.1-1-1.5c-0.5-0.5-1.1-0.8-1.7-1c-1.6-0.5-3.2-0.5-4.8,0c-0.6,0.2-1.2,0.5-1.7,1
						c-0.4,0.4-0.8,0.9-1,1.5c-0.5,1.3-0.5,2.7,0,4c0.2,0.6,0.6,1.1,1,1.5c0.5,0.5,1.1,0.8,1.7,1C451.5,332.9,452.3,333,453.1,333z"
						/>
					<path class="st28" d="M468.9,329h-4.1v5h-2.5v-11.6h7.8c1,0,1.9,0.1,2.8,0.2c0.7,0.1,1.4,0.4,2.1,0.7c0.5,0.2,1,0.6,1.3,1
						c0.3,0.4,0.5,0.8,0.5,1.3c-0.1,0.9-0.6,1.7-1.4,2.1c-1.1,0.6-2.4,1-3.7,1.1l5.3,5.1h-2.9L468.9,329z M464.8,327.8h4.7
						c1.2,0.1,2.4-0.1,3.5-0.5c0.7-0.2,1.2-0.8,1.2-1.5c0-0.7-0.5-1.4-1.2-1.6c-1.1-0.4-2.3-0.6-3.5-0.5h-4.7V327.8z"/>
					<path class="st28" d="M493.4,330.9c-0.3,0.5-0.6,0.9-1,1.3c-0.4,0.4-0.9,0.8-1.5,1.1c-0.7,0.3-1.4,0.6-2.1,0.7
						c-0.9,0.2-1.9,0.3-2.8,0.3c-1.3,0-2.5-0.1-3.8-0.5c-1-0.3-1.9-0.7-2.7-1.3c-0.7-0.5-1.2-1.2-1.6-1.9c-0.4-0.8-0.5-1.6-0.5-2.4
						c0-0.8,0.2-1.7,0.6-2.4c0.4-0.8,1-1.4,1.8-1.9c0.8-0.6,1.8-1,2.7-1.3c1.2-0.3,2.4-0.5,3.6-0.5c0.9,0,1.8,0.1,2.7,0.2
						c0.7,0.1,1.4,0.3,2,0.6c0.5,0.2,1,0.6,1.5,1c0.4,0.3,0.7,0.7,1,1.2l-2.2,0.6c-0.4-0.8-1.1-1.4-1.9-1.8c-1-0.4-2.1-0.6-3.1-0.6
						c-0.9,0-1.8,0.1-2.6,0.4c-0.7,0.2-1.3,0.5-1.9,1c-0.5,0.4-0.9,0.9-1.1,1.5c-0.3,0.6-0.4,1.2-0.4,1.9c0,0.6,0.1,1.3,0.3,1.9
						c0.2,0.6,0.5,1.1,1,1.5c0.5,0.5,1.2,0.8,1.9,1c0.9,0.3,1.9,0.4,2.8,0.4c0.7,0,1.3-0.1,2-0.2c0.5-0.1,1-0.3,1.5-0.5
						c0.4-0.2,0.8-0.5,1.1-0.8c0.3-0.3,0.6-0.6,0.8-1L493.4,330.9z"/>
					<path class="st28" d="M494.6,322.4h2.6v5.1h9v-5.1h2.5V334h-2.5v-5.3h-9v5.3h-2.6V322.4z"/>
					<path class="st28" d="M525.8,330.9c-0.3,0.5-0.6,0.9-1,1.3c-0.4,0.4-0.9,0.8-1.5,1.1c-0.7,0.3-1.4,0.6-2.1,0.7
						c-0.9,0.2-1.9,0.3-2.8,0.3c-1.3,0-2.5-0.1-3.8-0.5c-1-0.3-1.9-0.7-2.7-1.3c-0.7-0.5-1.2-1.2-1.6-1.9c-0.4-0.8-0.5-1.6-0.5-2.4
						c0-0.8,0.2-1.7,0.6-2.4c0.4-0.8,1-1.4,1.8-1.9c0.8-0.6,1.8-1,2.7-1.3c1.2-0.3,2.4-0.5,3.6-0.5c0.9,0,1.8,0.1,2.7,0.2
						c0.7,0.1,1.4,0.3,2,0.6c0.5,0.2,1,0.6,1.5,1c0.4,0.3,0.7,0.7,1,1.2l-2.2,0.6c-0.4-0.8-1.1-1.4-1.9-1.8c-1-0.4-2.1-0.6-3.2-0.6
						c-0.9,0-1.8,0.1-2.6,0.4c-0.7,0.2-1.3,0.5-1.9,1c-0.5,0.4-0.9,0.9-1.1,1.5c-0.3,0.6-0.4,1.2-0.4,1.9c0,0.6,0.1,1.3,0.3,1.9
						c0.2,0.6,0.5,1.1,1,1.5c0.5,0.5,1.2,0.8,1.9,1c0.9,0.3,1.9,0.4,2.8,0.4c0.7,0,1.3-0.1,2-0.2c0.5-0.1,1-0.3,1.5-0.5
						c0.4-0.2,0.8-0.5,1.1-0.8c0.3-0.3,0.6-0.6,0.8-1L525.8,330.9z"/>
					<path class="st28" d="M441,370.5h-8.1l-2.1,3.5h-2.5l7.4-11.6h2.7l7.4,11.6h-2.5L441,370.5z M433.6,369.4h6.7l-2.8-4.5
						l-0.2-0.4c-0.1-0.1-0.1-0.2-0.2-0.3c-0.1-0.1-0.1-0.2-0.2-0.3l-0.2,0.3l-0.2,0.3l-0.2,0.4L433.6,369.4z"/>
					<path class="st28" d="M445.6,362.3h14.3v1.2l-11.7,9.2h12.2v1.2h-15v-1.2l11.8-9.2h-11.5V362.3z"/>
					<path class="st28" d="M492.6,374h-12.9v-1.1h5.2v-8.6c-0.6,0.3-1.3,0.5-1.9,0.6c-0.9,0.1-1.7,0.2-2.6,0.2v-1.2c1,0,2-0.1,3-0.3
						c0.7-0.2,1.3-0.6,1.8-1.1h2.3v10.5h5.2L492.6,374z"/>
					<path class="st28" d="M503.1,368.6c0.5-0.3,1-0.6,1.4-0.9c0.3-0.2,0.6-0.5,0.9-0.8c0.2-0.2,0.4-0.5,0.5-0.8
						c0.1-0.3,0.1-0.5,0.1-0.8c0-0.3-0.1-0.6-0.3-0.9c-0.3-0.3-0.6-0.5-0.9-0.7c-0.4-0.2-0.9-0.4-1.4-0.5c-0.6-0.1-1.2-0.2-1.7-0.2
						c-0.6,0-1.2,0.1-1.7,0.2c-0.5,0.1-0.9,0.3-1.4,0.5c-0.3,0.2-0.7,0.4-0.9,0.7c-0.2,0.3-0.3,0.6-0.3,1c0,0.3,0.1,0.5,0.2,0.8
						l-2.2,0.2c-0.1-0.2-0.2-0.4-0.3-0.5c-0.1-0.2-0.1-0.4-0.1-0.5c0-0.5,0.2-0.9,0.5-1.2c0.4-0.4,0.8-0.8,1.4-1.1
						c0.7-0.3,1.4-0.6,2.1-0.8c0.9-0.2,1.9-0.3,2.8-0.3c0.9,0,1.9,0.1,2.8,0.2c0.7,0.1,1.5,0.4,2.1,0.7c0.5,0.2,1,0.6,1.4,1
						c0.3,0.4,0.5,0.8,0.5,1.3c0,0.3-0.1,0.7-0.2,1c-0.1,0.4-0.4,0.7-0.6,1c-0.4,0.4-0.7,0.7-1.2,1c-0.6,0.4-1.1,0.7-1.7,1l-6.2,3.3
						h9.9v1.3h-13.7v-0.9L503.1,368.6z"/>
					<path class="st28" d="M513.4,370.2c0,0.1-0.1,0.1-0.1,0.2c0,0.1,0,0.2,0,0.3c0,0.3,0.1,0.6,0.3,0.9c0.3,0.3,0.6,0.5,1,0.7
						c0.5,0.2,0.9,0.4,1.4,0.5c0.6,0.1,1.2,0.2,1.8,0.2c1.1,0.1,2.3-0.1,3.3-0.6c0.7-0.3,1.2-1,1.2-1.8c0-0.4-0.2-0.7-0.5-1
						c-0.4-0.3-0.8-0.6-1.2-0.7c-0.6-0.2-1.2-0.4-1.8-0.4c-0.8-0.1-1.5-0.1-2.3-0.1v-1.1c0.8,0,1.6,0,2.3-0.2c0.5-0.1,1-0.2,1.4-0.5
						c0.3-0.2,0.5-0.4,0.7-0.7c0.1-0.2,0.2-0.5,0.2-0.8c0-0.6-0.4-1.1-1-1.3c-0.9-0.4-1.9-0.5-2.8-0.5c-0.5,0-0.9,0-1.4,0.1
						c-0.4,0.1-0.8,0.2-1.2,0.4c-0.3,0.1-0.6,0.3-0.8,0.6c-0.2,0.2-0.3,0.5-0.3,0.8c0,0.2,0,0.4,0.2,0.5l-2.2,0.2
						c-0.1-0.1-0.2-0.3-0.2-0.4c0-0.1,0-0.3,0-0.4c0-0.4,0.2-0.8,0.4-1.1c0.4-0.4,0.8-0.7,1.2-0.9c0.6-0.3,1.2-0.5,1.9-0.6
						c0.8-0.2,1.6-0.2,2.5-0.2c0.9,0,1.8,0.1,2.7,0.2c0.7,0.1,1.4,0.3,2,0.6c0.5,0.2,0.9,0.5,1.2,0.9c0.3,0.3,0.4,0.7,0.4,1.1
						c0,0.3-0.1,0.6-0.2,0.8c-0.1,0.3-0.3,0.6-0.6,0.8c-0.3,0.3-0.6,0.5-1,0.7c-0.5,0.2-1,0.4-1.5,0.4c0.6,0.1,1.2,0.2,1.8,0.4
						c0.5,0.2,1,0.4,1.5,0.6c0.4,0.2,0.7,0.5,1,0.9c0.2,0.3,0.4,0.7,0.3,1.1c0,0.6-0.2,1.1-0.6,1.6c-0.4,0.5-0.9,0.9-1.5,1.1
						c-0.7,0.3-1.5,0.6-2.2,0.7c-0.9,0.2-1.8,0.2-2.8,0.2c-1,0-2-0.1-3-0.3c-0.8-0.2-1.5-0.4-2.2-0.8c-0.5-0.3-1-0.6-1.4-1.1
						c-0.3-0.3-0.5-0.8-0.5-1.2c0-0.2,0-0.3,0.1-0.5c0.1-0.2,0.1-0.3,0.2-0.5L513.4,370.2z"/>
					<path class="st28" d="M192.6,202.5h8.1v1.2h-3.3v10.4h-1.4v-10.4h-3.3V202.5z"/>
					<path class="st28" d="M207.7,210.7h-4.5l-1.2,3.4h-1.4l4.1-11.6h1.5l4.1,11.6h-1.4L207.7,210.7z M203.7,209.5h3.7l-1.5-4.5
						l-0.1-0.4c0-0.1-0.1-0.2-0.1-0.3c0-0.1-0.1-0.2-0.1-0.3c0,0.1-0.1,0.2-0.1,0.3c0,0.1-0.1,0.2-0.1,0.3l-0.1,0.4L203.7,209.5z"/>
					<path class="st28" d="M210.9,202.5h1.4v10.4h5.9v1.2h-7.3V202.5z"/>
					<path class="st28" d="M219.8,202.5h1.4v10.4h5.9v1.2h-7.3L219.8,202.5z"/>
					<path class="st28" d="M231.4,209.5l-3.8-7h1.4l2.6,5c0,0.1,0.1,0.2,0.1,0.3s0.1,0.2,0.1,0.3s0.1,0.2,0.1,0.3
						c0-0.1,0.1-0.2,0.1-0.3c0-0.1,0.1-0.2,0.1-0.3l0.1-0.3l2.6-5h1.4l-3.7,7v4.6h-1.4L231.4,209.5z"/>
					<path class="st28" d="M246,202.5h1.4v5.1h5v-5.1h1.4v11.6h-1.4v-5.3h-5v5.3H246V202.5z"/>
					<path class="st28" d="M261,210.7h-4.5l-1.2,3.4H254l4-11.7h1.5l4.1,11.6h-1.4L261,210.7z M256.9,209.5h3.7L259,205l-0.1-0.4
						c0-0.1-0.1-0.2-0.1-0.3c0-0.1-0.1-0.2-0.1-0.3c0,0.1-0.1,0.2-0.1,0.3c0,0.1-0.1,0.2-0.1,0.3l-0.1,0.4L256.9,209.5z"/>
					<path class="st28" d="M264.1,202.5h1.4v10.4h5.9v1.2h-7.3V202.5z"/>
					<path class="st28" d="M273,202.5h1.4v10.4h5.9v1.2H273V202.5z"/>
					<path class="st28" d="M290.2,202.5h8.1v1.2h-3.3v10.4h-1.4v-10.4h-3.3V202.5z"/>
					<path class="st28" d="M299.2,202.5h1.4v5.1h5v-5.1h1.4v11.6h-1.4v-5.3h-5v5.3h-1.4L299.2,202.5z"/>
					<path class="st28" d="M308.4,202.5h7.1v1.2h-5.7v3.8h5.2v1.2h-5.2v4.2h5.7v1.2h-7.1L308.4,202.5z"/>
					<path class="st28" d="M323.1,210.7h-4.5l-1.2,3.4H316l4.1-11.6h1.5l4.1,11.6h-1.4L323.1,210.7z M319,209.5h3.7l-1.5-4.5
						l-0.1-0.4c0-0.1-0.1-0.2-0.1-0.3s-0.1-0.2-0.1-0.3c0,0.1-0.1,0.2-0.1,0.3c0,0.1-0.1,0.2-0.1,0.3l-0.1,0.4L319,209.5z"/>
					<path class="st28" d="M325.7,202.5h8.1v1.2h-3.3v10.4H329v-10.4h-3.3V202.5z"/>
					<path class="st28" d="M338.4,209.1h-2.2v5.1h-1.4v-11.6h4.3c0.5,0,1.1,0.1,1.5,0.2c0.4,0.1,0.8,0.4,1.2,0.7
						c0.3,0.3,0.6,0.6,0.7,1.1c0.2,0.4,0.3,0.9,0.2,1.3c0,0.8-0.3,1.5-0.8,2.1c-0.5,0.6-1.2,1-2,1.1l2.9,5.1h-1.6L338.4,209.1z
						 M336.1,207.9h2.6c0.7,0,1.3-0.1,1.9-0.5c0.9-0.9,0.9-2.2,0-3.1c0,0,0,0,0,0c-0.6-0.4-1.2-0.6-1.9-0.5h-2.6V207.9z"/>
					<path class="st28" d="M343.9,202.5h7.1v1.2h-5.7v3.8h5.2v1.2h-5.2v4.2h5.7v1.2h-7.1L343.9,202.5z"/>
					<path class="st28" d="M209.9,228.3c0.1,1.6-0.3,3.2-1.1,4.5c-1.4,1.8-4,2.1-5.7,0.7c-0.3-0.2-0.5-0.4-0.7-0.7
						c-1.5-2.8-1.5-6.2,0-9c1.4-1.8,4-2.1,5.7-0.7c0.3,0.2,0.5,0.4,0.7,0.7C209.6,225.1,210,226.7,209.9,228.3z M202.5,228.3
						c0,1,0.1,2,0.5,3l4.2-7.2c-1.1-1-2.7-0.9-3.7,0.2c-0.1,0.1-0.2,0.2-0.3,0.4C202.7,225.8,202.5,227.1,202.5,228.3z M205.5,233.1
						c0.9,0,1.8-0.5,2.2-1.2c0.6-1.1,0.8-2.3,0.8-3.6c0-1-0.1-2-0.5-3l-4.2,7.2C204.3,232.9,204.9,233.1,205.5,233.1L205.5,233.1z"
						/>
					<path class="st28" d="M219.4,222.5h1.4l4.4,8.4l0.2,0.4l0.2,0.3c0,0.1,0.1,0.2,0.1,0.2v-9.3h1.3v11.6h-1.4l-4.4-8.4l-0.2-0.4
						c-0.1-0.1-0.1-0.2-0.2-0.3c0-0.1-0.1-0.2-0.1-0.3v9.3h-1.3L219.4,222.5z"/>
					<path class="st28" d="M245.4,228.3c0.1,1.6-0.3,3.2-1.1,4.5c-1.4,1.8-4,2.1-5.7,0.7c-0.3-0.2-0.5-0.4-0.7-0.7
						c-1.5-2.8-1.5-6.2,0-9c1.4-1.8,3.9-2.1,5.7-0.7c0.3,0.2,0.5,0.4,0.7,0.7C245.1,225.1,245.5,226.7,245.4,228.3z M238,228.3
						c0,1,0.1,2,0.5,3l4.2-7.2c-0.5-0.4-1.1-0.7-1.7-0.7c-0.9,0-1.8,0.4-2.2,1.2C238.2,225.8,237.9,227.1,238,228.3L238,228.3z
						 M241,233.1c0.9,0,1.8-0.4,2.2-1.2c0.6-1.1,0.8-2.3,0.8-3.6c0-1-0.1-2-0.5-3l-4.2,7.2C239.8,232.9,240.4,233.1,241,233.1
						L241,233.1z"/>
					<path class="st28" d="M254.9,222.5h1.4l4.4,8.4c0.1,0.1,0.1,0.3,0.2,0.4s0.1,0.2,0.2,0.3l0.1,0.2v-9.3h1.3v11.6h-1.4l-4.4-8.4
						l-0.2-0.4c0-0.1-0.1-0.2-0.2-0.3c0-0.1-0.1-0.2-0.1-0.3v9.3h-1.3L254.9,222.5z"/>
					<path class="st28" d="M270.7,234.1h-1.6l-1.5-9.6l-1.5,9.6h-1.6l-1.8-11.6h1.4l1.1,8.1c0,0.1,0,0.2,0,0.4s0,0.2,0.1,0.4
						s0,0.3,0.1,0.5c0-0.2,0-0.3,0.1-0.5s0.1-0.3,0.1-0.4l0.1-0.4l1.3-8.1h1.4l1.3,8.1c0,0.1,0,0.2,0.1,0.4c0,0.1,0,0.3,0,0.4
						c0,0.1,0,0.3,0.1,0.5c0-0.2,0-0.3,0.1-0.5c0-0.1,0-0.3,0.1-0.4c0-0.1,0-0.2,0-0.4l1.1-8.1h1.4L270.7,234.1z"/>
					<path class="st28" d="M283,225.3c0,1.1,1,1.9,3.1,2.3c1,0.1,2,0.5,2.7,1.1c0.6,0.6,0.9,1.4,0.9,2.2c0,0.5-0.1,0.9-0.3,1.3
						c-0.2,0.4-0.5,0.8-0.8,1.1c-0.4,0.3-0.8,0.6-1.3,0.7c-0.5,0.2-1.1,0.3-1.6,0.3c-0.6,0-1.2-0.1-1.7-0.3
						c-0.5-0.2-0.9-0.4-1.3-0.8c-0.4-0.3-0.7-0.7-0.9-1.2c-0.2-0.5-0.4-0.9-0.5-1.4l1.2-0.6c0.1,0.4,0.2,0.8,0.4,1.2
						c0.2,0.4,0.4,0.7,0.7,1c0.3,0.3,0.6,0.5,1,0.6c0.4,0.2,0.8,0.2,1.2,0.2c0.7,0,1.4-0.2,1.9-0.6c0.5-0.4,0.7-0.9,0.7-1.5
						c0-0.3,0-0.6-0.2-0.9c-0.1-0.3-0.3-0.5-0.5-0.6c-0.3-0.2-0.6-0.4-0.9-0.5c-0.4-0.1-0.9-0.2-1.3-0.3c-1-0.1-2-0.5-2.7-1.1
						c-0.7-0.6-1-1.4-1-2.3c0-0.4,0.1-0.8,0.3-1.2c0.2-0.4,0.4-0.7,0.8-1c0.4-0.3,0.8-0.5,1.2-0.6c0.5-0.2,1-0.2,1.5-0.2
						c0.9,0,1.8,0.2,2.6,0.7c0.7,0.5,1.2,1.2,1.4,2l-1.1,0.7c-0.2-0.7-0.6-1.3-1.1-1.7c-0.5-0.4-1.2-0.6-1.9-0.6
						c-0.3,0-0.6,0-0.9,0.1c-0.3,0.1-0.5,0.2-0.8,0.4c-0.2,0.2-0.4,0.4-0.5,0.6C283,224.7,283,225,283,225.3z"/>
					<path class="st28" d="M290.2,222.5h8.1v1.2h-3.3v10.4h-1.4v-10.4h-3.3V222.5z"/>
					<path class="st28" d="M302.1,232.1h2v2.1h-2V232.1z"/>
					<path class="st28" d="M317,222.5h1.4l4.4,8.4l0.2,0.4l0.2,0.3c0,0.1,0.1,0.2,0.1,0.2v-9.3h1.3v11.6h-1.4l-4.4-8.4l-0.2-0.4
						c-0.1-0.1-0.1-0.2-0.2-0.3c0-0.1-0.1-0.2-0.1-0.3v9.3H317V222.5z"/>
					<path class="st28" d="M329,229.5l-3.8-7h1.4l2.6,5l0.1,0.3l0.1,0.3c0,0.1,0.1,0.2,0.1,0.3c0-0.1,0.1-0.2,0.1-0.3
						c0-0.1,0.1-0.2,0.1-0.3l0.1-0.3l2.6-5h1.4l-3.7,7v4.6H329V229.5z"/>
					<path class="st28" d="M343,231c-0.1,0.4-0.3,0.9-0.5,1.3c-0.2,0.4-0.5,0.8-0.8,1.1c-0.3,0.3-0.7,0.6-1.1,0.7
						c-0.5,0.2-1,0.3-1.5,0.3c-0.7,0-1.4-0.1-2.1-0.4c-0.6-0.3-1.1-0.7-1.5-1.3c-0.4-0.6-0.7-1.2-0.9-1.9c-0.2-0.8-0.3-1.6-0.3-2.4
						c0-0.8,0.1-1.6,0.3-2.4c0.2-0.7,0.5-1.4,1-1.9c0.4-0.5,0.9-1,1.5-1.3c0.6-0.3,1.3-0.5,2-0.5c0.5,0,1,0.1,1.5,0.2
						c0.4,0.1,0.8,0.3,1.1,0.6c0.3,0.3,0.6,0.6,0.8,0.9c0.2,0.4,0.4,0.8,0.5,1.2l-1.2,0.6c-0.2-0.7-0.5-1.3-1-1.8
						c-0.5-0.4-1.1-0.6-1.7-0.6c-0.5,0-1,0.1-1.4,0.4c-0.4,0.3-0.7,0.6-1,1c-0.3,0.5-0.5,1-0.6,1.5c-0.1,0.6-0.2,1.3-0.2,1.9
						c0,0.6,0,1.3,0.2,1.9c0.1,0.5,0.3,1.1,0.6,1.5c0.2,0.4,0.6,0.8,1,1c0.5,0.3,1,0.4,1.5,0.4c0.7,0,1.4-0.2,1.9-0.8
						c0.2-0.2,0.4-0.5,0.6-0.8c0.2-0.3,0.3-0.7,0.4-1L343,231z"/>
					<path class="st28" d="M101.7,210.7h-4.5l-1.2,3.4h-1.4l4.1-11.6h1.5l4.1,11.6h-1.4L101.7,210.7z M97.6,209.5h3.7l-1.5-4.5
						l-0.1-0.4c0-0.1-0.1-0.2-0.1-0.3c0-0.1-0.1-0.2-0.1-0.3c0,0.1-0.1,0.2-0.1,0.3s-0.1,0.2-0.1,0.3l-0.1,0.4L97.6,209.5z"/>
					<path class="st28" d="M104.5,202.5h3.8c0.5,0,1,0.1,1.5,0.2c0.4,0.1,0.8,0.3,1.1,0.6c0.3,0.2,0.5,0.5,0.7,0.9
						c0.2,0.4,0.2,0.7,0.2,1.1c0,0.6-0.2,1.2-0.5,1.6c-0.4,0.4-0.8,0.8-1.3,1c0.3,0.1,0.6,0.2,0.9,0.4c0.3,0.2,0.5,0.4,0.7,0.6
						c0.2,0.2,0.4,0.5,0.5,0.8c0.1,0.3,0.2,0.7,0.2,1c0,0.5-0.1,0.9-0.3,1.4c-0.2,0.4-0.5,0.8-0.8,1.1c-0.4,0.3-0.8,0.5-1.2,0.7
						c-0.5,0.2-1,0.2-1.5,0.2h-3.8V202.5z M105.9,207.4h2.3c0.6,0,1.1-0.1,1.6-0.4c0.4-0.3,0.7-0.9,0.6-1.4c0.1-0.5-0.2-1.1-0.6-1.4
						c-0.5-0.3-1.1-0.5-1.6-0.4h-2.3V207.4z M105.9,213h2.2c0.7,0,1.4-0.1,2-0.5c0.9-0.9,1-2.3,0.2-3.2c0-0.1-0.1-0.1-0.2-0.2
						c-0.6-0.4-1.3-0.6-2-0.5h-2.2V213z"/>
					<path class="st28" d="M121.6,211.1c-0.1,0.4-0.3,0.9-0.6,1.2c-0.2,0.4-0.5,0.8-0.8,1.1c-0.3,0.3-0.7,0.6-1.1,0.7
						c-0.5,0.2-1,0.3-1.6,0.3c-0.7,0-1.4-0.1-2.1-0.5c-0.6-0.3-1.1-0.7-1.5-1.3c-0.4-0.6-0.7-1.2-0.9-1.9c-0.2-0.8-0.3-1.6-0.3-2.4
						c0-0.8,0.1-1.6,0.3-2.4c0.2-0.7,0.6-1.3,1-1.9c0.4-0.5,0.9-1,1.5-1.3c0.6-0.3,1.3-0.5,2-0.5c0.5,0,1,0.1,1.5,0.2
						c0.4,0.1,0.8,0.4,1.1,0.6c0.3,0.3,0.6,0.6,0.8,0.9c0.2,0.4,0.4,0.8,0.5,1.2l-1.2,0.6c-0.2-0.7-0.5-1.3-1-1.8
						c-0.5-0.4-1.1-0.6-1.7-0.6c-0.5,0-1,0.1-1.4,0.4c-0.4,0.3-0.7,0.6-1,1c-0.3,0.5-0.5,1-0.6,1.5c-0.1,0.6-0.2,1.3-0.2,1.9
						c0,0.6,0.1,1.3,0.2,1.9c0.1,0.5,0.3,1.1,0.6,1.5c0.2,0.4,0.6,0.8,1,1c0.5,0.3,1,0.4,1.6,0.4c0.4,0,0.7-0.1,1.1-0.2
						c0.3-0.1,0.6-0.3,0.8-0.6c0.2-0.2,0.4-0.5,0.6-0.8c0.2-0.3,0.3-0.7,0.4-1L121.6,211.1z"/>
					<path class="st28" d="M122.2,202.5h2.6c0.8,0,1.5,0.1,2.2,0.4c0.6,0.3,1.2,0.7,1.6,1.2c0.5,0.5,0.8,1.2,1,1.8
						c0.4,1.5,0.4,3.1,0,4.7c-0.2,0.7-0.5,1.3-1,1.8c-0.4,0.5-1,0.9-1.6,1.2c-0.7,0.3-1.5,0.5-2.2,0.4h-2.6L122.2,202.5z
						 M124.7,212.9c1.1,0.1,2.1-0.4,2.8-1.2c1.2-2.1,1.2-4.7,0-6.8c-0.7-0.8-1.8-1.3-2.8-1.2h-1.2v9.2L124.7,212.9z"/>
					<path class="st28" d="M131.4,202.5h7.1v1.2h-5.7v3.8h5.2v1.2h-5.2v4.2h5.7v1.2h-7.1V202.5z"/>
					<path class="st28" d="M146.9,212.2c-0.2,0.6-0.6,1.1-1.1,1.5c-0.5,0.4-1.2,0.6-1.9,0.6c-0.7,0-1.4-0.1-2-0.5
						c-0.6-0.3-1-0.7-1.4-1.3c-0.4-0.6-0.7-1.2-0.9-1.9c-0.2-0.8-0.3-1.6-0.3-2.4c0-0.8,0.1-1.6,0.3-2.4c0.2-0.7,0.5-1.3,0.9-1.9
						c0.4-0.5,0.9-1,1.5-1.3c0.6-0.3,1.3-0.5,2-0.5c0.9,0,1.8,0.2,2.6,0.8c0.6,0.6,1.1,1.3,1.4,2.1l-1.1,0.6c-0.1-0.7-0.5-1.3-1-1.7
						c-0.5-0.4-1.2-0.6-1.8-0.6c-0.5,0-1,0.1-1.4,0.4c-0.4,0.3-0.7,0.6-1,1c-0.3,0.5-0.5,1-0.6,1.5c-0.3,1.3-0.3,2.6,0,3.9
						c0.1,0.5,0.3,1.1,0.6,1.5c0.2,0.4,0.6,0.8,1,1c0.4,0.2,0.9,0.4,1.4,0.4c0.4,0,0.8-0.1,1.2-0.3c0.3-0.2,0.6-0.5,0.8-0.9
						c0.2-0.4,0.4-0.8,0.5-1.2c0.1-0.4,0.2-0.9,0.2-1.3h-3.2v-1.2h4.5v5.8h-1L146.9,212.2z"/>
					<path class="st28" d="M103.8,228.3c0.1,1.6-0.3,3.2-1.2,4.5c-1.4,1.8-4,2.1-5.7,0.7c-0.3-0.2-0.5-0.4-0.7-0.7
						c-1.5-2.8-1.5-6.2,0-9c1.4-1.8,3.9-2.1,5.7-0.7c0.3,0.2,0.5,0.4,0.7,0.7C103.5,225.1,103.9,226.7,103.8,228.3z M96.5,228.3
						c0,1,0.1,2,0.5,3l4.2-7.2c-0.5-0.4-1.1-0.7-1.7-0.7c-0.9,0-1.8,0.4-2.2,1.2C96.7,225.8,96.4,227.1,96.5,228.3z M99.5,233.1
						c0.9,0,1.8-0.4,2.2-1.2c0.6-1.1,0.8-2.3,0.8-3.6c0-1-0.1-2-0.5-3l-4.2,7.2C98.2,232.9,98.8,233.1,99.5,233.1L99.5,233.1z"/>
					<path class="st28" d="M112.2,234.1h-7.1V233h2.8v-8.6c-0.3,0.3-0.7,0.5-1.1,0.6c-0.5,0.1-1,0.2-1.4,0.2v-1.2
						c0.6,0,1.1-0.1,1.7-0.3c0.4-0.3,0.8-0.7,1-1.1h1.3V233h2.8L112.2,234.1z"/>
					<path class="st28" d="M118,228.8c0.3-0.3,0.5-0.6,0.8-0.9c0.2-0.2,0.4-0.5,0.5-0.8c0.1-0.2,0.2-0.5,0.2-0.8
						c0-0.3,0.1-0.5,0.1-0.8c0-0.3-0.1-0.6-0.2-0.9c-0.1-0.3-0.3-0.5-0.5-0.7c-0.2-0.2-0.5-0.4-0.8-0.4c-0.3-0.1-0.7-0.2-1-0.2
						c-0.3,0-0.7,0-1,0.2c-0.6,0.2-1,0.6-1.2,1.2c-0.1,0.3-0.2,0.7-0.2,1c0,0.3,0,0.5,0.1,0.8l-1.2,0.2c-0.1-0.2-0.1-0.4-0.2-0.6
						c0-0.2,0-0.4,0-0.6c0-0.9,0.4-1.7,1-2.3c0.3-0.3,0.7-0.6,1.2-0.8c0.5-0.2,1-0.3,1.6-0.3c0.5,0,1,0.1,1.5,0.2
						c0.4,0.1,0.8,0.4,1.2,0.7c0.3,0.3,0.6,0.6,0.8,1.1c0.2,0.4,0.3,0.9,0.3,1.3c0,0.3,0,0.7-0.1,1c-0.1,0.3-0.2,0.7-0.4,1
						c-0.2,0.4-0.4,0.7-0.6,1c-0.3,0.4-0.6,0.7-0.9,1l-3.4,3.3h5.5v1.2h-7.5v-0.9L118,228.8z"/>
					<path class="st28" d="M123.7,230.4c0,0.1,0,0.2,0,0.2c0,0.1,0,0.2,0,0.3c0,0.3,0.1,0.6,0.2,0.9c0.1,0.3,0.3,0.5,0.5,0.7
						c0.2,0.2,0.5,0.3,0.8,0.4c0.3,0.1,0.7,0.2,1,0.2c0.7,0,1.3-0.2,1.8-0.6c0.5-0.5,0.7-1.1,0.7-1.8c0-0.3-0.1-0.7-0.2-1
						c-0.2-0.3-0.4-0.5-0.7-0.7c-0.3-0.2-0.6-0.4-1-0.4c-0.4-0.1-0.8-0.1-1.3-0.1v-1.2c0.4,0,0.9,0,1.3-0.2c0.3-0.1,0.6-0.3,0.8-0.5
						c0.2-0.2,0.3-0.4,0.4-0.7c0.1-0.2,0.1-0.5,0.1-0.8c0-0.5-0.2-1-0.6-1.3c-0.4-0.3-1-0.5-1.6-0.5c-0.3,0-0.5,0-0.8,0.1
						c-0.2,0.1-0.5,0.2-0.7,0.4c-0.2,0.2-0.3,0.4-0.4,0.6c-0.1,0.2-0.2,0.5-0.2,0.8c0,0.2,0,0.3,0.1,0.5l-1.2,0.2
						c0-0.1-0.1-0.3-0.1-0.4c0-0.1,0-0.3,0-0.4c0-0.4,0.1-0.8,0.2-1.1c0.2-0.4,0.4-0.7,0.7-0.9c0.3-0.3,0.6-0.5,1-0.6
						c0.4-0.2,0.9-0.2,1.4-0.2c0.5,0,1,0.1,1.5,0.2c0.4,0.1,0.8,0.3,1.1,0.6c0.3,0.2,0.5,0.5,0.7,0.9c0.2,0.3,0.2,0.7,0.2,1.1
						c0,0.3,0,0.6-0.1,0.8c-0.1,0.3-0.2,0.5-0.3,0.8c-0.1,0.3-0.3,0.5-0.6,0.7c-0.3,0.2-0.5,0.4-0.8,0.4c0.4,0.1,0.7,0.2,1,0.4
						c0.3,0.2,0.6,0.4,0.8,0.6c0.2,0.3,0.4,0.5,0.5,0.9c0.1,0.3,0.2,0.7,0.2,1.1c0,0.5-0.1,1.1-0.3,1.6c-0.2,0.4-0.5,0.8-0.8,1.1
						c-0.4,0.3-0.8,0.6-1.2,0.7c-0.5,0.2-1,0.2-1.5,0.2c-0.6,0-1.1-0.1-1.7-0.3c-0.5-0.2-0.9-0.4-1.2-0.8c-0.3-0.3-0.6-0.7-0.8-1.1
						c-0.2-0.4-0.3-0.8-0.3-1.2c0-0.2,0-0.3,0-0.5c0-0.2,0.1-0.3,0.1-0.5L123.7,230.4z"/>
					<path class="st28" d="M130.9,230.6l5.2-8.1h1.4v8.1h1.3v1.2h-1.3v2.3h-1.4v-2.3h-5.2V230.6z M132.3,230.6h3.7v-5.9L132.3,230.6
						z"/>
					<path class="st28" d="M101.7,250.7h-4.5l-1.2,3.4h-1.4l4.1-11.6h1.5l4.1,11.6h-1.4L101.7,250.7z M97.6,249.5h3.7l-1.5-4.5
						l-0.1-0.4c0-0.1-0.1-0.2-0.1-0.3c0-0.1-0.1-0.2-0.1-0.3c0,0.1-0.1,0.2-0.1,0.3s-0.1,0.2-0.1,0.3l-0.1,0.4L97.6,249.5z"/>
					<path class="st28" d="M104.5,242.5h3.8c0.5,0,1,0.1,1.5,0.2c0.4,0.1,0.8,0.3,1.1,0.6c0.3,0.2,0.5,0.5,0.7,0.9
						c0.2,0.4,0.2,0.7,0.2,1.1c0,0.6-0.2,1.1-0.5,1.6c-0.4,0.4-0.8,0.8-1.3,1c0.3,0.1,0.6,0.2,0.9,0.4c0.3,0.2,0.5,0.4,0.7,0.6
						c0.2,0.2,0.4,0.5,0.5,0.8c0.3,0.8,0.2,1.7-0.1,2.4c-0.2,0.4-0.5,0.8-0.8,1.1c-0.4,0.3-0.8,0.5-1.2,0.7c-0.5,0.2-1,0.2-1.5,0.2
						h-3.8L104.5,242.5z M105.9,247.4h2.3c0.6,0,1.1-0.1,1.6-0.4c0.8-0.8,0.8-2,0-2.8c0,0,0,0,0,0c-0.5-0.3-1.1-0.5-1.6-0.4h-2.3
						V247.4z M105.9,252.9h2.2c0.7,0,1.4-0.1,2-0.5c0.5-0.4,0.8-1,0.7-1.7c0.1-0.7-0.2-1.3-0.8-1.7c-0.6-0.4-1.3-0.6-2-0.5h-2.2
						L105.9,252.9z"/>
					<path class="st28" d="M121.6,251c-0.1,0.4-0.3,0.9-0.6,1.3c-0.2,0.4-0.5,0.8-0.8,1.1c-0.3,0.3-0.7,0.6-1.1,0.7
						c-0.5,0.2-1,0.3-1.6,0.3c-0.7,0-1.4-0.1-2.1-0.5c-0.6-0.3-1.1-0.7-1.5-1.3c-0.4-0.6-0.7-1.2-0.9-1.9c-0.2-0.8-0.3-1.6-0.3-2.4
						c0-0.8,0.1-1.6,0.3-2.4c0.2-0.7,0.5-1.3,1-1.9c0.4-0.5,0.9-1,1.5-1.3c0.6-0.3,1.3-0.5,2-0.5c0.5,0,1,0.1,1.5,0.2
						c0.4,0.1,0.8,0.3,1.1,0.6c0.3,0.3,0.6,0.6,0.8,1c0.2,0.4,0.4,0.8,0.5,1.2l-1.2,0.6c-0.2-0.7-0.5-1.3-1-1.8
						c-0.5-0.4-1.1-0.6-1.7-0.6c-0.5,0-1,0.1-1.4,0.4c-0.4,0.3-0.7,0.6-1,1c-0.3,0.5-0.5,1-0.6,1.5c-0.1,0.6-0.2,1.3-0.2,1.9
						c0,0.6,0.1,1.3,0.2,1.9c0.1,0.5,0.3,1.1,0.6,1.5c0.2,0.4,0.6,0.8,1,1c0.5,0.3,1,0.4,1.6,0.4c0.4,0,0.7-0.1,1.1-0.2
						c0.3-0.1,0.6-0.3,0.8-0.6c0.2-0.2,0.4-0.5,0.6-0.8c0.2-0.3,0.3-0.7,0.4-1L121.6,251z"/>
					<path class="st28" d="M122.2,242.5h2.6c0.8,0,1.5,0.1,2.2,0.4c0.6,0.3,1.2,0.7,1.6,1.2c0.5,0.5,0.8,1.2,1,1.8
						c0.4,1.5,0.4,3.1,0,4.7c-0.2,0.7-0.5,1.3-1,1.8c-0.4,0.5-1,0.9-1.6,1.2c-0.7,0.3-1.5,0.5-2.2,0.4h-2.6L122.2,242.5z
						 M124.7,252.9c1.1,0.1,2.1-0.4,2.8-1.2c1.2-2.1,1.2-4.7,0-6.8c-0.7-0.8-1.8-1.3-2.8-1.2h-1.2v9.2L124.7,252.9z"/>
					<path class="st28" d="M131.4,242.5h7.1v1.2h-5.7v3.8h5.2v1.2h-5.2v4.2h5.7v1.2h-7.1V242.5z"/>
					<path class="st28" d="M146.9,252.2c-0.2,0.6-0.6,1.1-1.1,1.5c-0.5,0.4-1.2,0.6-1.9,0.6c-0.7,0-1.4-0.1-2-0.5
						c-0.6-0.3-1.1-0.7-1.4-1.3c-0.4-0.6-0.7-1.2-0.9-1.9c-0.2-0.8-0.3-1.6-0.3-2.4c0-0.8,0.1-1.6,0.3-2.4c0.2-0.7,0.5-1.3,0.9-1.9
						c0.4-0.5,0.9-1,1.5-1.3c0.6-0.3,1.3-0.5,2-0.5c0.9,0,1.8,0.2,2.6,0.8c0.6,0.6,1.1,1.3,1.4,2.1l-1.1,0.6c-0.1-0.7-0.5-1.3-1-1.7
						c-0.5-0.4-1.2-0.6-1.8-0.6c-0.5,0-1,0.1-1.4,0.4c-0.4,0.3-0.7,0.6-1,1c-0.3,0.5-0.5,1-0.6,1.5c-0.1,0.6-0.2,1.3-0.2,1.9
						c0,0.7,0.1,1.3,0.2,2c0.1,0.5,0.3,1.1,0.6,1.5c0.3,0.4,0.6,0.7,1,1c0.4,0.2,0.9,0.4,1.4,0.4c0.4,0,0.8-0.1,1.2-0.3
						c0.3-0.2,0.6-0.5,0.8-0.9c0.2-0.4,0.4-0.8,0.5-1.2c0.1-0.4,0.2-0.9,0.2-1.3h-3.2v-1.2h4.5v5.8h-1L146.9,252.2z"/>
					<path class="st28" d="M98.8,274.2c-0.5-0.1-1-0.2-1.4-0.4c-0.4-0.2-0.8-0.5-1.1-0.8c-0.3-0.3-0.6-0.7-0.7-1.1
						c-0.2-0.4-0.4-0.8-0.5-1.3l1.2-0.7c0.1,0.7,0.4,1.4,0.8,2c0.4,0.5,1,0.9,1.6,1v-4.5c-0.9-0.2-1.7-0.6-2.3-1.2
						c-0.6-0.6-0.9-1.3-0.8-2.1c0-0.4,0.1-0.8,0.2-1.1c0.2-0.3,0.4-0.6,0.7-0.9c0.3-0.3,0.6-0.5,1-0.6c0.4-0.2,0.8-0.3,1.3-0.4v-1.5
						h1.3v1.5c0.8,0.1,1.5,0.4,2.1,0.9c0.6,0.5,1,1.1,1.2,1.8l-1.1,0.7c-0.2-0.6-0.4-1.1-0.8-1.5c-0.4-0.4-0.8-0.6-1.4-0.7v4.1
						c1,0.1,1.9,0.5,2.7,1.1c0.6,0.6,0.9,1.4,0.8,2.2c0,0.4-0.1,0.8-0.3,1.2c-0.2,0.4-0.4,0.7-0.7,1c-0.3,0.3-0.7,0.6-1.1,0.8
						c-0.5,0.2-0.9,0.3-1.4,0.4v1.5h-1.3V274.2z M97,265.2c0,0.9,0.6,1.6,1.8,2v-3.8c-0.5,0.1-0.9,0.3-1.3,0.6
						C97.2,264.3,97,264.8,97,265.2L97,265.2z M102.3,271c0-0.5-0.1-1-0.5-1.4c-0.5-0.4-1-0.7-1.6-0.8v4.3c0.6-0.1,1.1-0.3,1.6-0.7
						C102.1,272,102.3,271.5,102.3,271z"/>
					<path class="st28" d="M104.3,270.5l5.2-8.1h1.4v8.1h1.3v1.2h-1.3v2.3h-1.4v-2.3h-5.2V270.5z M105.7,270.5h3.7v-6L105.7,270.5z"
						/>
					<path class="st28" d="M115.1,271.1c0,0.1-0.1,0.2-0.1,0.3c0,0.1,0,0.2,0,0.4c0,0.4,0.2,0.8,0.5,1c0.4,0.3,0.9,0.4,1.4,0.4
						c0.9,0,1.8-0.5,2.2-1.3c0.6-1.1,0.9-2.4,0.9-3.7c-0.3,0.6-0.7,1-1.2,1.4c-0.5,0.4-1.2,0.5-1.8,0.5c-0.5,0-1-0.1-1.5-0.3
						c-0.5-0.2-0.9-0.5-1.2-0.8c-0.3-0.3-0.6-0.8-0.8-1.2c-0.2-0.5-0.3-1-0.3-1.6c0-0.5,0.1-1,0.3-1.5c0.2-0.5,0.5-0.9,0.8-1.3
						c0.4-0.4,0.8-0.7,1.3-0.9c0.5-0.2,1.1-0.3,1.6-0.3c1.2-0.1,2.4,0.5,3.1,1.4c0.8,1.2,1.2,2.6,1.1,4c0,0.7-0.1,1.4-0.2,2.1
						c-0.1,0.6-0.3,1.2-0.5,1.8c-0.3,0.8-0.8,1.6-1.5,2.1c-0.6,0.5-1.4,0.7-2.2,0.7c-0.5,0-0.9-0.1-1.4-0.2
						c-0.4-0.1-0.7-0.3-1.1-0.5c-0.3-0.2-0.5-0.5-0.7-0.9c-0.2-0.3-0.3-0.7-0.2-1.1c0-0.2,0-0.3,0-0.5c0-0.2,0.1-0.3,0.1-0.4
						L115.1,271.1z M117.1,268.8c0.3,0,0.7-0.1,1-0.2c0.3-0.1,0.6-0.3,0.8-0.5c0.2-0.2,0.4-0.5,0.6-0.9c0.3-0.7,0.3-1.5,0-2.3
						c-0.1-0.3-0.3-0.6-0.6-0.9c-0.2-0.2-0.5-0.4-0.8-0.5c-0.6-0.3-1.4-0.3-2,0c-0.3,0.1-0.6,0.3-0.8,0.5c-0.2,0.2-0.4,0.5-0.6,0.9
						c-0.3,0.7-0.3,1.5,0,2.3c0.2,0.6,0.7,1.1,1.4,1.4C116.4,268.8,116.8,268.8,117.1,268.8z"/>
					<path class="st28" d="M125.1,272h2v2.1h-2V272z"/>
					<path class="st28" d="M139.3,268.3c0.1,1.6-0.3,3.2-1.1,4.5c-1.4,1.8-4,2.1-5.7,0.7c-0.3-0.2-0.5-0.4-0.7-0.7
						c-1.5-2.8-1.5-6.2,0-9c1.4-1.8,4-2.1,5.7-0.7c0.3,0.2,0.5,0.4,0.7,0.7C139,265.1,139.4,266.7,139.3,268.3z M132,268.3
						c0,1,0.1,2,0.5,3l4.2-7.2c-0.5-0.4-1.1-0.7-1.7-0.7c-0.9,0-1.8,0.5-2.2,1.2C132.2,265.8,131.9,267,132,268.3L132,268.3z
						 M135,273.1c0.9,0,1.8-0.5,2.2-1.2c0.6-1.1,0.8-2.3,0.8-3.6c0-1-0.1-2-0.5-3l-4.2,7.2C133.7,272.9,134.3,273.1,135,273.1
						L135,273.1z"/>
					<path class="st28" d="M148.2,268.3c0.1,1.6-0.3,3.2-1.1,4.5c-1.4,1.8-4,2.1-5.7,0.7c-0.3-0.2-0.5-0.4-0.7-0.7
						c-1.5-2.8-1.5-6.2,0-9c1.4-1.8,4-2.1,5.7-0.7c0.3,0.2,0.5,0.4,0.7,0.7C147.9,265.1,148.3,266.7,148.2,268.3z M140.8,268.3
						c0,1,0.1,2,0.5,3l4.2-7.2c-1-1-2.7-0.9-3.6,0.2c-0.1,0.1-0.2,0.3-0.3,0.4C141,265.8,140.8,267,140.8,268.3L140.8,268.3z
						 M143.8,273.1c0.9,0,1.8-0.5,2.2-1.2c0.6-1.1,0.8-2.3,0.8-3.6c0-1-0.1-2-0.5-3l-4.2,7.2C142.6,272.9,143.2,273.1,143.8,273.1
						L143.8,273.1z"/>
					<path class="st28" d="M101.7,290.6h-4.5l-1.2,3.5h-1.4l4.1-11.7h1.5l4.1,11.7h-1.4L101.7,290.6z M97.6,289.5h3.7l-1.5-4.5
						l-0.1-0.4c0-0.1-0.1-0.2-0.1-0.3c0-0.1-0.1-0.2-0.1-0.3c0,0.1-0.1,0.2-0.1,0.3s-0.1,0.2-0.1,0.3l-0.1,0.4L97.6,289.5z"/>
					<path class="st28" d="M104.2,282.4h7.8v1.2l-6.4,9.2h6.7v1.2h-8.2v-1.2l6.4-9.2h-6.3L104.2,282.4z"/>
					<path class="st28" d="M103.8,308.2c0.1,1.6-0.3,3.2-1.2,4.5c-1.4,1.8-3.9,2.1-5.7,0.7c-0.3-0.2-0.5-0.4-0.7-0.7
						c-1.5-2.8-1.5-6.2,0-9c1.4-1.8,4-2.1,5.7-0.7c0.3,0.2,0.5,0.4,0.7,0.7C103.5,305.1,103.9,306.6,103.8,308.2z M96.5,308.2
						c0,1,0.1,2,0.5,3l4.2-7.2c-0.5-0.4-1.1-0.7-1.7-0.7c-0.9,0-1.8,0.5-2.2,1.2C96.7,305.7,96.4,307,96.5,308.2z M99.5,313
						c0.9,0,1.8-0.5,2.2-1.2c0.6-1.1,0.8-2.3,0.8-3.6c0-1-0.1-2-0.5-3l-4.2,7.2C98.2,312.8,98.8,313.1,99.5,313L99.5,313z"/>
					<path class="st28" d="M112.2,314h-7.1v-1.1h2.8v-8.6c-0.3,0.3-0.7,0.5-1.1,0.6c-0.5,0.1-1,0.2-1.4,0.2v-1.2
						c0.6,0,1.1-0.1,1.7-0.3c0.4-0.3,0.8-0.7,1-1.1h1.3v10.5h2.8L112.2,314z"/>
					<path class="st28" d="M118,308.7c0.3-0.3,0.5-0.6,0.8-0.9c0.2-0.2,0.4-0.5,0.5-0.8c0.1-0.2,0.2-0.5,0.2-0.7
						c0-0.3,0.1-0.5,0.1-0.8c0-0.3-0.1-0.6-0.2-0.9c-0.1-0.3-0.3-0.5-0.5-0.7c-0.2-0.2-0.5-0.4-0.8-0.5c-0.3-0.1-0.7-0.2-1-0.2
						c-0.3,0-0.7,0-1,0.2c-0.3,0.1-0.5,0.3-0.8,0.5c-0.2,0.2-0.4,0.5-0.5,0.8c-0.1,0.3-0.2,0.7-0.2,1c0,0.3,0,0.5,0.1,0.7l-1.2,0.2
						c-0.1-0.2-0.1-0.4-0.2-0.5c-0.1-0.6,0-1.2,0.2-1.8c0.2-0.4,0.4-0.8,0.7-1.1c0.3-0.3,0.7-0.6,1.2-0.8c0.5-0.2,1-0.3,1.6-0.3
						c0.5,0,1,0.1,1.5,0.2c0.4,0.1,0.8,0.4,1.2,0.7c0.3,0.3,0.6,0.6,0.8,1c0.2,0.4,0.3,0.9,0.3,1.3c0,0.3,0,0.7-0.1,1
						c-0.1,0.3-0.2,0.7-0.4,1c-0.2,0.4-0.4,0.7-0.6,1c-0.3,0.4-0.6,0.7-0.9,1l-3.4,3.3h5.6v1.2h-7.5v-0.9L118,308.7z"/>
					<path class="st28" d="M123.7,310.3c0,0.1,0,0.1,0,0.2c0,0.1,0,0.2,0,0.4c0,0.3,0.1,0.6,0.2,0.9c0.1,0.3,0.3,0.5,0.5,0.7
						c0.2,0.2,0.5,0.4,0.8,0.5c0.3,0.1,0.7,0.2,1,0.2c0.7,0,1.3-0.2,1.8-0.6c0.5-0.5,0.7-1.1,0.7-1.8c0-0.3-0.1-0.7-0.2-1
						c-0.2-0.3-0.4-0.5-0.7-0.7c-0.3-0.2-0.6-0.3-1-0.4c-0.4-0.1-0.8-0.1-1.3-0.1v-1.1c0.4,0,0.9,0,1.3-0.2c0.3-0.1,0.6-0.3,0.8-0.5
						c0.2-0.2,0.3-0.4,0.4-0.7c0.1-0.2,0.1-0.5,0.1-0.8c0-0.5-0.2-1-0.6-1.3c-0.4-0.3-1-0.5-1.6-0.5c-0.3,0-0.5,0-0.8,0.1
						c-0.2,0.1-0.5,0.2-0.7,0.4c-0.2,0.2-0.3,0.4-0.4,0.6c-0.1,0.2-0.2,0.5-0.2,0.8c0,0.2,0,0.3,0.1,0.5l-1.2,0.2
						c0-0.1-0.1-0.3-0.1-0.4c0-0.1,0-0.3,0-0.4c0-0.4,0.1-0.8,0.2-1.1c0.2-0.4,0.4-0.7,0.7-0.9c0.3-0.3,0.6-0.5,1-0.6
						c0.4-0.2,0.9-0.2,1.4-0.2c0.5,0,1,0.1,1.5,0.2c0.4,0.1,0.8,0.3,1.1,0.6c0.6,0.5,0.9,1.2,0.9,2c0,0.6-0.1,1.1-0.4,1.6
						c-0.1,0.3-0.3,0.5-0.6,0.7c-0.2,0.2-0.5,0.4-0.8,0.4c0.3,0.1,0.7,0.2,1,0.4c0.3,0.2,0.6,0.4,0.8,0.6c0.2,0.3,0.4,0.5,0.5,0.9
						c0.1,0.3,0.2,0.7,0.2,1.1c0,0.5-0.1,1.1-0.3,1.6c-0.2,0.4-0.5,0.8-0.8,1.1c-0.4,0.3-0.8,0.6-1.2,0.7c-0.5,0.2-1,0.2-1.5,0.2
						c-0.6,0-1.1-0.1-1.7-0.3c-0.5-0.2-0.9-0.4-1.2-0.8c-0.3-0.3-0.6-0.7-0.8-1.1c-0.2-0.4-0.3-0.8-0.3-1.2c0-0.2,0-0.3,0-0.5
						c0-0.2,0.1-0.3,0.1-0.5L123.7,310.3z"/>
					<path class="st28" d="M130.9,310.5l5.2-8.1h1.4v8.1h1.3v1.2h-1.3v2.3h-1.4v-2.3h-5.2V310.5z M132.3,310.5h3.7v-5.9L132.3,310.5
						z"/>
					<path class="st28" d="M140.4,302.4h6.6v1.2h-5.5l-0.3,3.8c0.3-0.4,0.7-0.8,1.2-1c0.5-0.2,0.9-0.3,1.4-0.3
						c0.6,0,1.1,0.1,1.6,0.3c0.5,0.2,0.9,0.5,1.2,0.8c0.3,0.4,0.6,0.8,0.8,1.3c0.2,0.5,0.3,1.1,0.3,1.6c0,0.6-0.1,1.1-0.3,1.7
						c-0.2,0.5-0.5,0.9-0.8,1.3c-0.4,0.4-0.8,0.7-1.3,0.9c-0.5,0.2-1.1,0.3-1.7,0.3c-0.5,0-1.1-0.1-1.6-0.3
						c-0.5-0.2-0.9-0.4-1.2-0.7c-0.3-0.3-0.6-0.6-0.8-1c-0.2-0.4-0.3-0.8-0.3-1.2c0-0.1,0-0.3,0-0.5c0-0.1,0.1-0.3,0.1-0.4l1.2,0.3
						c0,0.1,0,0.1,0,0.2c0,0.1,0,0.2,0,0.3c0,0.3,0.1,0.6,0.2,0.9c0.1,0.3,0.3,0.5,0.6,0.6c0.2,0.2,0.5,0.3,0.8,0.4
						c0.3,0.1,0.7,0.1,1,0.1c0.7,0,1.4-0.2,1.9-0.8c0.5-0.6,0.8-1.4,0.7-2.1c0-0.4-0.1-0.8-0.2-1.2c-0.1-0.3-0.3-0.7-0.6-0.9
						c-0.2-0.2-0.5-0.4-0.9-0.6c-0.3-0.1-0.7-0.2-1.1-0.2c-0.6,0-1.1,0.2-1.6,0.5c-0.4,0.3-0.8,0.7-1,1.2l-1.1-0.3L140.4,302.4z"/>
					<path class="st28" d="M103.9,328.2c0,0.9-0.1,1.7-0.3,2.5c-0.2,0.7-0.5,1.3-0.9,1.9c-0.4,0.5-0.8,0.9-1.4,1.2
						c-1.2,0.6-2.5,0.6-3.7,0c-0.6-0.3-1-0.7-1.4-1.2c-0.4-0.6-0.7-1.2-0.9-1.9c-0.4-1.7-0.4-3.4,0-5.1c0.2-0.7,0.5-1.3,0.9-1.9
						c0.4-0.5,0.8-0.9,1.4-1.2c1.2-0.5,2.5-0.5,3.7,0c0.6,0.3,1,0.7,1.4,1.2c0.4,0.6,0.7,1.2,0.9,1.9
						C103.8,326.5,103.9,327.3,103.9,328.2z M99.4,333c0.5,0,0.9-0.1,1.3-0.3c0.4-0.3,0.7-0.6,0.9-1c0.3-0.5,0.5-1,0.6-1.5
						c0.3-1.3,0.3-2.7,0-4c-0.1-0.5-0.3-1-0.6-1.5c-0.2-0.4-0.5-0.8-0.9-1c-0.8-0.5-1.8-0.5-2.6,0c-0.4,0.2-0.7,0.6-0.9,1
						c-0.3,0.5-0.5,1-0.6,1.5c-0.3,1.3-0.3,2.7,0,4c0.1,0.5,0.3,1,0.6,1.5c0.2,0.4,0.6,0.7,0.9,1C98.5,332.9,99,333,99.4,333z"/>
					<path class="st28" d="M108.1,329h-2.2v5h-1.4v-11.6h4.2c0.5,0,1.1,0.1,1.6,0.2c0.4,0.2,0.8,0.4,1.2,0.7c0.3,0.3,0.6,0.7,0.7,1
						c0.2,0.4,0.3,0.9,0.2,1.3c0,0.8-0.3,1.5-0.8,2.1c-0.5,0.6-1.2,1-2,1.1l2.9,5.1h-1.6L108.1,329z M105.8,327.8h2.6
						c0.7,0,1.3-0.1,1.9-0.5c0.5-0.4,0.7-1,0.7-1.5c0-0.6-0.2-1.2-0.7-1.6c-0.6-0.4-1.2-0.6-1.9-0.5h-2.6V327.8z"/>
					<path class="st28" d="M121.6,330.9c-0.1,0.4-0.3,0.9-0.6,1.3c-0.2,0.4-0.5,0.8-0.8,1.1c-0.3,0.3-0.7,0.6-1.1,0.7
						c-0.5,0.2-1,0.3-1.6,0.3c-0.7,0-1.4-0.1-2.1-0.5c-0.6-0.3-1.1-0.7-1.5-1.3c-0.4-0.6-0.7-1.2-0.9-1.9c-0.2-0.8-0.3-1.6-0.3-2.4
						c0-0.8,0.1-1.6,0.3-2.4c0.2-0.7,0.6-1.3,1-1.9c0.4-0.5,0.9-1,1.5-1.3c0.6-0.3,1.3-0.5,2-0.5c0.5,0,1,0.1,1.5,0.2
						c0.4,0.1,0.8,0.4,1.1,0.6c0.3,0.3,0.6,0.6,0.8,1c0.2,0.4,0.4,0.8,0.5,1.2l-1.2,0.6c-0.2-0.7-0.5-1.3-1-1.8
						c-0.5-0.4-1.1-0.6-1.7-0.6c-0.5,0-1,0.1-1.4,0.4c-0.4,0.2-0.8,0.6-1,1c-0.3,0.5-0.5,1-0.6,1.5c-0.1,0.6-0.2,1.3-0.2,1.9
						c0,0.6,0.1,1.3,0.2,1.9c0.1,0.5,0.3,1.1,0.6,1.5c0.2,0.4,0.6,0.8,1,1c0.5,0.3,1,0.4,1.6,0.4c0.7,0,1.4-0.2,1.9-0.8
						c0.2-0.2,0.4-0.5,0.6-0.8c0.2-0.3,0.3-0.7,0.4-1L121.6,330.9z"/>
					<path class="st28" d="M122.2,322.4h1.4v5.1h5v-5.1h1.4V334h-1.4v-5.3h-5v5.3h-1.4L122.2,322.4z"/>
					<path class="st28" d="M139.3,330.9c-0.1,0.4-0.3,0.9-0.6,1.3c-0.2,0.4-0.5,0.8-0.8,1.1c-0.3,0.3-0.7,0.6-1.1,0.7
						c-0.5,0.2-1,0.3-1.6,0.3c-0.7,0-1.4-0.1-2.1-0.5c-0.6-0.3-1.1-0.7-1.5-1.3c-0.4-0.6-0.7-1.2-0.9-1.9c-0.2-0.8-0.3-1.6-0.3-2.4
						c0-0.8,0.1-1.6,0.3-2.4c0.2-0.7,0.5-1.3,1-1.9c0.4-0.5,0.9-1,1.5-1.3c0.6-0.3,1.3-0.5,2-0.5c0.5,0,1,0.1,1.5,0.2
						c0.4,0.1,0.8,0.4,1.1,0.6c0.3,0.3,0.6,0.6,0.8,1c0.2,0.4,0.4,0.8,0.5,1.2l-1.2,0.6c-0.2-0.7-0.5-1.3-1-1.8
						c-0.5-0.4-1.1-0.6-1.7-0.6c-0.5,0-1,0.1-1.4,0.4c-0.4,0.3-0.7,0.6-1,1c-0.3,0.5-0.5,1-0.6,1.5c-0.1,0.6-0.2,1.3-0.2,1.9
						c0,0.6,0.1,1.3,0.2,1.9c0.1,0.5,0.3,1.1,0.6,1.5c0.2,0.4,0.6,0.8,1,1c0.5,0.3,1,0.4,1.6,0.4c0.7,0,1.4-0.2,1.9-0.8
						c0.2-0.2,0.4-0.5,0.6-0.8c0.2-0.3,0.3-0.7,0.4-1L139.3,330.9z"/>
					<path class="st28" d="M101.7,370.5h-4.5L96,374h-1.4l4.1-11.7h1.5l4.1,11.7h-1.4L101.7,370.5z M97.6,369.4h3.7l-1.5-4.5
						l-0.1-0.4c0-0.1-0.1-0.2-0.1-0.3c0-0.1-0.1-0.2-0.1-0.3c0,0.1-0.1,0.2-0.1,0.3s-0.1,0.2-0.1,0.3l-0.1,0.4L97.6,369.4z"/>
					<path class="st28" d="M104.2,362.3h7.8v1.2l-6.4,9.2h6.7v1.2h-8.2v-1.2l6.4-9.2h-6.3L104.2,362.3z"/>
					<path class="st28" d="M130,374h-7.1v-1.1h2.8v-8.6c-0.3,0.3-0.7,0.5-1.1,0.6c-0.5,0.1-1,0.2-1.4,0.2v-1.2
						c0.6,0,1.1-0.1,1.7-0.3c0.4-0.3,0.8-0.7,1-1.1h1.3v10.5h2.8V374z"/>
					<path class="st28" d="M135.7,368.6c0.3-0.3,0.6-0.6,0.8-0.9c0.2-0.2,0.4-0.5,0.5-0.8c0.1-0.2,0.2-0.5,0.2-0.8
						c0-0.3,0.1-0.5,0.1-0.8c0-0.3-0.1-0.6-0.2-0.9c-0.1-0.3-0.3-0.5-0.5-0.7c-0.2-0.2-0.5-0.4-0.8-0.5c-0.3-0.1-0.7-0.2-1-0.1
						c-0.3,0-0.6,0-0.9,0.2c-0.3,0.1-0.5,0.3-0.8,0.5c-0.2,0.2-0.4,0.5-0.5,0.7c-0.1,0.3-0.2,0.6-0.2,1c0,0.3,0,0.5,0.1,0.8
						l-1.2,0.2c-0.1-0.2-0.1-0.4-0.2-0.5c0-0.2,0-0.4,0-0.5c0-0.4,0.1-0.8,0.3-1.2c0.2-0.4,0.4-0.8,0.7-1.1c0.3-0.3,0.7-0.6,1.2-0.8
						c0.5-0.2,1-0.3,1.6-0.3c0.5,0,1,0.1,1.5,0.2c0.4,0.1,0.8,0.4,1.2,0.7c0.3,0.3,0.6,0.6,0.8,1c0.2,0.4,0.3,0.9,0.3,1.3
						c0,0.3,0,0.7-0.1,1c-0.1,0.3-0.2,0.7-0.4,1c-0.2,0.4-0.4,0.7-0.6,1c-0.3,0.4-0.6,0.7-0.9,1l-3.4,3.3h5.4v1.3h-7.5v-0.9
						L135.7,368.6z"/>
					<path class="st28" d="M141.4,370.2c0,0.1,0,0.2-0.1,0.2c0,0.1,0,0.2,0,0.3c0,0.3,0.1,0.6,0.2,0.9c0.1,0.3,0.3,0.5,0.5,0.7
						c0.2,0.2,0.5,0.3,0.8,0.5c0.3,0.1,0.7,0.2,1,0.2c0.7,0,1.3-0.2,1.8-0.6c0.5-0.5,0.7-1.1,0.7-1.8c0-0.3-0.1-0.7-0.2-1
						c-0.2-0.3-0.4-0.5-0.7-0.7c-0.3-0.2-0.6-0.3-1-0.4c-0.4-0.1-0.8-0.1-1.3-0.1v-1.1c0.4,0,0.9,0,1.3-0.2c0.3-0.1,0.6-0.3,0.8-0.5
						c0.2-0.2,0.3-0.4,0.4-0.7c0.1-0.2,0.1-0.5,0.1-0.8c0-0.5-0.2-1-0.6-1.3c-0.4-0.3-1-0.5-1.6-0.5c-0.3,0-0.5,0-0.8,0.1
						c-0.2,0.1-0.5,0.2-0.6,0.4c-0.2,0.2-0.3,0.4-0.4,0.6c-0.1,0.2-0.2,0.5-0.2,0.8c0,0.2,0,0.3,0.1,0.5l-1.2,0.2
						c-0.1-0.1-0.1-0.3-0.1-0.4c0-0.1,0-0.3,0-0.4c0-0.4,0.1-0.8,0.2-1.1c0.2-0.3,0.4-0.7,0.7-0.9c0.3-0.3,0.7-0.5,1.1-0.6
						c0.4-0.2,0.9-0.2,1.4-0.2c0.5,0,1,0.1,1.5,0.2c0.4,0.1,0.8,0.3,1.1,0.6c0.3,0.2,0.5,0.5,0.7,0.9c0.2,0.3,0.2,0.7,0.2,1.1
						c0,0.3,0,0.6-0.1,0.8c-0.1,0.3-0.2,0.5-0.3,0.8c-0.1,0.3-0.3,0.5-0.6,0.7c-0.3,0.2-0.5,0.4-0.9,0.4c0.3,0.1,0.7,0.2,1,0.4
						c0.3,0.2,0.6,0.4,0.8,0.6c0.2,0.3,0.4,0.6,0.5,0.9c0.1,0.3,0.2,0.7,0.2,1.1c0,0.5-0.1,1.1-0.3,1.6c-0.2,0.4-0.5,0.8-0.8,1.1
						c-0.4,0.3-0.8,0.6-1.2,0.7c-0.5,0.2-1,0.2-1.5,0.2c-0.6,0-1.1-0.1-1.6-0.3c-0.5-0.2-0.9-0.4-1.2-0.8c-0.3-0.3-0.6-0.7-0.8-1.1
						c-0.2-0.4-0.3-0.8-0.3-1.2c0-0.2,0-0.3,0.1-0.5c0-0.2,0.1-0.3,0.1-0.5L141.4,370.2z"/>
					<path class="st28" d="M68.5,362.2v10.2L72,375v3.2L60.3,369v-3.3l11.7-9.3v3.2L68.5,362.2z M67.4,371.5v-8.3l-4.5,3.5l-0.3,0.3
						l-0.3,0.2c-0.1,0.1-0.2,0.2-0.3,0.2l0.3,0.2l0.3,0.2l0.3,0.3L67.4,371.5z"/>
					<path class="st28" d="M60.3,356v-6c0-1.7,0.1-3.4,0.4-5c0.2-1.3,0.7-2.6,1.2-3.8c0.4-0.9,1-1.7,1.8-2.2c1.4-1,3.3-1,4.7,0
						c0.8,0.6,1.4,1.3,1.8,2.2c0.6,1.2,1,2.4,1.2,3.7c0.3,1.6,0.5,3.3,0.4,5v6L60.3,356z M70.7,350.2c0.1-2.2-0.3-4.4-1.2-6.5
						c-0.9-1.9-3.2-2.6-5.1-1.7c-0.7,0.4-1.3,1-1.7,1.7c-0.9,2-1.3,4.2-1.2,6.5v2.6h9.2V350.2z"/>
					<path class="st28" d="M60.3,336.7v-3.7l10.3-6.2l-10.3-6.2V317H72v3h-8.5l0.4,0.2l0.6,0.4c0.2,0.1,0.5,0.3,0.8,0.4l6.7,4.2v3.3
						l-6.7,4.1c-0.3,0.2-0.6,0.3-0.8,0.4l-0.6,0.4c-0.2,0.1-0.3,0.2-0.4,0.2H72v3L60.3,336.7z"/>
					<path class="st28" d="M61.5,299.2v5.9h9.4v-6.1H72v15.5h-1.2v-6.1h-9.4v5.9h-1.1v-15L61.5,299.2z"/>
					<path class="st28" d="M60.3,295.6v-18.3h1.2v7.6H72v3.2H61.5v7.6L60.3,295.6z"/>
					<path class="st28" d="M66.1,236c0.9,0,1.8,0.2,2.6,0.7c0.8,0.5,1.4,1.2,1.9,2c0.6,1,1,2.1,1.2,3.2c0.6,2.8,0.6,5.7,0,8.4
						c-0.2,1.1-0.6,2.2-1.2,3.2c-0.5,0.8-1.1,1.5-1.9,2c-1.6,0.9-3.5,0.9-5.1,0c-0.8-0.5-1.4-1.2-1.9-2c-0.6-1-1-2.1-1.2-3.2
						c-0.6-2.8-0.6-5.7,0-8.4c0.2-1.1,0.6-2.2,1.2-3.2c0.5-0.8,1.1-1.5,1.9-2C64.4,236.2,65.2,236,66.1,236z M71,246.1
						c0-1-0.1-2-0.3-3c-0.2-0.8-0.5-1.5-1-2.1c-0.4-0.5-0.9-1-1.5-1.3c-1.3-0.6-2.7-0.6-4,0c-0.6,0.3-1.1,0.7-1.5,1.3
						c-0.5,0.6-0.8,1.4-1,2.1c-0.5,2-0.5,4,0,6c0.2,0.8,0.5,1.5,1,2.1c0.4,0.5,0.9,1,1.5,1.3c1.3,0.6,2.7,0.6,4,0
						c0.6-0.3,1.1-0.7,1.5-1.3c0.5-0.6,0.8-1.4,1-2.1C70.9,248.1,71,247.1,71,246.1z"/>
					<path class="st28" d="M60.3,234.6v-3.3l8.4-10c0.1-0.2,0.3-0.3,0.4-0.5l0.3-0.4c0.1-0.1,0.2-0.2,0.2-0.3h-9.3v-3H72v3.3
						l-8.4,10l-0.4,0.5c-0.1,0.1-0.2,0.2-0.3,0.4l-0.3,0.3H72v3H60.3z"/>
					<path class="st28" d="M60.3,213.7v-16.1h1.2v12.9h3.8v-11.8h1.2v11.8h4.2v-13H72v16.2L60.3,213.7z"/>
					<path class="st28" d="M547.5,362.2v10.2l3.4,2.7v3.2l-11.7-9.2v-3.3l11.7-9.3v3.2L547.5,362.2z M546.3,371.5v-8.3l-4.5,3.5
						l-0.3,0.3l-0.3,0.2c-0.1,0.1-0.2,0.2-0.3,0.2l0.3,0.2l0.3,0.2l0.3,0.3L546.3,371.5z"/>
					<path class="st28" d="M539.2,356v-6c0-1.7,0.1-3.4,0.4-5c0.2-1.3,0.6-2.5,1.2-3.7c0.4-0.9,1.1-1.6,1.8-2.2c1.4-1,3.3-1,4.7,0
						c0.8,0.6,1.4,1.3,1.8,2.2c0.6,1.2,1,2.4,1.2,3.7c0.3,1.6,0.5,3.3,0.4,5v6H539.2z M549.7,350.2c0-2.9-0.4-5.1-1.2-6.5
						c-0.9-1.9-3.2-2.6-5.1-1.7c-0.7,0.4-1.3,1-1.7,1.7c-0.9,2-1.3,4.2-1.2,6.5v2.6h9.2V350.2z"/>
					<path class="st28" d="M539.2,336.7v-3.7l10.3-6.2l-10.3-6.2V317h11.7v3h-8.5l0.4,0.2l0.6,0.4l0.8,0.4l6.6,4.1v3.3l-6.6,4.1
						l-0.8,0.4l-0.6,0.4l-0.4,0.2h8.5v3L539.2,336.7z"/>
					<path class="st28" d="M540.4,299.2v5.9h9.4v-6.1h1.1v15.5h-1.1v-6.1h-9.4v5.9h-1.1v-15L540.4,299.2z"/>
					<path class="st28" d="M539.2,295.6v-18.3h1.2v7.6h10.4v3.2h-10.4v7.6L539.2,295.6z"/>
					<path class="st28" d="M545.1,236c0.9,0,1.8,0.2,2.5,0.7c0.8,0.5,1.4,1.2,1.9,2c0.6,1,1,2.1,1.2,3.2c0.6,2.8,0.6,5.7,0,8.4
						c-0.2,1.1-0.6,2.2-1.2,3.2c-0.5,0.8-1.1,1.5-1.9,2c-1.6,0.9-3.5,0.9-5.1,0c-0.8-0.5-1.4-1.2-1.9-2c-0.6-1-1-2.1-1.2-3.2
						c-0.5-2.8-0.5-5.7,0-8.4c0.2-1.1,0.6-2.2,1.2-3.2c0.5-0.8,1.1-1.5,1.9-2C543.3,236.2,544.2,236,545.1,236z M549.9,246.1
						c0-1-0.1-2-0.3-3c-0.2-0.8-0.5-1.5-1-2.1c-0.4-0.5-0.9-1-1.5-1.3c-0.6-0.3-1.3-0.4-2-0.4c-0.7,0-1.4,0.1-2,0.4
						c-0.6,0.3-1.1,0.7-1.5,1.3c-0.5,0.6-0.8,1.4-1,2.1c-0.5,2-0.5,4,0,6c0.2,0.8,0.5,1.5,1,2.1c0.4,0.5,0.9,1,1.5,1.3
						c0.6,0.3,1.3,0.5,2,0.4c0.7,0,1.4-0.1,2-0.4c0.6-0.3,1.1-0.7,1.5-1.3c0.5-0.6,0.8-1.4,1-2.1
						C549.8,248.1,549.9,247.1,549.9,246.1L549.9,246.1z"/>
					<path class="st28" d="M539.2,234.6v-3.3l8.4-10l0.4-0.5l0.3-0.4c0.1-0.1,0.2-0.2,0.2-0.3h-9.3v-3h11.7v3.3l-8.3,10l-0.4,0.5
						l-0.3,0.4c-0.1,0.1-0.2,0.2-0.3,0.3h9.3v3H539.2z"/>
					<path class="st28" d="M539.2,213.7v-16.1h1.2v12.9h3.8v-11.8h1.2v11.8h4.2v-13h1.2v16.2L539.2,213.7z"/>
				</g>
				<polyline class="st0" points="283.8,191.3 547,168.3 549,191.3 				"/>
				<polyline class="st0" points="19.5,299.9 12.1,215.1 20,214.4 				"/>
				<polyline class="st0" points="292.2,385.1 29,408.1 27,384.7 				"/>
				<polyline class="st0" points="556.5,276.5 563.9,361.3 555.9,362 				"/>
				<polyline class="st0" points="279.5,191.3 535.6,146.2 539.6,168.9 				"/>
				<polyline class="st0" points="19.5,311.7 6.8,239.4 14.1,238.1 				"/>
				<polyline class="st0" points="296.5,385.1 40.4,430.2 36.4,407.5 				"/>
				<polyline class="st0" points="556.5,264.7 569.2,337 561.9,338.3 				"/>
				<polyline class="st0" points="19.5,323.1 3.6,263.7 10.7,261.8 				"/>
				<polyline class="st0" points="299.2,385.1 53.8,450.9 47.9,428.9 				"/>
				<polyline class="st0" points="556.5,252.4 572.4,311.9 565.1,313.8 				"/>
				<polyline class="st0" points="273.7,191.3 522.2,124.7 528.3,147.4 				"/>
			</g>
		</g>
	</g>
</g>
</svg>
