<svg xmlns="http://www.w3.org/2000/svg" viewBox="0 0 576 576"><defs><style>.cls-1{opacity:0;}.cls-2{fill:#fff;}.cls-10,.cls-11,.cls-12,.cls-13,.cls-14,.cls-15,.cls-16,.cls-17,.cls-18,.cls-19,.cls-20,.cls-21,.cls-22,.cls-23,.cls-24,.cls-25,.cls-26,.cls-27,.cls-28,.cls-29,.cls-3,.cls-30,.cls-4,.cls-5,.cls-6,.cls-7,.cls-8,.cls-9{fill:none;stroke:#fff;stroke-miterlimit:10;}.cls-3,.cls-4{stroke-width:2px;}.cls-4{stroke-dasharray:12.12 12.12;}.cls-6{stroke-width:1.08px;}.cls-7{stroke-width:1.15px;}.cls-8{stroke-width:1.23px;}.cls-9{stroke-width:1.31px;}.cls-10{stroke-width:1.38px;}.cls-11{stroke-width:1.46px;}.cls-12{stroke-width:1.54px;}.cls-13{stroke-width:1.62px;}.cls-14{stroke-width:1.69px;}.cls-15{stroke-width:1.77px;}.cls-16{stroke-width:1.85px;}.cls-17{stroke-width:1.92px;}.cls-18{stroke-width:2.08px;}.cls-19{stroke-width:2.15px;}.cls-20{stroke-width:2.23px;}.cls-21{stroke-width:2.31px;}.cls-22{stroke-width:2.38px;}.cls-23{stroke-width:2.46px;}.cls-24{stroke-width:2.54px;}.cls-25{stroke-width:2.62px;}.cls-26{stroke-width:2.69px;}.cls-27{stroke-width:2.77px;}.cls-28{stroke-width:2.85px;}.cls-29{stroke-width:2.92px;}.cls-30{stroke-width:3px;}</style></defs><title>tickets-white</title><g id="Layer_2" data-name="Layer 2"><g id="tickets"><g id="tickets-white"><g id="background" class="cls-1"><rect class="cls-2" x="0.5" y="0.5" width="575" height="575"/><path class="cls-2" d="M575,1V575H1V1H575m1-1H0V576H576V0Z"/></g><g id="vector"><g id="ticket"><rect class="cls-3" x="19.53" y="191.3" width="536.94" height="193.79"/><line class="cls-3" x1="78.1" y1="384.67" x2="78.1" y2="190.88"/><line class="cls-3" x1="53.33" y1="190.88" x2="53.33" y2="384.67"/><line class="cls-3" x1="152.42" y1="190.88" x2="152.42" y2="196.88"/><line class="cls-4" x1="152.42" y1="209" x2="152.42" y2="372.61"/><line class="cls-3" x1="152.42" y1="378.67" x2="152.42" y2="384.67"/><line class="cls-3" x1="532.77" y1="190.88" x2="532.77" y2="196.88"/><line class="cls-4" x1="532.77" y1="209" x2="532.77" y2="372.61"/><line class="cls-3" x1="532.77" y1="378.67" x2="532.77" y2="384.67"/><line class="cls-5" x1="47.66" y1="376.28" x2="25.21" y2="376.28"/><line class="cls-6" x1="47.66" y1="369.5" x2="25.22" y2="369.5"/><line class="cls-7" x1="47.67" y1="362.73" x2="25.23" y2="362.73"/><line class="cls-8" x1="47.68" y1="355.95" x2="25.24" y2="355.95"/><line class="cls-9" x1="47.69" y1="349.18" x2="25.25" y2="349.18"/><line class="cls-10" x1="47.7" y1="342.4" x2="25.26" y2="342.4"/><line class="cls-11" x1="47.71" y1="335.63" x2="25.26" y2="335.63"/><line class="cls-12" x1="47.71" y1="328.85" x2="25.27" y2="328.85"/><line class="cls-13" x1="47.72" y1="322.07" x2="25.28" y2="322.07"/><line class="cls-14" x1="47.73" y1="315.3" x2="25.29" y2="315.3"/><line class="cls-15" x1="47.74" y1="308.52" x2="25.3" y2="308.52"/><line class="cls-16" x1="47.75" y1="301.75" x2="25.3" y2="301.75"/><line class="cls-17" x1="47.75" y1="294.97" x2="25.31" y2="294.97"/><line class="cls-3" x1="47.76" y1="288.2" x2="25.32" y2="288.2"/><line class="cls-18" x1="47.77" y1="281.42" x2="25.33" y2="281.42"/><line class="cls-19" x1="47.78" y1="274.65" x2="25.34" y2="274.65"/><line class="cls-20" x1="47.79" y1="267.87" x2="25.35" y2="267.87"/><line class="cls-21" x1="47.8" y1="261.09" x2="25.35" y2="261.09"/><line class="cls-22" x1="47.8" y1="254.32" x2="25.36" y2="254.32"/><line class="cls-23" x1="47.81" y1="247.54" x2="25.37" y2="247.54"/><line class="cls-24" x1="47.82" y1="240.77" x2="25.38" y2="240.77"/><line class="cls-25" x1="47.83" y1="233.99" x2="25.39" y2="233.99"/><line class="cls-26" x1="47.84" y1="227.22" x2="25.4" y2="227.22"/><line class="cls-27" x1="47.85" y1="220.44" x2="25.4" y2="220.44"/><line class="cls-28" x1="47.85" y1="213.66" x2="25.41" y2="213.66"/><line class="cls-29" x1="47.86" y1="206.89" x2="25.42" y2="206.89"/><line class="cls-30" x1="47.87" y1="200.11" x2="25.43" y2="200.11"/><path class="cls-2" d="M219.41,264.11h1.44l4.39,8.36.22.4.16.33a2.45,2.45,0,0,1,.12.25v-9.34h1.33v11.66h-1.43l-4.39-8.36L221,267l-.17-.33a2.15,2.15,0,0,1-.11-.25v9.34h-1.34Z"/><path class="cls-2" d="M231.42,271.15l-3.75-7h1.43l2.65,5,.13.27c0,.07.07.16.11.25s.08.2.13.3c0-.1.07-.2.11-.3a2.72,2.72,0,0,0,.12-.25l.13-.27,2.65-5h1.43l-3.74,7v4.62h-1.4Z"/><path class="cls-2" d="M245.35,272.67a7.76,7.76,0,0,1-.55,1.26A4.26,4.26,0,0,1,244,275a3.58,3.58,0,0,1-1.15.73,3.93,3.93,0,0,1-1.55.28,4.32,4.32,0,0,1-2.06-.46,4.16,4.16,0,0,1-1.47-1.26,5.6,5.6,0,0,1-.87-1.93,9.26,9.26,0,0,1-.29-2.41,8.53,8.53,0,0,1,.33-2.42,5.77,5.77,0,0,1,1-1.92,4.33,4.33,0,0,1,1.5-1.26,4.19,4.19,0,0,1,2-.46,4.39,4.39,0,0,1,1.48.22,3.35,3.35,0,0,1,1.11.63,3.52,3.52,0,0,1,.8.95,5.45,5.45,0,0,1,.53,1.2l-1.2.56a4,4,0,0,0-1-1.76,2.56,2.56,0,0,0-1.73-.57,2.7,2.7,0,0,0-1.43.38,3.13,3.13,0,0,0-1,1,4.82,4.82,0,0,0-.63,1.53,8.79,8.79,0,0,0-.2,1.9,10.39,10.39,0,0,0,.16,1.91,4.55,4.55,0,0,0,.56,1.53,2.77,2.77,0,0,0,1,1,3,3,0,0,0,1.55.37,2.49,2.49,0,0,0,1.88-.75,3.15,3.15,0,0,0,.6-.83,6.81,6.81,0,0,0,.44-1Z"/><path class="cls-2" d="M246.7,270.07H253v1H246.7Z"/><path class="cls-2" d="M263.18,269.94a9.86,9.86,0,0,1-.3,2.55,5.58,5.58,0,0,1-.89,1.9,3.8,3.8,0,0,1-1.4,1.19,4,4,0,0,1-1.85.42,4,4,0,0,1-1.86-.42,3.88,3.88,0,0,1-1.4-1.19,5.76,5.76,0,0,1-.88-1.9,9.84,9.84,0,0,1-.31-2.55,10,10,0,0,1,.31-2.55,5.76,5.76,0,0,1,.88-1.9,4,4,0,0,1,1.4-1.2,4.17,4.17,0,0,1,1.86-.41,4.12,4.12,0,0,1,1.85.41,3.92,3.92,0,0,1,1.4,1.2,5.58,5.58,0,0,1,.89,1.9A10,10,0,0,1,263.18,269.94Zm-4.44,4.83a2.53,2.53,0,0,0,1.31-.34,2.77,2.77,0,0,0,.94-1,5.12,5.12,0,0,0,.57-1.52,10.52,10.52,0,0,0,0-4,5.12,5.12,0,0,0-.57-1.52,2.69,2.69,0,0,0-.94-1,2.44,2.44,0,0,0-1.31-.34,2.5,2.5,0,0,0-1.32.34,2.77,2.77,0,0,0-.94,1,4.86,4.86,0,0,0-.56,1.52,10,10,0,0,0,0,4,4.86,4.86,0,0,0,.56,1.52,2.86,2.86,0,0,0,.94,1A2.59,2.59,0,0,0,258.74,274.77Z"/><path class="cls-2" d="M267.38,270.7h-2.25v5.07h-1.4V264.11H268a4.46,4.46,0,0,1,1.55.25,3.55,3.55,0,0,1,1.17.69,2.9,2.9,0,0,1,.72,1.05,3.36,3.36,0,0,1,.25,1.31,3.07,3.07,0,0,1-.75,2.08,3.52,3.52,0,0,1-2,1.13l2.91,5.15h-1.56Zm-2.25-1.23h2.6a3,3,0,0,0,1.9-.51,1.84,1.84,0,0,0,.65-1.55,1.87,1.87,0,0,0-.65-1.56,3,3,0,0,0-1.9-.51h-2.6Z"/><path class="cls-2" d="M279.78,265.24h-2.6v9.39h2.7v1.14h-6.79v-1.14h2.7v-9.39h-2.6v-1.13h6.59Z"/><path class="cls-2" d="M288.42,273.87a3.65,3.65,0,0,1-1.05,1.52,2.78,2.78,0,0,1-1.88.61,4.08,4.08,0,0,1-2-.46,4,4,0,0,1-1.41-1.26,5.78,5.78,0,0,1-.86-1.93,9.26,9.26,0,0,1-.29-2.41,8.53,8.53,0,0,1,.33-2.42,6,6,0,0,1,1-1.92,4.33,4.33,0,0,1,1.5-1.26,4.19,4.19,0,0,1,2-.46,3.84,3.84,0,0,1,2.57.81,4.35,4.35,0,0,1,1.36,2.1l-1.13.65a3.25,3.25,0,0,0-1-1.72,2.65,2.65,0,0,0-1.83-.61,2.74,2.74,0,0,0-1.41.36,3.16,3.16,0,0,0-1,1,4.47,4.47,0,0,0-.64,1.52,8.06,8.06,0,0,0-.22,2,9.06,9.06,0,0,0,.2,1.95,4.42,4.42,0,0,0,.61,1.53,3.08,3.08,0,0,0,1,1,2.74,2.74,0,0,0,1.41.36,2,2,0,0,0,1.19-.34,2.64,2.64,0,0,0,.81-.85,4.1,4.1,0,0,0,.5-1.19,5.87,5.87,0,0,0,.21-1.3h-3.16v-1.17h4.53v5.85h-1Z"/><path class="cls-2" d="M297.53,265.24h-2.6v9.39h2.7v1.14h-6.79v-1.14h2.69v-9.39h-2.59v-1.13h6.59Z"/><path class="cls-2" d="M299.28,264.11h1.43l4.39,8.36.22.4.17.33.11.25v-9.34h1.34v11.66H305.5l-4.39-8.36-.22-.4-.16-.33a1.34,1.34,0,0,1-.12-.25v9.34h-1.33Z"/><path class="cls-2" d="M314.21,272.32h-4.46l-1.18,3.45h-1.4l4.08-11.66h1.46l4.08,11.66h-1.4Zm-4.06-1.17h3.66l-1.51-4.51-.12-.35c0-.1-.07-.2-.11-.31a2.23,2.23,0,0,1-.09-.32c0,.1-.07.21-.1.32s-.07.21-.1.31l-.12.35Z"/><path class="cls-2" d="M317.37,264.11h1.4v10.42h5.9v1.24h-7.3Z"/><path class="cls-2" d="M173.64,295.74h-2.49l7.92-10.42H168.48v-1.23h13.17v1.13Z"/><path class="cls-2" d="M189.3,287.69H193v2.06h-3.7Zm0,6H193v2.06h-3.7Z"/><path class="cls-2" d="M215.28,289.92a5.25,5.25,0,0,1-2.09,4.49,11.72,11.72,0,0,1-11.72,0,5.88,5.88,0,0,1,0-9,11.79,11.79,0,0,1,11.72,0A5.26,5.26,0,0,1,215.28,289.92Zm-13.35,0a4.78,4.78,0,0,0,.88,3l7.68-7.16a6.81,6.81,0,0,0-3.16-.66,5.76,5.76,0,0,0-4,1.25A4.57,4.57,0,0,0,201.93,289.92Zm5.4,4.83a5.81,5.81,0,0,0,4-1.25,4.6,4.6,0,0,0,1.38-3.58,4.83,4.83,0,0,0-.88-3l-7.68,7.16A6.84,6.84,0,0,0,207.33,294.75Z"/><path class="cls-2" d="M231.46,289.92a5.25,5.25,0,0,1-2.09,4.49,11.72,11.72,0,0,1-11.72,0,5.88,5.88,0,0,1,0-9,11.79,11.79,0,0,1,11.72,0A5.26,5.26,0,0,1,231.46,289.92Zm-13.35,0a4.78,4.78,0,0,0,.88,3l7.68-7.16a6.81,6.81,0,0,0-3.16-.66,5.76,5.76,0,0,0-4,1.25A4.57,4.57,0,0,0,218.11,289.92Zm5.4,4.83a5.81,5.81,0,0,0,4-1.25,4.6,4.6,0,0,0,1.38-3.58,4.83,4.83,0,0,0-.88-3l-7.68,7.16A6.84,6.84,0,0,0,223.51,294.75Z"/><path class="cls-2" d="M248.49,284.09H256a16.15,16.15,0,0,1,3,.26,8.41,8.41,0,0,1,2.27.73,3.84,3.84,0,0,1,1.43,1.15,2.51,2.51,0,0,1,0,3,3.84,3.84,0,0,1-1.43,1.15,8.78,8.78,0,0,1-2.27.73,16.15,16.15,0,0,1-3,.26h-5v4.39h-2.55Zm2.55,6h4.83a8.48,8.48,0,0,0,3.54-.59,1.95,1.95,0,0,0,0-3.62,8.48,8.48,0,0,0-3.54-.59H251Z"/><path class="cls-2" d="M264.16,284.09h2.94l4.95,10.29L277,284.09h2.94v11.65h-2.43v-8.45c0,.07-.1.21-.19.4s-.19.4-.29.61-.22.51-.34.8l-3.31,6.64h-2.67l-3.31-6.64-.33-.8c-.1-.21-.2-.41-.29-.61s-.16-.33-.2-.4v8.45h-2.42Z"/><path class="cls-2" d="M297.06,284.09h14.69v1.23h-6.07v10.42h-2.55V285.32h-6.07Z"/><path class="cls-2" d="M313.51,284.09h2.55v5.09h9.05v-5.09h2.55v11.65h-2.55v-5.32h-9.05v5.32h-2.55Z"/><path class="cls-2" d="M344.08,291.87a3,3,0,0,1-.53,1.74,4.17,4.17,0,0,1-1.5,1.29,8.35,8.35,0,0,1-2.31.8,15.94,15.94,0,0,1-5.95,0,8.35,8.35,0,0,1-2.31-.8,4.34,4.34,0,0,1-1.5-1.29,3,3,0,0,1-.53-1.74v-7.78H332v7.83a2.34,2.34,0,0,0,1.23,2,8.21,8.21,0,0,0,7.07,0,2.34,2.34,0,0,0,1.23-2v-7.83h2.55Z"/><path class="cls-2" d="M352.52,290.68h-4.1v5.06h-2.55V284.09h7.74a14.36,14.36,0,0,1,2.84.25,8.59,8.59,0,0,1,2.13.69,3.86,3.86,0,0,1,1.32,1.05,2.14,2.14,0,0,1,.45,1.31,2.47,2.47,0,0,1-1.36,2.08,9,9,0,0,1-3.74,1.13l5.31,5.14h-2.85Zm-4.1-1.23h4.74a9.1,9.1,0,0,0,3.46-.51,1.61,1.61,0,0,0,0-3.11,9.1,9.1,0,0,0-3.46-.51h-4.74Z"/><path class="cls-2" d="M364.72,286.94q0,1.71,5.65,2.26a14.36,14.36,0,0,1,5,1.14,2.47,2.47,0,0,1,1.55,2.22,2,2,0,0,1-.55,1.33,4.63,4.63,0,0,1-1.52,1.08,9.91,9.91,0,0,1-2.32.73,14.38,14.38,0,0,1-3,.28,15.71,15.71,0,0,1-3.17-.29,8.91,8.91,0,0,1-2.37-.78,6.23,6.23,0,0,1-1.64-1.16,4.82,4.82,0,0,1-1-1.44l2.22-.61a3.34,3.34,0,0,0,.7,1.22,4.33,4.33,0,0,0,1.23,1,6.57,6.57,0,0,0,1.74.63,10.46,10.46,0,0,0,2.28.23,8.42,8.42,0,0,0,3.52-.6c.85-.39,1.28-.9,1.28-1.54a1.44,1.44,0,0,0-.29-.89,2.45,2.45,0,0,0-.91-.65,7.61,7.61,0,0,0-1.63-.45c-.67-.13-1.48-.23-2.43-.32a15,15,0,0,1-5-1.14c-1.2-.57-1.8-1.33-1.8-2.27a1.75,1.75,0,0,1,.51-1.21,4.21,4.21,0,0,1,1.41-1,9.34,9.34,0,0,1,2.17-.63,15.6,15.6,0,0,1,2.74-.22,12.68,12.68,0,0,1,4.8.77,5.35,5.35,0,0,1,2.61,2l-2,.68a3.81,3.81,0,0,0-2-1.73,9,9,0,0,0-3.4-.56,11.47,11.47,0,0,0-1.68.11,6.2,6.2,0,0,0-1.4.36,2.86,2.86,0,0,0-.94.59A1.14,1.14,0,0,0,364.72,286.94Z"/><path class="cls-2" d="M189.89,312a2.84,2.84,0,0,1-.47,1.61,4.12,4.12,0,0,1-1.33,1.25,7.17,7.17,0,0,1-2.13.81,12.25,12.25,0,0,1-2.84.3,13,13,0,0,1-2.65-.25,8,8,0,0,1-2.14-.71,4,4,0,0,1-1.43-1.2,2.87,2.87,0,0,1-.52-1.69l2.55.15a1.9,1.9,0,0,0,.32,1.07,2.54,2.54,0,0,0,.9.77,5.33,5.33,0,0,0,1.33.47,8.55,8.55,0,0,0,1.64.15,8.93,8.93,0,0,0,1.69-.15,4,4,0,0,0,1.33-.49,2.45,2.45,0,0,0,.88-.87,2.39,2.39,0,0,0,.32-1.28v-7.86h2.55Z"/><path class="cls-2" d="M206.56,311.84a3,3,0,0,1-.53,1.75,4.29,4.29,0,0,1-1.51,1.29,8.17,8.17,0,0,1-2.3.8,15.94,15.94,0,0,1-5.95,0,8.35,8.35,0,0,1-2.31-.8,4.17,4.17,0,0,1-1.5-1.29,2.94,2.94,0,0,1-.53-1.75v-7.77h2.55v7.82a2.34,2.34,0,0,0,1.23,2,8.3,8.3,0,0,0,7.07,0,2.34,2.34,0,0,0,1.23-2v-7.82h2.55Z"/><path class="cls-2" d="M208.44,304.07h2.61l8,8.36.4.4.3.33a2.5,2.5,0,0,1,.21.25v-9.34h2.43v11.65h-2.61l-8-8.35-.4-.41-.3-.32a1.32,1.32,0,0,1-.21-.26v9.34h-2.43Z"/><path class="cls-2" d="M254.88,315.72H242v-1.13h5.16V306a5.29,5.29,0,0,1-1.92.62,18.26,18.26,0,0,1-2.63.16v-1.2a10.16,10.16,0,0,0,3-.34,4.2,4.2,0,0,0,1.8-1.12h2.3v10.52h5.16Z"/><path class="cls-2" d="M265.42,310.38a12,12,0,0,0,1.44-.88,5.55,5.55,0,0,0,.89-.78,2,2,0,0,0,.46-.75,2.56,2.56,0,0,0,.12-.79,1.36,1.36,0,0,0-.33-.88,2.84,2.84,0,0,0-.91-.69,5,5,0,0,0-1.39-.45A8.58,8.58,0,0,0,264,305a8.39,8.39,0,0,0-1.73.17,5.37,5.37,0,0,0-1.37.47,2.65,2.65,0,0,0-.89.74,1.53,1.53,0,0,0-.32.95,1.29,1.29,0,0,0,.24.75l-2.24.2a1.55,1.55,0,0,1-.29-.55,1.89,1.89,0,0,1,.39-1.79,4.07,4.07,0,0,1,1.35-1.07,8.81,8.81,0,0,1,2.13-.75,12.67,12.67,0,0,1,2.82-.29,14.76,14.76,0,0,1,2.79.25,8.55,8.55,0,0,1,2.14.68,3.77,3.77,0,0,1,1.37,1.05,2.11,2.11,0,0,1,.47,1.32,2.78,2.78,0,0,1-.2,1,3.08,3.08,0,0,1-.65,1,7.21,7.21,0,0,1-1.17,1,19.6,19.6,0,0,1-1.71,1l-6.17,3.3h9.93v1.23H257.13v-.91Z"/><path class="cls-2" d="M278.29,313.66H282v2.06L279,318l-.85-.3,1.77-1.93h-1.61Z"/><path class="cls-2" d="M314,310.38a11.44,11.44,0,0,0,1.45-.88,5.55,5.55,0,0,0,.89-.78,2.18,2.18,0,0,0,.46-.75,2.56,2.56,0,0,0,.12-.79,1.32,1.32,0,0,0-.34-.88,2.63,2.63,0,0,0-.91-.69,4.86,4.86,0,0,0-1.38-.45,8.65,8.65,0,0,0-1.74-.16,8.39,8.39,0,0,0-1.73.17,5.23,5.23,0,0,0-1.37.47,2.79,2.79,0,0,0-.9.74,1.59,1.59,0,0,0-.31.95,1.29,1.29,0,0,0,.24.75l-2.25.2a1.73,1.73,0,0,1-.29-.55,2,2,0,0,1-.07-.55,2,2,0,0,1,.47-1.24,4.07,4.07,0,0,1,1.35-1.07,8.73,8.73,0,0,1,2.12-.75,12.76,12.76,0,0,1,2.83-.29,14.76,14.76,0,0,1,2.79.25,8.69,8.69,0,0,1,2.14.68,3.77,3.77,0,0,1,1.37,1.05,2.11,2.11,0,0,1,.47,1.32,2.78,2.78,0,0,1-.2,1,3.08,3.08,0,0,1-.65,1,8.18,8.18,0,0,1-1.17,1,18.47,18.47,0,0,1-1.72,1l-6.16,3.3h9.93v1.23H305.67v-.91Z"/><path class="cls-2" d="M336.63,309.9a5.26,5.26,0,0,1-2.1,4.49,11.7,11.7,0,0,1-11.71,0,5.86,5.86,0,0,1,0-9,11.7,11.7,0,0,1,11.71,0A5.26,5.26,0,0,1,336.63,309.9Zm-13.36,0a4.85,4.85,0,0,0,.88,3l7.68-7.16a6.8,6.8,0,0,0-3.15-.66,5.79,5.79,0,0,0-4,1.25A4.57,4.57,0,0,0,323.27,309.9Zm5.41,4.82a5.76,5.76,0,0,0,4-1.25,4.56,4.56,0,0,0,1.38-3.57,4.81,4.81,0,0,0-.88-3l-7.68,7.16A6.81,6.81,0,0,0,328.68,314.72Z"/><path class="cls-2" d="M352,315.72H339.09v-1.13h5.16V306a5.35,5.35,0,0,1-1.93.62,18.16,18.16,0,0,1-2.63.16v-1.2a10.23,10.23,0,0,0,3-.34,4.11,4.11,0,0,0,1.79-1.12h2.31v10.52H352Z"/><path class="cls-2" d="M361,316a16.26,16.26,0,0,1-2.88-.25,10.26,10.26,0,0,1-2.32-.7,4.36,4.36,0,0,1-1.53-1.09,2.14,2.14,0,0,1-.55-1.43,2.23,2.23,0,0,1,1-1.82,7.44,7.44,0,0,1,2.53-1.19,5.34,5.34,0,0,1-2.09-1.09,2,2,0,0,1-.76-1.54,1.81,1.81,0,0,1,.51-1.23,4.3,4.3,0,0,1,1.41-.95,9.31,9.31,0,0,1,2.1-.62,15.41,15.41,0,0,1,5.19,0,9.07,9.07,0,0,1,2.09.62,4.25,4.25,0,0,1,1.42.95,1.81,1.81,0,0,1,.51,1.23,2,2,0,0,1-.76,1.54,5.34,5.34,0,0,1-2.09,1.09,7.44,7.44,0,0,1,2.53,1.19,2.23,2.23,0,0,1,1,1.82,2.14,2.14,0,0,1-.55,1.43,4.36,4.36,0,0,1-1.53,1.09,10.26,10.26,0,0,1-2.32.7A16.29,16.29,0,0,1,361,316Zm0-1.14a10.5,10.5,0,0,0,1.92-.16,5.47,5.47,0,0,0,1.51-.49,3.1,3.1,0,0,0,1-.75,1.52,1.52,0,0,0,.36-1,1.43,1.43,0,0,0-.39-1,3.1,3.1,0,0,0-1.07-.75,6.25,6.25,0,0,0-1.53-.48,9.14,9.14,0,0,0-3.61,0,6.25,6.25,0,0,0-1.53.48,3.1,3.1,0,0,0-1.07.75,1.43,1.43,0,0,0-.39,1,1.52,1.52,0,0,0,.36,1,3.16,3.16,0,0,0,1,.75,5.65,5.65,0,0,0,1.52.49A10.47,10.47,0,0,0,361,314.82ZM356.72,307a1.22,1.22,0,0,0,.35.85,3,3,0,0,0,.94.64,6.15,6.15,0,0,0,1.37.4,9.1,9.1,0,0,0,3.29,0,5.94,5.94,0,0,0,1.38-.4,3,3,0,0,0,.95-.64,1.22,1.22,0,0,0,0-1.74,3.27,3.27,0,0,0-1-.65,6.59,6.59,0,0,0-1.38-.39,9.49,9.49,0,0,0-3.13,0,6.42,6.42,0,0,0-1.38.39,3.27,3.27,0,0,0-1,.65A1.23,1.23,0,0,0,356.72,307Z"/><path class="cls-2" d="M169.9,345.73l-1.7,1.2-.6-1.13,1.85-.7-1.85-.7.6-1.13,1.7,1.2-.27-2.07h1.3l-.26,2.07,1.69-1.2.6,1.13-1.84.7,1.84.7-.6,1.13-1.69-1.2.26,2.07h-1.3Z"/><path class="cls-2" d="M182.45,343.53h-2.59v9.39h2.69v1.14h-6.79v-1.14h2.7v-9.39h-2.6V342.4h6.59Z"/><path class="cls-2" d="M184.2,342.4h1.43l4.4,8.36c.08.14.15.28.21.4s.12.22.17.33a2.45,2.45,0,0,1,.12.25V342.4h1.33v11.66h-1.43L186,345.7l-.21-.4-.17-.33a2.59,2.59,0,0,1-.12-.25v9.34H184.2Z"/><path class="cls-2" d="M201.27,351a8.74,8.74,0,0,1-.55,1.26,4.55,4.55,0,0,1-.82,1.06,3.48,3.48,0,0,1-1.15.73,3.9,3.9,0,0,1-1.55.28,4.37,4.37,0,0,1-2.06-.46,4.06,4.06,0,0,1-1.47-1.26,5.8,5.8,0,0,1-.87-1.93,9.65,9.65,0,0,1-.29-2.41,8.41,8.41,0,0,1,.33-2.41,5.73,5.73,0,0,1,1-1.93,4.45,4.45,0,0,1,1.51-1.26,4.13,4.13,0,0,1,2-.46,4.43,4.43,0,0,1,1.48.22,3.56,3.56,0,0,1,1.11.63,3.64,3.64,0,0,1,.79,1,5,5,0,0,1,.53,1.2l-1.2.56a3.74,3.74,0,0,0-1-1.75,2.49,2.49,0,0,0-1.72-.58,2.68,2.68,0,0,0-1.43.38,3.16,3.16,0,0,0-1,1,5.05,5.05,0,0,0-.62,1.53,8.19,8.19,0,0,0-.21,1.9,10.28,10.28,0,0,0,.17,1.91,4.68,4.68,0,0,0,.55,1.54,2.9,2.9,0,0,0,1,1,3,3,0,0,0,1.56.37,2.53,2.53,0,0,0,1.88-.75,3.47,3.47,0,0,0,.6-.83,6.79,6.79,0,0,0,.43-1Z"/><path class="cls-2" d="M202.3,342.4h1.4v10.42h5.89v1.24H202.3Z"/><path class="cls-2" d="M218.66,350.18a4.8,4.8,0,0,1-.29,1.75,3.4,3.4,0,0,1-2.09,2.08,4.88,4.88,0,0,1-3.26,0,3.4,3.4,0,0,1-2.09-2.08,5,5,0,0,1-.29-1.75V342.4H212v7.83a3,3,0,0,0,.67,2,2.78,2.78,0,0,0,3.88,0,3,3,0,0,0,.68-2V342.4h1.39Z"/><path class="cls-2" d="M219.63,342.4h2.65a5.27,5.27,0,0,1,2.2.44,4.56,4.56,0,0,1,1.61,1.22,5.14,5.14,0,0,1,1,1.84,8.39,8.39,0,0,1,0,4.66,5.14,5.14,0,0,1-1,1.84,4.56,4.56,0,0,1-1.61,1.22,5.27,5.27,0,0,1-2.2.44h-2.65Zm2.56,10.42a3.36,3.36,0,0,0,2.84-1.18,6.72,6.72,0,0,0,0-6.82,3.37,3.37,0,0,0-2.84-1.19H221v9.19Z"/><path class="cls-2" d="M228.85,342.4h7.06v1.23h-5.66v3.78h5.2v1.24h-5.2v4.17H236v1.24h-7.11Z"/><path class="cls-2" d="M238.86,345.25c0,1.14,1,1.9,3.1,2.26a5.43,5.43,0,0,1,2.73,1.14,3,3,0,0,1,.84,2.23,3.17,3.17,0,0,1-1.13,2.4,4,4,0,0,1-1.27.73,4.52,4.52,0,0,1-1.62.28,4.89,4.89,0,0,1-1.74-.28,3.78,3.78,0,0,1-1.3-.79,4.46,4.46,0,0,1-.9-1.16,5.71,5.71,0,0,1-.54-1.43l1.21-.62a4.59,4.59,0,0,0,.39,1.22,3.23,3.23,0,0,0,.67,1,2.86,2.86,0,0,0,1,.63,3.24,3.24,0,0,0,1.25.23,2.93,2.93,0,0,0,1.93-.59,2,2,0,0,0,.7-1.54A2.36,2.36,0,0,0,244,350a1.65,1.65,0,0,0-.5-.65,2.76,2.76,0,0,0-.89-.46,9.66,9.66,0,0,0-1.33-.32,5.4,5.4,0,0,1-2.75-1.14,2.85,2.85,0,0,1-1-2.27,2.7,2.7,0,0,1,1.05-2.17,3.49,3.49,0,0,1,1.19-.64,4.81,4.81,0,0,1,1.5-.22,4.23,4.23,0,0,1,2.63.77,4.08,4.08,0,0,1,1.43,2l-1.11.69a3.15,3.15,0,0,0-1.1-1.74,3.08,3.08,0,0,0-1.86-.56,4,4,0,0,0-.93.11,2.23,2.23,0,0,0-.76.36,1.83,1.83,0,0,0-.52.59A1.68,1.68,0,0,0,238.86,345.25Z"/><path class="cls-2" d="M258.42,354.22a4.33,4.33,0,0,1-1.4-.43A3.81,3.81,0,0,1,256,353a4.23,4.23,0,0,1-.74-1.08,6.38,6.38,0,0,1-.46-1.29L256,350a4.53,4.53,0,0,0,.81,1.95,2.74,2.74,0,0,0,1.64,1v-4.48a4.63,4.63,0,0,1-2.34-1.18,2.88,2.88,0,0,1-.82-2.13,2.57,2.57,0,0,1,.23-1.11,2.88,2.88,0,0,1,.65-.9,3.75,3.75,0,0,1,1-.65,4.63,4.63,0,0,1,1.28-.34v-1.46h1.33v1.48a4,4,0,0,1,2.12.92,4.34,4.34,0,0,1,1.2,1.84l-1.12.69a3.39,3.39,0,0,0-.84-1.5,2.61,2.61,0,0,0-1.36-.72v4.08a5.15,5.15,0,0,1,2.68,1.13,2.92,2.92,0,0,1,.84,2.22,3.05,3.05,0,0,1-.26,1.23,3.2,3.2,0,0,1-.72,1,3.74,3.74,0,0,1-1.11.75,4.36,4.36,0,0,1-1.43.37v1.46h-1.33Zm-1.83-9c0,.9.61,1.55,1.83,2V343.4a2.5,2.5,0,0,0-1.31.58A1.62,1.62,0,0,0,256.59,345.25Zm5.28,5.68a1.9,1.9,0,0,0-.49-1.39,3.49,3.49,0,0,0-1.63-.78V353a2.51,2.51,0,0,0,1.56-.69A1.91,1.91,0,0,0,261.87,350.93Z"/><path class="cls-2" d="M271.79,354.06h-7.06v-1.14h2.83v-8.64a2.26,2.26,0,0,1-1.06.63,6,6,0,0,1-1.44.16v-1.2a3.38,3.38,0,0,0,1.65-.34,2.63,2.63,0,0,0,1-1.13H269v10.52h2.83Z"/><path class="cls-2" d="M275.75,352h2v2.07h-2Z"/><path class="cls-2" d="M290,348.23a7.46,7.46,0,0,1-1.15,4.49,4.07,4.07,0,0,1-6.42,0,9.36,9.36,0,0,1,0-9,4.08,4.08,0,0,1,6.42,0A7.52,7.52,0,0,1,290,348.23Zm-7.32,0a8,8,0,0,0,.48,3l4.21-7.16a2.38,2.38,0,0,0-1.73-.67,2.43,2.43,0,0,0-2.2,1.25A6.91,6.91,0,0,0,282.68,348.23Zm3,4.83a2.44,2.44,0,0,0,2.21-1.25,7,7,0,0,0,.75-3.58,8,8,0,0,0-.48-3l-4.21,7.16A2.39,2.39,0,0,0,285.64,353.06Z"/><path class="cls-2" d="M298.88,348.23a7.53,7.53,0,0,1-1.15,4.49,4.08,4.08,0,0,1-6.43,0,9.36,9.36,0,0,1,0-9,4.09,4.09,0,0,1,6.43,0A7.59,7.59,0,0,1,298.88,348.23Zm-7.33,0a8,8,0,0,0,.48,3l4.22-7.16a2.57,2.57,0,0,0-3.94.58A6.91,6.91,0,0,0,291.55,348.23Zm3,4.83a2.43,2.43,0,0,0,2.2-1.25,6.91,6.91,0,0,0,.76-3.58,8,8,0,0,0-.48-3l-4.22,7.16A2.42,2.42,0,0,0,294.52,353.06Z"/><path class="cls-2" d="M308.73,342.4h7.33v1.23h-5.93v4.12h5.43V349h-5.43v5.08h-1.4Z"/><path class="cls-2" d="M323.37,350.61h-4.46l-1.19,3.45h-1.4l4.08-11.66h1.47L326,354.06h-1.4Zm-4.06-1.16H323l-1.52-4.52-.11-.35c0-.1-.07-.2-.11-.31a2.23,2.23,0,0,1-.09-.32,3,3,0,0,0-.1.32c0,.11-.07.21-.1.31l-.12.35Z"/><path class="cls-2" d="M334.37,351a7.76,7.76,0,0,1-.55,1.26,4.26,4.26,0,0,1-.81,1.06,3.7,3.7,0,0,1-1.15.73,3.93,3.93,0,0,1-1.55.28,4.32,4.32,0,0,1-2.06-.46,4.06,4.06,0,0,1-1.47-1.26,5.6,5.6,0,0,1-.87-1.93,9.2,9.2,0,0,1-.3-2.41,8.4,8.4,0,0,1,.34-2.41,5.9,5.9,0,0,1,.95-1.93,4.45,4.45,0,0,1,1.51-1.26,4.19,4.19,0,0,1,2-.46,4.39,4.39,0,0,1,1.48.22A3.35,3.35,0,0,1,333,343a3.68,3.68,0,0,1,.8,1,5.45,5.45,0,0,1,.53,1.2l-1.2.56a3.92,3.92,0,0,0-1-1.75,2.51,2.51,0,0,0-1.73-.58,2.7,2.7,0,0,0-1.43.38,3.23,3.23,0,0,0-1,1,4.82,4.82,0,0,0-.63,1.53,8.79,8.79,0,0,0-.2,1.9,10.31,10.31,0,0,0,.16,1.91,4.68,4.68,0,0,0,.56,1.54,2.82,2.82,0,0,0,1,1,2.94,2.94,0,0,0,1.55.37,2.49,2.49,0,0,0,1.88-.75,3,3,0,0,0,.6-.83,6.81,6.81,0,0,0,.44-1Z"/><path class="cls-2" d="M342.18,343.53h-2.6v9.39h2.7v1.14h-6.79v-1.14h2.69v-9.39h-2.59V342.4h6.59Z"/><path class="cls-2" d="M344.28,342.4h1.4v10.42h5.89v1.24h-7.29Z"/><path class="cls-2" d="M359.93,343.53h-2.6v9.39H360v1.14h-6.8v-1.14h2.7v-9.39h-2.6V342.4h6.6Z"/><path class="cls-2" d="M361.48,342.4h8v1.23H366.2v10.43h-1.39V343.63h-3.33Z"/><path class="cls-2" d="M373.68,349.45l-3.75-7.05h1.44l2.64,5,.14.27.1.26c0,.09.08.19.13.29a1.48,1.48,0,0,1,.12-.29l.11-.26.13-.27,2.65-5h1.43l-3.74,7.05v4.61h-1.4Z"/><path class="cls-2" d="M388.6,342.4h7.32v1.23H390v4.12h5.42V349H390v5.08h-1.4Z"/><path class="cls-2" d="M397.45,342.4h7.06v1.23h-5.66v3.78h5.2v1.24h-5.2v4.17h5.71v1.24h-7.11Z"/><path class="cls-2" d="M406.33,342.4h7.06v1.23h-5.66v3.78h5.19v1.24h-5.19v4.17h5.71v1.24h-7.11Z"/><path class="cls-2" d="M181.39,370.59h-4.46L175.74,374h-1.4l4.08-11.66h1.47L184,374h-1.4Zm-4.06-1.17H181l-1.52-4.51-.11-.35c0-.1-.07-.2-.11-.31a2.66,2.66,0,0,1-.09-.32,2.42,2.42,0,0,0-.1.32c0,.11-.07.21-.1.31l-.12.35Z"/><path class="cls-2" d="M184.22,362.38H188a4.81,4.81,0,0,1,1.48.21,3.24,3.24,0,0,1,1.09.58,2.52,2.52,0,0,1,.67.89,2.81,2.81,0,0,1,.22,1.13,2.44,2.44,0,0,1-.52,1.62,3.91,3.91,0,0,1-1.28,1,5.43,5.43,0,0,1,.88.41,3.13,3.13,0,0,1,.7.6,2.5,2.5,0,0,1,.47.81,3,3,0,0,1,.17,1,3.11,3.11,0,0,1-.3,1.38,3.4,3.4,0,0,1-.82,1.06,3.56,3.56,0,0,1-1.21.67A4.7,4.7,0,0,1,188,374h-3.81Zm1.4,4.9h2.28a2.72,2.72,0,0,0,1.63-.44,2,2,0,0,0,0-2.86,2.72,2.72,0,0,0-1.63-.43h-2.28Zm0,5.59h2.19a3.37,3.37,0,0,0,2-.52,2.3,2.3,0,0,0,0-3.38,3.43,3.43,0,0,0-2-.53h-2.19Z"/><path class="cls-2" d="M201.27,370.94a8.74,8.74,0,0,1-.55,1.26,4.55,4.55,0,0,1-.82,1.06,3.48,3.48,0,0,1-1.15.73,3.9,3.9,0,0,1-1.55.28,4.37,4.37,0,0,1-2.06-.46,4.18,4.18,0,0,1-1.47-1.27,5.65,5.65,0,0,1-.87-1.92,9.71,9.71,0,0,1-.29-2.41,8.53,8.53,0,0,1,.33-2.42,5.77,5.77,0,0,1,1-1.92,4.45,4.45,0,0,1,1.51-1.26,4.13,4.13,0,0,1,2-.46,4.43,4.43,0,0,1,1.48.22,3.56,3.56,0,0,1,1.11.63,3.48,3.48,0,0,1,.79.95,5.13,5.13,0,0,1,.53,1.19l-1.2.57a3.83,3.83,0,0,0-1-1.76,2.53,2.53,0,0,0-1.72-.57,2.67,2.67,0,0,0-1.43.37,3.2,3.2,0,0,0-1,1,5.05,5.05,0,0,0-.62,1.53,8.19,8.19,0,0,0-.21,1.9,10.36,10.36,0,0,0,.17,1.91,4.54,4.54,0,0,0,.55,1.53,2.85,2.85,0,0,0,1,1,3.1,3.1,0,0,0,1.56.37,2.53,2.53,0,0,0,1.88-.75,3.68,3.68,0,0,0,.6-.83,6.79,6.79,0,0,0,.43-1Z"/><path class="cls-2" d="M201.88,362.38h2.65a5.31,5.31,0,0,1,2.21.44,4.61,4.61,0,0,1,1.6,1.22,5.23,5.23,0,0,1,1,1.84,8.64,8.64,0,0,1,0,4.66,5.32,5.32,0,0,1-1,1.84,4.59,4.59,0,0,1-1.6,1.21,5.16,5.16,0,0,1-2.21.45h-2.65Zm2.57,10.42a3.36,3.36,0,0,0,2.83-1.18,6.74,6.74,0,0,0,0-6.83,3.38,3.38,0,0,0-2.83-1.18h-1.17v9.19Z"/><path class="cls-2" d="M211.11,362.38h7v1.23H212.5v3.78h5.2v1.23h-5.2v4.18h5.71V374h-7.1Z"/><path class="cls-2" d="M220,362.38h7.32v1.23h-5.93v4.12h5.43V369h-5.43V374H220Z"/><path class="cls-2" d="M235.46,372.14a3.65,3.65,0,0,1-1.05,1.52,2.78,2.78,0,0,1-1.88.61,4.08,4.08,0,0,1-2-.46,4,4,0,0,1-1.41-1.27,5.64,5.64,0,0,1-.86-1.92,9.26,9.26,0,0,1-.29-2.41,8.53,8.53,0,0,1,.33-2.42,6,6,0,0,1,1-1.92,4.33,4.33,0,0,1,1.5-1.26,4.19,4.19,0,0,1,2-.46,3.84,3.84,0,0,1,2.57.81,4.35,4.35,0,0,1,1.36,2.1l-1.13.65a3.25,3.25,0,0,0-1-1.72,2.65,2.65,0,0,0-1.83-.61,2.74,2.74,0,0,0-1.41.36,3.16,3.16,0,0,0-1,1,4.47,4.47,0,0,0-.64,1.52,8.06,8.06,0,0,0-.22,2,9.06,9.06,0,0,0,.2,2,4.42,4.42,0,0,0,.61,1.53,3.08,3.08,0,0,0,1,1,2.74,2.74,0,0,0,1.41.36,2,2,0,0,0,1.19-.34,2.64,2.64,0,0,0,.81-.85,4.1,4.1,0,0,0,.5-1.19,5.87,5.87,0,0,0,.21-1.3H232.2v-1.17h4.53V374h-1Z"/><path class="cls-2" d="M238.11,368.34h6.33v1h-6.33Z"/><path class="cls-2" d="M254.51,368.21a7.46,7.46,0,0,1-1.15,4.49,4.08,4.08,0,0,1-6.43,0,9.36,9.36,0,0,1,0-9,4.09,4.09,0,0,1,6.43,0A7.5,7.5,0,0,1,254.51,368.21Zm-7.33,0a7.77,7.77,0,0,0,.49,3l4.21-7.16a2.41,2.41,0,0,0-1.73-.67,2.44,2.44,0,0,0-2.21,1.25A7,7,0,0,0,247.18,368.21Zm3,4.83a2.43,2.43,0,0,0,2.2-1.25,6.91,6.91,0,0,0,.76-3.58,8,8,0,0,0-.48-3l-4.21,7.16A2.42,2.42,0,0,0,250.15,373Z"/><path class="cls-2" d="M262.92,374h-7.06V372.9h2.83v-8.64a2.26,2.26,0,0,1-1.06.63,6.12,6.12,0,0,1-1.44.15v-1.19a3.27,3.27,0,0,0,1.65-.35,2.61,2.61,0,0,0,1-1.12h1.27V372.9h2.83Z"/><path class="cls-2" d="M268.69,368.69a7.41,7.41,0,0,0,.79-.87A4.74,4.74,0,0,0,270,367a2.4,2.4,0,0,0,.25-.74,4.11,4.11,0,0,0,.07-.8,2.13,2.13,0,0,0-.18-.88,2.26,2.26,0,0,0-.5-.69,2.29,2.29,0,0,0-.76-.45,2.93,2.93,0,0,0-1-.16,2.67,2.67,0,0,0-.95.17,2.28,2.28,0,0,0-.74.47,2.15,2.15,0,0,0-.5.75,2.58,2.58,0,0,0-.17.94,2,2,0,0,0,.13.75l-1.23.2a2.42,2.42,0,0,1-.16-.55,3.25,3.25,0,0,1,1-2.86,3.68,3.68,0,0,1,1.17-.75,4,4,0,0,1,1.54-.28,4.65,4.65,0,0,1,1.54.24,3.57,3.57,0,0,1,1.17.68,3,3,0,0,1,.75,1.05,3.41,3.41,0,0,1,.26,1.32,5.1,5.1,0,0,1-.11,1,4,4,0,0,1-.36,1,7.16,7.16,0,0,1-.64,1,13.82,13.82,0,0,1-.94,1.05l-3.38,3.29h5.44V374h-7.52v-.92Z"/><path class="cls-2" d="M274.35,370.29a.9.9,0,0,0-.05.22c0,.1,0,.21,0,.35a2,2,0,0,0,.19.88,2.16,2.16,0,0,0,.52.68,2.54,2.54,0,0,0,.79.45,3,3,0,0,0,1,.17,2.68,2.68,0,0,0,1.84-.59,2.3,2.3,0,0,0,.66-1.79,2.13,2.13,0,0,0-.25-1,2.23,2.23,0,0,0-.68-.72,3.14,3.14,0,0,0-1-.43,6.27,6.27,0,0,0-1.27-.13v-1.13a3.86,3.86,0,0,0,1.28-.18,2.09,2.09,0,0,0,.79-.49,1.71,1.71,0,0,0,.4-.67,2.54,2.54,0,0,0,.12-.78,1.59,1.59,0,0,0-.57-1.3,2.32,2.32,0,0,0-1.55-.48,2.23,2.23,0,0,0-.77.14,1.83,1.83,0,0,0-.65.38,1.86,1.86,0,0,0-.44.6,1.79,1.79,0,0,0-.17.78,1.5,1.5,0,0,0,.08.5l-1.21.18a1.87,1.87,0,0,1-.11-.42,2.81,2.81,0,0,1,0-.43,2.55,2.55,0,0,1,.25-1.12,2.66,2.66,0,0,1,.68-.92,3.06,3.06,0,0,1,1.05-.63,3.82,3.82,0,0,1,1.35-.22,4.74,4.74,0,0,1,1.47.21,3.1,3.1,0,0,1,1.08.58,2.61,2.61,0,0,1,.67.88,2.72,2.72,0,0,1,.23,1.11,3.4,3.4,0,0,1-.41,1.61,2.45,2.45,0,0,1-.55.66,2.37,2.37,0,0,1-.85.44,3.9,3.9,0,0,1,1,.4,3.12,3.12,0,0,1,.79.64,2.94,2.94,0,0,1,.53.87,3.08,3.08,0,0,1,.19,1.07,3.87,3.87,0,0,1-.31,1.58,3.34,3.34,0,0,1-2.07,1.84,5,5,0,0,1-1.52.23,4.55,4.55,0,0,1-1.66-.29,4,4,0,0,1-1.22-.76,3.36,3.36,0,0,1-.77-1.07,3,3,0,0,1-.26-1.19,3.14,3.14,0,0,1,.05-.51,2.54,2.54,0,0,1,.13-.48Z"/><path class="cls-2" d="M282.48,368.34h6.32v1h-6.32Z"/><path class="cls-2" d="M290.49,370.47l5.17-8.09h1.4v8.09h1.32v1.23h-1.32V374h-1.4V371.7h-5.17Zm1.43,0h3.74v-5.94Z"/><path class="cls-2" d="M300,362.38h6.61v1.23h-5.5l-.31,3.83a3,3,0,0,1,1.21-1,3.57,3.57,0,0,1,1.44-.32,4.26,4.26,0,0,1,1.65.3,3.54,3.54,0,0,1,1.23.84,3.64,3.64,0,0,1,.75,1.28,5.09,5.09,0,0,1,0,3.3,3.79,3.79,0,0,1-.82,1.3A3.84,3.84,0,0,1,305,374a4.23,4.23,0,0,1-1.66.31,4.39,4.39,0,0,1-1.61-.28,4.08,4.08,0,0,1-1.24-.72,3.16,3.16,0,0,1-.79-1,2.93,2.93,0,0,1-.27-1.23,2.25,2.25,0,0,1,0-.44,1.5,1.5,0,0,1,.12-.39l1.23.27a1.43,1.43,0,0,0,0,.22,1.37,1.37,0,0,0,0,.3,1.88,1.88,0,0,0,.2.89,1.73,1.73,0,0,0,.55.65,2.41,2.41,0,0,0,.82.4,3.68,3.68,0,0,0,1,.14,2.58,2.58,0,0,0,1.93-.76,3,3,0,0,0,.73-2.14,3.32,3.32,0,0,0-.2-1.22,2.42,2.42,0,0,0-1.42-1.49,3.07,3.07,0,0,0-1.06-.19,2.66,2.66,0,0,0-1.62.49,3.37,3.37,0,0,0-1,1.16l-1.13-.32Z"/><path class="cls-2" d="M314.43,365.41c0-.09.06-.19.09-.31a1.45,1.45,0,0,0,0-.37,1.13,1.13,0,0,0-.52-1,2.61,2.61,0,0,0-1.48-.36,2.09,2.09,0,0,0-1.22.37,3,3,0,0,0-.93,1,6.27,6.27,0,0,0-.63,1.57,9.29,9.29,0,0,0-.26,2,3.73,3.73,0,0,1,.53-.74,3.42,3.42,0,0,1,.71-.61,3.85,3.85,0,0,1,.87-.41,3.12,3.12,0,0,1,1-.15,3.92,3.92,0,0,1,1.49.29,3.67,3.67,0,0,1,1.19.8,3.47,3.47,0,0,1,.79,1.22,4.22,4.22,0,0,1,.29,1.57,4.17,4.17,0,0,1-.29,1.54,4,4,0,0,1-.82,1.26A3.71,3.71,0,0,1,314,374a4.16,4.16,0,0,1-1.63.32,3.7,3.7,0,0,1-3.06-1.4,6.27,6.27,0,0,1-1.12-4,10.7,10.7,0,0,1,.2-2.1,9.59,9.59,0,0,1,.49-1.73,5,5,0,0,1,1.49-2.15,3.47,3.47,0,0,1,2.24-.76,3.65,3.65,0,0,1,2.43.73,2.45,2.45,0,0,1,.86,1.95,1.93,1.93,0,0,1-.05.47,1.85,1.85,0,0,1-.1.38Zm-2.07,2.23a2.67,2.67,0,0,0-1,.19,2.35,2.35,0,0,0-.83.53,2.42,2.42,0,0,0-.56.85,3.15,3.15,0,0,0,0,2.26,2.4,2.4,0,0,0,1.39,1.38,2.67,2.67,0,0,0,1,.19,2.63,2.63,0,0,0,1-.19,2.28,2.28,0,0,0,.82-.53,2.52,2.52,0,0,0,.56-.85,3.15,3.15,0,0,0,0-2.26,2.42,2.42,0,0,0-.56-.85,2.15,2.15,0,0,0-.82-.53A2.63,2.63,0,0,0,312.36,367.64Z"/><path class="cls-2" d="M320.4,374H319l4.34-10.43h-5.81v-1.23h7.23v1.13Z"/><path class="cls-2" d="M330,374.27a5,5,0,0,1-1.58-.25,4.16,4.16,0,0,1-1.28-.7,3.1,3.1,0,0,1-.84-1.09,3.31,3.31,0,0,1-.3-1.42,3,3,0,0,1,.55-1.83,3.82,3.82,0,0,1,1.39-1.19,2.95,2.95,0,0,1-1.57-2.63,2.64,2.64,0,0,1,.28-1.22,3,3,0,0,1,.78-1,3.53,3.53,0,0,1,1.15-.62,4.91,4.91,0,0,1,2.84,0,3.63,3.63,0,0,1,1.15.62,3,3,0,0,1,.78,1,2.77,2.77,0,0,1,.28,1.22,2.95,2.95,0,0,1-1.57,2.63,3.82,3.82,0,0,1,1.39,1.19,3,3,0,0,1,.55,1.83,3.31,3.31,0,0,1-.3,1.42,3.1,3.1,0,0,1-.84,1.09,4.16,4.16,0,0,1-1.28.7A5,5,0,0,1,330,374.27Zm0-1.13a3.21,3.21,0,0,0,1.05-.17,2.35,2.35,0,0,0,.83-.48,2.32,2.32,0,0,0,.55-.76,2.38,2.38,0,0,0,.2-1,2.13,2.13,0,0,0-.22-1,2.23,2.23,0,0,0-.58-.75,2.88,2.88,0,0,0-.84-.48,2.81,2.81,0,0,0-2,0,2.88,2.88,0,0,0-.84.48,2.23,2.23,0,0,0-.58.75,2.13,2.13,0,0,0-.22,1,2.38,2.38,0,0,0,.2,1,2.32,2.32,0,0,0,.55.76,2.35,2.35,0,0,0,.83.48A3.21,3.21,0,0,0,330,373.14Zm-2.36-7.86a1.79,1.79,0,0,0,.19.84,2,2,0,0,0,.51.64,2.48,2.48,0,0,0,.75.41,3,3,0,0,0,1.81,0,2.42,2.42,0,0,0,.76-.41,2.12,2.12,0,0,0,.51-.64,1.79,1.79,0,0,0,.19-.84,1.93,1.93,0,0,0-.2-.9,1.89,1.89,0,0,0-.55-.64,2.43,2.43,0,0,0-.75-.39,2.71,2.71,0,0,0-1.72,0,2.43,2.43,0,0,0-.75.39,1.89,1.89,0,0,0-.55.64A1.81,1.81,0,0,0,327.65,365.28Z"/><path class="cls-2" d="M336.74,371a2.26,2.26,0,0,0-.1.31,2.22,2.22,0,0,0,0,.38,1.13,1.13,0,0,0,.52,1,2.4,2.4,0,0,0,1.4.36,2.46,2.46,0,0,0,2.23-1.26,8.09,8.09,0,0,0,.9-3.69,3.44,3.44,0,0,1-1.21,1.4,3.28,3.28,0,0,1-1.84.52,3.77,3.77,0,0,1-1.51-.3,3.73,3.73,0,0,1-1.21-.79,3.57,3.57,0,0,1-.79-1.23,4.2,4.2,0,0,1-.29-1.56,4.14,4.14,0,0,1,.29-1.54,3.78,3.78,0,0,1,2.07-2.13,4.13,4.13,0,0,1,1.64-.31,3.67,3.67,0,0,1,3.1,1.4,6.37,6.37,0,0,1,1.08,4,11.27,11.27,0,0,1-.2,2.14,10,10,0,0,1-.5,1.78,4.73,4.73,0,0,1-1.48,2.11,3.47,3.47,0,0,1-2.15.71,5,5,0,0,1-1.39-.19,3.36,3.36,0,0,1-1.07-.54,2.43,2.43,0,0,1-.92-2,2.61,2.61,0,0,1,.05-.48,2.64,2.64,0,0,1,.1-.37Zm2.06-2.23a2.83,2.83,0,0,0,1-.18,2.5,2.5,0,0,0,.83-.53,2.54,2.54,0,0,0,.57-.85,3.08,3.08,0,0,0,.2-1.13,3.17,3.17,0,0,0-.2-1.14,2.5,2.5,0,0,0-.57-.84,2.53,2.53,0,0,0-.83-.54,2.92,2.92,0,0,0-2,0,2.39,2.39,0,0,0-.82.54,2.63,2.63,0,0,0-.56.84,3,3,0,0,0-.21,1.14,2.88,2.88,0,0,0,.21,1.13,2.68,2.68,0,0,0,.56.85,2.37,2.37,0,0,0,.82.53A2.83,2.83,0,0,0,338.8,368.77Z"/><path class="cls-2" d="M352.12,368.21A7.46,7.46,0,0,1,351,372.7a4.08,4.08,0,0,1-6.43,0,9.43,9.43,0,0,1,0-9,4.09,4.09,0,0,1,6.43,0A7.5,7.5,0,0,1,352.12,368.21Zm-7.33,0a7.77,7.77,0,0,0,.49,3l4.21-7.16a2.39,2.39,0,0,0-1.73-.67,2.44,2.44,0,0,0-2.21,1.25A7,7,0,0,0,344.79,368.21Zm3,4.83a2.43,2.43,0,0,0,2.2-1.25,6.91,6.91,0,0,0,.76-3.58,8,8,0,0,0-.48-3L346,372.37A2.42,2.42,0,0,0,347.76,373Z"/><path class="cls-2" d="M426.58,210.71h-4.46l-1.18,3.44h-1.4l4.08-11.65h1.46l4.08,11.65h-1.39Zm-4.06-1.17h3.66L424.67,205l-.12-.35c0-.1-.07-.21-.11-.32a2.12,2.12,0,0,1-.09-.31c0,.1-.06.2-.1.31a3,3,0,0,1-.1.32L424,205Z"/><path class="cls-2" d="M429.41,202.5h3.78a4.76,4.76,0,0,1,1.48.21,2.91,2.91,0,0,1,1.09.58,2.41,2.41,0,0,1,.67.89,2.78,2.78,0,0,1,.23,1.13,2.52,2.52,0,0,1-.52,1.62,3.85,3.85,0,0,1-1.28,1,4.37,4.37,0,0,1,.87.42,2.94,2.94,0,0,1,.71.6,2.69,2.69,0,0,1,.47.81,3,3,0,0,1,.16,1,3.11,3.11,0,0,1-.3,1.38,3.37,3.37,0,0,1-.81,1.06,3.79,3.79,0,0,1-1.22.67,4.64,4.64,0,0,1-1.51.23h-3.82Zm1.4,4.89h2.28a2.72,2.72,0,0,0,1.63-.43,1.65,1.65,0,0,0,.6-1.43,1.63,1.63,0,0,0-.6-1.43,2.72,2.72,0,0,0-1.63-.44h-2.28Zm0,5.6H433a3.39,3.39,0,0,0,2-.52,2.3,2.3,0,0,0,0-3.39,3.37,3.37,0,0,0-2-.52h-2.2Z"/><path class="cls-2" d="M446.46,211.06a7.3,7.3,0,0,1-.55,1.25,4.31,4.31,0,0,1-.81,1.07,3.89,3.89,0,0,1-1.15.73,4.12,4.12,0,0,1-1.55.28,4.51,4.51,0,0,1-2.07-.46,4.24,4.24,0,0,1-1.46-1.27,5.64,5.64,0,0,1-.87-1.92,9.25,9.25,0,0,1-.3-2.41,8.52,8.52,0,0,1,.34-2.42A6,6,0,0,1,439,204a4.6,4.6,0,0,1,1.51-1.27,4.31,4.31,0,0,1,2-.46,4.38,4.38,0,0,1,1.48.23,3.51,3.51,0,0,1,1.11.62,3.85,3.85,0,0,1,.8.95,5.91,5.91,0,0,1,.53,1.2l-1.2.57a4,4,0,0,0-1-1.76,2.56,2.56,0,0,0-1.73-.57,2.7,2.7,0,0,0-1.43.37,3.17,3.17,0,0,0-1,1,4.82,4.82,0,0,0-.63,1.53,8.79,8.79,0,0,0-.2,1.9,10.47,10.47,0,0,0,.16,1.91,4.55,4.55,0,0,0,.56,1.53,2.93,2.93,0,0,0,1,1,3,3,0,0,0,1.55.36,2.6,2.6,0,0,0,1.08-.2,2.44,2.44,0,0,0,.8-.55,2.94,2.94,0,0,0,.6-.82,7.83,7.83,0,0,0,.44-1Z"/><path class="cls-2" d="M447.08,202.5h2.64a5.28,5.28,0,0,1,2.21.44,4.62,4.62,0,0,1,1.61,1.21,5.3,5.3,0,0,1,1,1.84,8.43,8.43,0,0,1,0,4.67,5.3,5.3,0,0,1-1,1.84,4.62,4.62,0,0,1-1.61,1.21,5.28,5.28,0,0,1-2.21.44h-2.64Zm2.56,10.42a3.38,3.38,0,0,0,2.84-1.18,6.8,6.8,0,0,0,0-6.83,3.38,3.38,0,0,0-2.84-1.18h-1.16v9.19Z"/><path class="cls-2" d="M456.3,202.5h7.06v1.23H457.7v3.78h5.19v1.23H457.7v4.18h5.71v1.23H456.3Z"/><path class="cls-2" d="M465.19,202.5h7.33v1.23h-5.93v4.11H472v1.23h-5.43v5.08h-1.4Z"/><path class="cls-2" d="M480.66,212.25a3.8,3.8,0,0,1-1.06,1.53,2.8,2.8,0,0,1-1.87.61,4,4,0,0,1-3.4-1.73,6,6,0,0,1-.86-1.92,9.71,9.71,0,0,1-.29-2.41,8.18,8.18,0,0,1,.34-2.42,5.93,5.93,0,0,1,.94-1.92,4.57,4.57,0,0,1,1.5-1.27,4.31,4.31,0,0,1,2-.46,3.87,3.87,0,0,1,2.58.81,4.36,4.36,0,0,1,1.35,2.11l-1.13.65a3.27,3.27,0,0,0-1-1.73,2.73,2.73,0,0,0-1.83-.6,2.85,2.85,0,0,0-1.42.35,3.1,3.1,0,0,0-1,1,4.68,4.68,0,0,0-.64,1.52,8.52,8.52,0,0,0-.22,2,9.06,9.06,0,0,0,.2,1.95,4.79,4.79,0,0,0,.61,1.52,3,3,0,0,0,1,1,2.77,2.77,0,0,0,1.4.35,2.06,2.06,0,0,0,1.19-.33,2.81,2.81,0,0,0,.82-.86,4.33,4.33,0,0,0,.5-1.18,6,6,0,0,0,.21-1.31h-3.17v-1.16h4.53v5.84h-1Z"/><path class="cls-2" d="M482.59,202.5H484v5.09h5V202.5h1.4v11.65H489v-5.33h-5v5.33h-1.4Z"/><path class="cls-2" d="M498.64,203.63H496V213h2.7v1.13H492V213h2.69v-9.39h-2.59V202.5h6.59Z"/><path class="cls-2" d="M508,210.42a4.57,4.57,0,0,1-.26,1.61,3.62,3.62,0,0,1-.73,1.25,3.2,3.2,0,0,1-1.16.81,3.88,3.88,0,0,1-1.56.3,4.34,4.34,0,0,1-1.46-.25,3.31,3.31,0,0,1-1.17-.71,3.24,3.24,0,0,1-.78-1.2,4.6,4.6,0,0,1-.29-1.69l1.4.15a2.91,2.91,0,0,0,.18,1.06,2,2,0,0,0,.49.78,2.23,2.23,0,0,0,.73.47,2.66,2.66,0,0,0,.9.15,2.73,2.73,0,0,0,.92-.15,1.75,1.75,0,0,0,.74-.49,2.49,2.49,0,0,0,.48-.87,4.05,4.05,0,0,0,.17-1.28V202.5H508Z"/><path class="cls-2" d="M509.31,202.5h1.4v5.31l.25-.33.26-.34c.1-.12.22-.24.34-.36l3.84-4.28h1.72l-3.93,4.34,4.28,7.31h-1.63l-3.65-6.21-1.48,1.65v4.56h-1.4Z"/><path class="cls-2" d="M518.48,202.5h1.4v10.42h5.9v1.23h-7.3Z"/><path class="cls-2" d="M437.59,228.3a7.55,7.55,0,0,1-1.15,4.5,4.09,4.09,0,0,1-6.43,0,9.36,9.36,0,0,1,0-9,4.08,4.08,0,0,1,6.43,0A7.53,7.53,0,0,1,437.59,228.3Zm-7.33,0a7.77,7.77,0,0,0,.49,3l4.21-7.16a2.59,2.59,0,0,0-3.94.58A6.93,6.93,0,0,0,430.26,228.3Zm3,4.83a2.41,2.41,0,0,0,2.2-1.25,6.88,6.88,0,0,0,.76-3.58,7.89,7.89,0,0,0-.48-3l-4.22,7.16A2.45,2.45,0,0,0,433.23,233.13Z"/><path class="cls-2" d="M446,234.13h-7.06V233h2.83v-8.64a2.21,2.21,0,0,1-1.06.62,5.61,5.61,0,0,1-1.44.16v-1.2a3.27,3.27,0,0,0,1.65-.34,2.67,2.67,0,0,0,1-1.12h1.26V233H446Z"/><path class="cls-2" d="M451.77,228.79a7.43,7.43,0,0,0,.79-.88,4.31,4.31,0,0,0,.49-.78,2.45,2.45,0,0,0,.25-.75,4,4,0,0,0,.07-.79,2.1,2.1,0,0,0-.18-.88,2,2,0,0,0-.5-.69,2.07,2.07,0,0,0-.76-.45,2.69,2.69,0,0,0-1-.16,2.47,2.47,0,0,0-1,.17,2.26,2.26,0,0,0-.75.47,2.22,2.22,0,0,0-.49.74,2.67,2.67,0,0,0-.17,1,2,2,0,0,0,.13.75l-1.23.2a2.42,2.42,0,0,1-.16-.55,3.31,3.31,0,0,1,0-.55,3.24,3.24,0,0,1,1-2.31,3.57,3.57,0,0,1,1.16-.75,4,4,0,0,1,1.55-.29,4.31,4.31,0,0,1,1.53.25,3.35,3.35,0,0,1,1.18.68,2.81,2.81,0,0,1,.75,1.05,3.34,3.34,0,0,1,.26,1.32,4.93,4.93,0,0,1-.11,1,3.69,3.69,0,0,1-.36,1,6.14,6.14,0,0,1-.64,1,10.81,10.81,0,0,1-.94,1l-3.38,3.3h5.44v1.23h-7.52v-.92Z"/><path class="cls-2" d="M457.43,230.38a1.14,1.14,0,0,0-.05.23c0,.09,0,.21,0,.34a2,2,0,0,0,.19.88,2.1,2.1,0,0,0,.52.69,2.76,2.76,0,0,0,.79.45,3,3,0,0,0,1,.16,2.68,2.68,0,0,0,1.84-.59,2.27,2.27,0,0,0,.66-1.79,2.09,2.09,0,0,0-.25-1,2.23,2.23,0,0,0-.68-.72,2.94,2.94,0,0,0-1-.43,5.63,5.63,0,0,0-1.27-.13V227.3a3.91,3.91,0,0,0,1.28-.18,2,2,0,0,0,.79-.48,1.75,1.75,0,0,0,.4-.68,2.47,2.47,0,0,0,.11-.77,1.62,1.62,0,0,0-.56-1.31,2.37,2.37,0,0,0-1.55-.47,2.22,2.22,0,0,0-.77.13,2,2,0,0,0-.65.38,1.86,1.86,0,0,0-.44.6,1.73,1.73,0,0,0-.17.79,1.54,1.54,0,0,0,.08.5l-1.21.18a2.19,2.19,0,0,1-.11-.42,2.81,2.81,0,0,1,0-.43,2.52,2.52,0,0,1,.25-1.12,2.79,2.79,0,0,1,.68-.93,3.21,3.21,0,0,1,1.05-.62,3.82,3.82,0,0,1,1.35-.23,4.74,4.74,0,0,1,1.47.21,3.1,3.1,0,0,1,1.08.58,2.65,2.65,0,0,1,.67.89,2.67,2.67,0,0,1,.23,1.1,3.34,3.34,0,0,1-.1.82,3.17,3.17,0,0,1-.31.79,2.36,2.36,0,0,1-.56.67,2.4,2.4,0,0,1-.84.44,3.9,3.9,0,0,1,1,.4,3.08,3.08,0,0,1,.79.64,2.79,2.79,0,0,1,.52.86,2.92,2.92,0,0,1,.2,1.08,3.82,3.82,0,0,1-.31,1.57,3.42,3.42,0,0,1-.83,1.14,3.36,3.36,0,0,1-1.24.7,4.7,4.7,0,0,1-1.52.23,4.35,4.35,0,0,1-1.66-.29,3.81,3.81,0,0,1-1.22-.75,3.47,3.47,0,0,1-.77-1.07,3.05,3.05,0,0,1-.26-1.2,2.91,2.91,0,0,1,.18-1Z"/><path class="cls-2" d="M464.69,230.57l5.18-8.09h1.4v8.09h1.31v1.23h-1.31v2.33h-1.4V231.8h-5.18Zm1.43,0h3.75v-5.95Z"/><path class="cls-2" d="M474.21,222.48h6.61v1.23h-5.49l-.32,3.83a2.94,2.94,0,0,1,1.22-1,3.39,3.39,0,0,1,1.43-.33,4.35,4.35,0,0,1,1.66.3,3.41,3.41,0,0,1,1.22.84,3.66,3.66,0,0,1,.76,1.28,5.1,5.1,0,0,1,.26,1.65,4.65,4.65,0,0,1-.29,1.65,3.76,3.76,0,0,1-2.11,2.17,4.47,4.47,0,0,1-1.67.3,4.55,4.55,0,0,1-1.6-.27,3.86,3.86,0,0,1-1.24-.72,3,3,0,0,1-.79-1.05,2.76,2.76,0,0,1-.28-1.22,3.75,3.75,0,0,1,0-.45,1.21,1.21,0,0,1,.13-.38l1.23.27a1.19,1.19,0,0,0-.05.22,2.33,2.33,0,0,0,0,.29,2,2,0,0,0,.2.89,2.07,2.07,0,0,0,.55.66,2.46,2.46,0,0,0,.83.4,3.61,3.61,0,0,0,1,.13,2.57,2.57,0,0,0,1.94-.76,3,3,0,0,0,.73-2.13A3.6,3.6,0,0,0,480,229a2.51,2.51,0,0,0-1.42-1.48,2.89,2.89,0,0,0-1.06-.19,2.75,2.75,0,0,0-1.63.48,3.41,3.41,0,0,0-1,1.17l-1.13-.32Z"/><path class="cls-2" d="M488.63,225.51a1.26,1.26,0,0,0,.09-.31,1.52,1.52,0,0,0,0-.38,1.14,1.14,0,0,0-.53-1,2.58,2.58,0,0,0-1.47-.35,2.17,2.17,0,0,0-1.23.36,3.22,3.22,0,0,0-.93,1,6,6,0,0,0-.62,1.58,8.6,8.6,0,0,0-.27,2,3.52,3.52,0,0,1,.53-.75,3.87,3.87,0,0,1,.72-.61,3.28,3.28,0,0,1,.87-.4,3.11,3.11,0,0,1,1-.15,3.7,3.7,0,0,1,1.49.29,3.66,3.66,0,0,1,1.2.8,3.43,3.43,0,0,1,.79,1.22,4.2,4.2,0,0,1,.28,1.56,4,4,0,0,1-.29,1.54,3.73,3.73,0,0,1-.81,1.27,3.91,3.91,0,0,1-1.27.86,4.07,4.07,0,0,1-1.62.31A3.72,3.72,0,0,1,483.5,233a6.28,6.28,0,0,1-1.11-4,10.53,10.53,0,0,1,.68-3.83,5.09,5.09,0,0,1,1.5-2.16,3.5,3.5,0,0,1,2.23-.76,3.66,3.66,0,0,1,2.43.74,2.39,2.39,0,0,1,.87,1.94,2.61,2.61,0,0,1-.05.48c0,.16-.07.28-.1.37Zm-2.06,2.23a2.83,2.83,0,0,0-1,.18,2.41,2.41,0,0,0-.83.53,2.65,2.65,0,0,0-.57.85,3.17,3.17,0,0,0,0,2.27,2.65,2.65,0,0,0,.57.85,2.41,2.41,0,0,0,.83.53,2.83,2.83,0,0,0,1,.18,2.87,2.87,0,0,0,1-.18,2.37,2.37,0,0,0,.82-.53,2.79,2.79,0,0,0,.56-.85,3.17,3.17,0,0,0,0-2.27,2.79,2.79,0,0,0-.56-.85,2.37,2.37,0,0,0-.82-.53A2.87,2.87,0,0,0,486.57,227.74Z"/><path class="cls-2" d="M494.61,234.13h-1.37l4.35-10.42h-5.81v-1.23H499v1.13Z"/><path class="cls-2" d="M504.22,234.36a4.82,4.82,0,0,1-1.59-.25,4.09,4.09,0,0,1-1.27-.69,3.14,3.14,0,0,1-.84-1.1,3.28,3.28,0,0,1-.3-1.42,3,3,0,0,1,.54-1.82,3.73,3.73,0,0,1,1.39-1.19A3,3,0,0,1,501,226.8a2.91,2.91,0,0,1-.41-1.54,2.68,2.68,0,0,1,.28-1.23,3,3,0,0,1,.77-.95,3.44,3.44,0,0,1,1.15-.62,4.73,4.73,0,0,1,2.85,0,3.44,3.44,0,0,1,1.15.62,3,3,0,0,1,.77.95,2.68,2.68,0,0,1,.28,1.23,2.91,2.91,0,0,1-.41,1.54,3,3,0,0,1-1.15,1.09,3.73,3.73,0,0,1,1.39,1.19,3,3,0,0,1,.54,1.82,3.28,3.28,0,0,1-.3,1.42,3.14,3.14,0,0,1-.84,1.1,4,4,0,0,1-1.27.69A4.8,4.8,0,0,1,504.22,234.36Zm0-1.13a3.19,3.19,0,0,0,1-.16,2.58,2.58,0,0,0,.84-.49,2.25,2.25,0,0,0,.75-1.73,2.23,2.23,0,0,0-.22-1,2.16,2.16,0,0,0-.58-.75,2.7,2.7,0,0,0-.84-.48,2.84,2.84,0,0,0-2,0,2.7,2.7,0,0,0-.84.48,2.29,2.29,0,0,0-.58.75,2.23,2.23,0,0,0-.22,1,2.25,2.25,0,0,0,.75,1.73,2.58,2.58,0,0,0,.84.49A3.21,3.21,0,0,0,504.22,233.23Zm-2.37-7.86a1.92,1.92,0,0,0,.19.84,2,2,0,0,0,.52.65,2.34,2.34,0,0,0,.75.4,2.67,2.67,0,0,0,.91.14,2.63,2.63,0,0,0,.89-.14,2.29,2.29,0,0,0,.76-.4,2,2,0,0,0,.52-.65,1.79,1.79,0,0,0,.19-.84,1.87,1.87,0,0,0-.21-.9,2.22,2.22,0,0,0-.54-.64,2.38,2.38,0,0,0-.76-.39,2.88,2.88,0,0,0-1.71,0,2.49,2.49,0,0,0-.76.39,2.22,2.22,0,0,0-.54.64A1.87,1.87,0,0,0,501.85,225.37Z"/><path class="cls-2" d="M510.94,231.1c0,.09-.06.19-.09.31a1.5,1.5,0,0,0,0,.37,1.12,1.12,0,0,0,.51,1,2.42,2.42,0,0,0,1.4.36,2.46,2.46,0,0,0,2.23-1.25,8.09,8.09,0,0,0,.9-3.69,3.57,3.57,0,0,1-1.2,1.4,3.28,3.28,0,0,1-1.84.51,4,4,0,0,1-1.52-.29,3.7,3.7,0,0,1-1.21-.8,3.78,3.78,0,0,1-.79-1.22,4.46,4.46,0,0,1,0-3.11,3.78,3.78,0,0,1,2.08-2.12,4.14,4.14,0,0,1,1.64-.32,3.68,3.68,0,0,1,3.09,1.4,6.39,6.39,0,0,1,1.09,4,11.38,11.38,0,0,1-.2,2.15,11,11,0,0,1-.5,1.78,4.78,4.78,0,0,1-1.49,2.11,3.44,3.44,0,0,1-2.14.7,4.63,4.63,0,0,1-1.39-.19,3.26,3.26,0,0,1-1.07-.54,2.35,2.35,0,0,1-.68-.85,2.5,2.5,0,0,1-.24-1.1,1.93,1.93,0,0,1,0-.47,1.85,1.85,0,0,1,.1-.38Zm2.07-2.23a2.77,2.77,0,0,0,1-.18,2.47,2.47,0,0,0,.84-.54,2.57,2.57,0,0,0,.56-.85,3.15,3.15,0,0,0,0-2.26,2.68,2.68,0,0,0-.56-.85,2.45,2.45,0,0,0-.84-.53,2.77,2.77,0,0,0-1-.18,2.83,2.83,0,0,0-1,.18,2.41,2.41,0,0,0-.83.53,2.65,2.65,0,0,0-.55.85,3.15,3.15,0,0,0,0,2.26,2.55,2.55,0,0,0,.55.85,2.43,2.43,0,0,0,.83.54A2.83,2.83,0,0,0,513,228.87Z"/><path class="cls-2" d="M526.33,228.3a7.55,7.55,0,0,1-1.15,4.5,4.09,4.09,0,0,1-6.43,0,9.36,9.36,0,0,1,0-9,4.08,4.08,0,0,1,6.43,0A7.53,7.53,0,0,1,526.33,228.3Zm-7.33,0a8,8,0,0,0,.48,3l4.21-7.16a2.58,2.58,0,0,0-3.93.58A6.93,6.93,0,0,0,519,228.3Zm3,4.83a2.42,2.42,0,0,0,2.21-1.25,7,7,0,0,0,.76-3.58,7.68,7.68,0,0,0-.49-3l-4.21,7.16A2.43,2.43,0,0,0,522,233.13Z"/><path class="cls-2" d="M441,250.66h-8.14l-2.15,3.45h-2.55l7.43-11.65h2.68l7.43,11.65h-2.55Zm-7.41-1.16h6.68L437.52,245l-.22-.35-.19-.32a2,2,0,0,1-.17-.32l-.18.32-.18.32-.22.35Z"/><path class="cls-2" d="M446.17,242.46h6.89a15.65,15.65,0,0,1,2.7.2,8.12,8.12,0,0,1,2,.59,3.23,3.23,0,0,1,1.21.89,1.73,1.73,0,0,1,.41,1.13,1.88,1.88,0,0,1-.94,1.61,7.9,7.9,0,0,1-2.34,1,12,12,0,0,1,1.6.42,5.49,5.49,0,0,1,1.29.6,2.85,2.85,0,0,1,.85.8,1.89,1.89,0,0,1,.3,1,2,2,0,0,1-.54,1.38,4.38,4.38,0,0,1-1.49,1.06,9.07,9.07,0,0,1-2.22.68,15.88,15.88,0,0,1-2.76.23h-6.95Zm2.55,4.89h4.16a8.26,8.26,0,0,0,3-.43,1.49,1.49,0,0,0,0-2.87,8.26,8.26,0,0,0-3-.43h-4.16Zm0,5.59h4a10.51,10.51,0,0,0,3.64-.51,1.74,1.74,0,0,0-.05-3.39,10.29,10.29,0,0,0-3.59-.52h-4Z"/><path class="cls-2" d="M477.25,251a6.74,6.74,0,0,1-1,1.26,5.84,5.84,0,0,1-1.49,1.06,8.63,8.63,0,0,1-2.09.74,13.1,13.1,0,0,1-2.82.27,13.65,13.65,0,0,1-3.77-.46,7.88,7.88,0,0,1-2.67-1.26,5.19,5.19,0,0,1-1.59-1.92,5.5,5.5,0,0,1-.54-2.42,5,5,0,0,1,.61-2.41,5.6,5.6,0,0,1,1.75-1.92,9,9,0,0,1,2.74-1.27,13.47,13.47,0,0,1,3.62-.46,14.24,14.24,0,0,1,2.7.23,8.74,8.74,0,0,1,2,.62,5.52,5.52,0,0,1,1.45,1,4.87,4.87,0,0,1,1,1.2l-2.19.57a4.28,4.28,0,0,0-1.89-1.76,7.36,7.36,0,0,0-3.14-.58,8.16,8.16,0,0,0-2.61.38,5.68,5.68,0,0,0-1.89,1,4.45,4.45,0,0,0-1.14,1.53,4.84,4.84,0,0,0-.37,1.9,5.94,5.94,0,0,0,.3,1.92,3.56,3.56,0,0,0,1,1.53,4.89,4.89,0,0,0,1.85,1,9.19,9.19,0,0,0,2.84.37,8.6,8.6,0,0,0,1.95-.2,6,6,0,0,0,1.48-.55,4.58,4.58,0,0,0,1.09-.82,6,6,0,0,0,.79-1Z"/><path class="cls-2" d="M478.38,242.46h4.82a16.16,16.16,0,0,1,4,.44,9.64,9.64,0,0,1,2.93,1.21,5.37,5.37,0,0,1,1.78,1.84,4.9,4.9,0,0,1,0,4.66,5.28,5.28,0,0,1-1.78,1.84,9.64,9.64,0,0,1-2.93,1.22,16.65,16.65,0,0,1-4,.44h-4.82Zm4.67,10.42a9.18,9.18,0,0,0,5.18-1.18,4.31,4.31,0,0,0,0-6.83,9.1,9.1,0,0,0-5.18-1.18h-2.12v9.19Z"/><path class="cls-2" d="M495.19,242.46h12.87v1.23H497.74v3.78h9.47v1.23h-9.47v4.18h10.41v1.23h-13Z"/><path class="cls-2" d="M523.42,252.21a4.69,4.69,0,0,1-1.92,1.52,8.06,8.06,0,0,1-3.42.61,12.57,12.57,0,0,1-3.61-.46,7.58,7.58,0,0,1-2.58-1.26,5.44,5.44,0,0,1-1.57-1.92,5.63,5.63,0,0,1-.53-2.42,5,5,0,0,1,.61-2.41,5.54,5.54,0,0,1,1.73-1.92,8.84,8.84,0,0,1,2.73-1.27,13.45,13.45,0,0,1,3.61-.46,11.34,11.34,0,0,1,4.7.81,5.23,5.23,0,0,1,2.47,2.11l-2.07.65a3.56,3.56,0,0,0-1.79-1.73,7.88,7.88,0,0,0-3.34-.61,8.46,8.46,0,0,0-2.58.36,5.74,5.74,0,0,0-1.89,1,4,4,0,0,0-1.17,1.53,4.79,4.79,0,0,0-.4,1.95,5,5,0,0,0,.37,2,3.86,3.86,0,0,0,1.11,1.52,5.34,5.34,0,0,0,1.85,1,8.28,8.28,0,0,0,2.56.36,6.27,6.27,0,0,0,2.17-.33,4.56,4.56,0,0,0,1.49-.86,3.64,3.64,0,0,0,.91-1.18,3.89,3.89,0,0,0,.38-1.31h-5.77v-1.16h8.26v5.84h-1.82Z"/><path class="cls-2" d="M419.67,274.25a13,13,0,0,1-2.55-.43,8.09,8.09,0,0,1-1.94-.79,5.58,5.58,0,0,1-1.36-1.08,5.33,5.33,0,0,1-.83-1.29l2.22-.62a3.75,3.75,0,0,0,1.47,1.95,6.36,6.36,0,0,0,3,1v-4.48a12,12,0,0,1-4.27-1.18,2.43,2.43,0,0,1-1.5-2.13,1.67,1.67,0,0,1,.43-1.11,3.76,3.76,0,0,1,1.18-.89,7.55,7.55,0,0,1,1.82-.65,13.39,13.39,0,0,1,2.34-.35v-1.46h2.43v1.48a10.56,10.56,0,0,1,3.85.93,5,5,0,0,1,2.19,1.84l-2,.68a3.69,3.69,0,0,0-1.53-1.5,6.71,6.71,0,0,0-2.47-.72v4.08a14.14,14.14,0,0,1,4.88,1.13,2.45,2.45,0,0,1,1.52,2.22,2,2,0,0,1-.47,1.23,4.2,4.2,0,0,1-1.3,1,8.9,8.9,0,0,1-2,.75,13.56,13.56,0,0,1-2.61.37v1.46h-2.43Zm-3.34-9c0,.9,1.11,1.56,3.34,2v-3.82a6.69,6.69,0,0,0-2.38.59A1.41,1.41,0,0,0,416.33,265.28ZM426,271a1.53,1.53,0,0,0-.89-1.39,9.2,9.2,0,0,0-3-.78v4.27a7.05,7.05,0,0,0,2.83-.69A1.63,1.63,0,0,0,426,271Z"/><path class="cls-2" d="M429.59,270.53l9.45-8.1h2.54v8.1H444v1.23h-2.4v2.33H439v-2.33h-9.45Zm2.62,0H439v-5.95Z"/><path class="cls-2" d="M449.2,271.06a1.79,1.79,0,0,0-.16.31.91.91,0,0,0-.08.37c0,.42.31.75.94,1a7.35,7.35,0,0,0,2.55.36,5.89,5.89,0,0,0,4.07-1.26,5.44,5.44,0,0,0,1.64-3.68,5.41,5.41,0,0,1-2.2,1.39,9.64,9.64,0,0,1-3.36.52,12.63,12.63,0,0,1-2.76-.29,8.71,8.71,0,0,1-2.2-.8,4.28,4.28,0,0,1-1.44-1.22,2.58,2.58,0,0,1,0-3.11,4.4,4.4,0,0,1,1.47-1.26,8.43,8.43,0,0,1,2.31-.86,13.18,13.18,0,0,1,3-.32,9.66,9.66,0,0,1,5.64,1.4,4.58,4.58,0,0,1,2,4,6.19,6.19,0,0,1-.37,2.15,7.09,7.09,0,0,1-.91,1.78,6.16,6.16,0,0,1-2.7,2.1,10,10,0,0,1-3.92.71,15.06,15.06,0,0,1-2.53-.19,8.54,8.54,0,0,1-1.94-.54,3.52,3.52,0,0,1-1.25-.85,1.64,1.64,0,0,1-.44-1.1,1.35,1.35,0,0,1,.09-.47,1.49,1.49,0,0,1,.19-.38Zm3.77-2.23a8.22,8.22,0,0,0,1.83-.19,5.65,5.65,0,0,0,1.52-.53,2.92,2.92,0,0,0,1-.85,1.87,1.87,0,0,0,0-2.26,3,3,0,0,0-1-.85,5.65,5.65,0,0,0-1.52-.53,8.86,8.86,0,0,0-1.83-.19,9,9,0,0,0-1.84.19,5.39,5.39,0,0,0-1.5.53,3.09,3.09,0,0,0-1,.85,1.87,1.87,0,0,0,0,2.26,3,3,0,0,0,1,.85,5.39,5.39,0,0,0,1.5.53A8.38,8.38,0,0,0,453,268.83Z"/><path class="cls-2" d="M467.45,272h3.7v2.07h-3.7Z"/><path class="cls-2" d="M493.43,268.26a5.29,5.29,0,0,1-2.09,4.5,11.79,11.79,0,0,1-11.72,0,5.88,5.88,0,0,1,0-9,11.72,11.72,0,0,1,11.72,0A5.28,5.28,0,0,1,493.43,268.26Zm-13.35,0a4.83,4.83,0,0,0,.88,3l7.68-7.16a6.84,6.84,0,0,0-3.16-.67,5.81,5.81,0,0,0-4,1.25A4.58,4.58,0,0,0,480.08,268.26Zm5.4,4.83a5.81,5.81,0,0,0,4-1.25,4.57,4.57,0,0,0,1.38-3.58,4.83,4.83,0,0,0-.88-3l-7.68,7.16A6.69,6.69,0,0,0,485.48,273.09Z"/><path class="cls-2" d="M509.61,268.26a5.29,5.29,0,0,1-2.09,4.5,11.79,11.79,0,0,1-11.72,0,5.88,5.88,0,0,1,0-9,11.72,11.72,0,0,1,11.72,0A5.28,5.28,0,0,1,509.61,268.26Zm-13.36,0a4.84,4.84,0,0,0,.89,3l7.68-7.16a6.84,6.84,0,0,0-3.16-.67,5.81,5.81,0,0,0-4,1.25A4.55,4.55,0,0,0,496.25,268.26Zm5.41,4.83a5.81,5.81,0,0,0,4-1.25,4.57,4.57,0,0,0,1.38-3.58,4.83,4.83,0,0,0-.88-3l-7.68,7.16A6.69,6.69,0,0,0,501.66,273.09Z"/><path class="cls-2" d="M517.14,265.76,514,267,513,265.83l3.37-.7-3.37-.7L514,263.3l3.1,1.2-.49-2.07H519l-.48,2.07,3.09-1.2,1.09,1.13-3.37.7,3.37.7L521.63,267l-3.09-1.2.48,2.07h-2.37Z"/><path class="cls-2" d="M455.34,291a8.74,8.74,0,0,1-.55,1.26,4.55,4.55,0,0,1-.82,1.06,3.67,3.67,0,0,1-1.15.74,4.09,4.09,0,0,1-1.55.27,4.35,4.35,0,0,1-2.06-.46,4.06,4.06,0,0,1-1.47-1.26,5.6,5.6,0,0,1-.87-1.93,9.2,9.2,0,0,1-.29-2.41,8.41,8.41,0,0,1,.33-2.41,5.73,5.73,0,0,1,1-1.93,4.47,4.47,0,0,1,1.51-1.26,4.13,4.13,0,0,1,2-.46,4.43,4.43,0,0,1,1.48.22A3.56,3.56,0,0,1,454,283a3.64,3.64,0,0,1,.79,1,5,5,0,0,1,.53,1.2l-1.2.56a3.88,3.88,0,0,0-1-1.75,2.49,2.49,0,0,0-1.72-.58,2.74,2.74,0,0,0-1.44.38,3.23,3.23,0,0,0-1,1,4.81,4.81,0,0,0-.62,1.53,8.19,8.19,0,0,0-.21,1.9,9.66,9.66,0,0,0,.17,1.92,4.7,4.7,0,0,0,.55,1.53,2.82,2.82,0,0,0,1,1,3,3,0,0,0,1.56.37,2.72,2.72,0,0,0,1.07-.2,2.64,2.64,0,0,0,.81-.55,3.61,3.61,0,0,0,.6-.82,7.4,7.4,0,0,0,.43-1Z"/><path class="cls-2" d="M459.61,289h-2.24v5.06H456V282.41h4.24a4.73,4.73,0,0,1,1.56.25,3.55,3.55,0,0,1,1.17.69,3.17,3.17,0,0,1,.72,1,3.36,3.36,0,0,1,.25,1.31,3.07,3.07,0,0,1-.75,2.08,3.49,3.49,0,0,1-2.05,1.13l2.92,5.15h-1.57Zm-2.24-1.24H460a3,3,0,0,0,1.9-.5,2.2,2.2,0,0,0,0-3.12,3,3,0,0,0-1.9-.5h-2.59Z"/><path class="cls-2" d="M465.17,282.41h7.06v1.24h-5.66v3.77h5.2v1.24h-5.2v4.17h5.71v1.24h-7.11Z"/><path class="cls-2" d="M473.7,282.41h2.65a5.27,5.27,0,0,1,2.2.44,4.56,4.56,0,0,1,1.61,1.22,5.14,5.14,0,0,1,1,1.84,8.39,8.39,0,0,1,0,4.66,5.14,5.14,0,0,1-1,1.84,4.56,4.56,0,0,1-1.61,1.22,5.27,5.27,0,0,1-2.2.44H473.7Zm2.56,10.42a3.38,3.38,0,0,0,2.84-1.18,6.78,6.78,0,0,0,0-6.82,3.38,3.38,0,0,0-2.84-1.18H475.1v9.18Z"/><path class="cls-2" d="M489.76,283.54h-2.59v9.4h2.69v1.13h-6.79v-1.13h2.7v-9.4h-2.6v-1.13h6.59Z"/><path class="cls-2" d="M491.31,282.41h8.06v1.24H496v10.42h-1.4V283.65h-3.33Z"/><path class="cls-2" d="M517.45,291a7.76,7.76,0,0,1-.55,1.26,4.26,4.26,0,0,1-.81,1.06,3.91,3.91,0,0,1-1.15.74,4.13,4.13,0,0,1-1.55.27,4.39,4.39,0,0,1-2.07-.46,4.11,4.11,0,0,1-1.46-1.26,5.6,5.6,0,0,1-.87-1.93,9.2,9.2,0,0,1-.3-2.41,8.4,8.4,0,0,1,.34-2.41,5.9,5.9,0,0,1,1-1.93,4.57,4.57,0,0,1,1.51-1.26,4.19,4.19,0,0,1,2-.46,4.39,4.39,0,0,1,1.48.22,3.35,3.35,0,0,1,1.11.63,3.68,3.68,0,0,1,.8,1,5,5,0,0,1,.52,1.2l-1.19.56a4,4,0,0,0-1-1.75,2.51,2.51,0,0,0-1.73-.58,2.7,2.7,0,0,0-1.43.38,3.23,3.23,0,0,0-1,1,4.82,4.82,0,0,0-.63,1.53,8.79,8.79,0,0,0-.2,1.9,10.5,10.5,0,0,0,.16,1.92,4.71,4.71,0,0,0,.56,1.53,2.82,2.82,0,0,0,1,1,2.94,2.94,0,0,0,1.55.37,2.77,2.77,0,0,0,1.08-.2,2.6,2.6,0,0,0,.8-.55,3.1,3.1,0,0,0,.6-.82,7.42,7.42,0,0,0,.44-1Z"/><path class="cls-2" d="M524.19,290.62h-4.46l-1.18,3.45h-1.4l4.08-11.66h1.47l4.07,11.66h-1.39Zm-4.06-1.16h3.66l-1.51-4.52-.12-.35c0-.1-.07-.2-.11-.31L522,284c0,.1-.06.21-.1.32a2.81,2.81,0,0,1-.1.31l-.11.35Z"/><path class="cls-2" d="M482.32,302.39h7.83v1.23l-6.41,9.19h6.69v1.24h-8.21v-1.2l6.45-9.23h-6.35Z"/><path class="cls-2" d="M499.79,308.22a9.84,9.84,0,0,1-.31,2.55,5.76,5.76,0,0,1-.88,1.9,3.88,3.88,0,0,1-1.4,1.19,4.33,4.33,0,0,1-3.72,0,3.85,3.85,0,0,1-1.39-1.19,5.58,5.58,0,0,1-.89-1.9,9.86,9.86,0,0,1-.3-2.55,10,10,0,0,1,.3-2.55,5.58,5.58,0,0,1,.89-1.9,3.85,3.85,0,0,1,1.39-1.19,4.33,4.33,0,0,1,3.72,0,3.88,3.88,0,0,1,1.4,1.19,5.76,5.76,0,0,1,.88,1.9A10,10,0,0,1,499.79,308.22Zm-4.45,4.83a2.59,2.59,0,0,0,1.32-.34,2.86,2.86,0,0,0,.94-1,4.86,4.86,0,0,0,.56-1.52,10.52,10.52,0,0,0,0-4,4.86,4.86,0,0,0-.56-1.52,2.77,2.77,0,0,0-.94-1,2.5,2.5,0,0,0-1.32-.34,2.44,2.44,0,0,0-1.31.34,2.69,2.69,0,0,0-.94,1,5.12,5.12,0,0,0-.57,1.52,10.52,10.52,0,0,0,0,4,5.12,5.12,0,0,0,.57,1.52,2.77,2.77,0,0,0,.94,1A2.53,2.53,0,0,0,495.34,313.05Z"/><path class="cls-2" d="M500.39,302.39h1.43l4.39,8.36.22.4.17.33.11.25v-9.34H508v11.66h-1.43l-4.39-8.36-.22-.4c-.05-.11-.11-.22-.17-.33a2.15,2.15,0,0,1-.11-.25v9.34h-1.33Z"/><path class="cls-2" d="M509.54,302.39h7.06v1.23h-5.66v3.78h5.2v1.23h-5.2v4.18h5.71v1.24h-7.11Z"/><path class="cls-2" d="M521.2,306.09h2.33l.56-3.7h1.27l-.57,3.7h1.82v1h-2l-.33,2.2h2v1h-2.11l-.57,3.7h-1.26l.57-3.7h-2.34l-.56,3.7h-1.27l.57-3.7h-1.82v-1h2l.33-2.2h-2v-1h2.11l.57-3.7h1.26Zm-.49,3.23h2.34l.33-2.2h-2.33Z"/><path class="cls-2" d="M461.23,328.2a5.56,5.56,0,0,1-.57,2.55,5.16,5.16,0,0,1-1.61,1.9,7.34,7.34,0,0,1-2.55,1.19,13.81,13.81,0,0,1-6.76,0,7.34,7.34,0,0,1-2.55-1.19,5.16,5.16,0,0,1-1.61-1.9,6.09,6.09,0,0,1,0-5.1,5.16,5.16,0,0,1,1.61-1.9,7.54,7.54,0,0,1,2.55-1.2,14.14,14.14,0,0,1,6.76,0,7.54,7.54,0,0,1,2.55,1.2,5.16,5.16,0,0,1,1.61,1.9A5.59,5.59,0,0,1,461.23,328.2ZM453.12,333a7.9,7.9,0,0,0,2.4-.34,4.6,4.6,0,0,0,1.71-1,4.13,4.13,0,0,0,1-1.52,6,6,0,0,0,0-4,4.13,4.13,0,0,0-1-1.52,4.47,4.47,0,0,0-1.71-1,8.64,8.64,0,0,0-4.8,0,4.47,4.47,0,0,0-1.71,1,4.13,4.13,0,0,0-1,1.52,6,6,0,0,0,0,4,4.13,4.13,0,0,0,1,1.52,4.6,4.6,0,0,0,1.71,1A7.9,7.9,0,0,0,453.12,333Z"/><path class="cls-2" d="M468.87,329h-4.09V334h-2.55V322.37H470a14.43,14.43,0,0,1,2.84.25,8.51,8.51,0,0,1,2.12.69,3.78,3.78,0,0,1,1.32,1.05,2.18,2.18,0,0,1,.46,1.31,2.48,2.48,0,0,1-1.37,2.08,8.84,8.84,0,0,1-3.73,1.13l5.31,5.15h-2.86Zm-4.09-1.23h4.73a9.1,9.1,0,0,0,3.46-.51,1.65,1.65,0,0,0,1.19-1.55,1.67,1.67,0,0,0-1.19-1.56,9.1,9.1,0,0,0-3.46-.51h-4.73Z"/><path class="cls-2" d="M493.43,330.93a7.08,7.08,0,0,1-1,1.26,6,6,0,0,1-1.49,1.06,8.38,8.38,0,0,1-2.09.73,12.49,12.49,0,0,1-2.83.28,13.62,13.62,0,0,1-3.76-.46,8.08,8.08,0,0,1-2.67-1.26,5.14,5.14,0,0,1-1.59-1.93,5.46,5.46,0,0,1-.54-2.41,5.05,5.05,0,0,1,.61-2.42,5.79,5.79,0,0,1,1.75-1.92,8.77,8.77,0,0,1,2.74-1.26,13.08,13.08,0,0,1,3.62-.46,14.3,14.3,0,0,1,2.7.22,8.73,8.73,0,0,1,2,.63,5.28,5.28,0,0,1,1.45.95,4.65,4.65,0,0,1,1,1.19l-2.19.57a4.34,4.34,0,0,0-1.89-1.76,7.38,7.38,0,0,0-3.14-.57,8.16,8.16,0,0,0-2.61.38,5.51,5.51,0,0,0-1.89,1,4.27,4.27,0,0,0-1.14,1.53,4.8,4.8,0,0,0-.37,1.9,5.88,5.88,0,0,0,.3,1.91,3.56,3.56,0,0,0,1,1.53,4.76,4.76,0,0,0,1.85,1,9.5,9.5,0,0,0,2.84.37,8.6,8.6,0,0,0,2-.2,6.42,6.42,0,0,0,1.48-.55,4.61,4.61,0,0,0,1.09-.83,6,6,0,0,0,.79-1Z"/><path class="cls-2" d="M494.58,322.37h2.56v5.1h9v-5.1h2.55V334h-2.55V328.7h-9V334h-2.56Z"/><path class="cls-2" d="M525.79,330.93a7.08,7.08,0,0,1-1,1.26,6,6,0,0,1-1.49,1.06,8.38,8.38,0,0,1-2.09.73,12.49,12.49,0,0,1-2.83.28,13.62,13.62,0,0,1-3.76-.46,8.08,8.08,0,0,1-2.67-1.26,5.27,5.27,0,0,1-1.6-1.93,5.59,5.59,0,0,1-.53-2.41,5.05,5.05,0,0,1,.61-2.42,5.68,5.68,0,0,1,1.75-1.92,8.77,8.77,0,0,1,2.74-1.26,13.08,13.08,0,0,1,3.62-.46,14.3,14.3,0,0,1,2.7.22,8.73,8.73,0,0,1,2,.63,5.28,5.28,0,0,1,1.45.95,4.65,4.65,0,0,1,1,1.19l-2.19.57a4.34,4.34,0,0,0-1.89-1.76,7.39,7.39,0,0,0-3.15-.57,8.25,8.25,0,0,0-2.61.38,5.46,5.46,0,0,0-1.88,1,4.27,4.27,0,0,0-1.14,1.53,4.81,4.81,0,0,0-.38,1.9,5.88,5.88,0,0,0,.31,1.91,3.63,3.63,0,0,0,1,1.53,4.88,4.88,0,0,0,1.86,1,9.48,9.48,0,0,0,2.83.37,8.63,8.63,0,0,0,2-.2,6.17,6.17,0,0,0,1.47-.55,4.67,4.67,0,0,0,1.1-.83,6,6,0,0,0,.79-1Z"/><path class="cls-2" d="M441,370.54h-8.14L430.72,374h-2.55l7.43-11.65h2.68L445.71,374h-2.55Zm-7.41-1.17h6.68l-2.76-4.51-.21-.35c-.07-.1-.13-.21-.2-.32a1.94,1.94,0,0,1-.17-.31l-.18.31-.18.32-.22.35Z"/><path class="cls-2" d="M445.56,362.33h14.27v1.23l-11.69,9.19h12.2V374h-15v-1.2l11.75-9.22H445.56Z"/><path class="cls-2" d="M492.58,374H479.71v-1.13h5.16v-8.64a5.28,5.28,0,0,1-1.93.62,18,18,0,0,1-2.62.16v-1.2a10.16,10.16,0,0,0,3-.34,4.11,4.11,0,0,0,1.79-1.12h2.31v10.52h5.16Z"/><path class="cls-2" d="M503.12,368.64a12,12,0,0,0,1.44-.88,5.55,5.55,0,0,0,.89-.78,2.18,2.18,0,0,0,.46-.75,2.56,2.56,0,0,0,.12-.79,1.36,1.36,0,0,0-.33-.88,2.78,2.78,0,0,0-.92-.69,4.86,4.86,0,0,0-1.38-.45,8.58,8.58,0,0,0-1.74-.16,8.39,8.39,0,0,0-1.73.17,5.37,5.37,0,0,0-1.37.47,2.65,2.65,0,0,0-.89.74,1.53,1.53,0,0,0-.32.95,1.29,1.29,0,0,0,.24.75l-2.25.2a1.69,1.69,0,0,1-.28-.55,1.7,1.7,0,0,1-.08-.55,2,2,0,0,1,.47-1.24,4.07,4.07,0,0,1,1.35-1.07,8.81,8.81,0,0,1,2.13-.75,12.67,12.67,0,0,1,2.82-.29,14.76,14.76,0,0,1,2.79.25,8.69,8.69,0,0,1,2.14.68,3.77,3.77,0,0,1,1.37,1.05,2.11,2.11,0,0,1,.47,1.32,2.78,2.78,0,0,1-.2,1,3.08,3.08,0,0,1-.65,1,7.66,7.66,0,0,1-1.17,1,18.47,18.47,0,0,1-1.72,1l-6.16,3.3h9.93V374H494.83v-.91Z"/><path class="cls-2" d="M513.44,370.24a.56.56,0,0,0-.1.22,1.72,1.72,0,0,0,0,.34,1.31,1.31,0,0,0,.35.88,2.86,2.86,0,0,0,1,.69,6.11,6.11,0,0,0,1.44.45,9.55,9.55,0,0,0,1.84.16,7.65,7.65,0,0,0,3.35-.59,1.9,1.9,0,0,0,1.2-1.79,1.38,1.38,0,0,0-.45-1,3.55,3.55,0,0,0-1.25-.72,8,8,0,0,0-1.85-.43,18.46,18.46,0,0,0-2.31-.13v-1.13a11.69,11.69,0,0,0,2.33-.19,4.83,4.83,0,0,0,1.44-.48,2,2,0,0,0,.73-.67,1.58,1.58,0,0,0,.21-.78,1.46,1.46,0,0,0-1-1.3,6.84,6.84,0,0,0-2.83-.48,7.32,7.32,0,0,0-1.41.13,4.54,4.54,0,0,0-1.18.39,2.32,2.32,0,0,0-.81.6,1.16,1.16,0,0,0-.3.78.87.87,0,0,0,.15.5l-2.21.18a1.22,1.22,0,0,1-.2-.42,1.88,1.88,0,0,1-.05-.43,1.73,1.73,0,0,1,.44-1.12,3.92,3.92,0,0,1,1.25-.93,7.93,7.93,0,0,1,1.91-.62,12.43,12.43,0,0,1,2.47-.23,15.31,15.31,0,0,1,2.67.21,7.9,7.9,0,0,1,2,.59,3.51,3.51,0,0,1,1.21.88,1.67,1.67,0,0,1,.43,1.11,1.91,1.91,0,0,1-.19.81,2.4,2.4,0,0,1-.56.79,3.62,3.62,0,0,1-1,.67,6.37,6.37,0,0,1-1.55.44,10.43,10.43,0,0,1,1.77.4,6.73,6.73,0,0,1,1.45.64,3.21,3.21,0,0,1,.95.87,1.8,1.8,0,0,1,.35,1.07,2.4,2.4,0,0,1-.56,1.57,4.53,4.53,0,0,1-1.52,1.14,8.43,8.43,0,0,1-2.24.7,15.31,15.31,0,0,1-2.78.24,13.66,13.66,0,0,1-3-.3,9.08,9.08,0,0,1-2.23-.75,4.2,4.2,0,0,1-1.4-1.07,1.94,1.94,0,0,1-.49-1.2,1.48,1.48,0,0,1,.1-.51,1.6,1.6,0,0,1,.24-.47Z"/><path class="cls-2" d="M192.59,202.5h8.06v1.23h-3.33v10.42h-1.4V203.73h-3.33Z"/><path class="cls-2" d="M207.73,210.71h-4.47l-1.18,3.44h-1.4l4.08-11.65h1.47l4.08,11.65h-1.4Zm-4.07-1.17h3.67L205.81,205l-.12-.35c0-.1-.06-.21-.1-.32a2.12,2.12,0,0,1-.09-.31,2.81,2.81,0,0,0-.1.31c0,.11-.07.22-.1.32l-.12.35Z"/><path class="cls-2" d="M210.89,202.5h1.4v10.42h5.89v1.23h-7.29Z"/><path class="cls-2" d="M219.76,202.5h1.4v10.42h5.9v1.23h-7.3Z"/><path class="cls-2" d="M231.42,209.54l-3.75-7h1.43l2.65,5c0,.09.09.17.13.26s.07.17.11.26.08.19.13.29a2.49,2.49,0,0,1,.11-.29,2,2,0,0,0,.12-.26l.13-.26,2.65-5h1.43l-3.74,7v4.61h-1.4Z"/><path class="cls-2" d="M246,202.5h1.4v5.09h5V202.5h1.4v11.65h-1.4v-5.33h-5v5.33H246Z"/><path class="cls-2" d="M261,210.71h-4.46l-1.19,3.44h-1.39L258,202.5h1.46l4.08,11.65h-1.4Zm-4.06-1.17h3.66L259.05,205l-.11-.35c0-.1-.07-.21-.11-.32a2.12,2.12,0,0,1-.09-.31,2.81,2.81,0,0,0-.1.31c0,.11-.07.22-.1.32l-.12.35Z"/><path class="cls-2" d="M264.13,202.5h1.4v10.42h5.89v1.23h-7.29Z"/><path class="cls-2" d="M273,202.5h1.39v10.42h5.9v1.23H273Z"/><path class="cls-2" d="M290.2,202.5h8.06v1.23h-3.33v10.42h-1.4V203.73H290.2Z"/><path class="cls-2" d="M299.23,202.5h1.4v5.09h5V202.5H307v11.65h-1.4v-5.33h-5v5.33h-1.4Z"/><path class="cls-2" d="M308.43,202.5h7.06v1.23h-5.66v3.78H315v1.23h-5.2v4.18h5.71v1.23h-7.11Z"/><path class="cls-2" d="M323.08,210.71h-4.46l-1.18,3.44H316l4.08-11.65h1.47l4.08,11.65h-1.4ZM319,209.54h3.67L321.17,205l-.12-.35c0-.1-.07-.21-.1-.32s-.07-.21-.1-.31c0,.1-.06.2-.1.31a3,3,0,0,1-.1.32l-.11.35Z"/><path class="cls-2" d="M325.7,202.5h8.06v1.23h-3.33v10.42H329V203.73H325.7Z"/><path class="cls-2" d="M338.37,209.09h-2.25v5.06h-1.4V202.5H339a4.46,4.46,0,0,1,1.55.25,3.24,3.24,0,0,1,1.17.69,2.74,2.74,0,0,1,.72,1.05,3.31,3.31,0,0,1,.25,1.3,3.1,3.1,0,0,1-.75,2.09,3.57,3.57,0,0,1-2,1.13l2.91,5.14h-1.57Zm-2.25-1.23h2.6a3,3,0,0,0,1.9-.51,2.19,2.19,0,0,0,0-3.11,3,3,0,0,0-1.9-.51h-2.6Z"/><path class="cls-2" d="M343.93,202.5H351v1.23h-5.66v3.78h5.19v1.23h-5.19v4.18H351v1.23h-7.11Z"/><path class="cls-2" d="M209.86,228.3a7.55,7.55,0,0,1-1.15,4.5,4.09,4.09,0,0,1-6.43,0,9.36,9.36,0,0,1,0-9,4.08,4.08,0,0,1,6.43,0A7.53,7.53,0,0,1,209.86,228.3Zm-7.33,0a7.77,7.77,0,0,0,.49,3l4.21-7.16a2.59,2.59,0,0,0-3.94.58A6.93,6.93,0,0,0,202.53,228.3Zm3,4.83a2.41,2.41,0,0,0,2.2-1.25,6.88,6.88,0,0,0,.76-3.58,7.89,7.89,0,0,0-.48-3l-4.22,7.16A2.45,2.45,0,0,0,205.5,233.13Z"/><path class="cls-2" d="M219.41,222.48h1.44l4.39,8.35.22.4.16.34a1.73,1.73,0,0,1,.12.25v-9.34h1.33v11.65h-1.43l-4.39-8.36-.22-.4c-.06-.11-.11-.22-.17-.32a2.17,2.17,0,0,1-.11-.26v9.34h-1.34Z"/><path class="cls-2" d="M245.35,228.3a7.48,7.48,0,0,1-1.15,4.5,4.08,4.08,0,0,1-6.42,0,9.36,9.36,0,0,1,0-9,4.07,4.07,0,0,1,6.42,0A7.46,7.46,0,0,1,245.35,228.3Zm-7.32,0a8,8,0,0,0,.48,3l4.21-7.16a2.41,2.41,0,0,0-1.73-.66,2.44,2.44,0,0,0-2.21,1.24A7,7,0,0,0,238,228.3Zm3,4.83a2.42,2.42,0,0,0,2.21-1.25,7,7,0,0,0,.75-3.58,7.89,7.89,0,0,0-.48-3l-4.21,7.16A2.43,2.43,0,0,0,241,233.13Z"/><path class="cls-2" d="M254.91,222.48h1.43l4.4,8.35c.07.15.15.28.21.4s.11.23.17.34l.12.25v-9.34h1.33v11.65h-1.43l-4.4-8.36-.22-.4c0-.11-.11-.22-.16-.32a1.37,1.37,0,0,1-.12-.26v9.34h-1.33Z"/><path class="cls-2" d="M270.73,234.13h-1.64l-1.48-9.56-1.48,9.56H264.5l-1.8-11.65h1.37l1.13,8.07c0,.11,0,.23.05.35s0,.24.06.39.05.31.07.48q0-.26.06-.48t.06-.39l.06-.36,1.34-8.06h1.43l1.33,8.06c0,.12,0,.24.07.36a3.42,3.42,0,0,1,0,.39q0,.22.06.48c0-.17.05-.33.07-.48a3.08,3.08,0,0,1,.07-.39c0-.12,0-.24,0-.35l1.13-8.07h1.36Z"/><path class="cls-2" d="M283,225.32c0,1.15,1,1.9,3.09,2.27a5.18,5.18,0,0,1,2.73,1.14,2.91,2.91,0,0,1,.85,2.22,3,3,0,0,1-.3,1.32,3.4,3.4,0,0,1-.83,1.09,4.27,4.27,0,0,1-1.27.73,4.76,4.76,0,0,1-1.63.27,5,5,0,0,1-1.74-.28,4,4,0,0,1-1.3-.78,4.12,4.12,0,0,1-.89-1.17,6.15,6.15,0,0,1-.55-1.43l1.22-.62a4.66,4.66,0,0,0,.38,1.23,3.33,3.33,0,0,0,.68,1,2.8,2.8,0,0,0,.95.64,3.31,3.31,0,0,0,1.25.22,2.91,2.91,0,0,0,1.93-.59,1.91,1.91,0,0,0,.7-1.54,2.21,2.21,0,0,0-.16-.89,1.63,1.63,0,0,0-.49-.65,2.91,2.91,0,0,0-.9-.46,9.43,9.43,0,0,0-1.33-.31,5.4,5.4,0,0,1-2.74-1.14,2.88,2.88,0,0,1-1-2.28,2.71,2.71,0,0,1,.28-1.2,2.79,2.79,0,0,1,.77-1,3.75,3.75,0,0,1,1.19-.63,4.88,4.88,0,0,1,1.51-.23A4.2,4.2,0,0,1,288,223a4.06,4.06,0,0,1,1.43,2l-1.11.68a3.18,3.18,0,0,0-1.1-1.73,3,3,0,0,0-1.87-.57,3.46,3.46,0,0,0-.92.12,2.28,2.28,0,0,0-.77.36,1.71,1.71,0,0,0-.51.59A1.62,1.62,0,0,0,283,225.32Z"/><path class="cls-2" d="M290.2,222.48h8.06v1.23h-3.33v10.42h-1.4V223.71H290.2Z"/><path class="cls-2" d="M302.09,232.07h2v2.06h-2Z"/><path class="cls-2" d="M317,222.48h1.44l4.39,8.35.22.4.16.34a1.73,1.73,0,0,1,.12.25v-9.34h1.33v11.65h-1.43l-4.39-8.36-.22-.4c-.06-.11-.11-.22-.17-.32a2.17,2.17,0,0,1-.11-.26v9.34H317Z"/><path class="cls-2" d="M329,229.52l-3.75-7h1.43l2.65,5,.14.27.1.26c0,.09.08.19.13.29a2.49,2.49,0,0,1,.11-.29,2.78,2.78,0,0,0,.12-.26l.13-.27,2.65-5h1.43l-3.74,7v4.61H329Z"/><path class="cls-2" d="M343,231a6.42,6.42,0,0,1-.55,1.26,4.31,4.31,0,0,1-.81,1.07,3.76,3.76,0,0,1-1.15.73,4.09,4.09,0,0,1-1.55.27,4.47,4.47,0,0,1-2.06-.45,4.18,4.18,0,0,1-1.47-1.27,5.64,5.64,0,0,1-.87-1.92,9.33,9.33,0,0,1-.29-2.42,8.46,8.46,0,0,1,.33-2.41,5.68,5.68,0,0,1,1-1.92,4.57,4.57,0,0,1,1.5-1.27,4.31,4.31,0,0,1,2-.46,4.48,4.48,0,0,1,1.49.23,3.57,3.57,0,0,1,1.1.62,3.64,3.64,0,0,1,.8.95,5.91,5.91,0,0,1,.53,1.2l-1.2.57a3.87,3.87,0,0,0-1-1.76,2.54,2.54,0,0,0-1.73-.57,2.7,2.7,0,0,0-1.43.37,3.23,3.23,0,0,0-1,1,4.74,4.74,0,0,0-.62,1.54,8.11,8.11,0,0,0-.21,1.89,10.5,10.5,0,0,0,.16,1.92,4.77,4.77,0,0,0,.56,1.53,2.93,2.93,0,0,0,1,1,3,3,0,0,0,1.55.36,2.53,2.53,0,0,0,1.89-.75,3.4,3.4,0,0,0,.6-.82,7.8,7.8,0,0,0,.43-1Z"/><path class="cls-2" d="M101.68,210.71H97.22L96,214.15h-1.4l4.08-11.65h1.46l4.08,11.65h-1.4Zm-4.06-1.17h3.66L99.77,205l-.12-.35c0-.1-.07-.21-.11-.32a2.12,2.12,0,0,1-.09-.31c0,.1-.07.2-.1.31s-.07.22-.1.32l-.12.35Z"/><path class="cls-2" d="M104.51,202.5h3.78a4.81,4.81,0,0,1,1.48.21,3,3,0,0,1,1.09.58,2.41,2.41,0,0,1,.67.89,2.78,2.78,0,0,1,.22,1.13,2.51,2.51,0,0,1-.51,1.62,3.85,3.85,0,0,1-1.28,1,4.37,4.37,0,0,1,.87.42,2.94,2.94,0,0,1,.71.6,2.48,2.48,0,0,1,.46.81,3,3,0,0,1,.17,1,3.11,3.11,0,0,1-.3,1.38,3.25,3.25,0,0,1-.82,1.06,3.74,3.74,0,0,1-1.21.67,4.66,4.66,0,0,1-1.52.23h-3.81Zm1.4,4.89h2.28a2.72,2.72,0,0,0,1.63-.43,1.65,1.65,0,0,0,.6-1.43,1.63,1.63,0,0,0-.6-1.43,2.72,2.72,0,0,0-1.63-.44h-2.28Zm0,5.6h2.2a3.33,3.33,0,0,0,2-.52,2.29,2.29,0,0,0,0-3.39,3.4,3.4,0,0,0-2-.52h-2.2Z"/><path class="cls-2" d="M121.56,211.06a7.3,7.3,0,0,1-.55,1.25,4.12,4.12,0,0,1-.82,1.07,3.71,3.71,0,0,1-1.14.73,4.12,4.12,0,0,1-1.55.28,4.51,4.51,0,0,1-2.07-.46,4.15,4.15,0,0,1-1.46-1.27,5.85,5.85,0,0,1-.88-1.92,9.71,9.71,0,0,1-.29-2.41,8.18,8.18,0,0,1,.34-2.42,6,6,0,0,1,1-1.92,4.6,4.6,0,0,1,1.51-1.27,4.31,4.31,0,0,1,2-.46,4.38,4.38,0,0,1,1.48.23,3.75,3.75,0,0,1,1.11.62,3.85,3.85,0,0,1,.8.95,5.88,5.88,0,0,1,.52,1.2l-1.2.57a3.78,3.78,0,0,0-1-1.76,2.53,2.53,0,0,0-1.72-.57,2.7,2.7,0,0,0-1.43.37,3.07,3.07,0,0,0-1,1,4.82,4.82,0,0,0-.63,1.53,8.19,8.19,0,0,0-.21,1.9,10.44,10.44,0,0,0,.17,1.91,4.55,4.55,0,0,0,.56,1.53,3,3,0,0,0,1,1,3.1,3.1,0,0,0,1.56.36,2.52,2.52,0,0,0,1.07-.2,2.38,2.38,0,0,0,.81-.55,3.4,3.4,0,0,0,.6-.82,6.64,6.64,0,0,0,.43-1Z"/><path class="cls-2" d="M122.18,202.5h2.64a5.31,5.31,0,0,1,2.21.44,4.5,4.5,0,0,1,1.6,1.21,5.16,5.16,0,0,1,1,1.84,8.68,8.68,0,0,1,0,4.67,5.16,5.16,0,0,1-1,1.84,4.5,4.5,0,0,1-1.6,1.21,5.31,5.31,0,0,1-2.21.44h-2.64Zm2.56,10.42a3.38,3.38,0,0,0,2.84-1.18,6.8,6.8,0,0,0,0-6.83,3.38,3.38,0,0,0-2.84-1.18h-1.17v9.19Z"/><path class="cls-2" d="M131.4,202.5h7.06v1.23H132.8v3.78H138v1.23H132.8v4.18h5.71v1.23H131.4Z"/><path class="cls-2" d="M146.88,212.25a3.61,3.61,0,0,1-1.06,1.53,2.79,2.79,0,0,1-1.87.61,4.19,4.19,0,0,1-2-.46,4,4,0,0,1-1.41-1.27,5.82,5.82,0,0,1-.86-1.92,9.26,9.26,0,0,1-.29-2.41,8.53,8.53,0,0,1,.33-2.42,6,6,0,0,1,.95-1.92,4.47,4.47,0,0,1,1.5-1.27,4.28,4.28,0,0,1,2-.46,3.86,3.86,0,0,1,2.57.81,4.38,4.38,0,0,1,1.36,2.11l-1.13.65a3.28,3.28,0,0,0-1-1.73,2.69,2.69,0,0,0-1.83-.6,2.83,2.83,0,0,0-1.41.35,3.1,3.1,0,0,0-1,1,4.69,4.69,0,0,0-.65,1.52,9.43,9.43,0,0,0,0,3.91,4.36,4.36,0,0,0,.61,1.52,3,3,0,0,0,1,1,2.83,2.83,0,0,0,1.41.35,2.1,2.1,0,0,0,1.19-.33,2.67,2.67,0,0,0,.81-.86,4,4,0,0,0,.5-1.18,6,6,0,0,0,.21-1.31h-3.16v-1.16h4.53v5.84h-1Z"/><path class="cls-2" d="M103.81,228.3a7.48,7.48,0,0,1-1.15,4.5,4.08,4.08,0,0,1-6.42,0,9.36,9.36,0,0,1,0-9,4.07,4.07,0,0,1,6.42,0A7.46,7.46,0,0,1,103.81,228.3Zm-7.32,0a8,8,0,0,0,.48,3l4.21-7.16a2.41,2.41,0,0,0-1.73-.66,2.43,2.43,0,0,0-2.21,1.24A7,7,0,0,0,96.49,228.3Zm3,4.83a2.42,2.42,0,0,0,2.21-1.25,7,7,0,0,0,.75-3.58,7.89,7.89,0,0,0-.48-3l-4.21,7.16A2.41,2.41,0,0,0,99.45,233.13Z"/><path class="cls-2" d="M112.22,234.13h-7.06V233H108v-8.64a2.17,2.17,0,0,1-1.06.62,5.5,5.5,0,0,1-1.44.16v-1.2a3.27,3.27,0,0,0,1.65-.34,2.6,2.6,0,0,0,1-1.12h1.27V233h2.83Z"/><path class="cls-2" d="M118,228.79a8.43,8.43,0,0,0,.79-.88,5,5,0,0,0,.49-.78,3.15,3.15,0,0,0,.25-.75,5,5,0,0,0,.06-.79,2.1,2.1,0,0,0-.18-.88,2,2,0,0,0-.5-.69,2,2,0,0,0-.76-.45,2.67,2.67,0,0,0-1-.16,2.43,2.43,0,0,0-1,.17,2.1,2.1,0,0,0-1.24,1.21,2.47,2.47,0,0,0-.18,1,2,2,0,0,0,.14.75l-1.24.2a2.38,2.38,0,0,1-.15-.55,3.31,3.31,0,0,1,0-.55,3.24,3.24,0,0,1,1-2.31,3.62,3.62,0,0,1,1.17-.75,4,4,0,0,1,1.55-.29,4.39,4.39,0,0,1,1.53.25,3.31,3.31,0,0,1,1.17.68,2.81,2.81,0,0,1,.75,1.05,3.34,3.34,0,0,1,.26,1.32,4.93,4.93,0,0,1-.11,1,3.69,3.69,0,0,1-.36,1,5.53,5.53,0,0,1-.64,1,9.64,9.64,0,0,1-.94,1l-3.38,3.3H121v1.23h-7.53v-.92Z"/><path class="cls-2" d="M123.66,230.38a.71.71,0,0,0,0,.23,3.11,3.11,0,0,0,0,.34,2,2,0,0,0,.19.88,2,2,0,0,0,.53.69,2.63,2.63,0,0,0,.79.45,2.91,2.91,0,0,0,1,.16,2.66,2.66,0,0,0,1.84-.59,2.27,2.27,0,0,0,.66-1.79,2,2,0,0,0-.25-1,2,2,0,0,0-.68-.72,2.94,2.94,0,0,0-1-.43,5.54,5.54,0,0,0-1.26-.13V227.3a3.84,3.84,0,0,0,1.27-.18,2,2,0,0,0,.79-.48,1.75,1.75,0,0,0,.4-.68,2.48,2.48,0,0,0,.12-.77,1.63,1.63,0,0,0-.57-1.31,2.35,2.35,0,0,0-1.55-.47,2.27,2.27,0,0,0-.77.13,2,2,0,0,0-.65.38,2,2,0,0,0-.44.6,1.86,1.86,0,0,0-.17.79,1.31,1.31,0,0,0,.09.5l-1.22.18a3.31,3.31,0,0,1-.11-.42c0-.13,0-.27,0-.43a2.65,2.65,0,0,1,.24-1.12,2.94,2.94,0,0,1,.68-.93,3.43,3.43,0,0,1,1-.62,3.92,3.92,0,0,1,1.36-.23,4.72,4.72,0,0,1,1.46.21,3.06,3.06,0,0,1,1.09.58,2.62,2.62,0,0,1,.66.89,2.52,2.52,0,0,1,.23,1.1,3.34,3.34,0,0,1-.1.82,3.14,3.14,0,0,1-.3.79,2.53,2.53,0,0,1-.56.67,2.45,2.45,0,0,1-.85.44,3.75,3.75,0,0,1,1,.4,2.92,2.92,0,0,1,.79.64,2.81,2.81,0,0,1,.53.86,2.92,2.92,0,0,1,.19,1.08,3.67,3.67,0,0,1-.31,1.57,3.29,3.29,0,0,1-.83,1.14,3.4,3.4,0,0,1-1.23.7,4.72,4.72,0,0,1-1.53.23,4.26,4.26,0,0,1-1.65-.29,3.86,3.86,0,0,1-1.23-.75,3.44,3.44,0,0,1-.76-1.07,2.9,2.9,0,0,1-.27-1.2,3.36,3.36,0,0,1,0-.51,1.86,1.86,0,0,1,.14-.47Z"/><path class="cls-2" d="M130.92,230.57l5.17-8.09h1.4v8.09h1.32v1.23h-1.32v2.33h-1.4V231.8h-5.17Zm1.43,0h3.74v-5.95Z"/><path class="cls-2" d="M101.68,250.66H97.22L96,254.11h-1.4l4.08-11.65h1.46l4.08,11.65h-1.4Zm-4.06-1.16h3.66L99.77,245l-.12-.35c0-.1-.07-.21-.11-.32a2.23,2.23,0,0,1-.09-.32c0,.1-.07.21-.1.32s-.07.22-.1.32l-.12.35Z"/><path class="cls-2" d="M104.51,242.46h3.78a4.82,4.82,0,0,1,1.48.2,3.16,3.16,0,0,1,1.09.59,2.33,2.33,0,0,1,.67.89,2.78,2.78,0,0,1,.22,1.13,2.48,2.48,0,0,1-.51,1.61,3.88,3.88,0,0,1-1.28,1,4.37,4.37,0,0,1,.87.42,2.73,2.73,0,0,1,.71.6,2.53,2.53,0,0,1,.46.8,3.3,3.3,0,0,1-.13,2.42,3.06,3.06,0,0,1-.82,1.06,3.58,3.58,0,0,1-1.21.68,4.94,4.94,0,0,1-1.52.23h-3.81Zm1.4,4.89h2.28a2.72,2.72,0,0,0,1.63-.43,2,2,0,0,0,0-2.87,2.72,2.72,0,0,0-1.63-.43h-2.28Zm0,5.59h2.2a3.41,3.41,0,0,0,2-.51,1.94,1.94,0,0,0,.74-1.7,1.92,1.92,0,0,0-.76-1.69,3.4,3.4,0,0,0-2-.52h-2.2Z"/><path class="cls-2" d="M121.56,251a7.4,7.4,0,0,1-.55,1.26,4.07,4.07,0,0,1-.82,1.06,3.74,3.74,0,0,1-1.14.74,4.13,4.13,0,0,1-1.55.27,4.39,4.39,0,0,1-2.07-.46,4,4,0,0,1-1.46-1.26,5.85,5.85,0,0,1-.88-1.92,9.79,9.79,0,0,1-.29-2.42,8.12,8.12,0,0,1,.34-2.41,5.75,5.75,0,0,1,1-1.92,4.6,4.6,0,0,1,1.51-1.27,4.31,4.31,0,0,1,2-.46,4.38,4.38,0,0,1,1.48.23,3.54,3.54,0,0,1,1.11.62,3.68,3.68,0,0,1,.8,1,5.88,5.88,0,0,1,.52,1.2l-1.2.57a3.78,3.78,0,0,0-1-1.76,2.54,2.54,0,0,0-1.72-.58,2.7,2.7,0,0,0-1.43.38,3.14,3.14,0,0,0-1,1,5,5,0,0,0-.63,1.53,8.26,8.26,0,0,0-.21,1.9,10.47,10.47,0,0,0,.17,1.92,4.55,4.55,0,0,0,.56,1.53,2.87,2.87,0,0,0,1,1,3,3,0,0,0,1.56.37,2.69,2.69,0,0,0,1.07-.2,2.53,2.53,0,0,0,.81-.55,3.61,3.61,0,0,0,.6-.82,6.36,6.36,0,0,0,.43-1Z"/><path class="cls-2" d="M122.18,242.46h2.64a5.16,5.16,0,0,1,2.21.44,4.5,4.5,0,0,1,1.6,1.21,5.16,5.16,0,0,1,1,1.84,8.64,8.64,0,0,1,0,4.66,5.08,5.08,0,0,1-1,1.84,4.52,4.52,0,0,1-1.6,1.22,5.31,5.31,0,0,1-2.21.44h-2.64Zm2.56,10.42a3.4,3.4,0,0,0,2.84-1.18,6.8,6.8,0,0,0,0-6.83,3.38,3.38,0,0,0-2.84-1.18h-1.17v9.19Z"/><path class="cls-2" d="M131.4,242.46h7.06v1.23H132.8v3.78H138v1.23H132.8v4.18h5.71v1.23H131.4Z"/><path class="cls-2" d="M146.88,252.21a3.58,3.58,0,0,1-1.06,1.52,2.74,2.74,0,0,1-1.87.61,4.08,4.08,0,0,1-2-.46,3.88,3.88,0,0,1-1.41-1.26,5.82,5.82,0,0,1-.86-1.92,9.33,9.33,0,0,1-.29-2.42,8.46,8.46,0,0,1,.33-2.41,5.75,5.75,0,0,1,.95-1.92,4.47,4.47,0,0,1,1.5-1.27,4.28,4.28,0,0,1,2-.46,3.86,3.86,0,0,1,2.57.81,4.38,4.38,0,0,1,1.36,2.11l-1.13.65a3.28,3.28,0,0,0-1-1.73,2.69,2.69,0,0,0-1.83-.61,2.74,2.74,0,0,0-1.41.36,3.16,3.16,0,0,0-1,1,4.65,4.65,0,0,0-.65,1.53,8.45,8.45,0,0,0-.21,1.95,8.62,8.62,0,0,0,.2,2,4.44,4.44,0,0,0,.61,1.52,3.08,3.08,0,0,0,1,1,2.74,2.74,0,0,0,1.41.36,2.1,2.1,0,0,0,1.19-.33,2.67,2.67,0,0,0,.81-.86,4,4,0,0,0,.5-1.18,6.06,6.06,0,0,0,.21-1.31h-3.16v-1.16h4.53v5.84h-1Z"/><path class="cls-2" d="M98.85,274.25a4.33,4.33,0,0,1-1.4-.43,3.81,3.81,0,0,1-1.06-.79,4.23,4.23,0,0,1-.74-1.08,6.38,6.38,0,0,1-.46-1.29L96.4,270a4.53,4.53,0,0,0,.81,1.95,2.74,2.74,0,0,0,1.64,1v-4.48a4.63,4.63,0,0,1-2.34-1.18,2.88,2.88,0,0,1-.82-2.13,2.57,2.57,0,0,1,.23-1.11,3,3,0,0,1,.65-.89,3.32,3.32,0,0,1,1-.65,4.31,4.31,0,0,1,1.28-.35v-1.46h1.33v1.48a3.9,3.9,0,0,1,2.12.93,4.22,4.22,0,0,1,1.2,1.84l-1.12.68a3.51,3.51,0,0,0-.84-1.5,2.61,2.61,0,0,0-1.36-.72v4.08a5.15,5.15,0,0,1,2.68,1.13,2.94,2.94,0,0,1,.84,2.22,3.05,3.05,0,0,1-.26,1.23,3.2,3.2,0,0,1-.72,1,3.74,3.74,0,0,1-1.11.75,4.36,4.36,0,0,1-1.43.37v1.46H98.85Zm-1.83-9c0,.9.61,1.56,1.83,2v-3.82a2.51,2.51,0,0,0-1.31.59A1.59,1.59,0,0,0,97,265.28ZM102.3,271a1.91,1.91,0,0,0-.49-1.39,3.49,3.49,0,0,0-1.63-.78v4.27a2.63,2.63,0,0,0,1.56-.69A1.93,1.93,0,0,0,102.3,271Z"/><path class="cls-2" d="M104.29,270.53l5.18-8.1h1.4v8.1h1.32v1.23h-1.32v2.33h-1.4v-2.33h-5.18Zm1.44,0h3.74v-5.95Z"/><path class="cls-2" d="M115.05,271.06c0,.09-.06.19-.09.31a1.45,1.45,0,0,0,0,.37,1.15,1.15,0,0,0,.51,1,2.42,2.42,0,0,0,1.4.36,2.45,2.45,0,0,0,2.23-1.26,8,8,0,0,0,.9-3.68,3.48,3.48,0,0,1-1.21,1.39,3.18,3.18,0,0,1-1.84.52,4,4,0,0,1-1.51-.29,3.76,3.76,0,0,1-1.21-.8,3.62,3.62,0,0,1-.79-1.22,4.21,4.21,0,0,1-.28-1.57,4.17,4.17,0,0,1,.28-1.54,3.79,3.79,0,0,1,.81-1.26,3.71,3.71,0,0,1,1.26-.86,4.17,4.17,0,0,1,1.64-.32,3.69,3.69,0,0,1,3.1,1.4,6.39,6.39,0,0,1,1.08,4,10.68,10.68,0,0,1-.2,2.15,10.29,10.29,0,0,1-.5,1.78,4.68,4.68,0,0,1-1.48,2.1,3.41,3.41,0,0,1-2.15.71,4.67,4.67,0,0,1-1.39-.19,3.31,3.31,0,0,1-1.06-.54,2.33,2.33,0,0,1-.68-.85,2.5,2.5,0,0,1-.25-1.1,2.59,2.59,0,0,1,0-.47c0-.16.07-.29.1-.38Zm2.06-2.23a2.59,2.59,0,0,0,1-.19,2.41,2.41,0,0,0,.83-.53,2.44,2.44,0,0,0,.57-.85,3.15,3.15,0,0,0,0-2.26,2.54,2.54,0,0,0-.57-.85,2.41,2.41,0,0,0-.83-.53,2.75,2.75,0,0,0-2,0,2.41,2.41,0,0,0-.83.53,2.5,2.5,0,0,0-.55.85,3.15,3.15,0,0,0,0,2.26,2.35,2.35,0,0,0,1.38,1.38A2.58,2.58,0,0,0,117.11,268.83Z"/><path class="cls-2" d="M125.06,272h2v2.07h-2Z"/><path class="cls-2" d="M139.31,268.26a7.57,7.57,0,0,1-1.15,4.5,4.09,4.09,0,0,1-6.43,0,9.36,9.36,0,0,1,0-9,4.08,4.08,0,0,1,6.43,0A7.53,7.53,0,0,1,139.31,268.26Zm-7.33,0a8,8,0,0,0,.48,3l4.22-7.16a2.46,2.46,0,0,0-1.74-.67,2.43,2.43,0,0,0-2.2,1.25A6.91,6.91,0,0,0,132,268.26Zm3,4.83a2.43,2.43,0,0,0,2.21-1.25,6.88,6.88,0,0,0,.76-3.58,8,8,0,0,0-.48-3l-4.22,7.16A2.41,2.41,0,0,0,134.94,273.09Z"/><path class="cls-2" d="M148.18,268.26a7.5,7.5,0,0,1-1.15,4.5,4.09,4.09,0,0,1-6.43,0,9.43,9.43,0,0,1,0-9,4.08,4.08,0,0,1,6.43,0A7.46,7.46,0,0,1,148.18,268.26Zm-7.33,0a8,8,0,0,0,.49,3l4.21-7.16a2.57,2.57,0,0,0-3.94.58A7,7,0,0,0,140.85,268.26Zm3,4.83a2.43,2.43,0,0,0,2.2-1.25,6.88,6.88,0,0,0,.76-3.58,8,8,0,0,0-.48-3l-4.21,7.16A2.38,2.38,0,0,0,143.82,273.09Z"/><path class="cls-2" d="M101.68,290.62H97.22L96,294.07h-1.4l4.08-11.66h1.46l4.08,11.66h-1.4Zm-4.06-1.16h3.66l-1.51-4.52-.12-.35c0-.1-.07-.2-.11-.31a2.23,2.23,0,0,1-.09-.32c0,.1-.07.21-.1.32s-.07.21-.1.31l-.12.35Z"/><path class="cls-2" d="M104.18,282.41H112v1.24l-6.41,9.18h6.7v1.24h-8.21v-1.2l6.44-9.22h-6.34Z"/><path class="cls-2" d="M103.81,308.22a7.46,7.46,0,0,1-1.15,4.49,4.07,4.07,0,0,1-6.42,0,9.36,9.36,0,0,1,0-9,4.08,4.08,0,0,1,6.42,0A7.52,7.52,0,0,1,103.81,308.22Zm-7.32,0a8,8,0,0,0,.48,3l4.21-7.16a2.38,2.38,0,0,0-1.73-.67,2.44,2.44,0,0,0-2.21,1.25A7,7,0,0,0,96.49,308.22Zm3,4.83a2.44,2.44,0,0,0,2.21-1.25,7,7,0,0,0,.75-3.58,8,8,0,0,0-.48-3l-4.21,7.16A2.38,2.38,0,0,0,99.45,313.05Z"/><path class="cls-2" d="M112.22,314.05h-7.06v-1.14H108v-8.64a2.26,2.26,0,0,1-1.06.63,6,6,0,0,1-1.44.16v-1.2a3.38,3.38,0,0,0,1.65-.34,2.63,2.63,0,0,0,1-1.13h1.27v10.52h2.83Z"/><path class="cls-2" d="M118,308.7a8.41,8.41,0,0,0,.79-.87,5,5,0,0,0,.49-.79,3.08,3.08,0,0,0,.25-.74,5.1,5.1,0,0,0,.06-.8,2.13,2.13,0,0,0-.18-.88,2.26,2.26,0,0,0-.5-.69,2.29,2.29,0,0,0-.76-.45,2.91,2.91,0,0,0-1-.16,2.63,2.63,0,0,0-1,.17,2.22,2.22,0,0,0-.75.47,2.12,2.12,0,0,0-.49.75,2.4,2.4,0,0,0-.18,1,2,2,0,0,0,.14.74l-1.24.2a2.25,2.25,0,0,1-.15-.55,3.08,3.08,0,0,1,.21-1.79,3.26,3.26,0,0,1,.74-1.07,3.79,3.79,0,0,1,1.17-.75,4,4,0,0,1,1.55-.28,4.63,4.63,0,0,1,1.53.24,3.47,3.47,0,0,1,1.17.68,3,3,0,0,1,.75,1.05,3.43,3.43,0,0,1,.26,1.33,5.07,5.07,0,0,1-.11,1,4,4,0,0,1-.36,1,5.53,5.53,0,0,1-.64,1,12,12,0,0,1-.94,1l-3.38,3.29H121v1.24h-7.53v-.92Z"/><path class="cls-2" d="M123.66,310.3a.65.65,0,0,0,0,.22,3.32,3.32,0,0,0,0,.35,2,2,0,0,0,.19.88,2.06,2.06,0,0,0,.53.68,2.43,2.43,0,0,0,.79.45,2.91,2.91,0,0,0,1,.17,2.66,2.66,0,0,0,1.84-.59,2.3,2.3,0,0,0,.66-1.79,2,2,0,0,0-.25-1,2.12,2.12,0,0,0-.68-.72,2.92,2.92,0,0,0-1-.42,5.52,5.52,0,0,0-1.26-.14v-1.13a3.84,3.84,0,0,0,1.27-.18,2,2,0,0,0,.79-.49,1.71,1.71,0,0,0,.4-.67,2.53,2.53,0,0,0,.12-.77,1.61,1.61,0,0,0-.57-1.31,2.3,2.3,0,0,0-1.55-.48,2.28,2.28,0,0,0-.77.14,1.83,1.83,0,0,0-.65.38,2,2,0,0,0-.44.6,1.79,1.79,0,0,0-.17.78,1.28,1.28,0,0,0,.09.5l-1.22.18a2.62,2.62,0,0,1-.11-.42c0-.13,0-.27,0-.42a2.7,2.7,0,0,1,.24-1.13,2.79,2.79,0,0,1,.68-.92,3.27,3.27,0,0,1,1-.63,3.92,3.92,0,0,1,1.36-.22,4.72,4.72,0,0,1,1.46.21,3.06,3.06,0,0,1,1.09.58,2.56,2.56,0,0,1,.89,2,3.55,3.55,0,0,1-.4,1.61,2.49,2.49,0,0,1-.56.66,2.29,2.29,0,0,1-.85.44,4.13,4.13,0,0,1,1,.4,3.12,3.12,0,0,1,.79.64,2.75,2.75,0,0,1,.53.87,2.87,2.87,0,0,1,.19,1.07,3.71,3.71,0,0,1-.31,1.58,3.29,3.29,0,0,1-.83,1.14,3.55,3.55,0,0,1-1.23.7,5,5,0,0,1-1.53.23,4.46,4.46,0,0,1-1.65-.29,4.07,4.07,0,0,1-1.23-.76,3.4,3.4,0,0,1-.76-1.06,2.94,2.94,0,0,1-.27-1.2,3.14,3.14,0,0,1,0-.51,2.09,2.09,0,0,1,.14-.48Z"/><path class="cls-2" d="M130.92,310.48l5.17-8.09h1.4v8.09h1.32v1.23h-1.32v2.34h-1.4v-2.34h-5.17Zm1.43,0h3.74v-5.94Z"/><path class="cls-2" d="M140.44,302.39h6.61v1.23h-5.5l-.31,3.83a3.07,3.07,0,0,1,1.21-1,3.57,3.57,0,0,1,1.44-.32,4.26,4.26,0,0,1,1.65.3,3.54,3.54,0,0,1,1.23.84,3.64,3.64,0,0,1,.75,1.28,5,5,0,0,1,.26,1.64,4.71,4.71,0,0,1-.29,1.66,3.79,3.79,0,0,1-.82,1.3,3.7,3.7,0,0,1-1.29.86,4.23,4.23,0,0,1-1.66.31,4.35,4.35,0,0,1-1.61-.28,4.08,4.08,0,0,1-1.24-.72,3.16,3.16,0,0,1-.79-1,2.89,2.89,0,0,1-.27-1.22,2.28,2.28,0,0,1,0-.45,1.5,1.5,0,0,1,.12-.39l1.23.27c0,.07,0,.14,0,.22a2.81,2.81,0,0,0,0,.3,1.85,1.85,0,0,0,.2.89,1.73,1.73,0,0,0,.55.65,2.24,2.24,0,0,0,.82.4,3.68,3.68,0,0,0,1,.14,2.58,2.58,0,0,0,1.93-.76,3,3,0,0,0,.73-2.14,3.36,3.36,0,0,0-.2-1.22,2.58,2.58,0,0,0-.56-.92,2.49,2.49,0,0,0-.86-.57,3.07,3.07,0,0,0-1.06-.19,2.66,2.66,0,0,0-1.62.49,3.37,3.37,0,0,0-1,1.16l-1.13-.32Z"/><path class="cls-2" d="M103.9,328.2a9.89,9.89,0,0,1-.31,2.55,5.58,5.58,0,0,1-.89,1.9,3.77,3.77,0,0,1-1.39,1.19,4.33,4.33,0,0,1-3.72,0,3.88,3.88,0,0,1-1.4-1.19,5.76,5.76,0,0,1-.88-1.9,10.64,10.64,0,0,1,0-5.1,5.76,5.76,0,0,1,.88-1.9,4,4,0,0,1,1.4-1.2,4.42,4.42,0,0,1,3.72,0,3.89,3.89,0,0,1,1.39,1.2,5.58,5.58,0,0,1,.89,1.9A10,10,0,0,1,103.9,328.2ZM99.45,333a2.59,2.59,0,0,0,1.32-.34,2.86,2.86,0,0,0,.94-1,5.12,5.12,0,0,0,.56-1.52,10.52,10.52,0,0,0,0-4,5.12,5.12,0,0,0-.56-1.52,2.77,2.77,0,0,0-.94-1,2.73,2.73,0,0,0-2.64,0,2.77,2.77,0,0,0-.94,1,5.12,5.12,0,0,0-.56,1.52,10.52,10.52,0,0,0,0,4,5.12,5.12,0,0,0,.56,1.52,2.86,2.86,0,0,0,.94,1A2.59,2.59,0,0,0,99.45,333Z"/><path class="cls-2" d="M108.09,329h-2.25V334h-1.4V322.37h4.25a4.48,4.48,0,0,1,1.56.25,3.41,3.41,0,0,1,1.16.69,3.06,3.06,0,0,1,.73,1.05,3.55,3.55,0,0,1,.25,1.31,3.07,3.07,0,0,1-.75,2.08,3.58,3.58,0,0,1-2,1.13L112.5,334h-1.56Zm-2.25-1.23h2.6a3,3,0,0,0,1.9-.51,1.84,1.84,0,0,0,.65-1.55,1.87,1.87,0,0,0-.65-1.56,3,3,0,0,0-1.9-.51h-2.6Z"/><path class="cls-2" d="M121.56,330.93a7.76,7.76,0,0,1-.55,1.26,4.07,4.07,0,0,1-.82,1.06,3.54,3.54,0,0,1-1.14.73,3.93,3.93,0,0,1-1.55.28,4.39,4.39,0,0,1-2.07-.46,4.12,4.12,0,0,1-1.46-1.26,5.81,5.81,0,0,1-.88-1.93,9.71,9.71,0,0,1-.29-2.41,8.18,8.18,0,0,1,.34-2.42,6,6,0,0,1,1-1.92,4.45,4.45,0,0,1,1.51-1.26,4.19,4.19,0,0,1,2-.46,4.39,4.39,0,0,1,1.48.22,3.56,3.56,0,0,1,1.11.63,3.52,3.52,0,0,1,.8.95,5.56,5.56,0,0,1,.52,1.19l-1.2.57a3.83,3.83,0,0,0-1-1.76,2.53,2.53,0,0,0-1.72-.57,2.7,2.7,0,0,0-1.43.38,3,3,0,0,0-1,1,4.82,4.82,0,0,0-.63,1.53,8.19,8.19,0,0,0-.21,1.9,10.36,10.36,0,0,0,.17,1.91,4.55,4.55,0,0,0,.56,1.53,2.82,2.82,0,0,0,1,1,3.1,3.1,0,0,0,1.56.37,2.53,2.53,0,0,0,1.88-.75,3.68,3.68,0,0,0,.6-.83,5.9,5.9,0,0,0,.43-1Z"/><path class="cls-2" d="M122.19,322.37h1.4v5.1h5v-5.1H130V334h-1.4V328.7h-5V334h-1.4Z"/><path class="cls-2" d="M139.31,330.93a8.74,8.74,0,0,1-.55,1.26,4.29,4.29,0,0,1-.82,1.06,3.48,3.48,0,0,1-1.15.73,3.9,3.9,0,0,1-1.55.28,4.37,4.37,0,0,1-2.06-.46,4.16,4.16,0,0,1-1.47-1.26,6,6,0,0,1-.87-1.93,9.71,9.71,0,0,1-.29-2.41,8.53,8.53,0,0,1,.33-2.42,5.77,5.77,0,0,1,1-1.92,4.45,4.45,0,0,1,1.51-1.26,4.16,4.16,0,0,1,2-.46,4.43,4.43,0,0,1,1.48.22,3.56,3.56,0,0,1,1.11.63,3.71,3.71,0,0,1,.8.95,5.56,5.56,0,0,1,.52,1.19l-1.2.57a3.83,3.83,0,0,0-1-1.76,2.53,2.53,0,0,0-1.72-.57,2.68,2.68,0,0,0-1.43.38,3.16,3.16,0,0,0-1,1,5.05,5.05,0,0,0-.62,1.53,8.19,8.19,0,0,0-.21,1.9,10.36,10.36,0,0,0,.17,1.91,4.34,4.34,0,0,0,.56,1.53,2.82,2.82,0,0,0,1,1,3.1,3.1,0,0,0,1.56.37,2.53,2.53,0,0,0,1.88-.75,3.68,3.68,0,0,0,.6-.83,5.9,5.9,0,0,0,.43-1Z"/><path class="cls-2" d="M101.68,370.55H97.22L96,374h-1.4l4.08-11.66h1.46L104.26,374h-1.4Zm-4.06-1.16h3.66l-1.51-4.52-.12-.35c0-.1-.07-.2-.11-.31a2.23,2.23,0,0,1-.09-.32c0,.1-.07.21-.1.32s-.07.21-.1.31l-.12.35Z"/><path class="cls-2" d="M104.18,362.34H112v1.24l-6.41,9.18h6.7V374h-8.21v-1.2l6.44-9.22h-6.34Z"/><path class="cls-2" d="M130,374h-7.06v-1.13h2.83v-8.65a2.19,2.19,0,0,1-1.06.63,6,6,0,0,1-1.44.16v-1.2a3.38,3.38,0,0,0,1.65-.34,2.7,2.7,0,0,0,1-1.13h1.27v10.53H130Z"/><path class="cls-2" d="M135.74,368.65a6.61,6.61,0,0,0,.79-.87,5.06,5.06,0,0,0,.5-.78,3.15,3.15,0,0,0,.25-.75,5.06,5.06,0,0,0,.06-.79,2.14,2.14,0,0,0-.18-.89,2.26,2.26,0,0,0-.5-.69,2.29,2.29,0,0,0-.76-.45,2.93,2.93,0,0,0-1-.15,2.58,2.58,0,0,0-.94.16,2.1,2.1,0,0,0-.75.48,2,2,0,0,0-.49.74,2.44,2.44,0,0,0-.18.95,2.11,2.11,0,0,0,.13.75l-1.23.19a2.35,2.35,0,0,1-.16-.54,5.09,5.09,0,0,1,0-.55,3.13,3.13,0,0,1,.26-1.24,3.2,3.2,0,0,1,.74-1.08,3.68,3.68,0,0,1,1.17-.75,4,4,0,0,1,1.55-.28,4.63,4.63,0,0,1,1.53.24,3.57,3.57,0,0,1,1.17.68,3,3,0,0,1,.75,1.05,3.43,3.43,0,0,1,.26,1.33,5,5,0,0,1-.11,1,4,4,0,0,1-.36,1,6.14,6.14,0,0,1-.64,1,12,12,0,0,1-.94,1.05l-3.38,3.29h5.44V374H131.2v-.92Z"/><path class="cls-2" d="M141.4,370.25a2.14,2.14,0,0,0-.05.23,3.33,3.33,0,0,0,0,.34,2,2,0,0,0,.19.88,2.06,2.06,0,0,0,.52.68,2.66,2.66,0,0,0,.79.45,3,3,0,0,0,1,.17,2.68,2.68,0,0,0,1.84-.59,2.29,2.29,0,0,0,.66-1.79,2,2,0,0,0-.25-1,2.33,2.33,0,0,0-.68-.72,3.13,3.13,0,0,0-1-.42,5.59,5.59,0,0,0-1.26-.14v-1.13a3.84,3.84,0,0,0,1.27-.18,1.87,1.87,0,0,0,.79-.49,1.64,1.64,0,0,0,.4-.67,2.53,2.53,0,0,0,.12-.77,1.61,1.61,0,0,0-.57-1.31,2.32,2.32,0,0,0-1.55-.47,2.27,2.27,0,0,0-.77.13,1.83,1.83,0,0,0-.65.38,2,2,0,0,0-.44.6,1.79,1.79,0,0,0-.17.78,1.5,1.5,0,0,0,.08.5l-1.21.19a2.09,2.09,0,0,1-.11-.43,2.82,2.82,0,0,1,0-.42,2.7,2.7,0,0,1,.24-1.13,2.9,2.9,0,0,1,.68-.92,3.06,3.06,0,0,1,1.05-.63,3.88,3.88,0,0,1,1.36-.22,4.72,4.72,0,0,1,1.46.21,3.1,3.1,0,0,1,1.08.58,2.61,2.61,0,0,1,.67.88,2.72,2.72,0,0,1,.23,1.11,3.34,3.34,0,0,1-.1.82,3,3,0,0,1-.31.79,2.31,2.31,0,0,1-.55.66,2.37,2.37,0,0,1-.85.44,4.13,4.13,0,0,1,1,.4,3.12,3.12,0,0,1,.79.64,2.94,2.94,0,0,1,.53.87,3.12,3.12,0,0,1,.19,1.07,3.71,3.71,0,0,1-.31,1.58,3.42,3.42,0,0,1-.83,1.14,3.55,3.55,0,0,1-1.23.7,5.05,5.05,0,0,1-1.53.23,4.46,4.46,0,0,1-1.65-.29,3.77,3.77,0,0,1-1.23-.76,3.14,3.14,0,0,1-.76-1.06,2.9,2.9,0,0,1-.27-1.2,3.14,3.14,0,0,1,.05-.51,2.77,2.77,0,0,1,.13-.48Z"/><path class="cls-2" d="M68.52,362.2v10.16L72,375.05v3.18L60.31,369v-3.34L72,356.32v3.19Zm-1.16,9.25v-8.34l-4.52,3.45-.35.26-.31.25a1.75,1.75,0,0,1-.32.21l.32.22.31.23.35.27Z"/><path class="cls-2" d="M60.31,356v-6a25.75,25.75,0,0,1,.44-5A13.75,13.75,0,0,1,62,341.24,6,6,0,0,1,63.81,339a4,4,0,0,1,4.66,0,6,6,0,0,1,1.84,2.22,13.75,13.75,0,0,1,1.22,3.66,25.75,25.75,0,0,1,.44,5v6Zm10.43-5.84a13.58,13.58,0,0,0-1.19-6.46,3.81,3.81,0,0,0-6.82,0,13.58,13.58,0,0,0-1.19,6.46v2.65h9.2Z"/><path class="cls-2" d="M60.31,336.73v-3.68l10.29-6.18L60.31,320.7V317H72v3H63.51l.41.25.61.36c.24.13.51.26.79.42L72,325.21v3.33l-6.65,4.13c-.28.16-.55.29-.79.42l-.61.36c-.2.11-.33.2-.41.25H72v3Z"/><path class="cls-2" d="M61.45,299.17v5.91h9.38v-6.14H72V314.4H70.83v-6.14H61.45v5.92H60.31v-15Z"/><path class="cls-2" d="M60.31,295.64V277.3h1.23v7.58H72v3.18H61.54v7.58Z"/><path class="cls-2" d="M66.14,236a4.73,4.73,0,0,1,2.56.7,5.82,5.82,0,0,1,1.89,2,10.49,10.49,0,0,1,1.19,3.18,21.46,21.46,0,0,1,0,8.45,10.56,10.56,0,0,1-1.19,3.19,5.82,5.82,0,0,1-1.89,2,5,5,0,0,1-5.11,0,5.75,5.75,0,0,1-1.9-2,10.56,10.56,0,0,1-1.19-3.19,21.46,21.46,0,0,1,0-8.45,10.49,10.49,0,0,1,1.19-3.18,5.75,5.75,0,0,1,1.9-2A4.75,4.75,0,0,1,66.14,236ZM71,246.07a12.15,12.15,0,0,0-.34-3,6.14,6.14,0,0,0-1-2.14,4.15,4.15,0,0,0-1.52-1.29,4.82,4.82,0,0,0-4,0,4.15,4.15,0,0,0-1.52,1.29,6.33,6.33,0,0,0-1,2.14,13.36,13.36,0,0,0,0,6,6.33,6.33,0,0,0,1,2.14,4.15,4.15,0,0,0,1.52,1.29,4.72,4.72,0,0,0,4,0,4.15,4.15,0,0,0,1.52-1.29,6.14,6.14,0,0,0,1-2.14A12.12,12.12,0,0,0,71,246.07Z"/><path class="cls-2" d="M60.31,234.58v-3.26l8.36-10c.14-.18.28-.34.4-.5l.33-.37c.11-.13.2-.22.25-.27H60.31v-3H72v3.26l-8.36,10-.4.5c-.11.12-.22.25-.32.38l-.26.26H72v3Z"/><path class="cls-2" d="M60.31,213.74V197.67h1.23v12.88h3.78V198.73h1.24v11.82h4.18v-13H72v16.19Z"/><path class="cls-2" d="M547.45,362.2v10.16l3.44,2.69v3.18L539.24,369v-3.34l11.65-9.29v3.19Zm-1.17,9.25v-8.34l-4.51,3.45-.35.26-.32.25a1.7,1.7,0,0,1-.31.21l.31.22.32.23.35.27Z"/><path class="cls-2" d="M539.24,356v-6a25.75,25.75,0,0,1,.44-5,13.41,13.41,0,0,1,1.22-3.66,5.92,5.92,0,0,1,1.84-2.22,4,4,0,0,1,4.66,0,6,6,0,0,1,1.84,2.22,13.77,13.77,0,0,1,1.21,3.66,25,25,0,0,1,.44,5v6Zm10.42-5.84q0-4.37-1.18-6.46a3.82,3.82,0,0,0-6.83,0,13.72,13.72,0,0,0-1.18,6.46v2.65h9.19Z"/><path class="cls-2" d="M539.24,336.73v-3.68l10.29-6.18-10.29-6.17V317h11.65v3h-8.45l.4.25.61.36.8.42,6.64,4.13v3.33l-6.64,4.13-.8.42-.61.36-.4.25h8.45v3Z"/><path class="cls-2" d="M540.37,299.17v5.91h9.39v-6.14h1.13V314.4h-1.13v-6.14h-9.39v5.92h-1.13v-15Z"/><path class="cls-2" d="M539.24,295.64V277.3h1.23v7.58h10.42v3.18H540.47v7.58Z"/><path class="cls-2" d="M545.07,236a4.7,4.7,0,0,1,2.55.7,5.85,5.85,0,0,1,1.9,2,10.76,10.76,0,0,1,1.19,3.18,21.46,21.46,0,0,1,0,8.45,10.83,10.83,0,0,1-1.19,3.19,5.85,5.85,0,0,1-1.9,2,5,5,0,0,1-5.1,0,5.78,5.78,0,0,1-1.91-2,11.12,11.12,0,0,1-1.19-3.19,22,22,0,0,1,0-8.45,11,11,0,0,1,1.19-3.18,5.78,5.78,0,0,1,1.91-2A4.7,4.7,0,0,1,545.07,236Zm4.82,10.12a11.69,11.69,0,0,0-.34-3,6.13,6.13,0,0,0-1-2.14,4.15,4.15,0,0,0-1.52-1.29,4.5,4.5,0,0,0-2-.43,4.44,4.44,0,0,0-2,.43,4.18,4.18,0,0,0-1.53,1.29,6.32,6.32,0,0,0-1,2.14,13.36,13.36,0,0,0,0,6,6.32,6.32,0,0,0,1,2.14,4.18,4.18,0,0,0,1.53,1.29,4.44,4.44,0,0,0,2,.44,4.5,4.5,0,0,0,2-.44,4.15,4.15,0,0,0,1.52-1.29,6.13,6.13,0,0,0,1-2.14A11.66,11.66,0,0,0,549.89,246.07Z"/><path class="cls-2" d="M539.24,234.58v-3.26l8.36-10,.4-.5.33-.37a2.47,2.47,0,0,1,.25-.27h-9.34v-3h11.65v3.26l-8.35,10-.4.5-.33.38a1.57,1.57,0,0,1-.26.26h9.34v3Z"/><path class="cls-2" d="M539.24,213.74V197.67h1.23v12.88h3.78V198.73h1.23v11.82h4.18v-13h1.23v16.19Z"/></g><polyline class="cls-3" points="283.77 191.3 547 168.27 549.02 191.3"/><polyline class="cls-3" points="19.53 299.92 12.11 215.07 20 214.38"/><polyline class="cls-3" points="292.23 385.09 29 408.12 26.95 384.67"/><polyline class="cls-3" points="556.47 276.48 563.89 361.32 555.93 362.02"/><polyline class="cls-3" points="279.52 191.3 535.57 146.16 539.58 168.93"/><polyline class="cls-3" points="19.53 311.69 6.78 239.39 14.12 238.1"/><polyline class="cls-3" points="296.48 385.09 40.43 430.24 36.42 407.47"/><polyline class="cls-3" points="556.47 264.71 569.22 337 561.88 338.29"/><polyline class="cls-3" points="19.53 323.12 3.6 263.67 10.73 261.76"/><polyline class="cls-3" points="299.2 385.09 53.76 450.86 47.88 428.93"/><polyline class="cls-3" points="556.47 252.43 572.4 311.89 565.13 313.83"/><polyline class="cls-3" points="273.69 191.3 522.24 124.7 528.33 147.43"/></g></g></g></g></svg>