<svg xmlns="http://www.w3.org/2000/svg" viewBox="0 0 864 360"><defs><style>.cls-1{fill:#fff;opacity:0;}.cls-2,.cls-4{fill:none;stroke-miterlimit:10;stroke-width:3px;}.cls-2{stroke:#ee275e;}.cls-3{fill:#ee275e;}.cls-4{stroke:#000;}</style></defs><title>Asset 4</title><g id="Layer_2" data-name="Layer 2"><g id="Keys"><rect class="cls-1" width="864" height="360"/><rect class="cls-2" x="318.86" y="72" width="41.14" height="216" transform="translate(678.86 360) rotate(180)"/><rect class="cls-2" x="277.71" y="72" width="41.14" height="216" transform="translate(596.57 360) rotate(180)"/><rect class="cls-2" x="236.57" y="72" width="41.14" height="216" transform="translate(514.29 360) rotate(180)"/><rect class="cls-2" x="195.43" y="72" width="41.14" height="216" transform="translate(432 360) rotate(180)"/><rect class="cls-2" x="154.29" y="72" width="41.14" height="216" transform="translate(349.71 360) rotate(180)"/><rect class="cls-2" x="113.14" y="72" width="41.14" height="216" transform="translate(267.43 360) rotate(180)"/><rect class="cls-2" x="72" y="72" width="41.14" height="216" transform="translate(185.14 360) rotate(180)"/><rect class="cls-3" x="302.4" y="72" width="32.91" height="144" transform="translate(637.71 288) rotate(180)"/><rect class="cls-3" x="261.26" y="72" width="32.91" height="144" transform="translate(555.43 288) rotate(180)"/><rect class="cls-3" x="220.11" y="72" width="32.91" height="144" transform="translate(473.14 288) rotate(180)"/><rect class="cls-3" x="137.83" y="72" width="32.91" height="144" transform="translate(308.57 288) rotate(180)"/><rect class="cls-3" x="96.69" y="72" width="32.91" height="144" transform="translate(226.29 288) rotate(180)"/><rect class="cls-4" x="750.86" y="72" width="41.14" height="216" transform="translate(1542.86 360) rotate(180)"/><rect class="cls-4" x="709.71" y="72" width="41.14" height="216" transform="translate(1460.57 360) rotate(180)"/><rect class="cls-4" x="668.57" y="72" width="41.14" height="216" transform="translate(1378.29 360) rotate(180)"/><rect class="cls-4" x="627.43" y="72" width="41.14" height="216" transform="translate(1296 360) rotate(180)"/><rect class="cls-4" x="586.29" y="72" width="41.14" height="216" transform="translate(1213.71 360) rotate(180)"/><rect class="cls-4" x="545.14" y="72" width="41.14" height="216" transform="translate(1131.43 360) rotate(180)"/><rect class="cls-4" x="504" y="72" width="41.14" height="216" transform="translate(1049.14 360) rotate(180)"/><rect x="734.4" y="72" width="32.91" height="144" transform="translate(1501.71 288) rotate(180)"/><rect x="693.26" y="72" width="32.91" height="144" transform="translate(1419.43 288) rotate(180)"/><rect x="652.11" y="72" width="32.91" height="144" transform="translate(1337.14 288) rotate(180)"/><rect x="569.83" y="72" width="32.91" height="144" transform="translate(1172.57 288) rotate(180)"/><rect x="528.69" y="72" width="32.91" height="144" transform="translate(1090.29 288) rotate(180)"/></g></g></svg>