<?xml version="1.0" encoding="utf-8"?>
<!-- Generator: Adobe Illustrator 23.0.1, SVG Export Plug-In . SVG Version: 6.00 Build 0)  -->
<svg version="1.1" id="Layer_1" xmlns="http://www.w3.org/2000/svg" xmlns:xlink="http://www.w3.org/1999/xlink" x="0px" y="0px"
	 viewBox="0 0 864 360" style="enable-background:new 0 0 864 360;" xml:space="preserve">
<style type="text/css">
	.st0{fill:none;stroke:#EE275E;stroke-width:3;stroke-miterlimit:10;}
	.st1{fill:#EE275E;}
	.st2{fill:none;stroke:#000000;stroke-width:3;stroke-miterlimit:10;}
</style>
<title>Asset 4</title>
<g>
	<g id="Keys">
		<rect x="318.9" y="72" class="st0" width="41.1" height="216"/>
		<rect x="277.7" y="72" class="st0" width="41.1" height="216"/>
		<rect x="236.6" y="72" class="st0" width="41.1" height="216"/>
		<rect x="195.4" y="72" class="st0" width="41.1" height="216"/>
		<rect x="154.3" y="72" class="st0" width="41.1" height="216"/>
		<rect x="113.1" y="72" class="st0" width="41.1" height="216"/>
		<rect x="72" y="72" class="st0" width="41.1" height="216"/>
		<rect x="302.4" y="72" class="st1" width="32.9" height="144"/>
		<rect x="261.3" y="72" class="st1" width="32.9" height="144"/>
		<rect x="220.1" y="72" class="st1" width="32.9" height="144"/>
		<rect x="137.8" y="72" class="st1" width="32.9" height="144"/>
		<rect x="96.7" y="72" class="st1" width="32.9" height="144"/>
		<rect x="750.9" y="72" class="st2" width="41.1" height="216"/>
		<rect x="709.7" y="72" class="st2" width="41.1" height="216"/>
		<rect x="668.6" y="72" class="st2" width="41.1" height="216"/>
		<rect x="627.4" y="72" class="st2" width="41.1" height="216"/>
		<rect x="586.3" y="72" class="st2" width="41.1" height="216"/>
		<rect x="545.2" y="72" class="st2" width="41.1" height="216"/>
		<rect x="504" y="72" class="st2" width="41.1" height="216"/>
		<rect x="734.4" y="72" width="32.9" height="144"/>
		<rect x="693.3" y="72" width="32.9" height="144"/>
		<rect x="652.1" y="72" width="32.9" height="144"/>
		<rect x="569.8" y="72" width="32.9" height="144"/>
		<rect x="528.7" y="72" width="32.9" height="144"/>
	</g>
</g>
</svg>
