<svg xmlns="http://www.w3.org/2000/svg" viewBox="0 0 864 360"><defs><style>.cls-1,.cls-4,.cls-6{fill:#fff;}.cls-1{opacity:0;}.cls-2{fill:#ee275e;}.cls-3,.cls-5{fill:none;}.cls-3,.cls-4{stroke:#ee275e;}.cls-3,.cls-4,.cls-5,.cls-6{stroke-miterlimit:10;stroke-width:3px;}.cls-5,.cls-6{stroke:#000;}</style></defs><title>Asset 1</title><g id="Layer_2" data-name="Layer 2"><g id="Layer_1-2" data-name="Layer 1"><rect class="cls-1" width="864" height="360"/><path class="cls-2" d="M296.47,216a80.8,80.8,0,0,0-26.85-60.23c-17.24-7-35.69-11.77-54.15-11.77s-36.91,4.74-54.15,11.77a81,81,0,0,0,0,120.46c17.24,7,35.69,11.77,54.15,11.77s36.91-4.74,54.15-11.77A80.8,80.8,0,0,0,296.47,216Z"/><path class="cls-3" d="M71.47,216s72-72,144-72,144,72,144,72-72,72-144,72S71.47,216,71.47,216Z"/><line class="cls-4" x1="109.82" y1="159.76" x2="36" y2="120.31"/><line class="cls-4" x1="178.33" y1="133.74" x2="146.05" y2="67.99"/><line class="cls-4" x1="252.48" y1="133.74" x2="285.02" y2="68"/><line class="cls-4" x1="320.98" y1="159.76" x2="395.08" y2="120.31"/><path d="M728.47,216a80.8,80.8,0,0,0-26.85-60.23c-17.24-7-35.69-11.77-54.15-11.77s-36.91,4.74-54.15,11.77a81,81,0,0,0,0,120.46c17.24,7,35.69,11.77,54.15,11.77s36.91-4.74,54.15-11.77A80.8,80.8,0,0,0,728.47,216Z"/><path class="cls-5" d="M503.47,216s72-72,144-72,144,72,144,72-72,72-144,72S503.47,216,503.47,216Z"/><line class="cls-6" x1="541.82" y1="159.76" x2="468" y2="120.31"/><line class="cls-6" x1="610.33" y1="133.74" x2="578.05" y2="67.99"/><line class="cls-6" x1="684.48" y1="133.74" x2="717.02" y2="68"/><line class="cls-6" x1="752.98" y1="159.76" x2="827.08" y2="120.31"/></g></g></svg>