<?xml version="1.0" encoding="utf-8"?>
<!-- Generator: Adobe Illustrator 23.0.1, SVG Export Plug-In . SVG Version: 6.00 Build 0)  -->
<svg version="1.1" id="Layer_1" xmlns="http://www.w3.org/2000/svg" xmlns:xlink="http://www.w3.org/1999/xlink" x="0px" y="0px"
	 viewBox="0 0 864 360" style="enable-background:new 0 0 864 360;" xml:space="preserve">
<style type="text/css">
	.st0{fill:#EE275E;}
	.st1{fill:none;stroke:#EE275E;stroke-width:3;stroke-miterlimit:10;}
	.st2{fill:none;stroke:#000000;stroke-width:3;stroke-miterlimit:10;}
</style>
<title>Asset 1</title>
<g>
	<g id="Layer_1-2">
		<path class="st0" d="M296.5,216c0-23-9.7-44.9-26.9-60.2c-17.2-7-35.7-11.8-54.1-11.8s-36.9,4.7-54.1,11.8
			c-33.3,29.9-36,81.1-6.1,114.4c1.9,2.1,3.9,4.2,6.1,6.1c17.2,7,35.7,11.8,54.1,11.8s36.9-4.7,54.1-11.8
			C286.7,260.9,296.5,239,296.5,216z"/>
		<path class="st1" d="M71.5,216c0,0,72-72,144-72s144,72,144,72s-72,72-144,72S71.5,216,71.5,216z"/>
		<line class="st1" x1="109.8" y1="159.8" x2="36" y2="120.3"/>
		<line class="st1" x1="178.3" y1="133.7" x2="146.1" y2="68"/>
		<line class="st1" x1="252.5" y1="133.7" x2="285" y2="68"/>
		<line class="st1" x1="321" y1="159.8" x2="395.1" y2="120.3"/>
		<path d="M728.5,216c0-23-9.7-44.9-26.8-60.2c-17.2-7-35.7-11.8-54.2-11.8s-36.9,4.7-54.2,11.8c-33.3,29.9-36,81.1-6.1,114.4
			c1.9,2.1,3.9,4.2,6.1,6.1c17.2,7,35.7,11.8,54.2,11.8s36.9-4.7,54.2-11.8C718.7,260.9,728.5,239,728.5,216z"/>
		<path class="st2" d="M503.5,216c0,0,72-72,144-72s144,72,144,72s-72,72-144,72S503.5,216,503.5,216z"/>
		<line class="st2" x1="541.8" y1="159.8" x2="468" y2="120.3"/>
		<line class="st2" x1="610.3" y1="133.7" x2="578" y2="68"/>
		<line class="st2" x1="684.5" y1="133.7" x2="717" y2="68"/>
		<line class="st2" x1="753" y1="159.8" x2="827.1" y2="120.3"/>
	</g>
</g>
</svg>
