<?xml version="1.0" encoding="utf-8"?>
<!-- Generator: Adobe Illustrator 23.0.1, SVG Export Plug-In . SVG Version: 6.00 Build 0)  -->
<svg version="1.1" id="Layer_1" xmlns="http://www.w3.org/2000/svg" xmlns:xlink="http://www.w3.org/1999/xlink" x="0px" y="0px"
	 viewBox="0 0 469 469" style="enable-background:new 0 0 469 469;" xml:space="preserve">
<style type="text/css">
	.st0{fill:none;stroke:#000000;stroke-width:3;}
	.st1{fill:none;stroke:#FFFFFF;stroke-width:3;}
</style>
<title>24 Hour Plays</title>
<g>
	<g id="Icons">
		<g id="_24_Hour_Plays">
			<g id="_24_Hour_Plays-2">
				<path class="st0" d="M89.3,208.1c-6.7,1.4-10.8,6.4-10.5,17.2l0.3,16.2l-19.8,4.2L59,231c-0.5-24.2,9.9-40.3,30.4-44.6
					s31.4,7.3,31.9,31.5c0.4,20.1-5.7,37.7-24.7,65.3c-12,17.8-15.3,25.6-15.2,33.6c0,1.1,0.1,2.1,0.3,3.2l39.5-8.3l0.4,21.6
					l-60.4,12.7l-0.4-18.6c-0.3-16.9,4.7-30.8,20-52.6c15.6-22.6,19.9-35.5,19.6-51.7C100.2,209.5,95.9,206.7,89.3,208.1z"/>
				<path class="st0" d="M130.6,282.2l36-110.3l22.8-4.8l2,102.3l9.9-2.1l0.4,21.6l-9.9,2.1l0.5,27.5l-20.9,4.4l-0.5-27.5l-39.9,8.4
					L130.6,282.2z M170.6,273.8l-1.1-56l-0.4,0.1l-19.2,60.3L170.6,273.8z"/>
				<path class="st0" d="M262.2,303.8l-20.9,4.4l-3-151.4l20.9-4.4l1.3,64.9l23.8-5l-1.2-64.9l21.3-4.5l3,151.4l-21.3,4.5l-1.3-64.9
					l-23.8,5L262.2,303.8z"/>
				<path class="st0" d="M366.2,281.9c-1.2-3.7-2-5.9-2.3-18.2l-0.5-23.8c-0.3-14.1-4.6-18.4-14.1-16.4l-7.2,1.5l1.2,61.6l-20.9,4.4
					l-3-151.4l31.5-6.6c21.7-4.6,31.2,4.9,31.7,28.3l0.2,11.9c0.3,15.6-3.9,26.4-13.1,33.4v0.4c10.5,2.8,14.2,13.3,14.5,29.1
					l0.5,23.4c0.1,7.4,0.5,12.7,2.6,17.9L366.2,281.9z M340.8,156.9l0.9,46.5l8.2-1.7c7.8-1.6,12.5-6.5,12.2-18.6l-0.3-14.9
					c-0.2-10.8-3.5-14.9-11-13.3L340.8,156.9z"/>
				<path class="st0" d="M418.5,247.8l0.5,22.9l-20.1,4.2l-0.5-22.9L418.5,247.8z"/>
				<path class="st1" d="M80.3,199.1c-6.7,1.4-10.8,6.4-10.5,17.2l0.3,16.2l-19.8,4.2L50,222c-0.5-24.2,9.9-40.3,30.4-44.6
					s31.4,7.3,31.9,31.5c0.4,20.1-5.7,37.7-24.7,65.3c-12,17.8-15.3,25.6-15.2,33.6c0,1.1,0.1,2.1,0.3,3.2l39.5-8.3l0.4,21.6
					l-60.4,12.7l-0.4-18.6c-0.3-16.9,4.7-30.8,20-52.6c15.6-22.6,19.9-35.5,19.6-51.7C91.2,200.5,86.9,197.7,80.3,199.1z"/>
				<path class="st1" d="M121.7,273.2l36-110.3l22.8-4.8l2,102.3l9.9-2.1l0.4,21.6l-9.9,2.1l0.5,27.5l-20.9,4.4l-0.5-27.5l-39.9,8.4
					L121.7,273.2z M161.6,264.8l-1.1-56l-0.4,0.1l-19.2,60.3L161.6,264.8z"/>
				<path class="st1" d="M253.2,294.8l-20.9,4.4l-3-151.4l20.9-4.4l1.3,64.9l23.8-5l-1.2-64.9l21.3-4.5l3,151.4l-21.3,4.5l-1.3-64.9
					l-23.8,5L253.2,294.8z"/>
				<path class="st1" d="M357.2,272.9c-1.2-3.7-2-5.9-2.3-18.2l-0.5-23.8c-0.3-14.1-4.6-18.4-14.1-16.4l-7.2,1.5l1.2,61.6l-20.9,4.4
					l-3-151.4l31.5-6.6c21.7-4.6,31.2,5,31.7,28.3l0.2,11.9c0.3,15.6-3.9,26.4-13.1,33.4v0.4c10.5,2.8,14.2,13.3,14.5,29.1l0.5,23.4
					c0.1,7.4,0.5,12.7,2.6,17.9L357.2,272.9z M331.8,147.9l0.9,46.5l8.2-1.7c7.8-1.6,12.5-6.5,12.2-18.6l-0.3-14.9
					c-0.2-10.8-3.5-14.9-11-13.3L331.8,147.9z"/>
				<path class="st1" d="M409.5,238.8l0.5,22.9l-20.1,4.2l-0.5-22.9L409.5,238.8z"/>
			</g>
		</g>
	</g>
</g>
</svg>
