<svg xmlns="http://www.w3.org/2000/svg" viewBox="0 0 469 469"><defs><style>.cls-1,.cls-2,.cls-3{fill:none;}.cls-1{stroke:#000;}.cls-1,.cls-2{stroke-width:3px;}.cls-2{stroke:#fff;}.cls-3{stroke:#ee275e;stroke-miterlimit:10;}</style></defs><title>24 Hour Plays</title><g id="Layer_2" data-name="Layer 2"><g id="Icons"><g id="_24_Hour_Plays" data-name="24 Hour Plays"><g id="_24_Hour_Plays-2" data-name="24 Hour Plays"><path class="cls-1" d="M89.29,208.12c-6.65,1.4-10.75,6.39-10.54,17.2l.32,16.22L59.31,245.7,59,231c-.48-24.23,9.88-40.31,30.41-44.63s31.45,7.28,31.93,31.51c.4,20.11-5.74,37.69-24.66,65.35C84.64,301,81.36,308.82,81.52,316.82a18.88,18.88,0,0,0,.26,3.21l39.53-8.32.43,21.63L61.3,346.06l-.37-18.6c-.33-16.87,4.74-30.75,19.95-52.63,15.58-22.61,19.91-35.47,19.59-51.69C100.2,209.52,95.94,206.72,89.29,208.12Z"/><path class="cls-1" d="M130.65,282.16l36-110.3,22.81-4.8,2,102.3,9.88-2.08.43,21.63L191.9,291l.54,27.47-20.9,4.4L171,295.39l-39.91,8.4Zm39.91-8.4-1.11-56-.38.08-19.22,60.3Z"/><path class="cls-1" d="M262.2,303.77l-20.91,4.4-3-151.39,20.9-4.4,1.29,64.88,23.76-5L283,147.38l21.29-4.48,3,151.39L286,298.77l-1.29-64.88-23.76,5Z"/><path class="cls-1" d="M366.16,281.89c-1.21-3.66-2-5.88-2.27-18.2l-.47-23.79c-.28-14.06-4.56-18.37-14.07-16.37l-7.22,1.52,1.23,61.64-20.91,4.4-3-151.4L351,133.05c21.67-4.56,31.21,4.95,31.67,28.3l.24,11.9c.31,15.57-3.86,26.44-13.08,33.37v.44c10.55,2.77,14.2,13.3,14.51,29.09l.46,23.35c.15,7.36.45,12.72,2.65,17.91Zm-25.38-125,.92,46.5,8.17-1.72c7.8-1.64,12.47-6.53,12.23-18.64l-.3-14.93c-.21-10.81-3.54-14.89-10.95-13.33Z"/><path class="cls-1" d="M418.54,247.84l.46,22.93L398.85,275l-.45-22.93Z"/><path class="cls-2" d="M80.29,199.12c-6.65,1.4-10.75,6.39-10.54,17.2l.32,16.22L50.31,236.7,50,222c-.48-24.23,9.88-40.31,30.41-44.63s31.45,7.28,31.93,31.51c.4,20.11-5.74,37.69-24.66,65.35C75.64,292,72.36,299.82,72.52,307.82a18.88,18.88,0,0,0,.26,3.21l39.53-8.32.43,21.63L52.3,337.06l-.37-18.6c-.33-16.87,4.74-30.75,19.95-52.63,15.58-22.61,19.91-35.47,19.59-51.69C91.2,200.52,86.94,197.72,80.29,199.12Z"/><path class="cls-2" d="M121.65,273.16l36-110.3,22.81-4.8,2,102.3,9.88-2.08.43,21.63L182.9,282l.54,27.47-20.9,4.4L162,286.39l-39.91,8.4Zm39.91-8.4-1.11-56-.38.08-19.22,60.3Z"/><path class="cls-2" d="M253.2,294.77l-20.91,4.4-3-151.39,20.9-4.4,1.29,64.88,23.76-5L274,138.38l21.29-4.48,3,151.39L277,289.77l-1.29-64.88-23.76,5Z"/><path class="cls-2" d="M357.16,272.89c-1.21-3.66-2-5.88-2.27-18.2l-.47-23.79c-.28-14.06-4.56-18.37-14.07-16.37l-7.22,1.52,1.23,61.64-20.91,4.4-3-151.4L342,124.05c21.67-4.56,31.21,5,31.67,28.3l.24,11.9c.31,15.57-3.86,26.44-13.08,33.37v.44c10.55,2.77,14.2,13.3,14.51,29.09l.46,23.35c.15,7.36.45,12.72,2.65,17.91Zm-25.38-125,.92,46.5,8.17-1.72c7.8-1.64,12.47-6.53,12.23-18.64l-.3-14.93c-.21-10.81-3.54-14.89-10.95-13.33Z"/><path class="cls-2" d="M409.54,238.84l.46,22.93L389.85,266l-.45-22.93Z"/></g><rect class="cls-3" x="0.5" y="0.5" width="468" height="468"/></g></g></g></svg>