<?xml version="1.0" encoding="utf-8"?>
<!-- Generator: Adobe Illustrator 23.0.1, SVG Export Plug-In . SVG Version: 6.00 Build 0)  -->
<svg version="1.1" id="Layer_1" xmlns="http://www.w3.org/2000/svg" xmlns:xlink="http://www.w3.org/1999/xlink" x="0px" y="0px"
	 viewBox="0 0 469 469" style="enable-background:new 0 0 469 469;" xml:space="preserve">
<style type="text/css">
	.st0{fill:none;stroke:#000000;stroke-width:3;}
	.st1{fill:none;stroke:#FFFFFF;stroke-width:3;}
</style>
<title>SmartTix</title>
<g>
	<g id="Icons">
		<g id="SmartTix">
			<g id="SmartTix-2">
				<path class="st0" d="M299.8,188.5l-1.6,7.6c-0.6,3-2.2,4.4-5.1,4.4H96.7c-5.3,0-8.8,3.7-8.8,9.5c0,2.4,1.7,3.9,5,5.4l11,5.3
					c6.1,2.9,8.7,7.2,8.7,14.1c0,17.4-8.8,27.6-24.9,27.6H72.3c-6.7,0-10-0.5-10-4.2c0-0.6,0.1-1.3,0.2-1.9l2.2-9.6h1.9
					c0.2,3.3,1.7,4.3,5.4,4.3h12.5c8.1,0,13.1-5.6,13.1-13.1c0-3-1.5-4.8-4.9-6.3L80,225.9c-5-2.2-7.1-5.9-7.1-12.1
					c0-15.7,7.9-25.3,21-25.3H299.8z"/>
				<path class="st0" d="M180.3,211.1c8.2,0,12.6,3.3,12.6,8.5c0,1.6-0.2,3.1-0.6,4.7l-8,32.1c-0.2,0.7-0.3,1.3-0.4,2
					c0,1.5,1.2,2.4,3.1,2.4l-0.5,1.7h-12.3c-2.2,0-3.4-1.1-3.4-2.9c0-0.6,0-1.1,0.2-1.6l7.4-29.8c0.4-1.3,0.6-2.5,0.7-3.9
					c0-2.2-1.9-3.8-5.1-3.8c-5.7,0-8.8,2.6-10.2,8.1l-7.1,27.8c-0.2,0.7-0.3,1.3-0.4,2c0,1.5,1.1,2.4,2.9,2.4l-0.4,1.7h-12.1
					c-2.2,0-3.5-1-3.5-2.9c0-0.6,0.1-1.1,0.3-1.6L151,228c0.4-1.2,0.6-2.4,0.6-3.7c0-2.4-2-3.9-5.4-3.9c-5.3,0-8.6,2.8-10,8.4
					l-6.7,27.5c-0.1,0.7-0.2,1.3-0.3,2c0,1.5,1.1,2.4,3,2.4l-0.4,1.7h-12.7c-1.5,0.2-2.9-1-3.1-2.5c0-0.2,0-0.4,0-0.6
					c0-0.5,0.1-0.9,0.2-1.4l9.5-40.3c0.1-0.4,0.2-0.8,0.2-1.2c0-1.6-1.1-2.8-3.1-3l0.4-1.7h13.6c1.3-0.2,2.4,0.7,2.6,2
					c0,0.2,0,0.3,0,0.5c0,0.3,0,0.7-0.1,1l-0.7,3.5c4.7-6.2,8.8-7.6,15.7-7.6c7.3,0,11,2.1,11.7,6.9
					C169,213.4,173.3,211.1,180.3,211.1z"/>
				<path class="st0" d="M214.2,236.8h8.1l-3.9,15.9c-1.8,0.3-3.7,0.4-5.6,0.4c-5.8,0-8.1-0.8-8.1-5.2
					C204.7,241.1,208.1,236.8,214.2,236.8z M205.6,211.7c-0.6,1.8-0.9,3.6-0.9,5.5c0,2.8,1.3,3.7,4.5,3.7h12.5c2.6,0,3.6,0.8,3.6,3
					c0,3.5-1.6,4.8-5,4.8h-11.6c-10,0-17,8.9-17,22.4c0,7.9,4.1,12.1,12.3,12.1c4.4,0,7.1-0.5,8.3-1.1s2.8-3.1,5.5-6.9
					c-0.4,1.3-0.6,2.6-0.7,4c0,2.2,1.4,3.1,4.4,3.1H233l0.4-1.7c-1.8-0.3-2.8-1.1-2.8-2.6c0.1-1.1,0.3-2.3,0.6-3.4l7-29.7
					c0.4-1.5,0.7-3.1,0.7-4.7c0-5.7-3.7-8.6-10.8-8.6L205.6,211.7z"/>
				<path class="st0" d="M260.4,211.7c2,0,3.1,0.8,3.1,2.5c0,0.6-0.1,1.1-0.3,1.6l-0.6,3c3.6-5.3,6-7.1,10.6-7.1h7l-1,4.6
					c-1,4.3-1.7,5.4-6.2,5.4h-5c-3.8,0-6.5,2.2-7.5,6.3l-6.8,28.3c-0.2,0.6-0.3,1.3-0.4,1.9c0,1.6,1.1,2.5,2.9,2.5l-0.3,1.7h-12.8
					c-1.5,0.2-2.9-0.9-3.1-2.5c0-0.2,0-0.3,0-0.5c0-0.6,0.1-1.3,0.3-1.9l9.4-39.6c0.1-0.4,0.2-0.9,0.2-1.4c0-1.6-1.1-2.6-3.4-3
					l0.4-1.7L260.4,211.7z"/>
				<path class="st0" d="M305.9,202.8l-2.1,8.9h13l-1.2,5.7c-0.5,2.6-1.5,3.2-4.6,3.2h-4.4c-3.9,0-5.1,0.9-6,4.2l-5.5,22.4
					c-0.3,0.9-0.4,1.9-0.5,2.8c0,2.1,1.1,3.2,3.3,3.2h4.2c4,0,6.2-1.1,7.7-4.5h1.8l-3.1,10.4c-0.7,2.6-2.8,3.2-6.9,3.2h-15
					c-4.1,0-6.5-2.6-6.5-6.2c0.1-1,0.2-2.1,0.5-3.1l7.8-32.5h-4.8l1.6-6.8c7-0.9,11.9-4.6,14.9-11L305.9,202.8z"/>
				<path class="st0" d="M409.9,166.7c-2,9.7-2.5,13.8-7.9,13.8h-40.4l-29.5,120.4c-0.2,0.6-0.3,1.3-0.3,2c0,2.1,1.4,3.4,4,3.6
					l-0.4,2h-13.9c-3.8,0-5.7-1.3-5.7-3.9c0-0.6,0-1.2,0.2-1.8l29.5-122.3h-39.9c-2.8,0-4.1,0.7-5.9,7.8h-2
					c3.8-15.6,4-19.1,10.8-19.1h94.6c2.8,0,4.1-0.5,4.7-2.6L409.9,166.7z"/>
				<path class="st0" d="M371.7,233.8c2,0,3,0.7,3,2.3c0,0.4-0.1,0.9-0.2,1.3l-1.5,6.2h-8.7c-2.5,0-3.8-1-3.8-2.8
					c0-0.5,0.1-1,0.2-1.6l1.5-5.5H371.7z M367.5,258.6c1.6,0,2.6,1,2.6,2.9c0,0.8-0.1,1.6-0.4,2.4l-9.4,39.1
					c-0.2,0.6-0.2,1.3-0.3,1.9c0,1.8,1.2,2.7,3.2,2.7l-0.6,1.7h-12.7c-1.6,0.2-3.1-1-3.3-2.7c0-0.1,0-0.1,0-0.2
					c0-0.4,0.1-0.9,0.2-1.3l9.7-40c0.2-0.6,0.3-1.3,0.3-1.9c0-1.6-0.8-2.2-2.8-2.8l0.5-1.7L367.5,258.6z"/>
				<path class="st0" d="M386.1,258.6c2.7,0,3.9,0.5,5,3l5.3,12.2l6.9-9.7c0.4-0.5,0.6-1.2,0.6-1.8c0-1.1-0.7-1.7-2.3-1.9l0.5-1.7
					h11.5c2.7,0,3.9,0.5,3.9,2c-0.1,0.8-0.4,1.5-1,2l-15.6,19.7l10,21.2c1.2,2.6,2.8,3.9,5.4,4l-0.4,1.7h-12.2
					c-2.9,0-4.4-0.5-5.5-3.1l-6.8-15.1l-8.6,12.2c-0.6,0.7-0.9,1.5-1.1,2.4c0,1.1,0.8,1.6,2.5,1.9l-0.5,1.7h-13.3
					c-2,0-2.9-0.4-2.9-1.6c0.1-0.9,0.6-1.8,1.3-2.5l18.6-23l-8.5-17.8c-1.1-2.3-2.4-3.6-4.8-4.1l0.3-1.7L386.1,258.6z"/>
				<polygon class="st0" points="299.8,290.4 57.5,290.4 60.9,277.7 303.2,277.7 				"/>
				<path class="st1" d="M293.8,181.5l-1.6,7.6c-0.6,3-2.2,4.4-5.1,4.4H90.7c-5.3,0-8.8,3.7-8.8,9.5c0,2.4,1.7,3.9,5,5.4l11,5.3
					c6.1,2.9,8.7,7.2,8.7,14.1c0,17.4-8.8,27.6-24.9,27.6H66.3c-6.7,0-10-0.5-10-4.2c0-0.6,0.1-1.3,0.2-1.9l2.2-9.6h1.9
					c0.2,3.3,1.7,4.3,5.4,4.3h12.5c8.1,0,13.1-5.6,13.1-13.1c0-3-1.5-4.8-4.9-6.3L74,218.9c-5-2.2-7.1-5.9-7.1-12.1
					c0-15.7,7.9-25.3,21-25.3H293.8z"/>
				<path class="st1" d="M174.3,204.1c8.2,0,12.6,3.3,12.6,8.5c0,1.6-0.2,3.1-0.6,4.7l-8,32.1c-0.2,0.7-0.3,1.3-0.4,2
					c0,1.6,1.2,2.4,3.1,2.4l-0.5,1.7h-12.3c-2.2,0-3.4-1.1-3.4-2.9c0-0.6,0-1.1,0.2-1.6l7.4-29.8c0.4-1.3,0.6-2.5,0.7-3.9
					c0-2.2-1.9-3.8-5.1-3.8c-5.7,0-8.8,2.6-10.2,8.1l-7.1,27.8c-0.2,0.7-0.3,1.3-0.4,2c0,1.5,1.1,2.4,2.9,2.4l-0.4,1.7h-12.1
					c-2.2,0-3.5-1-3.5-2.9c0-0.6,0.1-1.1,0.3-1.6L145,221c0.4-1.2,0.6-2.4,0.6-3.7c0-2.4-2-3.9-5.4-3.9c-5.3,0-8.6,2.8-10,8.4
					l-6.7,27.5c-0.1,0.7-0.2,1.3-0.3,2c0,1.5,1.1,2.4,3,2.4l-0.4,1.7h-12.7c-1.5,0.2-2.9-1-3.1-2.5c0-0.2,0-0.4,0-0.6
					c0-0.5,0.1-0.9,0.2-1.4l9.5-40.3c0.1-0.4,0.2-0.8,0.2-1.2c0-1.6-1.1-2.8-3.1-3l0.4-1.7h13.6c1.3-0.2,2.4,0.7,2.6,2
					c0,0.2,0,0.3,0,0.5c0,0.3,0,0.7-0.1,1l-0.7,3.5c4.7-6.2,8.8-7.6,15.7-7.6c7.3,0,11,2.1,11.7,6.9
					C163,206.4,167.3,204.1,174.3,204.1z"/>
				<path class="st1" d="M208.2,229.8h8.1l-3.9,15.9c-1.8,0.3-3.7,0.4-5.6,0.4c-5.8,0-8.1-0.8-8.1-5.2
					C198.7,234.1,202.1,229.8,208.2,229.8z M199.6,204.7c-0.6,1.8-0.9,3.6-0.9,5.5c0,2.8,1.3,3.7,4.5,3.7h12.5c2.6,0,3.6,0.8,3.6,3
					c0,3.5-1.6,4.8-5,4.8h-11.6c-10,0-17,8.9-17,22.4c0,7.9,4.1,12.1,12.3,12.1c4.4,0,7.1-0.5,8.3-1.1s2.8-3.1,5.5-6.9
					c-0.4,1.3-0.6,2.6-0.7,4c0,2.2,1.4,3.1,4.4,3.1H227l0.4-1.7c-1.8-0.3-2.8-1.1-2.8-2.6c0.1-1.1,0.3-2.3,0.6-3.4l7-29.7
					c0.4-1.5,0.7-3.1,0.7-4.7c0-5.7-3.7-8.6-10.8-8.6L199.6,204.7z"/>
				<path class="st1" d="M254.4,204.7c2,0,3.1,0.8,3.1,2.5c0,0.6-0.1,1.1-0.3,1.6l-0.6,3c3.6-5.3,6-7.1,10.6-7.1h7l-1,4.6
					c-1,4.3-1.7,5.4-6.2,5.4h-5c-3.8,0-6.5,2.2-7.5,6.3l-6.8,28.3c-0.2,0.6-0.3,1.3-0.4,1.9c0,1.6,1.1,2.5,2.9,2.5l-0.3,1.7h-12.8
					c-1.5,0.2-2.9-0.9-3.1-2.5c0-0.2,0-0.3,0-0.5c0-0.6,0.1-1.3,0.3-1.9l9.4-39.6c0.1-0.4,0.2-0.9,0.2-1.4c0-1.6-1.1-2.6-3.4-3
					l0.4-1.7L254.4,204.7z"/>
				<path class="st1" d="M299.9,195.8l-2.1,8.9h13l-1.2,5.7c-0.5,2.6-1.5,3.2-4.6,3.2h-4.4c-3.9,0-5.1,0.9-6,4.2l-5.5,22.4
					c-0.3,0.9-0.4,1.9-0.5,2.8c0,2.1,1.1,3.2,3.3,3.2h4.2c4,0,6.2-1.1,7.7-4.5h1.8l-3.1,10.4c-0.7,2.6-2.8,3.2-6.9,3.2h-15
					c-4.1,0-6.5-2.6-6.5-6.2c0.1-1,0.2-2.1,0.5-3.1l7.8-32.5h-4.8l1.6-6.8c7-0.9,11.9-4.6,14.9-11L299.9,195.8z"/>
				<path class="st1" d="M403.9,159.7c-2,9.7-2.5,13.8-7.9,13.8h-40.4l-29.5,120.4c-0.2,0.6-0.3,1.3-0.3,2c0,2.1,1.4,3.4,4,3.6
					l-0.4,2h-13.9c-3.8,0-5.7-1.3-5.7-3.9c0-0.6,0-1.2,0.2-1.8l29.5-122.3h-39.9c-2.8,0-4.1,0.7-5.9,7.8h-2
					c3.8-15.6,4-19.1,10.8-19.1h94.6c2.8,0,4.1-0.5,4.7-2.6L403.9,159.7z"/>
				<path class="st1" d="M365.7,226.8c2,0,3,0.7,3,2.3c0,0.4-0.1,0.9-0.2,1.3l-1.5,6.2h-8.7c-2.5,0-3.8-1-3.8-2.8
					c0-0.5,0.1-1,0.2-1.6l1.5-5.5H365.7z M361.5,251.6c1.6,0,2.6,1,2.6,2.9c0,0.8-0.1,1.6-0.4,2.4l-9.4,39.1
					c-0.2,0.6-0.2,1.3-0.3,1.9c0,1.8,1.2,2.7,3.2,2.7l-0.6,1.7h-12.7c-1.6,0.2-3.1-1-3.3-2.7c0-0.1,0-0.1,0-0.2
					c0-0.4,0.1-0.9,0.2-1.3l9.7-40c0.2-0.6,0.3-1.3,0.3-1.9c0-1.6-0.8-2.2-2.8-2.8l0.5-1.7L361.5,251.6z"/>
				<path class="st1" d="M380.1,251.6c2.7,0,3.9,0.6,5,3l5.3,12.2l6.9-9.7c0.4-0.5,0.6-1.2,0.6-1.8c0-1.1-0.7-1.7-2.3-1.9l0.5-1.7
					h11.5c2.7,0,3.9,0.6,3.9,2c-0.1,0.8-0.4,1.5-1,2l-15.6,19.7l10,21.2c1.2,2.6,2.8,3.9,5.4,4l-0.4,1.7h-12.2
					c-2.9,0-4.4-0.5-5.5-3.1l-6.8-15.1l-8.6,12.2c-0.6,0.7-0.9,1.5-1.1,2.4c0,1.1,0.8,1.6,2.5,1.9l-0.5,1.7h-13.3
					c-2,0-2.9-0.4-2.9-1.6c0.1-0.9,0.6-1.8,1.3-2.5l18.6-23l-8.5-17.8c-1.1-2.3-2.4-3.6-4.8-4.1l0.3-1.7L380.1,251.6z"/>
				<polygon class="st1" points="293.8,283.4 51.5,283.4 54.9,270.7 297.2,270.7 				"/>
			</g>
		</g>
	</g>
</g>
</svg>
