<svg xmlns="http://www.w3.org/2000/svg" viewBox="0 0 469 469"><defs><style>.cls-1,.cls-2,.cls-3{fill:none;stroke-miterlimit:10;}.cls-1{stroke:#000;}.cls-1,.cls-2{stroke-width:3px;}.cls-2{stroke:#fff;}.cls-3{stroke:#ee275e;}</style></defs><title>Dramatists Guild</title><g id="Layer_2" data-name="Layer 2"><g id="Icons"><g id="Dramatists_Guild" data-name="Dramatists Guild"><g id="Dramatists_Guild-2" data-name="Dramatists Guild"><rect class="cls-1" x="59" y="59" width="360" height="360"/><rect class="cls-1" x="89" y="89" width="300" height="300"/><path class="cls-1" d="M163.35,389,134,239S239,159.83,239,89c0,70.83,105,150,105,150L314.65,389"/><circle class="cls-1" cx="239" cy="255.41" r="30.47"/><line class="cls-1" x1="239" y1="89" x2="239" y2="224.94"/><rect class="cls-2" x="50" y="50" width="360" height="360"/><rect class="cls-2" x="80" y="80" width="300" height="300"/><path class="cls-2" d="M154.35,380,125,230S230,150.83,230,80c0,70.83,105,150,105,150L305.65,380"/><circle class="cls-2" cx="230" cy="246.41" r="30.47"/><line class="cls-2" x1="230" y1="80" x2="230" y2="215.94"/></g><rect class="cls-3" x="0.5" y="0.5" width="468" height="468"/></g></g></g></svg>