<?xml version="1.0" encoding="utf-8"?>
<!-- Generator: Adobe Illustrator 23.0.1, SVG Export Plug-In . SVG Version: 6.00 Build 0)  -->
<svg version="1.1" id="Layer_1" xmlns="http://www.w3.org/2000/svg" xmlns:xlink="http://www.w3.org/1999/xlink" x="0px" y="0px"
	 viewBox="0 0 469 469" style="enable-background:new 0 0 469 469;" xml:space="preserve">
<style type="text/css">
	.st0{fill:none;stroke:#000000;stroke-width:3;stroke-miterlimit:10;}
	.st1{fill:none;stroke:#FFFFFF;stroke-width:3;stroke-miterlimit:10;}
</style>
<title>Dramatists Guild</title>
<g>
	<g id="Icons">
		<g id="Dramatists_Guild">
			<g id="Dramatists_Guild-2">
				<rect x="59" y="59" class="st0" width="360" height="360"/>
				<rect x="89" y="89" class="st0" width="300" height="300"/>
				<path class="st0" d="M163.4,389L134,239c0,0,105-79.2,105-150c0,70.8,105,150,105,150l-29.4,150"/>
				<circle class="st0" cx="239" cy="255.4" r="30.5"/>
				<line class="st0" x1="239" y1="89" x2="239" y2="224.9"/>
				<rect x="50" y="50" class="st1" width="360" height="360"/>
				<rect x="80" y="80" class="st1" width="300" height="300"/>
				<path class="st1" d="M154.4,380L125,230c0,0,105-79.2,105-150c0,70.8,105,150,105,150l-29.4,150"/>
				<circle class="st1" cx="230" cy="246.4" r="30.5"/>
				<line class="st1" x1="230" y1="80" x2="230" y2="215.9"/>
			</g>
		</g>
	</g>
</g>
</svg>
