<?xml version="1.0" encoding="utf-8"?>
<!-- Generator: Adobe Illustrator 23.0.1, SVG Export Plug-In . SVG Version: 6.00 Build 0)  -->
<svg version="1.1" id="Layer_1" xmlns="http://www.w3.org/2000/svg" xmlns:xlink="http://www.w3.org/1999/xlink" x="0px" y="0px"
	 viewBox="0 0 469 469" style="enable-background:new 0 0 469 469;" xml:space="preserve">
<style type="text/css">
	.st0{fill:none;stroke:#000000;stroke-width:3;stroke-miterlimit:10;}
	.st1{fill:none;stroke:#FFFFFF;stroke-width:3;stroke-miterlimit:10;}
</style>
<title>Second Stage</title>
<g>
	<g id="Icons">
		<g id="Second_Stage">
			<g id="Second_Stage-2">
				<path class="st0" d="M57.9,220.3l34.5,34.5l40.3-40.3l80.4-80.5c0,0,17.2-17.2,34.5,0l17.2,17.2c17.2,17.2,0,34.5,0,34.5
					l-80.4,80.4l-5.8,5.8c-19.1,19.1-19.1,49.9,0,69c0,0,0,0,0,0l0,0l138-138c19.1-19,19.1-49.9,0-69c0,0,0,0,0,0l0,0l-51.8-51.7
					l0,0c-19.1-19.1-49.9-19.1-69,0c0,0,0,0,0,0L57.9,220.3z"/>
				
					<rect x="194.6" y="282.1" transform="matrix(0.7071 -0.7071 0.7071 0.7071 -124.0104 313.6429)" class="st0" width="243.9" height="48.8"/>
				<path class="st1" d="M48.9,211.3l34.5,34.5l40.3-40.3l80.4-80.5c0,0,17.2-17.2,34.5,0l17.2,17.2c17.2,17.2,0,34.5,0,34.5
					l-80.4,80.4l-5.8,5.8c-19.1,19.1-19.1,49.9,0,69c0,0,0,0,0,0l0,0l138-138c19.1-19.1,19.1-49.9,0-69c0,0,0,0,0,0l0,0l-51.8-51.7
					l0,0c-19.1-19.1-49.9-19.1-69,0c0,0,0,0,0,0L48.9,211.3z"/>
				
					<rect x="185.7" y="273.1" transform="matrix(0.7071 -0.7071 0.7071 0.7071 -120.2648 304.6632)" class="st1" width="243.9" height="48.8"/>
			</g>
		</g>
	</g>
</g>
</svg>
