<?xml version="1.0" encoding="utf-8"?>
<!-- Generator: Adobe Illustrator 23.0.1, SVG Export Plug-In . SVG Version: 6.00 Build 0)  -->
<svg version="1.1" id="Layer_1" xmlns="http://www.w3.org/2000/svg" xmlns:xlink="http://www.w3.org/1999/xlink" x="0px" y="0px"
	 viewBox="0 0 216 216" style="enable-background:new 0 0 216 216;" xml:space="preserve">
<style type="text/css">
	.st0{fill:#FFFFFF;stroke:#FFFFFF;stroke-miterlimit:10;}
	.st1{fill:#FFFFFF;}
</style>
<title>Bio</title>
<g>
	<g id="Large_Icon_Buttons">
		<g id="Bio">
			<g id="Text">
				<path class="st0" d="M66.8,139.6h11.3c1.5,0,3,0.2,4.4,0.6c1.2,0.4,2.3,1,3.3,1.8c0.9,0.7,1.5,1.6,2,2.7
					c0.5,1.1,0.7,2.2,0.7,3.4c0.1,1.8-0.5,3.5-1.6,4.9c-1.1,1.3-2.4,2.3-3.8,3.1c0.9,0.3,1.8,0.7,2.6,1.2c0.8,0.5,1.5,1.1,2.1,1.8
					c0.6,0.7,1.1,1.5,1.4,2.4c0.3,1,0.5,2.1,0.5,3.1c0,1.4-0.3,2.9-0.9,4.1c-0.6,1.2-1.4,2.3-2.4,3.2c-1.1,0.9-2.3,1.6-3.7,2
					c-1.5,0.5-3,0.7-4.6,0.7H66.8V139.6z M71,154.2h6.8c1.7,0.1,3.4-0.4,4.9-1.3c2.4-2.3,2.4-6.1,0.1-8.5c0,0-0.1-0.1-0.1-0.1
					c-1.5-0.9-3.2-1.4-4.9-1.3H71L71,154.2z M71,171.1h6.6c2.1,0.1,4.2-0.4,6-1.6c1.5-1,2.2-2.7,2.2-5.1c0.2-2-0.7-3.9-2.3-5.1
					c-1.8-1.1-3.8-1.7-5.9-1.6H71L71,171.1z"/>
				<path class="st0" d="M98.9,149.8h11.2v21.6h8.5v3.2h-21v-3.2h8.6v-18.5h-7.3L98.9,149.8z M105.5,140.4h5.2v5.3h-5.2V140.4z"/>
				<path class="st0" d="M150.5,162.1c0,1.9-0.3,3.9-1,5.7c-0.6,1.5-1.6,2.9-2.8,4.1c-1.1,1.1-2.5,1.9-4,2.5c-3.1,1.1-6.4,1.1-9.5,0
					c-1.5-0.5-2.8-1.4-4-2.5c-1.2-1.2-2.1-2.6-2.8-4.1c-1.4-3.7-1.4-7.7,0-11.4c0.6-1.5,1.6-2.9,2.8-4.1c1.2-1.1,2.5-1.9,4-2.5
					c3.1-1.1,6.4-1.1,9.5,0c1.5,0.5,2.9,1.4,4,2.5c1.2,1.2,2.2,2.6,2.8,4.1C150.2,158.3,150.6,160.2,150.5,162.1z M138,171.8
					c1.2,0,2.3-0.2,3.4-0.6c1-0.4,2-1.1,2.7-1.9c0.8-0.9,1.4-1.9,1.8-3c0.9-2.6,0.9-5.4,0-8c-0.4-1.1-1-2.1-1.8-3
					c-0.7-0.8-1.7-1.5-2.7-1.9c-2.2-0.9-4.6-0.9-6.9,0c-1,0.4-2,1.1-2.7,1.9c-0.8,0.9-1.4,1.9-1.8,3c-0.9,2.6-0.9,5.4,0,8
					c0.4,1.1,1,2.1,1.8,3c0.7,0.8,1.7,1.5,2.7,1.9C135.7,171.5,136.8,171.8,138,171.8z"/>
			</g>
			<g id="Icon">
				<path class="st1" d="M146.7,120.6c0,0,6.4-45-38.6-45s-38.6,45-38.6,45H146.7z"/>
				<circle class="st1" cx="108.1" cy="49.8" r="19.3"/>
			</g>
		</g>
	</g>
</g>
</svg>
