<?xml version="1.0" encoding="utf-8"?>
<!-- Generator: Adobe Illustrator 23.0.1, SVG Export Plug-In . SVG Version: 6.00 Build 0)  -->
<svg version="1.1" id="Layer_1" xmlns="http://www.w3.org/2000/svg" xmlns:xlink="http://www.w3.org/1999/xlink" x="0px" y="0px"
	 viewBox="0 0 216 216" style="enable-background:new 0 0 216 216;" xml:space="preserve">
<style type="text/css">
	.st0{fill:#FFFFFF;stroke:#FFFFFF;stroke-miterlimit:10;}
	.st1{fill:#FFFFFF;}
</style>
<title>Design</title>
<g>
	<g id="Large_Icon_Buttons">
		<g id="Design">
			<g id="Text">
				<path class="st0" d="M21.8,139.6h8c2.3,0,4.5,0.4,6.6,1.3c1.9,0.8,3.5,2.1,4.8,3.6c1.3,1.6,2.3,3.5,2.9,5.5
					c1.3,4.6,1.3,9.4,0,14c-0.6,2-1.6,3.9-2.9,5.5c-1.3,1.6-3,2.8-4.8,3.6c-2.1,0.9-4.3,1.4-6.6,1.3h-8V139.6z M29.5,170.9
					c3.8,0,6.7-1.2,8.5-3.6s2.8-5.8,2.8-10.2c0-4.5-0.9-7.9-2.8-10.2s-4.7-3.6-8.5-3.6H26v27.6H29.5z"/>
				<path class="st0" d="M55,162.8c0.1,1.2,0.3,2.5,0.7,3.6c0.4,1.1,1,2.1,1.7,2.9c0.7,0.8,1.6,1.5,2.6,1.9c1.1,0.5,2.3,0.7,3.5,0.7
					c1,0,2-0.1,3-0.5c0.8-0.3,1.6-0.7,2.2-1.3c0.7-0.5,1.2-1.2,1.7-1.9c0.5-0.7,0.9-1.5,1.3-2.3l2.8,1.6c-0.5,1.1-1.1,2.1-1.8,3.1
					c-0.7,0.9-1.5,1.7-2.4,2.4c-0.9,0.7-2,1.2-3.1,1.6c-1.3,0.4-2.6,0.6-3.9,0.6c-1.7,0-3.3-0.3-4.9-1c-1.5-0.6-2.8-1.5-3.8-2.7
					c-1.1-1.2-2-2.6-2.5-4.1c-0.6-1.7-0.9-3.5-0.9-5.3c0-1.8,0.3-3.6,1-5.3c0.6-1.5,1.5-3,2.6-4.1c2.3-2.4,5.4-3.7,8.7-3.7
					c1.7,0,3.4,0.3,5,1c1.4,0.6,2.6,1.5,3.7,2.7c1,1.2,1.8,2.6,2.2,4.1c0.5,1.6,0.8,3.3,0.8,5.1v1L55,162.8z M63.5,152.4
					c-2,0-4,0.7-5.6,2c-1.5,1.4-2.5,3.2-2.8,5.3h16.1c0-1.1-0.3-2.1-0.8-3.1c-0.4-0.9-1-1.6-1.8-2.3c-0.7-0.6-1.5-1.1-2.4-1.4
					C65.5,152.5,64.5,152.4,63.5,152.4z"/>
				<path class="st0" d="M87.2,155.9c0,1.2,0.6,2.2,1.6,2.8c1.1,0.8,2.9,1.3,5.6,1.6c2.4,0.1,4.7,0.9,6.7,2.1c1.6,1.2,2.5,3,2.4,5
					c0,1.1-0.2,2.3-0.7,3.3c-0.5,1-1.2,1.8-2,2.5c-0.9,0.7-2,1.2-3.1,1.6c-1.3,0.4-2.6,0.6-4,0.6c-1.4,0-2.7-0.2-4-0.6
					c-1.2-0.3-2.3-0.8-3.3-1.5c-1-0.6-1.8-1.4-2.5-2.2c-0.7-0.8-1.2-1.7-1.6-2.7l3.2-2c0.6,1.6,1.6,3,3,4.1c1.5,1,3.2,1.6,5,1.5
					c1.5,0.1,3.1-0.3,4.4-1c1.1-0.7,1.8-1.9,1.7-3.2c0.1-1.3-0.6-2.4-1.8-3c-1.7-0.8-3.5-1.2-5.3-1.4c-2.4-0.2-4.6-1-6.6-2.4
					c-1.5-1.1-2.4-3-2.4-4.9c0-1,0.2-2.1,0.8-3c0.5-0.9,1.2-1.6,2-2.2c0.9-0.6,1.9-1,2.9-1.3c1.1-0.3,2.3-0.5,3.4-0.4
					c2.3-0.1,4.5,0.5,6.4,1.8c1.6,1.2,2.9,2.8,3.8,4.7l-3.1,1.8c-0.6-1.5-1.7-2.8-3-3.8c-1.3-0.8-2.7-1.2-4.2-1.2
					c-0.7,0-1.3,0.1-2,0.2c-0.6,0.1-1.2,0.3-1.8,0.6c-0.5,0.3-0.9,0.6-1.2,1.1C87.3,154.7,87.1,155.3,87.2,155.9z"/>
				<path class="st0" d="M113.8,149.8H125v21.6h8.6v3.2h-21v-3.2h8.6v-18.5h-7.3V149.8z M120.5,140.4h5.2v5.3h-5.2V140.4z"/>
				<path class="st0" d="M146.8,176.3c-0.1,0.3-0.2,0.6-0.3,0.9c-0.1,0.3-0.1,0.7-0.1,1c0,1.2,0.8,2.3,1.9,2.8
					c1.7,0.7,3.5,1.1,5.3,1c2.7,0,4.7-0.8,5.9-2.3c1.3-1.9,1.9-4.1,1.8-6.4v-4.2c-0.7,1.6-1.9,2.9-3.4,3.8c-1.5,0.9-3.2,1.4-4.9,1.4
					c-1.6,0-3.1-0.3-4.6-0.9c-1.4-0.6-2.7-1.4-3.7-2.5c-1.1-1.2-1.9-2.5-2.5-4c-1.2-3.4-1.2-7.1,0-10.5c0.6-1.5,1.4-2.8,2.6-4
					c1-1.1,2.3-1.9,3.7-2.4c1.4-0.5,2.9-0.8,4.4-0.8c1.8,0,3.5,0.4,5.1,1.2c1.5,0.9,2.7,2.2,3.4,3.8v-4.2h3.9v23.5
					c0,3.8-1,6.7-2.9,8.9c-2,2.2-4.8,3.3-8.6,3.3c-3.6,0-6.3-0.7-8.2-2c-1.8-1.2-2.8-3.2-2.8-5.4c0-1,0.2-1.9,0.6-2.8L146.8,176.3z
					 M153.2,152.6c-1.1,0-2.2,0.2-3.2,0.6c-1,0.4-1.9,1-2.6,1.8c-0.8,0.8-1.3,1.8-1.7,2.9c-0.8,2.5-0.8,5.1,0,7.6
					c0.4,1.1,1,2,1.7,2.9c0.7,0.8,1.6,1.4,2.6,1.7c2.1,0.8,4.4,0.8,6.5,0c1-0.4,1.9-1,2.6-1.8c0.8-0.8,1.3-1.8,1.7-2.9
					c0.8-2.5,0.8-5.1,0-7.6c-0.4-1.1-1-2-1.7-2.9c-0.7-0.8-1.6-1.4-2.6-1.8C155.5,152.7,154.3,152.5,153.2,152.6z"/>
				<path class="st0" d="M193.8,174.6h-3.9v-15.5c0.1-1.8-0.4-3.5-1.6-4.9c-1.2-1.1-2.7-1.7-4.3-1.6c-1,0-1.9,0.2-2.9,0.6
					c-0.9,0.4-1.8,1-2.5,1.7c-0.7,0.8-1.3,1.8-1.7,2.8c-0.4,1.2-0.7,2.5-0.6,3.8v13.2h-3.9v-24.8h3.9v4.5c0.9-1.5,2.1-2.8,3.6-3.8
					c1.6-1,3.4-1.5,5.3-1.4c1.2,0,2.4,0.2,3.5,0.6c1,0.4,2,0.9,2.8,1.7c0.8,0.8,1.4,1.7,1.8,2.8c0.4,1.2,0.7,2.5,0.6,3.8
					L193.8,174.6z"/>
			</g>
			<g id="Icon">
				<path class="st1" d="M151.5,46.8c3.2-4.9,1.8-11.4-3.2-14.6c-1.7-1.1-3.7-1.7-5.8-1.7h-0.1c-2,0-4,0.6-5.7,1.7L151.5,46.8z"/>
				<polygon class="st1" points="148.4,50.3 133.4,35.3 72.3,96.4 87.2,111.4 				"/>
				<polygon class="st1" points="69.8,100.5 63.2,120.6 83.2,113.9 				"/>
				<path class="st1" d="M104.8,57.3l-2.6-2.6l-7.5,7.5l-3.3-3.3l7.5-7.5L78.1,30.5l-15,15l26.7,26.7L104.8,57.3z M76.5,43.9
					l7.5-7.5l3.3,3.3l-7.5,7.5L76.5,43.9z"/>
				<polygon class="st1" points="139.7,107.2 136.5,103.9 144,96.4 132.2,84.7 124.7,92.2 121.5,88.9 129,81.4 126.4,78.8 
					111.4,93.8 138.1,120.6 153.1,105.6 147.2,99.7 				"/>
			</g>
		</g>
	</g>
</g>
</svg>
