<?xml version="1.0" encoding="utf-8"?>
<!-- Generator: Adobe Illustrator 23.0.1, SVG Export Plug-In . SVG Version: 6.00 Build 0)  -->
<svg version="1.1" id="Layer_1" xmlns="http://www.w3.org/2000/svg" xmlns:xlink="http://www.w3.org/1999/xlink" x="0px" y="0px"
	 viewBox="0 0 180 78.8" style="enable-background:new 0 0 180 78.8;" xml:space="preserve">
<style type="text/css">
	.st0{stroke:#000000;stroke-miterlimit:10;}
</style>
<title>home</title>
<g id="Tiny_Buttons">
	<g id="Home">
		<g id="Text">
			<path class="st0" d="M62.3,29.1h4.2v15.3h14.9V29.1h4.2v35h-4.2v-16H66.5v16h-4.2V29.1z"/>
			<path class="st0" d="M116.4,51.7c0.1,1.9-0.3,3.9-1,5.7c-0.6,1.5-1.6,2.9-2.8,4.1c-1.1,1.1-2.5,1.9-4,2.5c-3.1,1.1-6.4,1.1-9.5,0
				c-1.5-0.5-2.9-1.4-4-2.5c-1.2-1.2-2.2-2.6-2.8-4.1c-0.7-1.8-1-3.8-1-5.7c0-1.9,0.3-3.9,1-5.7c0.6-1.5,1.6-2.9,2.8-4.1
				c1.1-1.1,2.5-1.9,4-2.5c3.1-1.1,6.4-1.1,9.5,0c1.5,0.5,2.9,1.4,4,2.5c1.2,1.2,2.1,2.6,2.8,4.1C116.1,47.8,116.4,49.8,116.4,51.7z
				 M103.8,61.3c1.2,0,2.3-0.2,3.4-0.7c1-0.4,2-1.1,2.7-1.9c0.8-0.9,1.4-1.9,1.8-3c0.9-2.6,0.9-5.4,0-8c-0.4-1.1-1-2.1-1.8-3
				c-0.7-0.8-1.7-1.5-2.7-1.9c-2.2-0.9-4.6-0.9-6.8,0c-1,0.4-2,1.1-2.7,1.9c-0.8,0.9-1.4,1.9-1.8,3c-0.9,2.6-0.9,5.4,0,8
				c0.4,1.1,1,2.1,1.8,3c0.7,0.8,1.7,1.5,2.7,1.9C101.5,61.1,102.6,61.3,103.8,61.3z"/>
			<path class="st0" d="M146.5,64.1h-3.9V45.7c0-0.9-0.2-1.8-0.7-2.6c-0.6-0.7-1.4-1.1-2.3-1c-1.1,0-2.2,0.5-2.9,1.4
				c-0.8,1.3-1.2,2.8-1.1,4.3v16.3h-3.9V45.5c0-2.3-1-3.5-3.1-3.5c-1.1,0-2.2,0.5-2.9,1.5c-0.8,1.3-1.2,2.8-1.1,4.3v16.2h-3.9V39.3
				h3.9V42c0.5-1.1,1.3-2,2.3-2.6c1-0.6,2.1-0.9,3.2-0.9c1.1,0,2.2,0.3,3.1,0.9c0.9,0.7,1.5,1.7,1.6,2.8c0.5-1.1,1.3-2.1,2.4-2.7
				c1-0.6,2.3-1,3.5-1c1.5-0.1,3.1,0.5,4.1,1.5c1,1.2,1.6,2.8,1.4,4.4L146.5,64.1z"/>
			<path class="st0" d="M155.2,52.3c0,1.2,0.3,2.5,0.7,3.6c0.4,1.1,1,2.1,1.7,2.9c0.7,0.8,1.6,1.5,2.6,1.9c1.1,0.5,2.3,0.7,3.5,0.7
				c1,0,2-0.1,3-0.5c0.8-0.3,1.6-0.7,2.3-1.3c0.7-0.5,1.2-1.2,1.7-1.9c0.5-0.7,0.9-1.5,1.3-2.3l2.9,1.6c-0.5,1.1-1.1,2.1-1.8,3.1
				c-0.7,0.9-1.5,1.7-2.4,2.4c-0.9,0.7-2,1.2-3.1,1.6c-1.3,0.4-2.6,0.6-3.9,0.6c-1.7,0-3.3-0.3-4.9-1c-1.4-0.6-2.7-1.5-3.8-2.7
				c-1.1-1.2-2-2.6-2.5-4.2c-0.6-1.7-0.9-3.5-0.9-5.3c0-1.8,0.3-3.6,0.9-5.3c0.6-1.5,1.5-3,2.6-4.2c2.3-2.4,5.4-3.7,8.7-3.7
				c1.7,0,3.4,0.3,5,1c1.4,0.6,2.6,1.5,3.6,2.7c1,1.2,1.8,2.5,2.2,4c0.5,1.6,0.8,3.3,0.8,5v1L155.2,52.3z M163.7,41.9
				c-2,0-4,0.7-5.6,2c-1.6,1.3-2.5,3.2-2.8,5.3h16.1c0-1.1-0.3-2.1-0.8-3.1c-0.4-0.9-1-1.6-1.8-2.3c-0.7-0.6-1.5-1.1-2.4-1.4
				C165.6,42.1,164.7,41.9,163.7,41.9z"/>
		</g>
		<g id="Icon">
			<path d="M40,23.2c0-0.2-0.1-0.3-0.2-0.4L20.4,4.9c-0.2-0.2-0.6-0.2-0.8,0L0.2,22.8C0.1,22.9,0,23.1,0,23.2v19.4
				c0,0.3,0.3,0.6,0.6,0.6h6.5c0.3,0,0.6-0.3,0.6-0.6V26.5L20,15.7l12.3,10.8v16.1c0,0.3,0.3,0.6,0.6,0.6h6.4c0.3,0,0.6-0.3,0.6-0.6
				V23.2z"/>
			<path d="M16.8,32.2h6.4c0.3,0,0.6,0.3,0.6,0.6v9.7c0,0.3-0.3,0.6-0.6,0.6h-6.4c-0.3,0-0.6-0.3-0.6-0.6v-9.7
				C16.2,32.5,16.4,32.2,16.8,32.2z"/>
		</g>
	</g>
</g>
</svg>
