<?xml version="1.0" encoding="utf-8"?>
<!-- Generator: Adobe Illustrator 23.0.1, SVG Export Plug-In . SVG Version: 6.00 Build 0)  -->
<svg version="1.1" id="Layer_1" xmlns="http://www.w3.org/2000/svg" xmlns:xlink="http://www.w3.org/1999/xlink" x="0px" y="0px"
	 viewBox="0 0 270 78.8" style="enable-background:new 0 0 270 78.8;" xml:space="preserve">
<style type="text/css">
	.st0{stroke:#000000;stroke-miterlimit:10;}
</style>
<title>jump up</title>
<g id="Tiny_Buttons">
	<g id="Jump_up">
		<g id="Text">
			<path class="st0" d="M85.2,52.9c0,1.6-0.2,3.3-0.8,4.8c-0.5,1.4-1.2,2.7-2.2,3.8c-1,1.1-2.2,1.9-3.5,2.5
				c-1.5,0.6-3.1,0.9-4.7,0.9c-1.5,0-3-0.2-4.4-0.7c-1.3-0.5-2.5-1.2-3.5-2.2c-1-1-1.8-2.2-2.3-3.6C63.2,56.7,63,55,63,53.2l4.2,0.5
				c0,1.1,0.2,2.2,0.5,3.2c0.6,1.7,2,3.1,3.7,3.7c0.9,0.3,1.8,0.5,2.7,0.5c0.9,0,1.9-0.1,2.8-0.5c0.8-0.3,1.6-0.8,2.1-1.5
				c0.7-0.8,1.2-1.7,1.4-2.6c0.4-1.2,0.6-2.5,0.6-3.8V29.1h4.2L85.2,52.9z"/>
			<path class="st0" d="M93.1,39.3H97V55c-0.1,1.7,0.4,3.4,1.6,4.7c1.2,1.1,2.7,1.7,4.3,1.6c1,0,1.9-0.2,2.8-0.6
				c0.9-0.4,1.8-1,2.5-1.7c0.8-0.8,1.4-1.7,1.8-2.8c0.4-1.2,0.7-2.5,0.7-3.8V39.3h3.9v24.8h-3.9v-4.5c-0.9,1.5-2.1,2.8-3.5,3.8
				c-1.6,1-3.4,1.5-5.3,1.4c-1.2,0-2.4-0.2-3.5-0.6c-1-0.4-2-1-2.7-1.8c-0.8-0.9-1.4-1.9-1.8-3.1c-0.5-1.4-0.7-3-0.7-4.5L93.1,39.3z
				"/>
			<path class="st0" d="M146.5,64.1h-3.9V45.7c0-0.9-0.2-1.8-0.7-2.6c-0.6-0.7-1.4-1.1-2.3-1c-1.1,0-2.2,0.5-2.9,1.4
				c-0.8,1.3-1.2,2.8-1.1,4.3v16.3h-3.9V45.5c0-2.3-1-3.5-3.1-3.5c-1.1,0-2.2,0.5-2.9,1.5c-0.8,1.3-1.2,2.8-1.1,4.3v16.2h-3.9V39.3
				h3.9V42c0.5-1.1,1.3-2,2.3-2.6c1-0.6,2.1-0.9,3.2-0.9c1.1,0,2.2,0.3,3.1,0.9c0.9,0.7,1.5,1.7,1.6,2.8c0.5-1.1,1.3-2.1,2.4-2.7
				c1-0.6,2.3-1,3.5-1c1.5-0.1,3.1,0.5,4.1,1.5c1,1.2,1.6,2.8,1.4,4.4L146.5,64.1z"/>
			<path class="st0" d="M151.7,39.3h3.9v4.5c0.9-1.5,2.2-2.8,3.8-3.8c1.6-0.9,3.4-1.4,5.2-1.4c1.6,0,3.2,0.3,4.6,1
				c1.4,0.6,2.6,1.6,3.6,2.7c1,1.2,1.8,2.6,2.3,4.2c0.6,1.7,0.8,3.5,0.8,5.3c0,1.8-0.3,3.6-0.9,5.3c-0.5,1.5-1.3,2.9-2.4,4.2
				c-1,1.1-2.3,2.1-3.6,2.7c-1.5,0.7-3.1,1-4.7,1c-1.9,0-3.7-0.5-5.4-1.4c-1.4-0.8-2.7-1.9-3.5-3.4v14.2h-3.9L151.7,39.3z
				 M163.6,42.2c-1.1,0-2.2,0.2-3.3,0.7c-1,0.4-1.9,1.1-2.6,1.9c-0.8,0.9-1.4,1.9-1.8,3c-0.8,2.6-0.8,5.4,0,8c0.4,1.1,1,2.1,1.8,3
				c0.7,0.8,1.6,1.5,2.6,1.9c2.1,0.9,4.5,0.9,6.6,0c1-0.4,1.9-1.1,2.6-1.9c0.8-0.9,1.4-1.9,1.8-3c0.9-2.6,0.9-5.4,0-8
				c-0.4-1.1-1-2.1-1.8-3c-0.7-0.8-1.6-1.4-2.6-1.9C165.8,42.4,164.7,42.2,163.6,42.2L163.6,42.2z"/>
			<path class="st0" d="M212.5,39.3h3.9V55c-0.1,1.7,0.4,3.4,1.6,4.7c1.2,1.1,2.7,1.7,4.3,1.6c1,0,1.9-0.2,2.9-0.6
				c0.9-0.4,1.8-1,2.5-1.7c0.8-0.8,1.3-1.7,1.7-2.8c0.4-1.2,0.6-2.5,0.6-3.7V39.3h3.9v24.8H230v-4.5c-0.9,1.5-2.1,2.8-3.5,3.8
				c-1.6,1-3.4,1.5-5.3,1.4c-1.2,0-2.4-0.2-3.5-0.6c-1-0.4-1.9-1-2.7-1.8c-0.8-0.9-1.4-2-1.8-3.1c-0.5-1.4-0.7-3-0.7-4.5L212.5,39.3
				z"/>
			<path class="st0" d="M241.2,39.3h3.9v4.5c0.9-1.5,2.2-2.8,3.8-3.8c1.6-0.9,3.4-1.4,5.2-1.4c1.6,0,3.2,0.3,4.6,1
				c1.4,0.6,2.6,1.6,3.6,2.7c1,1.2,1.8,2.6,2.3,4.2c0.6,1.7,0.8,3.5,0.8,5.3c0,1.8-0.3,3.6-0.9,5.3c-0.5,1.5-1.3,2.9-2.4,4.2
				c-1,1.1-2.3,2.1-3.6,2.7c-1.5,0.7-3.1,1-4.7,1c-1.9,0-3.7-0.4-5.3-1.3c-1.4-0.8-2.7-1.9-3.5-3.4v14.1h-3.9L241.2,39.3z
				 M253.1,42.2c-1.1,0-2.2,0.2-3.3,0.7c-1,0.4-1.9,1.1-2.6,1.9c-0.8,0.9-1.4,1.9-1.8,3c-0.9,2.6-0.9,5.4,0,8c0.4,1.1,1,2.1,1.8,3
				c0.7,0.8,1.6,1.5,2.6,1.9c2.1,0.9,4.5,0.9,6.6,0c1-0.4,1.9-1.1,2.6-1.9c0.8-0.9,1.4-1.9,1.8-3c0.9-2.6,0.9-5.4,0-8
				c-0.4-1.1-1-2.1-1.8-3c-0.7-0.8-1.6-1.4-2.6-1.9C255.3,42.4,254.2,42.2,253.1,42.2L253.1,42.2z"/>
		</g>
		<path id="Icon" d="M39.8,22.8L20.4,4.9c-0.2-0.2-0.6-0.2-0.9,0L0.2,22.8C0.1,22.9,0,23.1,0,23.2c0,0.2,0.1,0.3,0.2,0.5l4.6,4.6
			c0.2,0.2,0.6,0.2,0.9,0l10.5-9.2v23.5c0,0.3,0.3,0.6,0.6,0.6h6.5c0.3,0,0.6-0.3,0.6-0.6V19.1l10.5,9.2c0.2,0.2,0.6,0.2,0.8,0
			l4.6-4.6c0.1-0.1,0.2-0.3,0.2-0.5C40,23.1,39.9,22.9,39.8,22.8z"/>
	</g>
</g>
</svg>
