<?xml version="1.0" encoding="utf-8"?>
<!-- Generator: Adobe Illustrator 23.0.1, SVG Export Plug-In . SVG Version: 6.00 Build 0)  -->
<svg version="1.1" id="Layer_1" xmlns="http://www.w3.org/2000/svg" xmlns:xlink="http://www.w3.org/1999/xlink" x="0px" y="0px"
	 viewBox="0 0 328.3 78.8" style="enable-background:new 0 0 328.3 78.8;" xml:space="preserve">
<style type="text/css">
	.st0{stroke:#000000;stroke-miterlimit:10;}
</style>
<title>jump down</title>
<g id="Tiny_Buttons">
	<g id="Jump_Down">
		<g id="Text">
			<path class="st0" d="M85.2,52.9c0,1.6-0.2,3.3-0.8,4.8c-0.5,1.4-1.2,2.7-2.2,3.8c-1,1.1-2.2,1.9-3.5,2.5
				c-1.5,0.6-3.1,0.9-4.7,0.9c-1.5,0-3-0.2-4.4-0.7c-1.3-0.5-2.5-1.2-3.5-2.2c-1-1-1.8-2.2-2.3-3.6C63.2,56.7,63,55,63,53.2l4.2,0.5
				c0,1.1,0.2,2.2,0.5,3.2c0.6,1.7,2,3.1,3.7,3.7c0.9,0.3,1.8,0.5,2.7,0.5c0.9,0,1.9-0.1,2.8-0.5c0.8-0.3,1.6-0.8,2.1-1.5
				c0.7-0.8,1.2-1.7,1.4-2.6c0.4-1.2,0.6-2.5,0.6-3.8V29.1h4.2L85.2,52.9z"/>
			<path class="st0" d="M93.1,39.3H97V55c-0.1,1.7,0.4,3.4,1.6,4.7c1.2,1.1,2.7,1.7,4.3,1.6c1,0,1.9-0.2,2.8-0.6
				c0.9-0.4,1.8-1,2.5-1.7c0.8-0.8,1.4-1.7,1.8-2.8c0.4-1.2,0.7-2.5,0.7-3.8V39.3h3.9v24.8h-3.9v-4.5c-0.9,1.5-2.1,2.8-3.5,3.8
				c-1.6,1-3.4,1.5-5.3,1.4c-1.2,0-2.4-0.2-3.5-0.6c-1-0.4-2-1-2.7-1.8c-0.8-0.9-1.4-1.9-1.8-3.1c-0.5-1.4-0.7-3-0.7-4.5L93.1,39.3z
				"/>
			<path class="st0" d="M146.5,64.1h-3.9V45.7c0-0.9-0.2-1.8-0.7-2.6c-0.6-0.7-1.4-1.1-2.3-1c-1.1,0-2.2,0.5-2.9,1.4
				c-0.8,1.3-1.2,2.8-1.1,4.3v16.3h-3.9V45.5c0-2.3-1-3.5-3.1-3.5c-1.1,0-2.2,0.5-2.9,1.5c-0.8,1.3-1.2,2.8-1.1,4.3v16.2h-3.9V39.3
				h3.9V42c0.5-1.1,1.3-2,2.3-2.6c1-0.6,2.1-0.9,3.2-0.9c1.1,0,2.2,0.3,3.1,0.9c0.9,0.7,1.5,1.7,1.6,2.8c0.5-1.1,1.3-2.1,2.4-2.7
				c1-0.6,2.3-1,3.5-1c1.5-0.1,3.1,0.5,4.1,1.5c1,1.2,1.6,2.8,1.4,4.4L146.5,64.1z"/>
			<path class="st0" d="M151.7,39.3h3.9v4.5c0.9-1.5,2.2-2.8,3.8-3.8c1.6-0.9,3.4-1.4,5.2-1.4c1.6,0,3.2,0.3,4.6,1
				c1.4,0.6,2.6,1.6,3.6,2.7c1,1.2,1.8,2.6,2.3,4.2c0.6,1.7,0.8,3.5,0.8,5.3c0,1.8-0.3,3.6-0.9,5.3c-0.5,1.5-1.3,2.9-2.4,4.2
				c-1,1.1-2.3,2.1-3.6,2.7c-1.5,0.7-3.1,1-4.7,1c-1.9,0-3.7-0.5-5.4-1.4c-1.4-0.8-2.7-1.9-3.5-3.4v14.2h-3.9L151.7,39.3z
				 M163.6,42.2c-1.1,0-2.2,0.2-3.3,0.7c-1,0.4-1.9,1.1-2.6,1.9c-0.8,0.9-1.4,1.9-1.8,3c-0.8,2.6-0.8,5.4,0,8c0.4,1.1,1,2.1,1.8,3
				c0.7,0.8,1.6,1.5,2.6,1.9c2.1,0.9,4.5,0.9,6.6,0c1-0.4,1.9-1.1,2.6-1.9c0.8-0.9,1.4-1.9,1.8-3c0.9-2.6,0.9-5.4,0-8
				c-0.4-1.1-1-2.1-1.8-3c-0.7-0.8-1.6-1.4-2.6-1.9C165.8,42.4,164.7,42.2,163.6,42.2L163.6,42.2z"/>
			<path class="st0" d="M235.1,64.1h-3.9v-4.4c-0.8,1.5-1.9,2.8-3.3,3.7c-1.6,1-3.4,1.5-5.2,1.4c-1.7,0-3.3-0.3-4.8-1
				c-1.4-0.6-2.7-1.5-3.7-2.7c-1.1-1.2-1.9-2.6-2.4-4.1c-0.6-1.7-0.9-3.5-0.8-5.3c0-1.8,0.3-3.6,0.9-5.3c0.5-1.5,1.4-2.9,2.4-4.2
				c1-1.1,2.3-2.1,3.8-2.7c1.5-0.7,3.1-1,4.7-1c1.8-0.1,3.6,0.4,5.2,1.3c1.5,0.9,2.6,2.2,3.3,3.7V29.1h3.9V64.1z M223.2,61.2
				c1.1,0,2.2-0.2,3.3-0.7c1-0.4,1.9-1.1,2.6-1.9c0.8-0.9,1.4-1.9,1.8-3c0.8-2.6,0.8-5.4,0-8c-0.4-1.1-1-2.1-1.8-3
				c-0.7-0.8-1.6-1.4-2.6-1.9c-2.1-0.9-4.5-0.9-6.6,0c-1,0.4-1.9,1.1-2.6,1.9c-0.8,0.9-1.4,1.9-1.8,3c-0.9,2.6-0.9,5.4,0,8
				c0.4,1.1,1,2.1,1.8,3c0.7,0.8,1.6,1.5,2.6,1.9C221,61,222.1,61.2,223.2,61.2L223.2,61.2z"/>
			<path class="st0" d="M265.6,51.7c0,1.9-0.3,3.9-1,5.7c-0.6,1.5-1.6,2.9-2.8,4.1c-1.1,1.1-2.5,1.9-4,2.5c-3.1,1.1-6.4,1.1-9.5,0
				c-1.5-0.5-2.8-1.4-4-2.5c-1.2-1.2-2.1-2.6-2.8-4.1c-0.7-1.8-1-3.8-1-5.7c0-1.9,0.3-3.9,1-5.7c0.6-1.5,1.6-2.9,2.8-4.1
				c1.2-1.1,2.5-1.9,4-2.5c3.1-1.1,6.4-1.1,9.5,0c1.5,0.5,2.9,1.4,4,2.5c1.2,1.2,2.2,2.6,2.8,4.1C265.3,47.8,265.7,49.8,265.6,51.7z
				 M253.1,61.3c1.2,0,2.3-0.2,3.4-0.7c1-0.4,2-1.1,2.7-1.9c0.8-0.9,1.4-1.9,1.8-3c0.9-2.6,0.9-5.4,0-8c-0.4-1.1-1-2.1-1.8-3
				c-0.7-0.8-1.7-1.5-2.7-1.9c-2.2-0.9-4.6-0.9-6.9,0c-1,0.4-2,1.1-2.7,1.9c-0.8,0.9-1.4,1.9-1.8,3c-0.9,2.6-0.9,5.4,0,8
				c0.4,1.1,1,2.1,1.8,3c0.7,0.8,1.7,1.5,2.7,1.9C250.7,61.1,251.9,61.3,253.1,61.3z"/>
			<path class="st0" d="M289.2,59.3l3.6-20h3.8l-5,24.8h-4.5l-4.2-20l-4.2,20h-4.5l-5-24.8h3.8l3.6,20l4.1-20h4.3L289.2,59.3z"/>
			<path class="st0" d="M323.8,64.1h-3.9V48.6c0.1-1.8-0.4-3.5-1.6-4.9c-1.2-1.1-2.7-1.7-4.3-1.6c-1,0-1.9,0.2-2.9,0.6
				c-0.9,0.4-1.8,1-2.5,1.7c-0.7,0.8-1.3,1.8-1.7,2.8c-0.4,1.2-0.7,2.5-0.6,3.8v13.2h-3.9V39.3h3.9v4.5c0.9-1.5,2.1-2.8,3.5-3.8
				c1.6-1,3.4-1.5,5.3-1.4c1.2,0,2.4,0.2,3.5,0.6c1,0.4,2,0.9,2.8,1.7c0.8,0.8,1.4,1.7,1.8,2.8c0.4,1.2,0.6,2.5,0.6,3.8L323.8,64.1z
				"/>
		</g>
		<path id="Icon" d="M0.2,25.2l19.4,17.9c0.2,0.2,0.6,0.2,0.9,0l19.4-17.9c0.1-0.1,0.2-0.3,0.2-0.4c0-0.2-0.1-0.3-0.2-0.5l-4.6-4.6
			c-0.2-0.2-0.6-0.2-0.8,0l-10.5,9.2V5.4c0-0.3-0.3-0.6-0.6-0.6h-6.5c-0.3,0-0.6,0.3-0.6,0.6v23.5L5.6,19.7c-0.2-0.2-0.6-0.2-0.9,0
			l-4.6,4.6C0.1,24.4,0,24.6,0,24.8C0,24.9,0.1,25.1,0.2,25.2z"/>
	</g>
</g>
</svg>
