<?xml version="1.0" encoding="utf-8"?>
<!-- Generator: Adobe Illustrator 23.0.1, SVG Export Plug-In . SVG Version: 6.00 Build 0)  -->
<svg version="1.1" id="Layer_1" xmlns="http://www.w3.org/2000/svg" xmlns:xlink="http://www.w3.org/1999/xlink" x="0px" y="0px"
	 viewBox="0 0 216 216" style="enable-background:new 0 0 216 216;" xml:space="preserve">
<style type="text/css">
	.st0{fill:#FFFFFF;stroke:#FFFFFF;stroke-miterlimit:10;}
	.st1{fill:#FFFFFF;}
</style>
<title>Music</title>
<g>
	<g id="Large_Icon_Buttons">
		<g id="Music">
			<g id="Text">
				<path class="st0" d="M35.4,139.6h4.8l8.2,30.9l8.2-30.9h4.8v35h-4v-25.4c-0.1,0.2-0.2,0.6-0.3,1.2l-0.5,1.8
					c-0.2,0.7-0.3,1.5-0.5,2.4l-5.5,20h-4.4l-5.5-20c-0.2-0.9-0.4-1.7-0.5-2.4s-0.3-1.2-0.5-1.8l-0.3-1.2v25.4h-4L35.4,139.6z"/>
				<path class="st0" d="M67.6,149.8h3.9v15.7c-0.1,1.7,0.4,3.4,1.6,4.7c1.2,1.1,2.7,1.7,4.3,1.6c1,0,1.9-0.2,2.8-0.6
					c0.9-0.4,1.8-1,2.5-1.7c0.8-0.8,1.3-1.7,1.7-2.8c0.4-1.2,0.7-2.5,0.7-3.8v-13.2H89v24.8h-3.9v-4.5c-0.9,1.5-2.1,2.8-3.5,3.8
					c-1.6,1-3.4,1.5-5.3,1.4c-1.2,0-2.4-0.2-3.5-0.6c-1.1-0.4-2-1-2.8-1.8c-0.8-0.9-1.4-1.9-1.8-3.1c-0.5-1.4-0.7-3-0.7-4.5
					L67.6,149.8z"/>
				<path class="st0" d="M102.1,155.9c0,1.2,0.6,2.2,1.6,2.8c1.1,0.8,2.9,1.3,5.6,1.6c2.4,0.1,4.7,0.9,6.7,2.1c1.6,1.2,2.5,3,2.4,5
					c0,1.1-0.2,2.3-0.7,3.3c-0.5,1-1.2,1.8-2.1,2.5c-0.9,0.7-2,1.2-3.1,1.6c-1.3,0.4-2.6,0.6-4,0.6c-1.4,0-2.7-0.2-4-0.6
					c-1.2-0.3-2.3-0.8-3.3-1.5c-0.9-0.6-1.8-1.4-2.5-2.2c-0.7-0.8-1.2-1.7-1.6-2.7l3.2-2c0.6,1.6,1.6,3,3,4.1c1.5,1,3.2,1.6,5,1.5
					c1.5,0.1,3.1-0.3,4.4-1c1.1-0.7,1.8-1.9,1.7-3.2c0.1-1.3-0.6-2.4-1.8-3c-1.7-0.8-3.5-1.2-5.3-1.4c-2.4-0.2-4.6-1-6.6-2.4
					c-1.5-1.2-2.4-3-2.3-4.9c0-1,0.2-2.1,0.8-3c0.5-0.9,1.2-1.6,2-2.2c0.9-0.6,1.9-1,2.9-1.3c1.1-0.3,2.3-0.5,3.4-0.4
					c2.3-0.1,4.5,0.5,6.4,1.7c1.6,1.2,2.9,2.8,3.8,4.7l-3.1,1.8c-0.6-1.5-1.7-2.8-3-3.8c-1.3-0.8-2.7-1.2-4.2-1.2
					c-0.7,0-1.3,0.1-2,0.2c-0.6,0.1-1.2,0.3-1.8,0.6c-0.5,0.3-0.9,0.6-1.2,1.1C102.2,154.7,102,155.3,102.1,155.9z"/>
				<path class="st0" d="M128.7,149.8h11.2v21.6h8.6v3.2h-21v-3.2h8.5v-18.5h-7.3L128.7,149.8z M135.4,140.4h5.2v5.3h-5.2V140.4z"/>
				<path class="st0" d="M179.8,167.8c-0.9,2.2-2.4,4-4.2,5.4c-2,1.4-4.4,2.1-6.9,2.1c-1.7,0-3.5-0.3-5.1-0.9
					c-1.5-0.6-2.9-1.5-4-2.7c-1.1-1.2-2-2.6-2.6-4.1c-0.6-1.7-1-3.5-0.9-5.3c0-1.8,0.3-3.6,1-5.3c0.6-1.6,1.5-3,2.7-4.1
					c1.1-1.1,2.5-2.1,4-2.7c1.6-0.7,3.2-1,4.9-1c2.5-0.1,4.9,0.6,7,1.9c1.8,1.3,3.2,3.1,4,5.2l-3.1,1.9c-1.1-3.4-4.3-5.6-7.9-5.6
					c-1.2,0-2.4,0.2-3.4,0.7c-1,0.4-2,1.1-2.8,1.9c-0.8,0.9-1.4,1.9-1.9,3c-0.5,1.3-0.7,2.6-0.7,4c0,1.4,0.2,2.7,0.6,4
					c0.4,1.1,1,2.1,1.8,3c0.8,0.8,1.7,1.5,2.8,1.9c1.1,0.5,2.3,0.7,3.5,0.7c1.8,0.1,3.6-0.4,5-1.5c1.4-1.2,2.5-2.6,3.2-4.2
					L179.8,167.8z"/>
			</g>
			<g id="Icon">
				<path class="st1" d="M108.1,70.9c-2.6,0-4.7,2.1-4.7,4.7c0,2.6,2.1,4.7,4.7,4.7c2.6,0,4.7-2.1,4.7-4.7
					C112.8,73,110.7,70.9,108.1,70.9C108.1,70.9,108.1,70.9,108.1,70.9z"/>
				<path class="st1" d="M108.1,63.4c-6.7,0-12.2,5.5-12.2,12.2c0,6.7,5.5,12.2,12.2,12.2c6.7,0,12.2-5.5,12.2-12.2
					C120.3,68.8,114.9,63.4,108.1,63.4z M108.1,85.9c-5.7,0-10.3-4.6-10.3-10.3s4.6-10.3,10.3-10.3c5.7,0,10.3,4.6,10.3,10.3
					C118.4,81.2,113.8,85.9,108.1,85.9z"/>
				<path class="st1" d="M108.1,30.5c-24.9,0-45,20.1-45,45s20.1,45,45,45s45-20.1,45-45v0C153.1,50.7,133,30.6,108.1,30.5z
					 M80.7,88.1c1.3-0.8,3.1-0.3,3.8,1c2.4,4.2,5.8,7.6,10,10c1.3,0.8,1.8,2.5,1,3.8c-0.5,0.9-1.4,1.4-2.5,1.4c-0.5,0-1-0.1-1.4-0.4
					c-5-2.9-9.1-7-12-12C79,90.7,79.4,88.9,80.7,88.1C80.7,88.1,80.7,88.1,80.7,88.1z M103.4,112.9c-0.3,1.3-1.4,2.3-2.8,2.2
					c-0.2,0-0.4,0-0.6,0c-15.9-3.2-28.2-15.6-31.4-31.5c-0.3-1.5,0.7-3,2.2-3.3s3,0.7,3.3,2.2l0,0c2.8,13.6,13.4,24.3,27.1,27
					C102.7,109.9,103.7,111.3,103.4,112.9z M108.1,93.4c-9.8,0-17.8-8-17.8-17.8s8-17.8,17.8-17.8c9.8,0,17.8,8,17.8,17.8
					C125.9,85.4,118,93.4,108.1,93.4z M135.5,63c-1.3,0.8-3.1,0.3-3.9-1c-2.4-4.1-5.8-7.6-9.9-10c-1.3-0.8-1.8-2.5-1-3.8
					c0.8-1.3,2.5-1.8,3.8-1l0,0c5,2.9,9.1,7,12,12C137.3,60.5,136.9,62.2,135.5,63C135.5,63,135.5,63,135.5,63z M145.4,70.8
					c-0.2,0-0.4,0.1-0.6,0.1c-1.3,0-2.5-0.9-2.8-2.2c-2.8-13.6-13.4-24.3-27.1-27.1c-1.5-0.3-2.5-1.8-2.2-3.4s1.8-2.5,3.3-2.2
					c15.8,3.2,28.2,15.6,31.4,31.4C148,69,147,70.5,145.4,70.8C145.5,70.8,145.5,70.8,145.4,70.8L145.4,70.8z"/>
			</g>
		</g>
	</g>
</g>
</svg>
