<?xml version="1.0" encoding="utf-8"?>
<!-- Generator: Adobe Illustrator 23.0.1, SVG Export Plug-In . SVG Version: 6.00 Build 0)  -->
<svg version="1.1" id="Layer_1" xmlns="http://www.w3.org/2000/svg" xmlns:xlink="http://www.w3.org/1999/xlink" x="0px" y="0px"
	 viewBox="0 0 297.7 78.8" style="enable-background:new 0 0 297.7 78.8;" xml:space="preserve">
<style type="text/css">
	.st0{fill:#FFFFFF;stroke:#FFFFFF;stroke-miterlimit:10;}
	.st1{fill:#FFFFFF;}
</style>
<title>projects</title>
<g id="Tiny_Buttons">
	<g id="Projects">
		<g id="Text">
			<path class="st0" d="M61.8,29.1h12.3c1.7,0,3.4,0.2,5,0.8c1.4,0.5,2.7,1.2,3.8,2.2c1,1,1.8,2.1,2.3,3.5c1.1,2.9,1.1,6.1,0,9
				c-0.5,1.3-1.3,2.5-2.3,3.5c-1.1,1-2.4,1.7-3.8,2.2c-1.6,0.5-3.3,0.8-5,0.8H66v13.2h-4.2L61.8,29.1z M66,47.2h8
				c2.1,0.1,4.2-0.5,5.8-1.8c1.3-1.2,2-3,2-5.4c0.2-2-0.6-4-2-5.4c-1.7-1.3-3.7-1.9-5.8-1.8h-8V47.2z"/>
			<path class="st0" d="M109.7,46.8c0.1-0.4,0.1-0.7,0.2-1.1c0-1.1-0.5-2.1-1.4-2.7c-1-0.7-2.2-1-3.4-1c-1.9,0-3.8,0.9-4.9,2.5
				c-1.3,1.7-1.9,4.1-1.9,7.2v12.3h-3.9V39.3h3.9v4c0.3-0.6,0.7-1.1,1.1-1.7c0.5-0.6,1-1.1,1.7-1.5c0.7-0.5,1.5-0.8,2.2-1.1
				c0.9-0.3,1.9-0.4,2.9-0.4c1.1,0,2.1,0.2,3.2,0.5c0.9,0.3,1.7,0.8,2.4,1.4c0.7,0.6,1.2,1.3,1.6,2.1c0.4,0.8,0.6,1.7,0.6,2.6
				c0,1-0.2,2-0.6,3L109.7,46.8z"/>
			<path class="st0" d="M146.2,51.7c0.1,1.9-0.3,3.9-1,5.7c-0.6,1.5-1.6,2.9-2.8,4.1c-1.1,1.1-2.5,1.9-4,2.5c-3.1,1.1-6.4,1.1-9.5,0
				c-1.5-0.5-2.9-1.4-4-2.5c-1.2-1.2-2.2-2.6-2.8-4.1c-0.7-1.8-1-3.8-1-5.7c0-1.9,0.3-3.9,1-5.7c0.6-1.5,1.6-2.9,2.8-4.1
				c1.1-1.1,2.5-1.9,4-2.5c3.1-1.1,6.4-1.1,9.5,0c1.5,0.5,2.9,1.4,4,2.5c1.2,1.2,2.1,2.6,2.8,4.1C145.9,47.8,146.3,49.8,146.2,51.7z
				 M133.7,61.3c1.2,0,2.3-0.2,3.4-0.7c1-0.4,2-1.1,2.7-1.9c0.8-0.9,1.4-1.9,1.8-3c0.9-2.6,0.9-5.4,0-8c-0.4-1.1-1-2.1-1.8-3
				c-0.7-0.8-1.7-1.5-2.7-1.9c-2.2-0.9-4.6-0.9-6.9,0c-1,0.4-2,1.1-2.7,1.9c-0.8,0.9-1.4,1.9-1.8,3c-0.9,2.6-0.9,5.4,0,8
				c0.4,1.1,1,2.1,1.8,3c0.7,0.8,1.7,1.5,2.7,1.9C131.3,61.1,132.5,61.3,133.7,61.3z"/>
			<path class="st0" d="M157.1,39.3h12.2v27.2c0.1,2.2-0.7,4.4-2.2,6c-1.7,1.5-3.9,2.2-6.2,2.1c-1.1,0-2.2-0.1-3.2-0.5
				c-0.9-0.3-1.8-0.7-2.5-1.3c-0.7-0.5-1.2-1.1-1.6-1.8c-0.4-0.7-0.6-1.5-0.6-2.3c0-0.4,0-0.8,0.1-1.2c0.1-0.4,0.3-0.8,0.5-1.2
				l3.4,1.3c-0.1,0.2-0.1,0.5-0.1,0.8c0,0.8,0.5,1.6,1.2,2c0.8,0.6,1.9,0.9,2.9,0.8c1.2,0.1,2.4-0.3,3.4-1c0.8-0.7,1.1-1.9,1.1-3.7
				v-24h-8.3L157.1,39.3z M164.8,29.9h5.2v5.3h-5.2L164.8,29.9z"/>
			<path class="st0" d="M185,52.3c0,1.2,0.3,2.5,0.7,3.6c0.4,1.1,1,2.1,1.7,2.9c0.7,0.8,1.6,1.5,2.6,1.9c1.1,0.5,2.3,0.7,3.5,0.7
				c1,0,2-0.1,3-0.5c0.8-0.3,1.6-0.7,2.2-1.3c0.7-0.5,1.2-1.2,1.7-1.9c0.5-0.7,0.9-1.5,1.3-2.3l2.9,1.6c-0.5,1.1-1.1,2.1-1.8,3
				c-0.7,0.9-1.5,1.7-2.4,2.4c-0.9,0.7-2,1.2-3.1,1.6c-1.3,0.4-2.6,0.6-3.9,0.6c-1.7,0-3.3-0.3-4.9-1c-1.4-0.6-2.7-1.5-3.8-2.7
				c-1.1-1.2-2-2.6-2.5-4.2c-0.6-1.7-0.9-3.5-0.9-5.3c0-1.8,0.3-3.6,1-5.3c0.6-1.5,1.5-3,2.6-4.2c2.3-2.4,5.4-3.7,8.7-3.7
				c1.7,0,3.4,0.3,5,1c1.4,0.6,2.6,1.5,3.6,2.7c1,1.2,1.8,2.5,2.2,4c0.5,1.6,0.8,3.3,0.8,5v1L185,52.3z M193.6,41.9
				c-2,0-4,0.7-5.6,2c-1.6,1.3-2.5,3.2-2.8,5.3h16.1c0-1.1-0.3-2.1-0.8-3.1c-0.4-0.9-1-1.6-1.8-2.3c-0.7-0.6-1.5-1.1-2.4-1.4
				C195.5,42.1,194.5,41.9,193.6,41.9L193.6,41.9z"/>
			<path class="st0" d="M235.2,57.3c-0.9,2.2-2.4,4-4.2,5.5c-2,1.4-4.4,2.1-6.9,2c-1.7,0-3.5-0.3-5.1-1c-1.5-0.6-2.9-1.5-4-2.7
				c-1.1-1.2-2-2.6-2.6-4.2c-0.6-1.7-0.9-3.5-0.9-5.3c0-1.8,0.3-3.6,1-5.3c0.6-1.6,1.5-3,2.7-4.2c1.1-1.1,2.5-2.1,4-2.7
				c1.6-0.7,3.2-1,4.9-1c2.5-0.1,4.9,0.6,7,2c1.8,1.3,3.3,3.1,4.1,5.2l-3.1,1.9c-1.1-3.4-4.3-5.6-7.9-5.6c-1.2,0-2.4,0.2-3.4,0.7
				c-1.1,0.4-2,1.1-2.8,1.9c-0.8,0.9-1.4,1.9-1.9,3c-0.5,1.3-0.7,2.6-0.7,4c0,1.4,0.2,2.7,0.6,4c0.4,1.1,1,2.1,1.8,3
				c0.8,0.8,1.7,1.5,2.8,1.9c1.1,0.5,2.3,0.7,3.5,0.7c1.8,0.1,3.6-0.4,5-1.5c1.4-1.2,2.5-2.6,3.2-4.2L235.2,57.3z"/>
			<path class="st0" d="M241.8,39.3h6.6v-6.7h3.9v6.7h8.7v3.1h-8.7v13.9c0,1.9,0.5,3.2,1.3,4c0.9,0.8,2.1,1.2,3.3,1.2
				c0.7,0,1.4-0.1,2-0.3c0.8-0.3,1.5-0.7,2.2-1.2l1.4,3c-1.9,1.4-4.1,2.1-6.4,2c-2.1,0.1-4.1-0.7-5.6-2.1c-1.4-1.4-2.1-3.6-2.1-6.7
				V42.4h-6.6L241.8,39.3z"/>
			<path class="st0" d="M276.9,45.4c0,1.2,0.6,2.2,1.6,2.8c1.1,0.8,2.9,1.3,5.6,1.6c2.4,0.1,4.7,0.9,6.7,2.2c1.6,1.2,2.5,3,2.4,5
				c0,1.1-0.2,2.3-0.7,3.3c-0.5,1-1.2,1.8-2,2.5c-0.9,0.7-2,1.2-3.1,1.6c-1.3,0.4-2.6,0.6-4,0.6c-1.4,0-2.7-0.2-4-0.6
				c-1.2-0.3-2.3-0.8-3.3-1.5c-0.9-0.6-1.8-1.4-2.5-2.2c-0.7-0.8-1.2-1.7-1.6-2.7l3.2-2c0.6,1.6,1.6,3,3,4.1c1.5,1,3.2,1.6,5,1.5
				c1.5,0.1,3.1-0.3,4.4-1c1.1-0.7,1.8-1.9,1.7-3.2c0.1-1.3-0.6-2.4-1.8-3c-1.7-0.8-3.5-1.2-5.4-1.3c-2.4-0.2-4.6-1-6.6-2.3
				c-1.5-1.1-2.4-3-2.3-4.8c0-1,0.2-2.1,0.8-3c0.5-0.9,1.2-1.6,2-2.2c0.9-0.6,1.9-1,2.9-1.3c1.1-0.3,2.3-0.5,3.5-0.5
				c2.3-0.1,4.5,0.5,6.5,1.8c1.6,1.2,2.9,2.8,3.8,4.7l-3.1,1.8c-0.6-1.5-1.6-2.8-3-3.8c-1.3-0.8-2.7-1.2-4.2-1.2
				c-0.7,0-1.4,0.1-2,0.2c-0.6,0.1-1.2,0.3-1.8,0.6c-0.5,0.3-0.9,0.6-1.2,1.1C277,44.4,276.9,44.9,276.9,45.4z"/>
		</g>
		<path id="Icon" class="st1" d="M39.5,18.4h-14V4.5c0-0.2-0.2-0.5-0.4-0.5H14.9c-0.3,0-0.5,0.2-0.5,0.5v13.9h-14
			c-0.3,0-0.5,0.2-0.5,0.5V29c0,0.3,0.2,0.5,0.5,0.5h14v14c0,0.3,0.2,0.5,0.5,0.5h10.1c0.3,0,0.5-0.2,0.5-0.5v-14h14
			c0.2,0,0.4-0.2,0.4-0.5V18.9C40,18.6,39.8,18.4,39.5,18.4z"/>
	</g>
</g>
</svg>
