<?xml version="1.0" encoding="utf-8"?>
<!-- Generator: Adobe Illustrator 23.0.1, SVG Export Plug-In . SVG Version: 6.00 Build 0)  -->
<svg version="1.1" id="Layer_1" xmlns="http://www.w3.org/2000/svg" xmlns:xlink="http://www.w3.org/1999/xlink" x="0px" y="0px"
	 viewBox="0 0 216 216" style="enable-background:new 0 0 216 216;" xml:space="preserve">
<style type="text/css">
	.st0{fill:#FFFFFF;stroke:#FFFFFF;stroke-miterlimit:10;}
	.st1{fill:#FFFFFF;}
</style>
<title>Theater1</title>
<g>
	<g id="Large_Icon_Buttons">
		<g id="Theater1">
			<g id="Text">
				<path class="st0" d="M6.5,139.6h24.2v3.7h-10v31.3h-4.2v-31.3h-10L6.5,139.6z"/>
				<path class="st0" d="M59.3,174.6h-3.9V159c0.3-3.2-2.1-6.1-5.3-6.4c-0.3,0-0.7,0-1,0c-2,0-4,0.8-5.4,2.3
					c-0.8,0.8-1.4,1.7-1.8,2.8c-0.5,1.2-0.7,2.5-0.7,3.8v13.2h-3.9v-35h3.9v14.8c0.9-1.6,2.1-2.9,3.7-3.9c1.6-1,3.5-1.5,5.5-1.5
					c2.4-0.1,4.8,0.7,6.5,2.4c1.7,1.8,2.6,4.2,2.5,6.7L59.3,174.6z"/>
				<path class="st0" d="M69.9,162.8c0.1,1.2,0.3,2.5,0.7,3.6c0.4,1.1,1,2.1,1.7,2.9c0.7,0.8,1.6,1.5,2.6,1.9
					c1.1,0.5,2.3,0.7,3.5,0.7c1,0,2-0.1,3-0.5c0.8-0.3,1.6-0.7,2.2-1.3c0.7-0.5,1.2-1.2,1.7-1.9c0.5-0.7,0.9-1.5,1.3-2.3l2.9,1.6
					c-0.5,1.1-1.1,2.1-1.8,3.1c-0.7,0.9-1.5,1.7-2.4,2.4c-0.9,0.7-2,1.2-3.1,1.6c-1.3,0.4-2.6,0.6-3.9,0.6c-1.7,0-3.3-0.3-4.9-1
					c-1.4-0.6-2.7-1.5-3.8-2.7c-1.1-1.2-2-2.6-2.5-4.1c-0.6-1.7-0.9-3.5-0.9-5.3c0-1.8,0.3-3.6,1-5.3c0.6-1.5,1.5-2.9,2.6-4.1
					c1.1-1.1,2.4-2.1,3.9-2.7c1.5-0.7,3.2-1,4.8-1c1.7,0,3.4,0.3,5,1c1.4,0.6,2.6,1.5,3.7,2.7c1,1.2,1.8,2.6,2.2,4.1
					c0.5,1.6,0.8,3.3,0.8,5.1v1L69.9,162.8z M78.5,152.4c-2,0-4,0.7-5.6,2c-1.6,1.3-2.5,3.2-2.8,5.3h16.1c0-1.1-0.3-2.1-0.8-3.1
					c-0.4-0.9-1-1.6-1.8-2.3c-0.7-0.6-1.5-1.1-2.4-1.4C80.4,152.5,79.4,152.4,78.5,152.4z"/>
				<path class="st0" d="M115.9,174.6c-0.5-0.6-0.9-1.3-1.2-2c-0.3-0.9-0.5-1.9-0.4-2.9c-0.8,1.7-2,3.1-3.7,4.1
					c-1.6,1-3.5,1.5-5.3,1.5c-2.3,0.1-4.5-0.7-6.2-2.1c-1.5-1.4-2.4-3.5-2.3-5.6c0-2.1,0.9-4.1,2.4-5.4c0.8-0.7,1.7-1.2,2.7-1.6
					c1.1-0.4,2.3-0.7,3.4-0.9l8.9-1.3v-1c0.1-1.5-0.5-2.9-1.7-3.8c-1.3-0.8-2.8-1.2-4.4-1.1c-1.6-0.1-3.3,0.3-4.7,1.1
					c-1,0.5-1.6,1.6-1.7,2.7v0.3c0,0.1,0,0.3,0.1,0.4l-3.4,1.2c-0.3-0.6-0.4-1.3-0.4-2c0-0.9,0.3-1.9,0.7-2.7c0.5-0.9,1.2-1.6,2-2.2
					c1-0.7,2-1.2,3.2-1.6c1.3-0.4,2.7-0.6,4.1-0.6c3.3,0,5.8,0.7,7.4,2.1c1.7,1.5,2.7,3.7,2.5,6v11.2c0,0.7,0,1.3,0.1,1.9
					c0,0.5,0.1,1,0.3,1.6c0.1,0.5,0.3,0.9,0.5,1.4c0.2,0.5,0.5,0.9,0.8,1.4L115.9,174.6z M105.7,171.8c1.3,0,2.5-0.3,3.6-0.8
					c1-0.5,2-1.2,2.7-2.1c0.7-0.9,1.3-2,1.7-3.1c0.4-1.2,0.6-2.4,0.6-3.6v-0.7l-8.2,1.3c-1.4,0.1-2.8,0.7-3.9,1.6
					c-0.9,0.8-1.4,2-1.3,3.1c0,1.2,0.4,2.3,1.3,3.1C103.1,171.4,104.4,171.8,105.7,171.8z"/>
				<path class="st0" d="M126.7,149.8h6.6v-6.7h3.9v6.7h8.7v3.1h-8.7v13.8c0,1.9,0.4,3.2,1.3,4c0.9,0.8,2.1,1.2,3.3,1.1
					c0.7,0,1.4-0.1,2-0.4c0.8-0.3,1.5-0.7,2.2-1.2l1.4,2.9c-1.9,1.4-4.1,2.1-6.4,2c-2.1,0.1-4.1-0.7-5.6-2.1
					c-1.4-1.4-2.1-3.6-2.1-6.6v-13.6h-6.7L126.7,149.8z"/>
				<path class="st0" d="M159.5,162.8c0.1,1.2,0.3,2.5,0.7,3.6c0.4,1.1,1,2.1,1.7,2.9c0.7,0.8,1.6,1.5,2.6,1.9
					c1.1,0.5,2.3,0.7,3.5,0.7c1,0,2-0.1,3-0.5c0.8-0.3,1.6-0.7,2.2-1.3c0.7-0.5,1.2-1.2,1.7-1.9c0.5-0.7,0.9-1.5,1.3-2.3l2.9,1.6
					c-0.5,1.1-1.1,2.1-1.8,3.1c-0.7,0.9-1.5,1.7-2.4,2.4c-0.9,0.7-2,1.2-3.1,1.6c-1.3,0.4-2.6,0.6-3.9,0.6c-1.7,0-3.3-0.3-4.9-1
					c-1.5-0.6-2.8-1.5-3.8-2.7c-1.1-1.2-1.9-2.6-2.5-4.1c-0.6-1.7-0.9-3.5-0.9-5.3c0-1.8,0.3-3.6,0.9-5.3c0.6-1.5,1.5-2.9,2.6-4.1
					c2.3-2.4,5.4-3.7,8.7-3.7c1.7,0,3.4,0.3,5,1c1.4,0.6,2.6,1.5,3.6,2.7c1,1.2,1.8,2.6,2.2,4.1c0.5,1.6,0.8,3.3,0.8,5.1v1
					L159.5,162.8z M168,152.4c-2,0-4,0.7-5.6,2c-1.5,1.4-2.5,3.2-2.8,5.3h16.1c0-1.1-0.3-2.1-0.8-3.1c-0.4-0.9-1-1.6-1.8-2.3
					c-0.7-0.6-1.5-1.1-2.4-1.4C169.9,152.5,169,152.4,168,152.4z"/>
				<path class="st0" d="M203.5,157.2c0.1-0.4,0.1-0.7,0.1-1.1c0-1.1-0.5-2.2-1.4-2.8c-1-0.7-2.2-1-3.4-1c-2,0-3.8,1-4.9,2.6
					c-1.3,1.7-1.9,4.1-1.9,7.2v12.4h-3.9v-24.8h3.9v4c0.3-0.6,0.7-1.1,1.1-1.6c0.5-0.6,1-1.1,1.6-1.5c0.7-0.5,1.5-0.8,2.2-1.1
					c0.9-0.3,1.9-0.4,2.9-0.4c1.1,0,2.2,0.2,3.2,0.5c0.9,0.3,1.7,0.8,2.4,1.4c0.7,0.6,1.2,1.3,1.6,2.1c0.4,0.8,0.6,1.7,0.6,2.6
					c0,1-0.2,2-0.6,2.9L203.5,157.2z"/>
			</g>
			<g id="Icon">
				<path class="st1" d="M65.8,81.8c-1.5,0-2.7-1.2-2.7-2.7l0,0V72c0-1.5,1.2-2.7,2.7-2.7s2.7,1.2,2.7,2.7v7
					C68.6,80.5,67.4,81.8,65.8,81.8C65.9,81.8,65.9,81.8,65.8,81.8z"/>
				<path class="st1" d="M72.9,85.3c-1.5,0-2.7-1.2-2.7-2.7c0,0,0,0,0,0V68.5c0-1.5,1.2-2.7,2.7-2.7s2.7,1.2,2.7,2.7v14.1
					C75.6,84.1,74.4,85.3,72.9,85.3C72.9,85.3,72.9,85.3,72.9,85.3z"/>
				<path class="st1" d="M79.9,99.4c-1.5,0-2.7-1.2-2.7-2.7l0,0V54.4c-0.1-1.5,1.1-2.8,2.6-2.9c1.5-0.1,2.8,1.1,2.9,2.6
					c0,0.1,0,0.2,0,0.3v42.3C82.7,98.2,81.4,99.4,79.9,99.4C79.9,99.4,79.9,99.4,79.9,99.4z"/>
				<path class="st1" d="M87,92.4c-1.5,0-2.7-1.2-2.7-2.7c0,0,0,0,0,0V61.5c-0.1-1.5,1.1-2.8,2.6-2.9c1.5-0.1,2.8,1.1,2.9,2.6
					c0,0.1,0,0.2,0,0.3v28.2C89.7,91.1,88.5,92.4,87,92.4L87,92.4z"/>
				<path class="st1" d="M94,113.5c-1.5,0-2.7-1.2-2.7-2.7c0,0,0,0,0,0V40.3c0-1.5,1.2-2.7,2.7-2.7s2.7,1.2,2.7,2.7l0,0v70.5
					C96.7,112.3,95.5,113.5,94,113.5C94,113.5,94,113.5,94,113.5z"/>
				<path class="st1" d="M101.1,120.6c-1.5,0-2.7-1.2-2.7-2.7l0,0V33.3c-0.1-1.5,1.1-2.8,2.6-2.9c1.5-0.1,2.8,1.1,2.9,2.6
					c0,0.1,0,0.2,0,0.3v84.6C103.8,119.3,102.6,120.5,101.1,120.6C101.1,120.5,101.1,120.6,101.1,120.6z"/>
				<path class="st1" d="M115.2,92.4c-1.5,0-2.7-1.2-2.7-2.7l0,0V61.5c0-1.5,1.2-2.7,2.7-2.7s2.7,1.2,2.7,2.7v28.2
					C117.9,91.1,116.7,92.4,115.2,92.4L115.2,92.4z"/>
				<path class="st1" d="M122.2,99.4c-1.5,0-2.7-1.2-2.7-2.7l0,0V54.4c0-1.5,1.2-2.7,2.7-2.7s2.7,1.2,2.7,2.7v42.3
					C124.9,98.2,123.7,99.4,122.2,99.4L122.2,99.4z"/>
				<path class="st1" d="M129.3,106.5c-1.5,0-2.7-1.2-2.7-2.7l0,0V47.4c-0.1-1.5,1.1-2.8,2.6-2.9c1.5-0.1,2.8,1.1,2.9,2.6
					c0,0.1,0,0.2,0,0.3v56.4C132,105.2,130.8,106.5,129.3,106.5C129.3,106.5,129.3,106.5,129.3,106.5z"/>
				<path class="st1" d="M136.3,99.4c-1.5,0-2.7-1.2-2.7-2.7c0,0,0,0,0,0V54.4c-0.1-1.5,1.1-2.8,2.6-2.9c1.5-0.1,2.8,1.1,2.9,2.6
					c0,0.1,0,0.2,0,0.3v42.3C139,98.2,137.8,99.4,136.3,99.4z"/>
				<path class="st1" d="M143.4,85.3c-1.5,0-2.7-1.2-2.7-2.7c0,0,0,0,0,0V68.5c0-1.5,1.2-2.7,2.7-2.7s2.7,1.2,2.7,2.7v14.1
					C146.1,84.1,144.9,85.3,143.4,85.3C143.4,85.3,143.4,85.3,143.4,85.3z"/>
				<path class="st1" d="M108.1,106.5c-1.5,0-2.7-1.2-2.7-2.7c0,0,0,0,0,0V47.4c-0.1-1.5,1.1-2.8,2.6-2.9c1.5-0.1,2.8,1.1,2.9,2.6
					c0,0.1,0,0.2,0,0.3v56.4C110.8,105.2,109.6,106.5,108.1,106.5z"/>
				<path class="st1" d="M150.4,81.8c-1.5,0-2.7-1.2-2.7-2.7l0,0V72c-0.1-1.5,1.1-2.8,2.6-2.9c1.5-0.1,2.8,1.1,2.9,2.6
					c0,0.1,0,0.2,0,0.3v7C153.2,80.5,152,81.7,150.4,81.8C150.5,81.8,150.4,81.8,150.4,81.8z"/>
			</g>
		</g>
	</g>
</g>
</svg>
