<svg xmlns="http://www.w3.org/2000/svg" viewBox="0 0 373.12 576"><defs><style>.cls-1{fill:#fff;}.cls-2{fill:none;stroke:#fff;stroke-miterlimit:10;stroke-width:3px;}</style></defs><title>speaker</title><g id="Layer_2" data-name="Layer 2"><g id="krkrokit"><g id="speaker"><path class="cls-1" d="M341.24,3c15.74,0,27,1.32,28.07,18.35,1.39,21.45.69,502.88,0,523.93-.32,9.59-2.68,16.28-7.23,20.48-4.21,3.87-10.42,5.89-19.54,6.34-17.74.87-280.84.9-310.79.9-5.95,0-12.48-3.34-17.45-8.93a33.37,33.37,0,0,1-8.46-22.21c0-3.76-.17-25.52-.44-58.46-1-123.5-3.65-451.56-1.72-462,2.05-11.11,15-18,33.73-18h1.34c3.82.07,16.47.1,37.61.1,56.4,0,162.48-.23,219.48-.36L338.46,3h2.78m0-3h-2.78C326.33,0,154.91.45,76.36.45,56.73.45,42.89.43,38.8.36l-1.39,0C17.67.34,3.14,7.71.73,20.8c-2.47,13.4,2.11,502,2.11,521.06S17.77,576,31.75,576s292.61,0,310.94-.9,28.91-8.21,29.62-29.72,1.41-502.37,0-524.23C371,.62,355.66,0,341.24,0Z"/><path class="cls-1" d="M104.77,474.38c19.79,0,44.76.25,63,.43,10.09.1,18.06.18,21.56.18H294.09c3.22,0,19.32.6,19.32,12.49,0,9-18.16,23-28.31,25.8-9,2.44-69.63,4.18-104,4.82-1.11,0-2.33,0-3.65,0-21.1,0-65.15-2.7-87.55-4.94-21-2.1-30.15-21.43-30.09-28.42,0-3.55,1.72-7.86,14.75-9.81,1.75-.27,8.41-.58,30.24-.58m0-3c-15.45,0-27.65.15-30.68.61-9.11,1.37-17.25,4.42-17.31,12.75s10,29.15,32.79,31.43c21.48,2.15,66,5,87.85,5,1.33,0,2.56,0,3.71,0,20-.37,94-2,104.76-4.93s30.52-17.76,30.52-28.69S305.48,472,294.09,472H189.32c-9.71,0-53.64-.61-84.55-.61Z"/><path class="cls-1" d="M111.34,480.77c18.2,0,41.17.18,57.94.31,9.27.07,16.6.13,19.82.13h96.35c8.72,0,17.52,2.58,17.52,8.35,0,5.61-15.36,15.59-25.77,18.12-9.54,2.32-68.52,3.15-90.72,3.46l-5,.07q-1.56,0-3.36,0c-19.42,0-59.94-2-80.56-3.63-9.88-.79-18.52-4.84-23.7-11.11-3-3.67-3.9-6.93-3.71-8.61.39-3.58,2.4-5.4,13.29-6.7,1.62-.19,7.76-.42,27.86-.42m0-3c-14.21,0-25.42.11-28.22.44-8.38,1-15.14,2.26-15.92,9.35s9.22,21.37,30.16,23c19.75,1.57,60.73,3.64,80.8,3.64,1.21,0,2.35,0,3.4,0,18.43-.27,85.68-1,96.35-3.61s28.06-13,28.06-21-10.05-11.35-20.52-11.35H189.1c-8.93,0-49.33-.44-77.76-.44Z"/><path class="cls-1" d="M168.08,47.56c29.26,0,63.12,1.28,77.57,1.82a53.68,53.68,0,0,1,32,11.92c10.31,8.35,18.05,20.64,23,36.54C311.33,132,328.47,381.1,329.44,414.39c.38,13-3.43,23.41-11.31,30.92-5.89,5.61-14,9.72-24.81,12.57-6.24,1.65-35.44,2.68-76.19,2.68-52.87,0-120.37-1.75-141.33-5-12.86-2-20.89-8.14-25.26-19.36-4-10.22-4.38-23.17-4.75-35.69-.1-3.26-.2-6.63-.37-9.85-.83-16.18,3.09-74.87,10-149.5,6.6-71.39,13.5-131,16.77-144.88C75.4,82.6,82.3,71.46,92.69,63.17a69.08,69.08,0,0,1,33-13.82c8-1.19,22.29-1.79,42.4-1.79m0-3c-17.65,0-33.65.46-42.84,1.82-24.38,3.61-48.76,18.51-56,49.21S40.52,353.93,42.43,390.82c1.42,27.55-2.09,62.29,32.91,67.71,20.69,3.2,87.22,5,141.79,5,37.75,0,69.77-.88,77-2.77,17.58-4.65,39.25-15.33,38.35-46.49S314.38,131.7,303.55,96.94s-33.86-49.65-57.79-50.56c-14.9-.56-48.54-1.82-77.68-1.82Z"/><path class="cls-1" d="M108.4,156a5.7,5.7,0,0,1,5.7,5.7v15.4a5.71,5.71,0,0,1-5.7,5.7H84a5.71,5.71,0,0,1-5.7-5.7v-15.4A5.7,5.7,0,0,1,84,156H108.4m0-3H84a8.7,8.7,0,0,0-8.7,8.7v15.4a8.71,8.71,0,0,0,8.7,8.7H108.4a8.7,8.7,0,0,0,8.7-8.7v-15.4a8.69,8.69,0,0,0-8.7-8.7Z"/><path class="cls-1" d="M186.38,86.82a28.64,28.64,0,1,1-28.64,28.64,28.68,28.68,0,0,1,28.64-28.64m0-3A31.64,31.64,0,1,0,218,115.46a31.65,31.65,0,0,0-31.65-31.64Z"/><path class="cls-1" d="M186.38,97.54a17.92,17.92,0,1,1-17.91,17.92,17.94,17.94,0,0,1,17.91-17.92m0-3a20.92,20.92,0,1,0,20.92,20.92,20.92,20.92,0,0,0-20.92-20.92Z"/><path class="cls-1" d="M186.38,62.47a53,53,0,1,1-53,53,53.05,53.05,0,0,1,53-53m0-3a56,56,0,1,0,56,56,56,56,0,0,0-56-56Z"/><path class="cls-2" d="M14.65,22.75C14.11,35.52,40.33,45.7,49.82,66S32.4,487.14,28.68,500s-16.32,21.13-18.32,36.67,8.26,25.09,17.14,26.71,23.32-10.77,39.41-15.11,214.59-2.15,234,0,40.65,15.5,49.82,17.12,15.5-6.83,14.58-21-16.27-20.14-18.77-36-29.92-420-26.9-437.63S364,38.58,364.41,23.36c.32-12.81-8.58-15.13-18.78-15.59s-51.41,13-65.93,16.74-172.47,3.58-191.22,0C70.8,21.13,56.17,13.61,43.76,10.68S15.19,10,14.65,22.75Z"/><line class="cls-2" x1="28.91" y1="563.51" x2="352.02" y2="565.51"/></g></g></g></svg>