<svg xmlns="http://www.w3.org/2000/svg" viewBox="0 0 469 469"><defs><style>.cls-1,.cls-2,.cls-3{fill:none;}.cls-1{stroke:#ee275e;stroke-miterlimit:10;}.cls-2{stroke:#000;}.cls-2,.cls-3{stroke-width:3px;}.cls-3{stroke:#fff;}</style></defs><title>Iridium</title><g id="Layer_2" data-name="Layer 2"><g id="Icons"><g id="Iridium"><rect class="cls-1" x="0.5" y="0.5" width="468" height="468"/><path class="cls-2" d="M340.1,235l-15,50h15s5.86-22.14,10.19-29.61c4.19-7.23,20.09-21,13.5-1s-9.15,30.42-9.15,30.42h15.59s2.42-7.18,4.95-16.94c3.84-14.83,28.49-40.05,18-10.19-8.82,25.08-7.32,27.06,1.2,27.3,16.62.47,24.33-14.75,23.9-14.42-1.8,1.38-6.63,7.06-12.81,5.87-5-1-2.1-7.24-.9-11.84,1-4,6.37-17,7.8-21.38,2.7-8.23-14.24-14.85-24.59-2.52-7,8.33-9.85,11.32-9.81,11.24.92-2.6,3.46-8.07,3.21-12.34-.3-5.26-13.79-10.86-24.29,1.31-5.4,6.27-7.64,9.3-6.44,7S354.79,235,354.79,235Z"/><path class="cls-2" d="M294.62,234.9H279.93L267,269.76s-5.6,13.71,2.09,15.63c14.09,3.5,20.54-8.85,26.1-13.33.87-.7-1.79,13.11,10.48,14.15,9.55.8,19.81-14.8,19.37-15s-12.32,10.34-14.86,3.12c-2.68-7.59,8.09-31.91,10.78-39.47H306.62s-10.31,29.17-13.2,33.54c-7.79,11.84-15.34,11-11.69,1.32C287.08,255.6,294.62,234.9,294.62,234.9Z"/><path class="cls-2" d="M258.93,234.9H243.34L232,269.43s-3.76,12.66,3.6,15.13c13.14,4.42,27.2-11.9,26.78-11.78-1.31.37-7.09,7.52-13.59,3.23-2.47-1.63-2.21-2.52-.29-8.88,1.29-4.35,10.48-32.23,10.48-32.23"/><path class="cls-2" d="M268.32,207.6c.49-5.14-2.9-9.3-7.59-9.3s-8.87,4.16-9.37,9.3,2.91,9.3,7.59,9.3,8.89-4.16,9.37-9.3"/><path class="cls-2" d="M185.35,211.3c-.47,1,12.79-19.5,28.07-12.7,10.9,4.84,13.25,36.31-7.79,73.23-10.49,18.42-13.79,5.59-13.79,0S196.94,247,213.42,238c9-4.94.64-5.51-3.29-4-5.37,2.14-23.69,7.89-30.59,23.68s-.59,26.64,6.3,27.95,20.69.67,31.18-14.47,33.85-56.78,10.51-74c-23.8-17.54-41.71,13.08-42.18,14.13"/><path class="cls-2" d="M168.68,234.73H153.1l-11.39,34.54S138,281.92,145.3,284.4c13.14,4.42,27.22-11.91,26.78-11.79-1.29.37-7.08,7.52-13.59,3.23-2.46-1.62-2.19-2.52-.29-8.88,1.29-4.35,10.48-32.23,10.48-32.23"/><path class="cls-2" d="M177.77,207.6c.49-5.14-2.91-9.3-7.59-9.3s-8.89,4.16-9.37,9.3,2.9,9.3,7.6,9.3S177.28,212.74,177.77,207.6Z"/><path class="cls-2" d="M136.31,233.58c-6.27-.51-13.44,8.84-18.44,15.38l4.64-14.06h-15L91,285h15.88l7.51-22c2.28-6.52,7.67-15.68,10.19-17.27,1.17-.73.9-1.31,3,0s5.23,12.36,10.8,7.23c14.78-13.61-2.1-19.4-2.1-19.4"/><path class="cls-2" d="M86.23,234.73H70.64L59.25,269.27s-3.76,12.65,3.6,15.13c13.13,4.42,27.2-11.91,26.77-11.79-1.3.37-7.08,7.52-13.58,3.23-2.47-1.62-2.21-2.52-.31-8.88C77,262.61,86.23,234.73,86.23,234.73Z"/><path class="cls-2" d="M86.54,216.9c-4.68,0-8.08-4.16-7.59-9.3s4.69-9.3,9.37-9.3,8.09,4.16,7.59,9.3S91.22,216.9,86.54,216.9Z"/><path class="cls-3" d="M287,225.9H272.35l-12.89,34.86s-5.6,13.71,2.09,15.63c14.08,3.5,20.54-8.85,26.1-13.33.87-.7-1.79,13.11,10.48,14.15,9.55.8,19.81-14.8,19.37-15s-12.32,10.34-14.86,3.12c-2.68-7.59,8.09-31.91,10.78-39.47H299s-10.3,29.17-13.19,33.54c-7.79,11.84-15.34,11-11.69,1.32C279.49,246.6,287,225.9,287,225.9Z"/><path class="cls-3" d="M332.52,226l-15,50h15s5.86-22.14,10.19-29.61c4.19-7.23,20.09-21,13.5-1s-9.15,30.42-9.15,30.42h15.59s2.42-7.18,5-16.94c3.84-14.83,28.49-40.05,18-10.19-8.82,25.08-7.32,27.06,1.2,27.3,16.62.47,24.33-14.75,23.9-14.42-1.8,1.38-6.63,7.06-12.81,5.87-5-1-2.1-7.24-.9-11.84,1-4,6.37-17,7.8-21.38,2.7-8.23-14.24-14.85-24.59-2.52-7,8.33-9.86,11.32-9.81,11.24.92-2.6,3.46-8.07,3.21-12.34-.3-5.26-13.79-10.86-24.29,1.31-5.4,6.27-7.64,9.3-6.44,7S347.21,226,347.21,226Z"/><path class="cls-3" d="M251.35,225.9H235.76l-11.39,34.53s-3.76,12.66,3.59,15.13c13.15,4.42,27.21-11.9,26.79-11.78-1.31.37-7.09,7.52-13.59,3.23-2.47-1.63-2.21-2.52-.3-8.88,1.3-4.35,10.49-32.23,10.49-32.23"/><path class="cls-3" d="M260.74,198.6c.49-5.14-2.9-9.3-7.59-9.3s-8.87,4.16-9.37,9.3,2.91,9.3,7.59,9.3,8.89-4.16,9.37-9.3"/><path class="cls-3" d="M177.77,202.3c-.47,1,12.78-19.5,28.07-12.7,10.9,4.84,13.25,36.31-7.79,73.23-10.49,18.42-13.79,5.59-13.79,0S189.36,238,205.84,229c9-4.94.63-5.51-3.29-4-5.38,2.14-23.69,7.89-30.59,23.68s-.59,26.64,6.3,27.95,20.69.67,31.18-14.47,33.85-56.78,10.51-74c-23.8-17.54-41.71,13.08-42.18,14.13"/><path class="cls-3" d="M161.1,225.73H145.52l-11.39,34.54s-3.76,12.65,3.59,15.13c13.14,4.42,27.22-11.91,26.78-11.79-1.29.37-7.08,7.52-13.59,3.23-2.46-1.62-2.2-2.52-.29-8.88,1.29-4.35,10.48-32.23,10.48-32.23"/><path class="cls-3" d="M170.18,198.6c.5-5.14-2.9-9.3-7.58-9.3s-8.89,4.16-9.38,9.3,2.91,9.3,7.61,9.3S169.7,203.74,170.18,198.6Z"/><path class="cls-3" d="M128.73,224.58c-6.28-.51-13.45,8.84-18.44,15.38l4.64-14.06h-15L83.44,276H99.33l7.51-22c2.28-6.52,7.66-15.68,10.19-17.27,1.17-.73.9-1.31,3,0s5.23,12.36,10.8,7.23c14.78-13.61-2.1-19.4-2.1-19.4"/><path class="cls-3" d="M78.65,225.73H63.06L51.67,260.27s-3.76,12.65,3.59,15.13C68.4,279.82,82.47,263.49,82,263.61c-1.3.37-7.08,7.52-13.58,3.23-2.47-1.62-2.21-2.52-.31-8.88C69.46,253.61,78.65,225.73,78.65,225.73Z"/><path class="cls-3" d="M79,207.9c-4.68,0-8.08-4.16-7.59-9.3s4.69-9.3,9.37-9.3,8.09,4.16,7.59,9.3S83.64,207.9,79,207.9Z"/></g></g></g></svg>